<?xml version="1.0" encoding="utf-8"?>
<!-- Generator: Adobe Illustrator 26.3.1, SVG Export Plug-In . SVG Version: 6.00 Build 0)  -->
<svg version="1.1" id="Layer_1" xmlns="http://www.w3.org/2000/svg" xmlns:xlink="http://www.w3.org/1999/xlink" x="0px" y="0px"
	 viewBox="0 0 248.1 218.8" style="enable-background:new 0 0 248.1 218.8;" xml:space="preserve">
<style type="text/css">
	.st0{fill:#432918;}
	.st1{fill:#432918;stroke:#432918;stroke-miterlimit:10;}
	.st2{fill:#CEBDB3;}
	.st3{fill:#E8DCD4;}
	.st4{fill:#E0B190;}
	.st5{fill:#EFC4A3;}
	.st6{fill:#1D1D1B;}
	.st7{fill:#BF8864;}
	.st8{fill:#9B9B99;}
	.st9{fill:#EFE9DC;}
	.st10{fill:#B9950B;}
	.st11{fill:#A46F52;}
	.st12{fill:#89510F;}
	.st13{fill:#F9F5EC;}
	.st14{fill:#B2B2B2;}
	.st15{fill:#D8CDC7;}
	.st16{fill:#FFFFFF;}
	.st17{fill:#E8E8E8;}
	.st18{fill:url(#SVGID_1_);}
	.st19{fill:url(#SVGID_00000129200857003407859010000003027455283629997700_);}
	.st20{fill:#F5E6DD;}
	.st21{fill:#8B660C;}
	.st22{fill:#DADADA;}
	.st23{fill:#B3A59C;}
	.st24{fill:#F9F7F2;}
</style>
<g id="Layer_1_00000097461903285794593380000010118150643554601376_">
	<path class="st0" d="M87,105c-17.1-0.1-34.3-0.2-51.4-0.2c-7.5-16.4-6.2-26.3-3.3-32.4c2.6-5.5,6.7-8.3,9.2-17.2
		c1.9-6.8,0.5-8.4,2.2-15.4c1.8-7.6,5.1-12.5,9.5-19.1C60.4,9.9,64.7,3.4,72.9,1.2c5.4-1.5,10.4-0.5,13.6,0.5
		c2.8,5.1,5.4,10.8,7.5,17.1C106.1,55.4,93.7,89.8,87,105L87,105z"/>
	<path class="st1" d="M100.5,105.8l28.8-1.1c5.5-11.5,4.6-19.4,3.9-22.9c-0.5-2.4-1.4-5-1.4-5c-1.8-4.9-4.4-7.2-6.6-15
		c-3.9-14.3,2-16.8-2.4-29.2c-1.1-3.1-4.9-8.6-12.6-19.7c-4.6-6.6-7.1-9.8-11.7-11.4C93.9,0,89.2,0.9,86.4,1.7
		C91.1,36.4,95.8,71.1,100.5,105.8L100.5,105.8z"/>
	<path class="st2" d="M172.9,85.4c-0.1,0-2.1-1.1-2.1-1c-3.7,7-5.6,16-9.2,24.6c-3.9,9.3-7.1,18.1-9.6,26.3
		c-0.1,0.3-0.5,0.4-0.7,0.2c-5.3-3.8-8.8-7.6-11-10.4c-6.9-8.6-7.3-14.8-14.4-24c-3.3-4.3-6.6-7.4-9-9.5c-0.3-0.3-0.8,0-0.8,0.4
		c2.2,18.6,4.3,37.2,6.4,55.8c0,0.1,0.1,0.2,0.2,0.3c7.1,5.9,14.1,11.7,21.2,17.6c7.7,5.8,17.3,6.4,23.4,1.8c4.3-3.2,5.6-7.9,6.1-10
		c0,0,0,0,0-0.1c4.1-10.3,8.2-23,11-37.7c2.3-11.9,3.4-22.8,3.7-32.3c0-0.2-0.1-0.3-0.2-0.4c-1.3-0.9-4.1-2.6-8.1-2.8
		C176.6,84,174.2,84.8,172.9,85.4L172.9,85.4z"/>
	<path class="st3" d="M133.9,217.5l-81.2-1.7c-2.3-1.2-6.1-3.7-9-8.1c-2.7-4.1-3.4-8.1-3.7-11.2c-1.4-12.7,2.3-22.3,4.5-34.4
		c1.7-9.3,0.5-9.4,2-25.4c1-10.7,2.8-26.1,6.8-45c7.8-2.2,14.6-3.3,19.7-3.9c6.5-0.8,16.3-1.9,28.9,0c5.9,0.9,10.8,2.2,14.3,3.3
		C122,133.2,127.9,175.4,133.9,217.5L133.9,217.5z"/>
	<path class="st2" d="M75.7,90.8c-1,5.6-1.9,14.1-0.7,24.2c1.4,12.1,4.5,14.9,5.8,24.9c1.9,13.7-2.5,19.2-5.1,36.6
		c-1.3,8.9-2.4,22-0.4,38.6c8.7,0.8,17.4,1.6,26,2.4c9.6-23.4,10.6-41.7,9.7-54.2c-0.7-8.5-2.2-14.9-6.7-46.2
		c-1.3-8.9-2.2-16.2-2.9-21.1C92.9,94.2,84.3,92.5,75.7,90.8L75.7,90.8z"/>
	<path class="st4" d="M87.6,70.3c-5.4,0-10.1-1.3-12.5-3.3c1.2,2.6,2.8,7.4,2.2,13.3c-0.3,3.3-1.3,6.1-2.2,8.1h0.3
		c3.7,1.7,21.2,9.8,24.7,4.5c0.6-0.8,0.8-2.2,0.3-4.5c-0.8-1.5-1.7-3.4-2.2-5.5c-1.8-7.2,0.8-13.3,2.2-16.1
		C98,68,93.4,70.3,87.6,70.3z"/>
	<path class="st5" d="M110.5,36.1c0.9,2.9,0.2,3.7,0.9,7.5c0.5,3.2,0.9,3.9,0.7,6.4c-0.5,6.3-3.6,10.8-6.3,14.7
		c-6.9,10-11.2,14.7-17.1,14.9c-9.1,0.3-15.8-11-18.4-15.5c-4.3-7.4-4.8-14.1-5-17.2c-0.4-6,0.8-9.1,1.5-10.5c1.3-2.7,3-4.4,3.7-5.1
		c2.8-2.7,4.1-2,8.2-4.8c4.3-2.8,4.1-4.3,7.5-5.6c3.2-1.2,5.9-1,6.8-0.9c1.1,0.1,3.7,0.5,6.3,2.3c1.6,1.1,2,1.9,4.9,5.4
		C109.3,34.3,109.9,34.1,110.5,36.1L110.5,36.1z"/>
	<ellipse class="st6" cx="79.4" cy="44.1" rx="1.8" ry="2.6"/>
	<ellipse class="st6" cx="100.5" cy="44.9" rx="1.8" ry="2.6"/>
	<path class="st7" d="M94.6,43.6c-0.6,2.5-0.6,5.3,1.4,7c0.6,0.6,1.4,1.1,2,2.1c2,3.8-0.7,7-4.7,5.8c-0.9-0.3-1.8-0.7-2.5-1.4
		l0.1-0.2c0.9,0.1,1.8,0.2,2.6,0.2c1.3-0.1,2.8-0.3,3.2-1.7c0.5-1.6-0.4-2.8-1.6-4c-2.2-2.1-1.8-5.5-0.7-8L94.6,43.6L94.6,43.6
		L94.6,43.6z"/>
	<path class="st6" d="M71.2,38.5c1.4-5.3,9-6.1,12.8-2.9l0,0.2c-3.3-0.4-6.8-0.5-9.9,0.9c-1,0.5-1.9,1.1-2.7,1.9L71.2,38.5
		C71.2,38.5,71.2,38.5,71.2,38.5z"/>
	<path class="st6" d="M108.1,38.4c-1.5-1.2-3.3-2-5.1-2.1c-2,0.1-3.5,0.4-5.6,0.3l-0.1-0.2c0.6-1,1.6-1.5,2.7-1.9
		c3.1-0.7,6.6,1.2,8.3,3.8L108.1,38.4L108.1,38.4L108.1,38.4z"/>
	<path class="st6" d="M85.6,62.1c2.5,2.1,4.9,2.8,7.8,2.1c0.9-0.2,1.8-0.6,2.8-1.2C94.5,68,86.3,67.3,85.6,62.1L85.6,62.1z"/>
	<path class="st5" d="M86.5,6.4c4.8,4.2,6.9,10.9,7.5,17.1l-0.1,0C92.2,17.6,90,11.4,86.5,6.4L86.5,6.4L86.5,6.4z"/>
	<path class="st8" d="M193,217.5H76.2c-2.2,0-3.9-0.1-3.5-0.2l18.6-3.9c0.3-0.1,1.8-0.1,3.5-0.1h116.8c2.2,0,3.9,0.1,3.5,0.2
		l-18.6,3.9C196.1,217.5,194.7,217.5,193,217.5z"/>
	<path class="st9" d="M71.7,86.8c3.4-0.6,6.5-0.2,9.4,1.4c1.3,0.9,2.4,2.3,3.8,3c1.4,0.7,3,0.8,4.6,0.6c2.6-0.4,5.8-0.3,8-0.7
		c0.3-0.1,0.6-0.1,0.7,0c0.8,0.2,1.1-1.2,1.4-2.1l0.5-2.4l0.6-0.2c3.5,2.4,4.2,7.8,0.2,10.2c-3.9,2.3-8.8,0.7-12.1-1.5
		c-1.4-1-2.8-1.7-4.4-2c-2.3-0.4-5.1,0.5-7.2-0.8c-2.3-1.1-4.2-2.5-5.6-4.9L71.7,86.8L71.7,86.8L71.7,86.8z"/>
	<path class="st10" d="M73.2,84.4c-4.4,3.1,2.4,9.3,4.9,11.6c3.6,3.3,8.4,5.4,13.3,5.4c4.5,0.1,10.4-0.4,12.4-5.1
		c0.9-2.1,0.7-4.7-0.4-6.8c-1-2.2-2.9-3.8-5.1-5l0-0.1c4.8,1.6,8.4,7.3,6.4,12.3c-3.3,7.4-14.4,5.8-20.7,3.6
		c-4.7-1.8-8.9-4.9-11.6-9.2c-1.3-2-2.2-5.6,0.6-6.7L73.2,84.4L73.2,84.4L73.2,84.4z"/>
	<path class="st10" d="M73.3,84.4c-3.9,4.4,2,11.9,4.7,15.7c2.6,3.6,6,7,10.4,8.2c4.1,1,9.2,0.9,12.8-1.2c7.2-5,5.3-17.5-1.4-22.6
		l0.1-0.2c8.8,4.1,11.2,19.1,2.2,24.4c-10.1,4.8-23-2.5-28.3-11.3c-2.2-3.6-5.1-10-0.7-13.1L73.3,84.4L73.3,84.4L73.3,84.4z"/>
	<path class="st11" d="M98.4,73.4c-0.8,2.3-1.2,4.4-0.6,6.7c0.5,2.1,1.3,4.9,1.7,7C95.9,83.8,93.6,76.7,98.4,73.4L98.4,73.4z"/>
	<path class="st12" d="M36.7,107.1c-6.2-13.3-9.6-27.1,0.2-39.5c3-4.5,5-9.6,5.7-14.9c0.3-2.7,0.2-5.6,0.6-8.3
		c0.8-5.6,3-11,5.8-15.9c2.9-4.8,5.9-9.3,9.2-13.9c3.4-4.5,7.3-9.1,12.8-11.2c5.4-2.1,11.4-1.7,16.7,0.4l-0.1,0.3
		c-5.3-1.3-11-1-15.7,1.2c-7.2,3.5-11.3,11.4-15.8,17.8c-4.6,6.6-9.2,13.5-10.6,21.6c-0.5,2.7-0.4,5.4-0.8,8.2
		c-0.8,5.6-3.1,11-6.4,15.6C28.4,80.5,31.4,93.9,37,107L36.7,107.1L36.7,107.1L36.7,107.1z"/>
	<g>
		<path class="st5" d="M113.7,204.2c0.7-0.4,1.1-1.6,0.2-5.9c-1.1-1.1-2.9-2.7-5.6-3.8c-3.1-1.3-5.7-1.4-7.3-1.5
			c-6.1-0.2-8.2,2-14.4,1.4c-1.4-0.1-2.6-0.4-3.3-0.5c-4.1-2.2-8.2-4.3-12.4-6.5c-0.3,1.7-1.4,5.7-5,8.7c-1.1,0.9-2.2,1.5-3.1,1.9
			c4.3,1.7,9.2,4,14.2,7.1c2.2,1.3,4.2,2.7,6,4c2.5,1.2,4.6,1.6,5.9,1.7c2.6,0.2,3.2-0.5,7.2-0.4c2.8,0,4.1,0,5.5,0.7
			c2.1,1.1,2.7,2.8,3.9,2.6c0.9-0.2,1.4-1.4,1.5-2.3c0.1-2.1-2.3-3.6-3.2-4.2c-1.7-1.1-3.5-1.4-4.8-1.4c0.9-0.2,3.6-0.8,6.6,0.4
			c3.3,1.3,4.9,3.9,5.4,4.7l1.7-4.1c-1-1.1-3.1-3.1-6.3-4.4c-2.8-1.1-5.3-1.3-6.8-1.3c1.8-0.5,4.3-0.9,7-0.2
			C110.5,202,112.4,204.8,113.7,204.2L113.7,204.2z"/>
		<path class="st7" d="M98.8,197.7c3.9-1.8,8.5-1.1,12.2,0.8c1.2,0.6,2.5,1.4,3.4,2.7l-0.1,0.2c-4.9-2.1-10.2-3.2-15.5-3.5
			L98.8,197.7L98.8,197.7L98.8,197.7z"/>
		<path class="st7" d="M93.2,210.5c3.1-2.4,8.2-1.1,9.8,2.4l-0.1,0.2c-3-1.5-6.3-2.2-9.7-2.4L93.2,210.5L93.2,210.5L93.2,210.5z"/>
		<path class="st7" d="M99.3,201.5c4-3.3,11.2-1,12.9,3.8l-0.1,0.1c-2.6-2.2-6-3.5-9.3-3.9c-1.1-0.1-2.3-0.1-3.4,0.1L99.3,201.5
			L99.3,201.5L99.3,201.5z"/>
		<path class="st7" d="M98.8,205.5c3.1-1.9,7-1,9.7,1.2c0.9,0.7,1.7,1.7,2,2.9l-0.1,0.1c-3.3-2.5-7.4-3.9-11.5-4.1L98.8,205.5
			L98.8,205.5L98.8,205.5z"/>
	</g>
	<g>
		<path class="st9" d="M35,165.4c4.2-7.9,8.5-15.9,12.7-23.9c2-5.5,3.9-12.3,5.1-20.1c1.8-12,1.3-22.3,0.3-30
			c-3.1,2.2-6.2,4.6-9.3,7.2c-25.1,21.5-36.5,49.4-42,69.8c-0.4,1.1-1.8,5.7,0.5,10.8c2.5,5.8,7.9,7.7,8.8,8.1
			c9,4.4,19.9,9,32.4,12.9c11.7,3.6,22.5,5.9,31.9,7.4c1.2-1.2,3.4-3.8,4.7-7.8c1.3-4.4,0.7-8.1,0.3-9.7
			C65.2,181.8,50.1,173.6,35,165.4z"/>
		<path class="st3" d="M53.8,97.9c-0.1,2.3-0.4,5.8-1.4,9.9c-3.5,13.5-11.5,17.9-23.8,33.6c-9.8,12.4-19.3,24.7-15.4,34.7
			c1.1,2.7,2.8,4.3,4.8,6.3c8.3,8.1,18.9,7.9,27.7,9.9c8.1,1.8,19.2,5.3,31.9,12.5c-0.4-2.1,3.6-8.3,3.2-10.4
			c-5-4.2-16.8-5.3-26.7-8.8c-14.3-5-21.9-2.2-25.6-7.8c-6-9.1,6.2-27.1,8.4-30.5c6.6-9.8,11-10.2,15.1-17.8
			C55.7,122.7,57.6,112.7,53.8,97.9L53.8,97.9z"/>
		<path class="st13" d="M73.9,209.9c-0.3-1.5-0.1-2.6,0.1-3.5c0.3-0.9,0.5-1.8,1.3-2.4c0.8-0.6,2.1-1,2.7-1.8c1-1.2,0.3-3,0-4.4
			c-0.1-1.2-0.4-2.6-0.4-3.7c0.3-2,0.6-3.3,1-5.6l0.5-0.3c1.4,0.3,2.5,1.1,3.4,2c2.2,2.4,1.9,6.1,0.2,8.8c-0.9,1.3-2.7,2.4-2.9,4.1
			c-0.3,1.5,0.5,3.7-0.7,5c-1.2,1.4-2.5,2.3-4.7,2.4L73.9,209.9L73.9,209.9L73.9,209.9z"/>
	</g>
	<g>
		<path class="st14" d="M225.2,217.5H108.4c-2.2,0-3.9-2.1-3.5-4.2l18.6-90.9c0.3-1.6,1.8-2.8,3.5-2.8h116.8c2.2,0,3.9,2.1,3.5,4.2
			l-18.6,90.9C228.4,216.3,226.9,217.5,225.2,217.5L225.2,217.5z"/>
		<path class="st15" d="M107.9,203.5c1-6.7,2.1-13.4,3.1-20.2l3.3-20.1c1.1-6.7,2.3-13.4,3.5-20.1l3.5-20.1v-0.1l0-0.1
			c0.5-1.5,1.6-2.8,3-3.6c1.4-0.8,3-1,4.6-0.7l-0.2,0l19.3,0.1l9.6,0l9.6,0.1l19.3,0.3c6.4,0.2,12.9,0.2,19.3,0.5
			c-6.4,0.2-12.9,0.3-19.3,0.5l-19.3,0.3l-9.6,0.1l-9.6,0l-19.3,0.1h-0.1l-0.1,0c-1.1-0.2-2.3,0-3.2,0.5c-1,0.5-1.7,1.4-2.1,2.5
			l0-0.2l-3.7,20.1c-1.2,6.7-2.4,13.4-3.8,20.1l-3.9,20C110.7,190.2,109.4,196.8,107.9,203.5L107.9,203.5z"/>
		<path class="st16" d="M182.2,165.4c-3,0-3.4-5-6.5-5c-1.9,0.3-3.4,2.4-4.1,4.2c-0.8,2.1,0.1,4.1,0.8,6c1.7,4.1,3.8,8,6,11.7
			c-2.8-3.5-5.1-7.3-6.9-11.4c-0.9-2-1.8-4.6-0.9-6.7c0.9-2.1,2.5-4.4,5-4.6c2.6,0.1,3.4,2.9,4.8,4.6
			C180.8,164.8,181.4,165.3,182.2,165.4L182.2,165.4L182.2,165.4z"/>
		<path class="st17" d="M182.2,165.4c-0.8,0-0.9-1.8-2.7-3.5c-0.6-0.5-1.9-1.9-3.6-1.8c-2.3,0-4.5,2.8-5,5.4c-0.2,1-0.4,2.7,2.5,8.5
			c1.1,2.2,2.7,5.1,5,8.5c4-3.3,6.7-6.5,8.5-8.8c2.4-3.3,3.3-5.3,3.4-7.6c0-0.7,0.1-4-1.8-4.9c-1.2-0.6-2.9,0-3.9,0.8
			C182.9,163.2,183,165.3,182.2,165.4L182.2,165.4z"/>
	</g>
	<path class="st5" d="M203,65.7c0.8-0.6,1.2-1.6,0.9-2.5c-0.4-1-1.5-1.5-2.5-1.1c-3.7,3.2-5.8,4.6-6.1,4.3c-0.5-0.5,1.7-3.7,6.4-9.8
		c0.7-1.3,0.3-2.8-0.8-3.6c-1.1-0.7-2.7-0.5-3.5,0.6c-4.1,6.3-6.3,9.4-6.6,9.2c-0.3-0.2,1.5-4.1,5.5-11.8c0.4-1.5-0.3-3-1.6-3.4
		c-1.2-0.4-2.6,0.2-3.3,1.5c-0.4,1.5-1.1,3.7-2.2,6.1c-1,2.4-2.1,4.9-2.9,4.8c-0.7-0.1-0.7-2.4-0.8-3.9c-0.2-3.3,0.3-6,0.7-7.8
		c-0.1-0.1-0.6-1.4-1.6-1.6c-1.2-0.2-2.7,0.9-3,2.9c-0.4,2.3-0.7,4.7-1,7.1c-0.4,2.9-0.8,5.8-1.1,8.7c-0.1-0.3-0.2-0.8-0.4-1.3
		c-0.4-1-0.9-1.4-1.4-2.1c-1-1.2-0.5-1.5-1.6-3.3c-0.8-1.3-1.3-2.1-2.1-2.3c-1.5-0.4-3,1.3-3.2,1.6c1.5,2.7,2.1,4.9,2.4,6.6
		c0.5,3.5-0.5,4.2,0.3,7.5c0.7,3,1.8,3.8,1.5,6c-0.2,1.8-1.2,3.1-2,4l15.8,6.2c-0.2-1.2-0.3-2.9,0.5-4.6c0.9-1.9,2.2-2.3,4.2-4.1
		c2.4-2.2,2.2-3.2,6.1-8.9C200,69.6,201.3,67.8,203,65.7L203,65.7z"/>
	<path class="st9" d="M191,91.6c-2.4,0.2-3.9,0-5.3-1.3c-0.4-0.4-0.6-1.1-0.9-1.7c-0.8-2.2-2.8-2-4.6-1.6c-5.1-0.1-9.9-0.9-14.6-3.3
		l-0.1-0.6c2.9-2.7,7.2-3.6,11-2.7c1.8,0.6,3.7,1.2,5.2,2.4c0.9,0.9,1.6,2.2,2.8,2.7c1.1,0.5,2.9-0.1,4,0.4c0.6,0.2,1.1,0.7,1.5,1.1
		c0.8,1,1.4,2.2,1.3,4.1L191,91.6L191,91.6L191,91.6z"/>
	<path class="st7" d="M181.9,75c-0.1-2.2,0.3-4-0.5-5.9c-0.3-0.6-0.6-0.7-1.3-1.4c-1.6-1.4-2.8-3.4-2.9-5.6l0.2-0.1
		c1.3,2.4,3.4,3.8,5.3,5.5c0.8,1.2,0.9,2.6,0.6,3.9c-0.2,1.3-0.8,2.5-1.4,3.7L181.9,75L181.9,75L181.9,75z"/>
	<path class="st0" d="M188.8,83.7c2.1-3.3,4.3-5.9,6.1-9.2c1.9-3.4,4.5-6.6,8-8.5l0.1,0.1c-2.5,2.8-4.6,6-6.4,9.4
		c-1.9,3.3-4.6,6.1-7.7,8.4L188.8,83.7L188.8,83.7L188.8,83.7z"/>
	<path class="st7" d="M193.7,66.8c1.1-1.8,2.2-3,2.8-4.8c0.6-2.2,2.4-4.5,4.8-4.9l0.1,0.2c-0.8,0.7-1.4,1.6-1.9,2.5
		c-1.1,1.8-1.2,4.2-3,5.6c-0.8,0.7-1.8,1.3-2.7,1.7L193.7,66.8L193.7,66.8L193.7,66.8z"/>
	<path class="st7" d="M190.5,62.7c1.4-3.2,1.1-6.2,2.7-9.2c0.6-1,1.5-2,2.7-2.5l0.2,0.1c-2,2.9-1.6,6.4-3.2,9.3
		c-0.6,1-1.3,1.8-2.2,2.5L190.5,62.7L190.5,62.7L190.5,62.7z"/>
	<path class="st7" d="M184.3,61.4c-0.2-2,0-3.5-0.5-5.1c-0.7-2-0.5-4.8,1.3-6.3l0.2,0c-0.2,1-0.3,1.9-0.2,2.9c0.1,2,1.3,3.9,0.6,5.9
		c-0.2,1-0.7,1.9-1.2,2.7L184.3,61.4L184.3,61.4L184.3,61.4z"/>
	<path class="st7" d="M92.9,20c-2.4,0-4.8,0.5-6.7,1.8c-0.9,0.6-1.6,1.4-2.3,2.4c-0.7,1-1.6,2.1-2.7,2.9c-1.1,0.8-2.2,1.4-3.5,1.8
		c-1.3,0.3-2.4,0.5-3.4,0.9c-2.1,0.9-4.1,2.3-5.9,3.9c1.2-2.2,3-4,5.2-5.3c1.1-0.7,2.5-1,3.5-1.3c1.1-0.4,2-0.9,2.9-1.6
		c0.9-0.6,1.6-1.4,2.4-2.4c0.8-1,1.8-2,3-2.6C87.8,19.2,90.6,19.3,92.9,20L92.9,20z"/>
	
		<radialGradient id="SVGID_1_" cx="74.22" cy="167.19" r="6.45" gradientTransform="matrix(1 0 0 -1 0 219.89)" gradientUnits="userSpaceOnUse">
		<stop  offset="0" style="stop-color:#EF7925"/>
		<stop  offset="1" style="stop-color:#EFC4A3"/>
	</radialGradient>
	<circle class="st18" cx="74.2" cy="52.7" r="6.4"/>
	
		<radialGradient id="SVGID_00000083076819598413535250000018040177851411162810_" cx="106.74" cy="167.83" r="4.6" gradientTransform="matrix(1 0 0 -1 0 219.89)" gradientUnits="userSpaceOnUse">
		<stop  offset="0" style="stop-color:#EF7925"/>
		<stop  offset="1" style="stop-color:#EFC4A3"/>
	</radialGradient>
	<circle style="fill:url(#SVGID_00000083076819598413535250000018040177851411162810_);" cx="106.7" cy="52.1" r="4.6"/>
	<path class="st20" d="M66.5,37c-0.6,11.9,2.3,23.6,8.2,33.9C66.4,62.1,63.1,48.6,66.5,37C66.5,37,66.5,37,66.5,37z"/>
	<path class="st12" d="M127.6,101.5c1-4.9,1.4-9.8,1-14.7c-0.2-2.4-0.7-4.8-1.4-7.1c-0.7-2.3-1.8-4.4-3-6.6
		c-0.6-1.1-1.2-2.2-1.7-3.4c-0.5-1.2-1-2.4-1.4-3.6c-0.8-2.5-1.4-4.9-1.8-7.5c-0.4-2.5-0.5-5.2-0.3-7.7c0.2-2.6,0.5-5,0.5-7.3
		c0-2.3-0.3-4.7-0.9-7l-0.5-1.7c-0.2-0.6-0.3-1-0.6-1.6c-0.5-1.1-1.1-2.1-1.6-3.2c-2.3-4.3-5-8.5-7.5-12.8c-1.3-2.1-2.5-4.3-3.8-6.3
		c-1.3-2.1-2.7-4.1-4.5-5.6C98.3,4,96,3.1,93.6,2.8c-2.4-0.3-4.9-0.1-7.3,0.5c2.3-0.9,4.8-1.5,7.4-1.3c2.5,0.1,5.1,0.9,7.3,2.4
		c2.2,1.5,3.8,3.6,5.2,5.6c1.5,2,2.8,4.1,4.2,6.2c2.8,4.1,5.4,8.3,8,12.6c0.6,1.1,1.2,2.2,1.8,3.4c0.3,0.6,0.6,1.3,0.7,1.9l0.6,1.8
		c0.7,2.5,1.1,5.1,1.1,7.8c0,2.6-0.4,5.1-0.6,7.5c-0.2,2.4-0.1,4.8,0.2,7.1c0.3,2.4,0.8,4.8,1.5,7.1c0.7,2.3,1.6,4.5,2.7,6.7
		s2.2,4.6,2.8,7.1c0.6,2.5,0.9,5,0.9,7.6C130.1,91.8,129.3,96.9,127.6,101.5L127.6,101.5z"/>
	<path class="st21" d="M92.9,20c-6.8-4.2-10.2-2.4-16,2c-1.7,1.2-3.5,2.2-5.4,3.2c-1.7,0.9-3.7,1.4-5.1,2.6
		c-7.1,6.4-7.9,18-5.2,26.7c1.5,3.6,3.4,7.5,4.7,11.1c1.4,3.9,3.4,7.7,3.2,12c-0.3,4.3-2.5,8.2-5.5,10.9c3.8-4.8,5.4-10.9,2.6-16.5
		c-1.4-3.2-3.5-7.8-5-11c-0.8-1.8-2-3.8-2.7-5.6c-3.7-10.2-1.8-26.6,9.2-31.4c2.9-1,5.4-2.2,8.1-3.8c1.8-1,3.4-2.1,5.4-3
		C85.3,15.6,89.9,17.2,92.9,20L92.9,20L92.9,20z"/>
	<path class="st21" d="M93.5,20.1c2-4.9,5.2-4.4,8.8-1.3c2.7,2.4,5.4,4.8,7.8,7.6c6.8,8.3,7.8,21.5,5.1,31.6
		c-1,3.5-2.3,6.9-3.2,10.2c-1.6,6.9-0.2,14.2,2.2,20.8c-3.3-6.4-5.1-13.9-3.8-21.1c0.7-3.6,2.1-7,2.9-10.4c2.4-9.7,1.6-22-4.5-30.1
		c-2.1-2.8-4.7-5.4-7.2-7.9C98.5,16.3,95.9,15.8,93.5,20.1L93.5,20.1L93.5,20.1z"/>
	<path class="st22" d="M79.1,44.7c0.1,0.2,0.6,1.1,0.3,1.3c-0.2,0.1-0.9-0.2-1.1-0.8c-0.2-0.5,0-1.1,0.2-1.2
		C78.8,44,79,44.4,79.1,44.7L79.1,44.7z"/>
	<path class="st22" d="M100.2,45.4c0.3,0.9,0.3,1,0.2,1c-0.1,0.1-0.7-0.1-0.9-0.6c-0.2-0.5,0.2-1.1,0.4-1.1
		C100,44.7,100,44.8,100.2,45.4z"/>
	<path class="st23" d="M57.6,118c1.6,8.1-0.1,16.4-3.3,23.8c-1.1,2.5-2.4,4.9-3.8,7.1l0.4-3.6c2.4,8.2,0.1,18.2-7,23.2l-0.4-0.3
		c4-6.3,5.2-14.4,2.8-21.5l-0.1-0.2l0.1-0.2c2.5-4.4,4.8-9,6.6-13.8c1.8-4.8,3.2-9.7,4.2-14.7L57.6,118L57.6,118L57.6,118z"/>
	<path class="st24" d="M70.9,89.5c-4.6,0.8-8.9,2.1-12.9,4.1c-4,2-7.5,4.5-10.7,7.5c-0.8,0.7-1.5,1.5-2.3,2.3l-1.1,1.2l-1.1,1.2
		c-0.7,0.8-1.4,1.7-2.1,2.6l-2,2.7c-2.7,3.6-5.2,7.3-7.7,11.1c-5,7.6-9.8,15.3-14.5,23c-4.8,7.7-9.6,15.5-14.7,23.2
		c2.9-8.8,6.5-17.2,10.6-25.5c4.1-8.2,8.6-16.3,13.7-24.1c2.6-3.9,5.2-7.7,8.2-11.3l2.3-2.7c0.8-0.9,1.6-1.8,2.4-2.6l1.3-1.3
		c0.4-0.4,0.8-0.8,1.3-1.2c0.9-0.8,1.8-1.6,2.8-2.3c3.8-3,8.1-5.3,12.7-6.7C61.5,89.5,66.3,88.9,70.9,89.5L70.9,89.5z"/>
	<path class="st23" d="M102.7,87.5c4.1,0.5,8.1,1.6,11.9,3.1c1.9,0.7,3.9,1.6,5.6,2.8c1.7,1.2,3.2,2.7,4.4,4.3
		c1.2,1.6,2.2,3.2,3.2,4.8c0.9,1.7,1.9,3.3,2.7,5c1.7,3.4,3.1,6.8,4.2,10.4c-2.2-3.1-4.2-6.3-6.3-9.5l-3.1-4.7
		c-1-1.6-2.1-3.1-3.2-4.5c-1.1-1.5-2.3-2.8-3.8-3.9c-1.4-1.1-3.1-2-4.8-2.9C110,90.7,106.4,89.1,102.7,87.5L102.7,87.5z"/>
	<path class="st7" d="M93.5,20.1c2,0.3,4,1,5.7,2.2c0.9,0.6,1.7,1.2,2.4,2.1c0.7,0.8,1.2,1.7,1.8,2.5c1.1,1.6,2.3,3.2,3.7,4.6
		c0.7,0.7,1.4,1.4,2.1,2.2c0.8,0.8,1.4,2,1.6,3.1c0.1,0.6,0.2,1.2,0.2,1.7c0,0.5,0,1,0,1.5c0,1,0.2,2,0.3,2.9c0.1,1,0.3,2,0.4,2.9
		l0.3,1.5c0.1,0.5,0.1,1.1,0.2,1.6c0.1,2.1-0.3,4.2-1,6.2c-0.7,1.9-1.5,3.8-2.6,5.5c1.2-3.8,2.4-7.8,2-11.6
		c-0.1-0.9-0.4-1.8-0.6-2.8c-0.2-1-0.4-2-0.6-3c-0.2-1-0.3-2-0.3-3.1c0-0.5-0.1-1-0.1-1.5c0-0.5,0-0.9-0.1-1.3
		c-0.2-0.9-0.5-1.6-1.1-2.2c-0.6-0.7-1.4-1.4-2-2.2c-1.3-1.6-2.6-3.2-3.6-5c-0.5-0.9-1-1.8-1.5-2.5c-0.5-0.8-1.2-1.5-2-2.1
		C97.1,21.7,95.4,20.8,93.5,20.1L93.5,20.1z"/>
</g>
<g id="Layer_2_00000064315401787346094580000006298126384813933696_">
	<path class="st0" d="M222.7,217.5c-20.4,0.6-43.4,0.8-63.8,0.9c-35.4,0.7-71,1-106.3-2.5c28.3,1.1,56.7,1.6,85,0.9
		C165.5,216.3,194.8,216.8,222.7,217.5L222.7,217.5L222.7,217.5z"/>
	<path class="st0" d="M71.5,88.6c-20.5-0.1-30.2,12-41,27.5c-5.1,7.1-10,14.3-14.4,21.9C11.9,145.3,7.3,153,4.5,161
		c-2.7,7.4-2.1,16.3,3.6,22c2.7,2.8,6.4,4.8,10.3,6.7c3.9,1.9,7.9,3.7,11.9,5.3c8.1,3.2,16.5,5.9,24.9,8c5,1.2,10,2.7,15.1,2.7
		c1-0.1,2-0.1,2.9,0.6c1.1,0.8,0.9,2.3,1.2,3.2c0.1,0.3,0.5,0.5,1,0.4c1-0.1,2-0.7,2.9-1.2l0.2,0.2c-1.2,0.7-3.5,2.4-4.6,0.8
		c-0.5-1-0.2-2.2-1.2-2.9c-1.3-0.9-3.2,0-4.8-0.3c-15.4-1.6-30.3-6.1-44.7-11.8c-10.3-4.4-21.5-9-23-21.6c-1.5-9,2.8-17.5,6.9-25.2
		c6.2-11.7,13.4-22.8,21.5-33.3c7.8-10.4,16.4-21.9,29.7-25.1c4.3-1.1,8.7-1.5,13.1-1.2L71.5,88.6L71.5,88.6L71.5,88.6z"/>
	<path class="st0" d="M79.8,76.1c10.1,5.8,15.1,0.9,22-6.4c3.7-4,6.6-8.4,9.5-13.1l0.2,0.1c-1.3,3.5-2.9,6.8-4.9,9.9
		c-2,3.1-4.5,5.9-7.1,8.4c-2.6,2.5-5.8,5-9.6,5.2c-3.8,0.3-7.4-1.4-10.1-3.8L79.8,76.1L79.8,76.1L79.8,76.1z"/>
	<path class="st0" d="M74.3,86.4c2.6-0.4,5.4,0,7.7,1.7c1.4,1.1,2.6,2.5,4.4,2.7c1.7-0.1,3.8-0.6,5.6-0.5c2.4-0.2,5.2,1.1,6.5-1.2
		c0.6-1,0.9-2.2,1.2-3.5c0.2,1.3,0.2,2.6-0.3,4c-0.5,1.4-2.1,2.5-3.5,2.4c-2.6,0.1-5.1,0.1-7.5,0.5c-0.6,0.1-1.3,0.2-2.2,0.2
		c-2.2-0.2-3.7-1.9-5.2-3.4C79.3,87.7,76.9,86.8,74.3,86.4L74.3,86.4L74.3,86.4z"/>
	<path class="st0" d="M55.8,106.4c0.9,4.7,1.3,9.4,1,14.2c-0.3,4.8-1.3,9.6-3.4,14c-0.5,1.1-1.1,2.2-1.7,3.2l-1.8,3.1l-3.6,6.1
		l-3.7,6.1l-1.8,3c-0.3,0.5-0.6,1-1,1.5l-1.1,1.4c-0.7,0.9-1.3,1.8-1.8,2.8c-0.5,0.9-0.8,1.8-0.7,2.6c0.1,0.8,0.4,1.3,1.2,1.8
		c0.8,0.5,1.9,0.8,3,1.2c2.2,0.7,4.5,1.5,6.8,2.4c2.2,0.9,4.4,2,6.5,3.1c4.2,2.3,8.1,5.1,12,7.6c4,2.6,8,5.1,11.8,7.9
		c-4.2-2.3-8.3-4.4-12.5-6.6c-4.2-2.3-8.2-4.8-12.3-6.9c-2.1-1-4.2-1.9-6.4-2.8s-4.4-1.4-6.7-2.1c-1.2-0.4-2.3-0.7-3.6-1.4
		c-0.6-0.4-1.3-0.9-1.8-1.6s-0.8-1.5-0.9-2.3c-0.2-1.6,0.4-3.1,1-4.2c0.6-1.2,1.3-2.2,2-3.2l1.1-1.4c0.3-0.4,0.6-1,0.9-1.5l1.8-3
		l3.7-6l3.8-6l1.9-3c0.6-1,1.2-1.9,1.8-2.9c2.1-4.1,3.4-8.5,4-13.2C56,115.8,56,111.1,55.8,106.4L55.8,106.4z"/>
	<path class="st0" d="M35.5,105.1c-6.2-13.3-9.6-27.1,0.2-39.5c3-4.5,5-9.6,5.7-14.9c0.3-2.7,0.2-5.6,0.6-8.3c0.8-5.6,3-11,5.8-15.9
		c2.9-4.8,5.9-9.3,9.2-13.9c3.4-4.5,7.3-9.1,12.8-11.2c5.4-2.1,11.4-1.7,16.7,0.4l-0.1,0.3c-5.3-1.3-11-1.1-15.7,1.2
		c-7.2,3.5-11.3,11.4-15.8,17.8c-4.6,6.6-9.2,13.5-10.6,21.6c-0.5,2.7-0.4,5.4-0.8,8.2c-0.8,5.6-3.1,11-6.4,15.6
		c-9.9,11.9-6.9,25.3-1.3,38.5L35.5,105.1L35.5,105.1L35.5,105.1z"/>
	<path class="st0" d="M39.3,199c1.4,0.9,2.6,2,3.7,3.1c1.1,1.1,2.1,2.4,3,3.6c0.9,1.3,1.7,2.6,2.4,4c0.7,1.4,1.3,2.9,1.7,4.5
		c-1.4-0.9-2.6-2-3.7-3.1c-1.1-1.1-2.1-2.4-3-3.6c-0.9-1.3-1.7-2.6-2.4-4C40.3,202.1,39.7,200.6,39.3,199L39.3,199z"/>
	<path class="st0" d="M45.7,145.2c3.5,5.6,3.4,13.3,0.1,19c-1.2,1.9-2.5,3.5-4,5.1c0.3-2.2,1.2-4.2,1.8-6.1
		C45.7,157.4,45.8,151.4,45.7,145.2L45.7,145.2L45.7,145.2z"/>
	<path class="st0" d="M75.6,203.6c0.8-0.3,1.5-0.9,1.8-1.6c0.4-0.7,0.2-1.6,0-2.4c-0.4-1.6-0.9-3.3-1-5.1c-1-5,3.1-11,7.6-5.4
		c2.2,2.9,2,7.4-0.5,10c-2,1.6-3.4,3.8-3.6,6.4c-0.1-1.7,0.4-3.5,1.4-4.9c1-1.4,2.4-2.3,2.9-4c1-3,0.1-6.9-2.8-8.4
		c-1.5-0.9-2.8,0.3-3.5,1.6c-0.8,1.4-0.9,3.1-0.8,4.7c0.1,1.7,0.4,3.3,0.8,5C78.4,201.4,77.5,203.1,75.6,203.6L75.6,203.6
		L75.6,203.6z"/>
	<path class="st0" d="M71.5,88.4c1.8,2,4.1,3.6,6.8,4c2.7,0.2,5.6,0.2,8.1,1.7c1.6,0.9,2.8,2.2,4.6,2.8c3.3,1.2,7.1,1.3,10.2-0.5
		c1.5-0.8,2.8-2.1,3.1-3.9c0.3-1.7-0.4-3.5-1.5-5c1.3,1.3,2.2,3.1,2,5c-0.5,3.9-5,5.9-8.6,6.2c-1.9,0.1-3.8-0.2-5.5-0.9
		c-1.8-0.6-3.2-2-4.7-2.9c-2.3-1.4-5.1-1.5-7.7-1.8C75.4,92.5,73.1,90.7,71.5,88.4C71.5,88.4,71.5,88.4,71.5,88.4z"/>
	<path class="st0" d="M70.9,89.5c2.2,6.9,6.5,13.2,12.6,17.1c4,2.5,8.7,4.6,13.4,4c7.2-1,13.1-8.2,10.8-15.6
		c2.8,7.4-3.2,15.2-10.7,16.3c-5,0.7-9.8-1.5-13.9-4.1C76.9,103.2,72.7,96.5,70.9,89.5C70.9,89.5,70.9,89.5,70.9,89.5z"/>
	<path class="st0" d="M72.2,90.4c1.8,2.9,4.2,5.4,7,7.4c1.4,1,2.9,1.7,4.5,2.4c1.6,0.6,3.2,1.1,4.8,1.5c3.3,0.6,6.8,0.8,10,0
		c1.6-0.4,3.2-1,4.4-2.2c1.2-1.2,1.8-2.8,2.2-4.4v0c0.3-1.4,0.2-3-0.3-4.4c0.6,1.4,0.7,2.9,0.6,4.4v0c-0.1,0.8-0.4,1.7-0.7,2.5
		c-0.4,0.8-0.8,1.6-1.4,2.2c-1.2,1.3-2.9,2-4.6,2.5c-3.4,0.8-7,0.8-10.3,0.1c-1.7-0.4-3.3-0.9-5-1.6c-1.6-0.7-3.1-1.5-4.5-2.6
		C76.1,96.1,73.8,93.4,72.2,90.4L72.2,90.4z"/>
	<path class="st0" d="M86.1,193.6c3.8,0.2,7.6,0,11.2-1.1c3.8-1.3,8.1-1,11,2c-3.3-2.2-7-2.3-10.7-1
		C93.9,194.5,89.9,194.6,86.1,193.6L86.1,193.6L86.1,193.6z"/>
	<path class="st0" d="M81.1,207.7c3.6,1.1,7.1,2.1,10.8,2c3.8-0.3,8.1,0.8,11,3.3c-3.7-1.1-7.1-1.6-10.9-1.3
		C88,211.8,84.1,210.3,81.1,207.7L81.1,207.7z"/>
	<path class="st0" d="M99.3,84c1.1,0.1,2.2,0.3,3.2,0.9c0.5,0.3,1,0.7,1.4,1.1c0.4,0.5,0.7,0.9,1.1,1.2c0.7,0.6,1.7,0.8,2.7,0.7
		c0.5,0,1-0.1,1.7-0.2c0.6,0,1.2,0,1.8,0.2c2.4,0.5,4.4,1.7,6.3,2.9c1.9,1.3,3.6,2.8,5.3,4.2c1.7,1.5,3.2,3.2,4.6,5.1
		c1.3,1.9,2.5,3.8,3.6,5.8c2.1,4,3.6,8.3,4.3,12.7c-1.5-4.2-3.3-8.2-5.6-11.9c-2.3-3.7-4.9-7.3-8.1-10.1c-1.6-1.5-3.3-2.9-5.1-4.2
		c-1.7-1.3-3.6-2.4-5.6-3c-0.5-0.1-1-0.2-1.5-0.2c-0.5,0-1,0-1.7,0c-1.2,0-2.5-0.4-3.4-1.3c-0.5-0.5-0.7-1-1-1.4
		c-0.3-0.4-0.7-0.8-1.1-1.1C101.4,84.7,100.4,84.3,99.3,84L99.3,84z"/>
	<path class="st0" d="M117.8,107.1c1.6,2.6,2.6,5.5,3.1,8.5c0.5,3,0.5,6.1-0.1,9.1c-0.1-3-0.3-6-0.9-8.9
		C119.4,112.8,118.7,110,117.8,107.1z"/>
	<path class="st0" d="M110.2,217.1c-2.2,0.9-4.8-0.4-5.2-2.8c3.7-26.1,7.5-52.2,11.8-78.2c0.6-3.2,1.1-6.5,1.8-9.8
		c0.5-2,0.7-4.6,2.2-6.1c1.9-2.5,5.5-3.1,8.5-3.2c4.8-0.4,10.1-0.4,14.9-0.5c29.6-0.2,59.4,1,89,2c3.3,0.1,6.6,0.2,9.8,0.2
		c1.8-0.2,4.3,0.7,4.9,2.7c0.7,1.8,0.3,3.6,0,5.3c-0.6,3.3-1.2,6.5-1.9,9.7c-2.6,12.9-5.5,25.8-8.3,38.7
		c-2.9,12.9-5.7,25.7-8.7,38.6c0.1,1.9-1.6,3.9-3.6,3.9c1-0.1,1.9-0.6,2.5-1.3c0.6-0.7,1-1.7,0.9-2.7l7.8-38.8
		c3.2-16.1,6.7-32.3,9.5-48.5c0.3-1.6,0.6-3.2,0.1-4.4c-0.3-1.2-1.8-1.6-3.2-1.5c-3.4,0-6.6-0.1-9.9-0.2
		c-31.2-0.8-62.6-2.1-93.8-1.9c-3.3,0.1-6.6,0.1-9.8,0.4c-4,0.2-7.8,0.9-8.6,5.6c-3.6,16.9-6.2,34-9.1,51l-6.5,39
		C105.5,216.5,107.9,218,110.2,217.1L110.2,217.1L110.2,217.1z"/>
	<path class="st0" d="M194.3,66.7c1.8-1.2,3.3-2.1,4.7-3.7c0.6-0.6,1.1-1.3,1.9-1.8c1.8-1.1,3.7,1.3,3,2.9c-0.3-0.8-1.2-1.7-1.9-1.6
		c-0.1,0-0.1,0.1-0.2,0.2c-0.5,0.5-0.9,1.1-1.4,1.6C199,66,196.6,67,194.3,66.7L194.3,66.7L194.3,66.7z"/>
	<path class="st0" d="M191.4,62c0.9-2,2-3.9,3.2-5.7c0.6-0.9,1.3-1.8,1.9-2.6c0.4-0.4,0.8-0.9,1.3-1.3c0.5-0.4,1.2-0.7,2-0.8
		c0.8,0,1.5,0.2,2.1,0.6c0.6,0.4,1.1,0.9,1.4,1.6c0.2,0.3,0.3,0.7,0.3,1.2c0,0.4-0.1,0.8-0.2,1.2c-0.3,0.7-0.7,1.1-1,1.5
		c-1.4,1.7-2.9,3.2-4.5,4.7c1-2,2.1-3.8,3.3-5.6c0.3-0.4,0.5-0.9,0.7-1.2c0.1-0.3,0.1-0.5-0.1-0.8c-0.3-0.6-1.1-1-1.8-1
		c-0.6,0-1.3,0.5-1.9,1.3l-2.1,2.4C194.4,58.9,193,60.5,191.4,62L191.4,62z"/>
	<path class="st0" d="M186.7,60.8c0.4-2.2,0.9-4.2,1.4-6.3l0.7-3.2c0.3-1.1,0.5-2.2,1.2-3.3c0.4-0.5,0.9-1,1.4-1.4
		c0.6-0.3,1.1-0.6,1.9-0.7c0.7-0.1,1.7,0.2,2.2,0.8c0.6,0.6,0.8,1.2,0.9,1.8c0.1,0.6,0.2,1.2,0.1,1.9s-0.3,1.2-0.5,1.7
		c-0.5,1-1.2,1.9-2,2.7c1-1.9,1.6-4.1,0.9-5.8c-0.2-0.5-0.4-0.8-0.6-1s-0.4-0.2-0.8-0.2c-0.3,0.1-0.7,0.2-1.1,0.5
		c-0.3,0.2-0.6,0.5-0.8,0.9c-0.5,0.7-0.8,1.7-1.1,2.7c-0.3,1-0.6,2.1-1,3.1C188.8,57,187.9,58.9,186.7,60.8L186.7,60.8z"/>
	<path class="st0" d="M179.5,63.4c-0.6-2.8-0.7-5.6-0.4-8.5c0.1-1.4,0.5-2.8,0.7-4.2c0.1-0.7,0.3-1.4,0.5-2.1c0.2-0.7,0.3-1.4,1-2.3
		c0.8-0.8,1.8-1,2.6-1c0.5,0,0.9,0.1,1.4,0.3c0.5,0.2,0.9,0.4,1.3,1c0.4,0.7,0.3,1.1,0.3,1.5c0,0.4,0,0.8-0.1,1.1
		c-0.1,0.7-0.2,1.4-0.3,2.1l-0.4,2.1c-0.2,0.7-0.3,1.3-0.4,2c-0.2,1.3-0.2,2.7-0.1,4.1c-0.5-1.3-0.8-2.7-0.9-4.2
		c0-0.7,0-1.5,0.1-2.2l0.2-2c0.1-0.7,0.1-1.4,0.1-2c0-0.3,0-0.7,0-1c0-0.3-0.1-0.6-0.1-0.5c0,0-0.2-0.2-0.4-0.2
		c-0.2-0.1-0.4-0.1-0.7-0.1c-0.5,0-1,0.2-1.1,0.4c-0.2,0.2-0.4,0.9-0.6,1.5l-0.5,2c-0.4,1.3-0.7,2.7-1,4
		C180.1,57.8,179.7,60.6,179.5,63.4L179.5,63.4z"/>
	<path class="st0" d="M174.6,78.1c-0.8-1.9-1.5-3.8-2.1-5.7c-0.3-1-0.7-2.1-0.6-3.2c0.3-2.1,0.4-3.6-0.4-5.5c-0.5-1.5-1.6-2.6-2-4.2
		c-0.4-2.1,1.7-4,3.8-3.7h-0.1c0.1,0,0.2,0,0.3,0.1c0.2,0,0.4,0.2,0.5,0.5c1,1.5,2,3.2,2.8,4.8c-0.7-0.7-1.4-1.4-2.1-2.1
		c-0.5-0.5-1.3-1.5-1.9-2c-0.1,0,0.1,0.1,0.1,0.1c0.1,0,0.2,0,0.1,0l-0.1,0c0.1,0,0.1,0,0.2,0c-0.7-0.1-1.5,0.5-1.8,1.1
		c-0.1,0.3-0.2,0.5-0.1,0.8c0.5,1.3,1.5,2.5,2,3.9c0.8,1.9,0.8,4.6,0.3,6.4C173.5,72,174.5,75.2,174.6,78.1L174.6,78.1L174.6,78.1z"
		/>
	<path class="st0" d="M183.5,87c-1.5,0.5-3.1,0.8-4.7,1c-0.8,0.1-1.6,0.1-2.4,0.1c-0.4,0-0.8,0-1.3-0.1c-0.4-0.1-0.8-0.2-1.2-0.3
		c-1.6-0.4-3.1-0.9-4.6-1.4c-0.8-0.2-1.5-0.5-2.2-0.8c-0.4-0.1-0.8-0.3-1.2-0.4c-0.2-0.1-0.4-0.2-0.7-0.4c-0.3-0.2-0.7-0.7-0.6-1.2
		c0-0.3,0-0.5,0.1-0.7c0.1-0.2,0.1-0.3,0.2-0.5c0.2-0.3,0.4-0.5,0.5-0.6c0.4-0.3,0.7-0.6,1.1-0.8c0.8-0.4,1.5-0.8,2.3-1.1
		c1.6-0.5,3.3-0.9,5-0.7c3.4,0.3,6.3,2.1,8.6,4.3c-2.7-1.6-5.7-2.8-8.6-2.8c-1.5,0-2.9,0.3-4.2,0.9c-0.7,0.3-1.4,0.6-1.9,1
		c-0.3,0.2-0.6,0.4-0.8,0.6c-0.2,0.2-0.3,0.5-0.2,0.2c0-0.1-0.1-0.3-0.1-0.2c0,0,0.1,0.1,0.3,0.2c0.3,0.1,0.6,0.3,1,0.4l2.2,0.8
		c1.5,0.6,2.9,1.1,4.4,1.7c0.4,0.1,0.7,0.2,1.1,0.3c0.3,0.1,0.7,0.2,1.1,0.2c0.8,0.1,1.5,0.2,2.3,0.3
		C180.4,87.1,181.9,87.1,183.5,87L183.5,87z"/>
	<path class="st0" d="M157.8,118.1c2.2-10.4,5.9-20.5,11.1-29.8c-1.1,5.2-2.9,10.2-4.8,15.2C162.3,108.5,160.4,113.4,157.8,118.1
		L157.8,118.1z"/>
	<path class="st0" d="M188.3,86c0.8,0,1.6,0.2,2.4,0.7c0.7,0.5,1.3,1.2,1.5,2.1c0.2,0.8,0.3,1.8-0.3,2.8c-0.3,0.5-0.9,0.8-1.4,0.9
		c-0.5,0.1-1,0-1.3,0c-0.4,0-0.6,0.1-0.7,0.1c-0.1,0.1-0.2,0.2-0.2,0.4c-0.1,0.5,0,1.2,0.2,1.9c0.1,0.3,0.2,0.8,0.3,1.2
		c0.1,0.4,0.1,0.9,0.1,1.3c0,0.8,0,1.7-0.1,2.5c-0.4,3.3-1.1,6.4-2.1,9.5c-0.9,3.1-2.1,6.1-3.4,9c0.6-3.2,1.2-6.3,1.9-9.4
		c0.3-1.6,0.6-3.1,0.9-4.6c0.3-1.5,0.5-3.1,0.7-4.6c0.1-0.8,0.1-1.5,0.1-2.3c0-0.4,0-0.7-0.1-1.1c0-0.4-0.1-0.6-0.2-1.1
		c-0.2-0.9-0.3-1.7-0.1-2.8c0.1-0.5,0.5-1.1,1.1-1.5c0.6-0.3,1.2-0.3,1.6-0.2c0.4,0.1,0.8,0.1,1.1,0.1c0.3,0,0.4-0.1,0.6-0.2
		c0.3-0.3,0.5-1.1,0.4-1.8C191.1,87.6,189.9,86.4,188.3,86L188.3,86z"/>
	<path class="st0" d="M75.6,216.4c2.3-1.2,4.7-2,7.2-2.7c2.5-0.7,5-1.1,7.6-1.4c2.6-0.2,5.1-0.3,7.7-0.1c2.6,0.2,5.1,0.6,7.5,1.3
		l-7.6,0.2c-1.2,0.1-2.5,0.1-3.7,0.2c-1.2,0.1-2.5,0.2-3.7,0.3c-2.5,0.2-4.9,0.5-7.4,0.9L75.6,216.4L75.6,216.4z"/>
	<path class="st0" d="M180.8,164.5c-1-2.5-3.3-5.6-6.4-4.8c-2.8,0.9-4.3,4-3.7,6.9c1,5.8,4.6,10.9,8.1,15.5l-0.7-0.1
		c3.3-2.5,6.1-5.4,8.7-8.6c2.8-3,4.1-7.2,2.4-11.1c-1.5-3.3-4.8-0.5-6.1,1.6c0.7-1.2,1.5-2.3,2.8-3c3.3-1.8,4.6,2.9,4.6,5.4
		c0.2,2.9-1.3,5.6-3.1,7.7c-2.7,3.4-5.7,6.5-9.2,9.2c-3.8-4.9-7.5-10.2-8.4-16.4c-0.5-3.1,1.3-6.6,4.4-7.4
		C177.5,158.4,180,161.7,180.8,164.5L180.8,164.5L180.8,164.5z"/>
</g>
</svg>
