<svg width="30" height="30" viewBox="0 0 30 30" fill="none" xmlns="http://www.w3.org/2000/svg">
<path d="M16.25 8C16.25 7.30964 15.6904 6.75 15 6.75C14.3096 6.75 13.75 7.30964 13.75 8L16.25 8ZM14.1161 25.8839C14.6043 26.372 15.3957 26.372 15.8839 25.8839L23.8388 17.9289C24.327 17.4408 24.327 16.6493 23.8388 16.1612C23.3507 15.673 22.5592 15.673 22.0711 16.1612L15 23.2322L7.92893 16.1612C7.44078 15.673 6.64932 15.673 6.16116 16.1612C5.67301 16.6493 5.67301 17.4408 6.16116 17.9289L14.1161 25.8839ZM13.75 8L13.75 25L16.25 25L16.25 8L13.75 8Z" fill="black"/>
</svg>
