<svg width="30" height="30" viewBox="0 0 30 30" fill="none" xmlns="http://www.w3.org/2000/svg">
<path d="M5 13.75C4.30964 13.75 3.75 14.3096 3.75 15C3.75 15.6904 4.30964 16.25 5 16.25V13.75ZM22.8839 15.8839C23.372 15.3957 23.372 14.6043 22.8839 14.1161L14.9289 6.16117C14.4408 5.67301 13.6493 5.67301 13.1612 6.16117C12.673 6.64932 12.673 7.44078 13.1612 7.92893L20.2322 15L13.1612 22.0711C12.673 22.5592 12.673 23.3507 13.1612 23.8388C13.6493 24.327 14.4408 24.327 14.9289 23.8388L22.8839 15.8839ZM5 16.25H22V13.75H5V16.25Z" fill="black"/>
</svg>
