<svg width="30" height="30" viewBox="0 0 30 30" fill="none" xmlns="http://www.w3.org/2000/svg">
<path d="M22 16.25C22.6904 16.25 23.25 15.6904 23.25 15C23.25 14.3096 22.6904 13.75 22 13.75L22 16.25ZM4.11612 14.1161C3.62796 14.6043 3.62796 15.3957 4.11612 15.8839L12.0711 23.8388C12.5592 24.327 13.3507 24.327 13.8388 23.8388C14.327 23.3507 14.327 22.5592 13.8388 22.0711L6.76777 15L13.8388 7.92893C14.327 7.44078 14.327 6.64932 13.8388 6.16116C13.3507 5.67301 12.5592 5.67301 12.0711 6.16116L4.11612 14.1161ZM22 13.75L5 13.75L5 16.25L22 16.25L22 13.75Z" fill="black"/>
</svg>
