<svg width="31" height="31" viewBox="0 0 31 31" fill="none" xmlns="http://www.w3.org/2000/svg">
<path d="M15.75 3.5C15.75 2.80964 15.1904 2.25 14.5 2.25C13.8096 2.25 13.25 2.80964 13.25 3.5L15.75 3.5ZM13.6161 21.3839C14.1043 21.872 14.8957 21.872 15.3839 21.3839L23.3388 13.4289C23.827 12.9408 23.827 12.1493 23.3388 11.6612C22.8507 11.173 22.0592 11.173 21.5711 11.6612L14.5 18.7322L7.42893 11.6612C6.94078 11.173 6.14932 11.173 5.66116 11.6612C5.17301 12.1493 5.17301 12.9408 5.66116 13.4289L13.6161 21.3839ZM13.25 3.5L13.25 20.5L15.75 20.5L15.75 3.5L13.25 3.5Z" fill="black"/>
<line x1="3.5" y1="25.5" x2="26.5" y2="25.5" stroke="black" stroke-width="2" stroke-linecap="round"/>
</svg>
