<svg width="30" height="30" viewBox="0 0 30 30" fill="none" xmlns="http://www.w3.org/2000/svg">
<g clip-path="url(#clip0_424_1595)">
<path d="M13.2069 19.0253C12.7188 19.5135 12.7188 20.3049 13.2069 20.7931C13.6951 21.2812 14.4865 21.2812 14.9747 20.7931L13.2069 19.0253ZM26.2499 9.00009C26.2499 8.30973 25.6903 7.75009 24.9999 7.75009L13.7499 7.75009C13.0596 7.75009 12.4999 8.30973 12.4999 9.00009C12.4999 9.69044 13.0596 10.2501 13.7499 10.2501L23.7499 10.2501L23.7499 20.2501C23.7499 20.9404 24.3096 21.5001 24.9999 21.5001C25.6903 21.5001 26.2499 20.9404 26.2499 20.2501L26.2499 9.00009ZM14.9747 20.7931L25.8838 9.88397L24.116 8.1162L13.2069 19.0253L14.9747 20.7931Z" fill="black"/>
<path d="M7.72727 9H5V29H25V25.8182" stroke="black" stroke-width="2" stroke-linecap="round" stroke-linejoin="round"/>
</g>
<defs>
<clipPath id="clip0_424_1595">
<rect width="30" height="30" fill="white" transform="translate(0 30) rotate(-90)"/>
</clipPath>
</defs>
</svg>
