<svg width="31" height="30" viewBox="0 0 31 30" fill="none" xmlns="http://www.w3.org/2000/svg">
<path fill-rule="evenodd" clip-rule="evenodd" d="M7.5 5H23.5C24.6046 5 25.5 5.89543 25.5 7V23C25.5 24.1046 24.6046 25 23.5 25H7.5C6.39543 25 5.5 24.1046 5.5 23V7C5.5 5.89543 6.39543 5 7.5 5ZM3.5 7C3.5 4.79086 5.29086 3 7.5 3H23.5C25.7091 3 27.5 4.79086 27.5 7V23C27.5 25.2091 25.7091 27 23.5 27H7.5C5.29086 27 3.5 25.2091 3.5 23V7ZM16.3573 12.7268H13.5717V22.5H16.5717V17.7653C16.5717 16.179 17.1605 15.1702 18.5773 15.1702C19.5988 15.1702 20 16.1062 20 17.766V22.5H23V17.1023C23 14.1877 22.2965 12.5992 19.3333 12.5992C17.7875 12.5992 16.7585 13.3162 16.3573 14.1143V12.7268ZM11.4275 22.3725H8.4275V12.5992H11.4275V22.3725ZM11.7105 10.1449C11.8075 9.91293 11.8574 9.66396 11.8573 9.4125C11.8573 8.90475 11.654 8.41875 11.2925 8.06025C10.9302 7.70175 10.4398 7.5 9.92825 7.5C9.41768 7.49978 8.92766 7.70112 8.56475 8.06025C8.2025 8.41875 8 8.90475 8 9.4125C8.00043 9.66392 8.05048 9.91278 8.14726 10.1448C8.24404 10.3769 8.38566 10.5875 8.564 10.7648C8.92723 11.1234 9.41704 11.3247 9.9275 11.325C10.4389 11.3262 10.9298 11.1245 11.2925 10.764C11.4715 10.5874 11.6136 10.377 11.7105 10.1449Z" fill="black"/>
</svg>
