<svg width="30" height="30" viewBox="0 0 30 30" fill="none" xmlns="http://www.w3.org/2000/svg">
<path fill-rule="evenodd" clip-rule="evenodd" d="M5 7H25C25.7333 7 26.3744 7.39465 26.7226 7.98314L15 15.7982L3.27744 7.98313C3.62558 7.39464 4.26671 7 5 7ZM3 10.2019V21.8C3 22.9046 3.89543 23.8 5 23.8H25C26.1046 23.8 27 22.9046 27 21.8V10.2019L15.5547 17.8321L15 18.2019L14.4453 17.8321L3 10.2019ZM1 9C1 6.79086 2.79086 5 5 5H25C27.2091 5 29 6.79086 29 9V21.8C29 24.0091 27.2091 25.8 25 25.8H5C2.79086 25.8 1 24.0091 1 21.8V9Z" fill="black"/>
</svg>
