<svg width="121" height="121" viewBox="0 0 121 121" fill="none" xmlns="http://www.w3.org/2000/svg">
<path d="M50.5685 43.4007C44.9616 47.8707 41.8012 52.5595 40.1074 55.5504C38.6408 58.1429 37.0411 61.0358 36.4733 65.2283C36.2429 66.9393 35.6393 71.3734 37.411 75.3765C41.7136 85.1034 56.977 85.4005 58.051 85.4071C59.8972 85.4201 73.5642 85.3222 77.87 76.5552C79.8039 72.6207 79.1679 68.327 78.691 65.1075C77.8733 59.5861 75.5597 55.7593 74.1158 53.4247C71.1436 48.6152 67.5549 45.3598 64.732 43.2766C64.693 41.3502 64.6541 39.4204 64.6151 37.494C65.7411 36.6842 67.2694 35.2933 68.2493 33.1285C68.603 32.3481 70.3584 28.4658 68.4991 25.9549C68.3304 25.7263 67.4478 24.5378 66.1175 24.417C64.4756 24.2701 64.0051 25.9157 62.2075 26.0757C60.2931 26.2455 59.9556 24.4562 57.8693 24.417C55.6304 24.3713 55.1469 26.4153 53.1027 26.1998C51.2986 26.0104 50.8768 24.3386 49.1927 24.479C47.8462 24.5933 46.9539 25.759 46.8111 25.9549C45.2341 28.0936 46.5223 31.3424 47.1161 32.8411C47.5606 33.9643 48.5211 35.9234 50.5977 37.8205C50.588 39.6816 50.5783 41.5395 50.5653 43.4007H50.5685Z" fill="#A0C3ED"/>
<path d="M65.4243 43.4077H48.9475C47.4226 43.4077 46.1859 42.0643 46.1859 40.4077C46.1859 38.7511 47.4226 37.4077 48.9475 37.4077H65.4243C66.9493 37.4077 68.1859 38.7511 68.1859 40.4077C68.1859 42.0643 66.9493 43.4077 65.4243 43.4077Z" fill="#F8AE3A"/>
<path d="M56.6414 55.5013L56.7587 53.3618C57.0033 52.7855 57.5798 52.4077 58.2132 52.4077C58.8801 52.4077 59.48 52.8213 59.7079 53.44L59.7482 55.5045C60.3146 55.6739 61.5345 56.1232 62.5801 57.263C63.9877 58.7967 64.1318 60.5519 64.1519 61.086C64.1586 61.8903 63.5152 62.5383 62.7745 62.5774C61.9534 62.6197 61.1926 61.9066 61.2395 61.0111C61.2261 60.8124 61.1357 59.6011 60.1001 58.8326C59.0444 58.0478 57.6066 58.165 56.638 58.7577C56.4101 58.8944 55.3544 59.5848 55.2606 60.7831C55.15 62.2485 56.5744 63.2059 56.7386 63.3133C57.7273 63.9581 58.3573 63.6032 59.8454 64.0949C60.0096 64.1502 61.4708 64.6485 62.493 65.6612C64.0145 67.1722 64.896 70.1517 63.4515 72.5875C61.997 75.0396 59.1248 75.3554 58.8232 75.3815C56.0582 75.6387 53.424 73.9682 52.5694 71.8972C52.2242 71.0635 51.8623 69.4256 52.6934 68.6961C53.0185 68.4128 53.605 68.1979 54.1949 68.3705C54.9389 68.5919 55.207 69.2986 55.2371 69.3832C55.2103 69.5884 55.0763 70.7053 55.8639 71.6106C56.6917 72.5615 58.1127 72.7927 59.2421 72.34C60.2576 71.933 61.0385 70.9724 61.1021 69.8294C61.1591 68.7841 60.6028 67.8397 59.8688 67.3545C59.222 66.9279 58.7729 67.0842 57.4927 66.827C56.4571 66.6186 55.3477 66.2343 54.6976 65.8533C53.0319 64.8764 51.7517 62.3788 52.3281 59.8551C52.8074 57.7612 54.473 56.0842 56.638 55.4948L56.6414 55.5013Z" fill="#F5F5F5"/>
<path d="M23.1859 83.766C24.979 81.1527 26.9455 79.5142 28.2707 78.5715C29.0887 77.9879 30.5252 76.9811 32.5964 76.2404C35.3155 75.2656 37.6289 75.2816 38.653 75.2848C42.9198 75.3041 53.4821 75.2303 67.7516 75.2848C67.9773 75.272 69.8261 75.2111 71.1055 76.6636C72.146 77.8468 72.0969 79.2256 72.0805 79.527C76.9854 75.0732 81.8869 70.6226 86.7918 66.1688C88.7158 65.0818 91.088 65.1652 92.8484 66.3804C94.8247 67.7432 95.6755 70.2923 94.9033 72.6363C89.9984 79.2801 85.0968 85.9208 80.192 92.5646C79.482 93.5073 78.1077 95.0753 75.8663 96.2745C73.0491 97.7816 70.402 97.8906 69.1586 97.865C61.299 97.8297 53.4362 97.7944 45.5767 97.7591C45.0336 97.7399 44.0061 97.7752 42.874 98.2882C41.4539 98.9327 40.6882 99.9524 40.3872 100.408L36.3953 96.5439C31.9943 92.2857 27.5901 88.0242 23.1892 83.766H23.1859Z" fill="#F9C5BA"/>
<path d="M68.4171 75.4077C68.5462 75.875 68.9204 77.4688 68.0926 79.1779C66.9635 81.5142 64.5232 82.1351 64.1921 82.2151H53.8945C52.4078 82.0551 51.1959 83.1464 51.186 84.3114C51.1793 85.2363 51.9276 86.1421 53.0269 86.4077H67.5496C70.672 86.2797 73.1321 83.8249 73.1851 80.9605C73.2315 78.3233 71.2282 75.9326 68.4171 75.4077Z" fill="#F4A18E"/>
<path d="M36.1859 96.3303C36.7337 95.4628 37.6369 94.3543 39.0684 93.702C40.5487 93.0273 41.9378 93.1333 42.4823 93.1751C45.4137 93.4032 54.4687 93.3871 67.0322 93.2811C68.1115 93.2169 69.8494 92.9662 71.7276 92.0184C74.5742 90.5789 76.0546 88.3812 76.6382 87.3916C81.1934 81.1518 85.7454 74.912 90.3006 68.669C90.5484 68.0039 90.7995 67.3356 91.0473 66.6705L90.8354 65.4077C91.4516 65.5266 92.72 65.864 93.7504 66.9436C95.1917 68.4505 95.5699 70.7864 94.7841 72.9809C89.8376 79.7509 84.8943 86.5176 79.9479 93.2875C79.1164 94.2386 77.6556 95.662 75.4644 96.6516C73.0417 97.7473 70.8668 97.7955 69.6995 97.8083C58.3783 97.9369 48.3549 97.8373 45.6843 97.8083C45.0648 97.8019 43.8551 97.9433 42.5899 98.6502C41.5824 99.2125 40.9335 99.9418 40.5748 100.408C39.1108 99.0486 37.65 97.6895 36.1859 96.3303Z" fill="#F4A18E"/>
<path d="M24.5492 83.5207L42.017 101.011C43.4991 102.495 43.4968 104.902 42.017 106.384L36.0007 112.408L13.1668 89.5446L19.183 83.5207C20.6652 82.0367 23.0693 82.039 24.5492 83.5207Z" fill="#DFDFDF"/>
</svg>
