<svg width="121" height="121" viewBox="0 0 121 121" fill="none" xmlns="http://www.w3.org/2000/svg">
<mask id="mask0_42_1018" style="mask-type:luminance" maskUnits="userSpaceOnUse" x="12" y="43" width="49" height="18">
<path d="M60.34 43.4077H12.8334V60.2503H60.34V43.4077Z" fill="white"/>
</mask>
<g mask="url(#mask0_42_1018)">
<path d="M17.3557 59.8856C17.0037 59.95 16.0651 60.068 15.3611 59.4994C14.8918 59.124 14.7212 58.5876 14.6038 58.0727C13.9745 55.2834 15.2011 53.7816 14.4118 51.872C14.0385 50.9602 13.6012 51.2069 13.1746 50.2521C12.6306 48.9648 12.7373 47.3127 13.4732 46.1434C14.4225 44.6308 16.2357 44.2124 16.9824 44.0515C22.902 42.6998 50.7404 43.9013 51.999 43.9549C52.9056 44.1266 54.1109 44.502 55.0389 45.4783C55.8815 46.3687 55.8815 47.0874 56.6494 47.8598C57.2574 48.4606 58.324 49.0935 60.3505 49.1042V57.5041C58.9533 57.7079 58.068 58.2014 57.5027 58.6412C56.8521 59.1454 56.6708 59.5424 55.9881 59.8856C54.9109 60.422 53.8229 60.2182 53.5243 60.1753C51.7004 59.9178 37.8878 59.8535 17.377 59.8856H17.3557Z" fill="#172B48"/>
</g>
<mask id="mask1_42_1018" style="mask-type:luminance" maskUnits="userSpaceOnUse" x="60" y="43" width="48" height="18">
<path d="M107.847 43.4077H60.34V60.2503H107.847V43.4077Z" fill="white"/>
</mask>
<g mask="url(#mask1_42_1018)">
<path d="M103.324 59.8854C103.676 59.9498 104.615 60.0678 105.319 59.4992C105.788 59.1237 105.959 58.5873 106.076 58.0724C106.705 55.2832 105.479 53.7813 106.268 51.8718C106.641 50.9599 107.079 51.2066 107.505 50.2519C108.06 48.9645 107.953 47.3125 107.217 46.1431C106.268 44.6305 104.455 44.2121 103.708 44.0405C97.7885 42.6888 69.9501 43.8903 68.6915 43.9439C67.7849 44.1156 66.5796 44.4911 65.6517 45.4673C64.809 46.3577 64.809 47.0764 64.0411 47.8488C63.4331 48.4496 62.3665 49.0825 60.34 49.0933V57.4931C61.7372 57.6969 62.6225 58.1904 63.1878 58.6302C63.8384 59.1344 64.0198 59.5314 64.7024 59.8747C65.7797 60.4111 66.8676 60.2072 67.1662 60.1643C68.9901 59.9068 82.8027 59.8425 103.314 59.8747L103.324 59.8854Z" fill="#172B48"/>
</g>
<path d="M17.4838 56.5063V61.9774C17.4838 69.6049 23.2541 75.8699 30.635 76.6208L21.7502 48.8145C19.1903 50.4129 17.4838 53.2557 17.4838 56.5063Z" fill="#DFDFDF"/>
<path d="M53.5884 60.7438V55.9485C53.5884 51.2498 49.8019 47.4521 45.1409 47.4521H38.6239L46.9968 73.6708C50.9752 70.7743 53.5777 66.0648 53.5777 60.7438H53.5884Z" fill="#DFDFDF"/>
<path d="M26.486 47.4521C24.7474 47.4521 23.1262 47.9564 21.7502 48.8146L30.6351 76.6209C31.1257 76.6746 31.6163 76.696 32.1177 76.696H37.7173C41.1945 76.696 44.3943 75.5589 47.0075 73.6601L38.6239 47.4521H26.486Z" fill="#F1F0F0"/>
<path d="M103.537 60.7438V55.9485C103.537 51.2498 99.751 47.4521 95.09 47.4521H89.4796L97.6818 73.113C101.255 70.1843 103.537 65.7323 103.537 60.7331V60.7438Z" fill="#DFDFDF"/>
<path d="M67.4329 56.5064V61.9776C67.4329 69.9161 73.6832 76.3742 81.5121 76.6639L72.4672 48.3855C69.4914 49.8659 67.4329 52.9341 67.4329 56.5064Z" fill="#DFDFDF"/>
<path d="M76.4351 47.4521C75.0058 47.4521 73.6619 47.7954 72.4673 48.3855L81.5121 76.6746C81.6934 76.6746 81.8854 76.7067 82.0667 76.7067H87.6664C91.4635 76.7067 94.9513 75.3658 97.6818 73.1237L89.4796 47.4629H76.4351V47.4521Z" fill="#F1F0F0"/>
</svg>
