<svg width="121" height="121" viewBox="0 0 121 121" fill="none" xmlns="http://www.w3.org/2000/svg">
<mask id="mask0_42_1004" style="mask-type:luminance" maskUnits="userSpaceOnUse" x="17" y="21" width="42" height="79">
<path d="M58.5197 21.4077H17.5V99.4077H58.5197V21.4077Z" fill="white"/>
</mask>
<g mask="url(#mask0_42_1004)">
<path d="M56.4368 40.8925C55.1141 40.969 52.9323 40.9308 50.4389 40.0746C47.5122 39.0656 45.5737 37.4069 44.5855 36.4208C45.5813 37.4069 47.5198 39.058 50.4389 40.0746C52.9323 40.9384 55.1065 40.9766 56.4368 40.8925C56.3912 36.8871 56.3456 32.8892 56.3 28.8837C55.631 25.7497 53.0768 23.3724 49.9752 22.9978C47.0865 22.6462 44.2206 24.0833 42.7154 26.6517C42.1757 26.4988 38.9677 25.6579 35.8053 27.5919C32.947 29.3424 32.1108 32.1477 31.9435 32.7746C31.3506 32.9657 27.0099 34.4104 25.1475 39.0198C23.4979 43.094 24.9726 46.7097 25.2615 47.3824C24.7218 47.7646 23.2166 48.9188 22.5704 51.0362C21.5746 54.2467 23.3838 56.9374 23.6271 57.2814C23.3534 57.4266 19.4461 59.5976 19.0584 64.2299C18.6707 68.9004 22.2207 71.7058 22.4564 71.8816C22.1371 72.5313 21.2705 74.4806 21.757 76.9496C22.4108 80.313 25.0562 81.9794 25.5048 82.2469C25.5352 83.1031 25.7252 85.8855 27.8461 88.3698C30.4764 91.458 34.0873 91.7408 34.7562 91.7867C37.4853 96.2967 42.6622 98.6434 47.6414 97.6726C52.0429 96.8165 55.6538 93.4913 57.0145 89.0731L56.452 40.9002L56.4368 40.8925ZM46.9572 53.6123C51.6552 53.0237 54.9772 56.1501 55.4333 56.5858C54.9848 56.1501 51.6628 53.0237 46.9572 53.6123C42.9207 54.1168 39.4846 57.1515 38.2455 61.3328C39.4846 57.1591 42.9207 54.1168 46.9572 53.6123ZM34.8703 40.0288C36.976 43.094 39.4618 44.7222 40.8377 45.4866C39.4618 44.7222 36.9836 43.0864 34.8703 40.0288C32.9622 37.2616 32.2096 34.548 31.8903 32.9733C32.2096 34.5556 32.9698 37.2616 34.8703 40.0288ZM36.1018 41.8404C35.8433 43.0864 35.4556 44.5311 34.8627 46.0829C34.4218 47.2371 33.9352 48.2538 33.4563 49.1481C33.9352 48.2614 34.4218 47.2371 34.8627 46.0829C35.4632 44.5311 35.8509 43.094 36.1018 41.8404ZM31.8827 56.9145C32.0044 55.2022 31.2366 53.9562 30.9629 53.5435C31.2366 53.9486 32.0044 55.2022 31.8827 56.9145C31.7155 59.3606 29.8682 60.7365 29.6022 60.9353C29.8758 60.7365 31.7155 59.3606 31.8827 56.9145ZM31.6015 74.6029C30.9173 76.0476 30.7729 77.3624 30.7501 78.1421C30.7729 77.37 30.9173 76.0552 31.6015 74.6029ZM48.4624 83.6305C46.4403 85.5644 46.9268 88.3851 46.9648 88.6144C45.7105 87.9876 44.0077 87.2844 41.9172 86.8257C39.6138 86.3212 37.5993 86.2753 36.117 86.3518C35.1591 88.3545 34.779 90.2044 34.6194 91.5268C34.779 90.2044 35.1591 88.3622 36.117 86.3518C37.5993 86.2753 39.6062 86.3136 41.9172 86.8257C44.0077 87.2844 45.7105 87.9876 46.9648 88.6144C46.9192 88.3851 46.4403 85.5644 48.4624 83.6305C49.7243 82.4227 51.2447 82.2546 51.7388 82.2163C51.2447 82.2469 49.7319 82.4151 48.4624 83.6305ZM48.8729 72.4319C45.1556 70.5668 43.658 67.3104 43.2779 66.4008C42.3353 69.7871 39.4086 72.1797 36.079 72.3479C39.401 72.172 42.3277 69.7795 43.2779 66.4008C43.658 67.3104 45.1632 70.5668 48.8729 72.4319C51.8833 73.9455 54.6731 73.7085 55.7526 73.5556C54.6808 73.7009 51.8833 73.9378 48.8729 72.4319Z" fill="#F9C5BA"/>
<path d="M56.4368 40.8925C55.1141 40.969 52.9323 40.9308 50.4389 40.0746M56.4368 40.8925C55.1065 40.9766 52.9323 40.9384 50.4389 40.0746M56.4368 40.8925C56.3912 36.8871 56.3456 32.8892 56.3 28.8837C55.631 25.7497 53.0768 23.3724 49.9752 22.9978C47.0865 22.6462 44.2206 24.0833 42.7154 26.6517C42.1757 26.4988 38.9677 25.6579 35.8053 27.5919C32.947 29.3424 32.1108 32.1477 31.9435 32.7746C31.3506 32.9657 27.0099 34.4104 25.1475 39.0198C23.4979 43.094 24.9726 46.7097 25.2615 47.3824C24.7218 47.7646 23.2166 48.9188 22.5704 51.0362C21.5746 54.2467 23.3838 56.9374 23.6271 57.2814C23.3534 57.4266 19.4461 59.5976 19.0584 64.2299C18.6707 68.9004 22.2207 71.7058 22.4564 71.8816C22.1371 72.5313 21.2705 74.4806 21.757 76.9496C22.4108 80.313 25.0562 81.9794 25.5048 82.2469C25.5352 83.1031 25.7252 85.8855 27.8461 88.3698C30.4764 91.458 34.0873 91.7408 34.7562 91.7867C37.4853 96.2967 42.6622 98.6434 47.6414 97.6726C52.0429 96.8165 55.6538 93.4913 57.0145 89.0731L56.452 40.9002L56.4368 40.8925ZM50.4389 40.0746C47.5122 39.0656 45.5737 37.4069 44.5855 36.4208C45.5813 37.4069 47.5198 39.058 50.4389 40.0746ZM46.9572 53.6123C51.6552 53.0237 54.9772 56.1501 55.4333 56.5858C54.9848 56.1501 51.6628 53.0237 46.9572 53.6123ZM46.9572 53.6123C42.9207 54.1168 39.4846 57.1515 38.2455 61.3328C39.4846 57.1591 42.9207 54.1168 46.9572 53.6123ZM34.8703 40.0288C36.976 43.094 39.4618 44.7222 40.8377 45.4866C39.4618 44.7222 36.9836 43.0864 34.8703 40.0288ZM34.8703 40.0288C32.9622 37.2616 32.2096 34.548 31.8903 32.9733C32.2096 34.5556 32.9698 37.2616 34.8703 40.0288ZM34.8627 46.0829C35.4556 44.5311 35.8433 43.0864 36.1018 41.8404C35.8509 43.094 35.4632 44.5311 34.8627 46.0829ZM34.8627 46.0829C34.4218 47.2371 33.9352 48.2538 33.4563 49.1481C33.9352 48.2614 34.4218 47.2371 34.8627 46.0829ZM31.8827 56.9145C32.0044 55.2022 31.2366 53.9562 30.9629 53.5435C31.2366 53.9486 32.0044 55.2022 31.8827 56.9145ZM31.8827 56.9145C32.909 56.6546 34.4142 56.3947 36.2386 56.5094C37.9566 56.6164 39.3554 57.0292 40.3132 57.3884M31.8827 56.9145C31.7155 59.3606 29.8682 60.7365 29.6022 60.9353C29.8758 60.7365 31.7155 59.3606 31.8827 56.9145ZM31.6015 74.6029C30.9173 76.0476 30.7729 77.3624 30.7501 78.1421C30.7729 77.37 30.9173 76.0552 31.6015 74.6029ZM31.6015 74.6029C32.1868 73.3722 32.9318 72.5237 33.4563 72.0192M48.4624 83.6305C46.4403 85.5644 46.9268 88.3851 46.9648 88.6144M48.4624 83.6305C46.4403 85.5644 46.9192 88.3851 46.9648 88.6144M48.4624 83.6305C49.7243 82.4227 51.2447 82.2546 51.7388 82.2163C51.2447 82.2469 49.7319 82.4151 48.4624 83.6305ZM46.9648 88.6144C45.7105 87.9876 44.0077 87.2844 41.9172 86.8257M41.9172 86.8257C39.6138 86.3212 37.5993 86.2753 36.117 86.3518M41.9172 86.8257C39.6062 86.3136 37.5993 86.2753 36.117 86.3518M36.117 86.3518C35.1591 88.3545 34.779 90.2044 34.6194 91.5268C34.779 90.2044 35.1591 88.3622 36.117 86.3518ZM36.117 86.3518C37.6069 83.233 39.7279 81.3067 40.9822 80.3359M48.8729 72.4319C45.1556 70.5668 43.658 67.3104 43.2779 66.4008M48.8729 72.4319C45.1632 70.5668 43.658 67.3104 43.2779 66.4008M48.8729 72.4319C51.8833 73.9455 54.6731 73.7085 55.7526 73.5556C54.6808 73.7009 51.8833 73.9378 48.8729 72.4319ZM43.2779 66.4008C42.3353 69.7871 39.4086 72.1797 36.079 72.3479M43.2779 66.4008C42.3277 69.7795 39.401 72.172 36.079 72.3479M36.079 72.3479C33.2435 72.4931 30.5068 71.0025 28.9636 68.4876" stroke="#F4A18E" stroke-width="4" stroke-miterlimit="10"/>
</g>
<mask id="mask1_42_1004" style="mask-type:luminance" maskUnits="userSpaceOnUse" x="62" y="21" width="42" height="79">
<path d="M103.5 21.4077H62.4803V99.4077H103.5V21.4077Z" fill="white"/>
</mask>
<g mask="url(#mask1_42_1004)">
<path d="M64.5632 40.8925C65.8859 40.969 68.0677 40.9308 70.5611 40.0746C73.4878 39.0656 75.4263 37.4069 76.4145 36.4208C75.4187 37.4069 73.4802 39.058 70.5611 40.0746C68.0677 40.9384 65.8935 40.9766 64.5632 40.8925C64.6088 36.8871 64.6544 32.8892 64.7 28.8837C65.369 25.7497 67.9232 23.3724 71.0248 22.9978C73.9135 22.6462 76.7794 24.0833 78.2846 26.6517C78.8243 26.4988 82.0323 25.6579 85.1947 27.5919C88.053 29.3424 88.8892 32.1477 89.0565 32.7746C89.6494 32.9657 93.9901 34.4104 95.8525 39.0198C97.5021 43.094 96.0274 46.7097 95.7385 47.3824C96.2782 47.7646 97.7834 48.9188 98.4296 51.0362C99.4254 54.2467 97.6162 56.9374 97.3729 57.2814C97.6466 57.4266 101.554 59.5976 101.942 64.2299C102.329 68.9004 98.7793 71.7058 98.5436 71.8816C98.8629 72.5313 99.7295 74.4806 99.243 76.9496C98.5892 80.313 95.9438 81.9794 95.4952 82.2469C95.4648 83.1031 95.2748 85.8855 93.1539 88.3698C90.5236 91.458 86.9127 91.7408 86.2438 91.7867C83.5147 96.2967 78.3378 98.6434 73.3586 97.6726C68.9571 96.8165 65.3462 93.4913 63.9855 89.0731L64.548 40.9002L64.5632 40.8925ZM74.0428 53.6123C69.3448 53.0237 66.0228 56.1501 65.5667 56.5858C66.0152 56.1501 69.3372 53.0237 74.0428 53.6123C78.0793 54.1168 81.5154 57.1515 82.7545 61.3328C81.5154 57.1591 78.0793 54.1168 74.0428 53.6123ZM86.1297 40.0288C84.024 43.094 81.5382 44.7222 80.1623 45.4866C81.5382 44.7222 84.0164 43.0864 86.1297 40.0288C88.0378 37.2616 88.7904 34.548 89.1097 32.9733C88.7904 34.5556 88.0302 37.2616 86.1297 40.0288ZM84.8982 41.8404C85.1567 43.0864 85.5444 44.5311 86.1373 46.0829C86.5782 47.2371 87.0648 48.2538 87.5437 49.1481C87.0648 48.2614 86.5782 47.2371 86.1373 46.0829C85.5368 44.5311 85.1491 43.094 84.8982 41.8404ZM89.1173 56.9145C88.9956 55.2022 89.7634 53.9562 90.0371 53.5435C89.7634 53.9486 88.9956 55.2022 89.1173 56.9145C89.2845 59.3606 91.1318 60.7365 91.3978 60.9353C91.1242 60.7365 89.2845 59.3606 89.1173 56.9145ZM89.3985 74.6029C90.0827 76.0476 90.2271 77.3624 90.2499 78.1421C90.2271 77.37 90.0827 76.0552 89.3985 74.6029ZM72.5376 83.6305C74.5597 85.5644 74.0732 88.3851 74.0352 88.6144C75.2895 87.9876 76.9923 87.2844 79.0828 86.8257C81.3862 86.3212 83.4007 86.2753 84.883 86.3518C85.8409 88.3545 86.221 90.2044 86.3806 91.5268C86.221 90.2044 85.8409 88.3622 84.883 86.3518C83.4007 86.2753 81.3938 86.3136 79.0828 86.8257C76.9923 87.2844 75.2895 87.9876 74.0352 88.6144C74.0808 88.3851 74.5597 85.5644 72.5376 83.6305C71.2757 82.4227 69.7553 82.2546 69.2612 82.2163C69.7553 82.2469 71.2681 82.4151 72.5376 83.6305ZM72.1271 72.4319C75.8444 70.5668 77.342 67.3104 77.7221 66.4008C78.6647 69.7871 81.5914 72.1797 84.921 72.3479C81.599 72.172 78.6723 69.7795 77.7221 66.4008C77.342 67.3104 75.8368 70.5668 72.1271 72.4319C69.1167 73.9455 66.3269 73.7085 65.2474 73.5556C66.3192 73.7009 69.1167 73.9378 72.1271 72.4319Z" fill="#F9C5BA"/>
<path d="M64.5632 40.8925C65.8859 40.969 68.0677 40.9308 70.5611 40.0746M64.5632 40.8925C65.8935 40.9766 68.0677 40.9384 70.5611 40.0746M64.5632 40.8925C64.6088 36.8871 64.6544 32.8892 64.7 28.8837C65.369 25.7497 67.9232 23.3724 71.0248 22.9978C73.9135 22.6462 76.7794 24.0833 78.2846 26.6517C78.8243 26.4988 82.0323 25.6579 85.1947 27.5919C88.053 29.3424 88.8892 32.1477 89.0565 32.7746C89.6494 32.9657 93.9901 34.4104 95.8525 39.0198C97.5021 43.094 96.0274 46.7097 95.7385 47.3824C96.2782 47.7646 97.7834 48.9188 98.4296 51.0362C99.4254 54.2467 97.6162 56.9374 97.3729 57.2814C97.6466 57.4266 101.554 59.5976 101.942 64.2299C102.329 68.9004 98.7793 71.7058 98.5436 71.8816C98.8629 72.5313 99.7295 74.4806 99.243 76.9496C98.5892 80.313 95.9438 81.9794 95.4952 82.2469C95.4648 83.1031 95.2748 85.8855 93.1539 88.3698C90.5236 91.458 86.9127 91.7408 86.2438 91.7867C83.5147 96.2967 78.3378 98.6434 73.3586 97.6726C68.9571 96.8165 65.3462 93.4913 63.9855 89.0731L64.548 40.9002L64.5632 40.8925ZM70.5611 40.0746C73.4878 39.0656 75.4263 37.4069 76.4145 36.4208C75.4187 37.4069 73.4802 39.058 70.5611 40.0746ZM74.0428 53.6123C69.3448 53.0237 66.0228 56.1501 65.5667 56.5858C66.0152 56.1501 69.3372 53.0237 74.0428 53.6123ZM74.0428 53.6123C78.0793 54.1168 81.5154 57.1515 82.7545 61.3328C81.5154 57.1591 78.0793 54.1168 74.0428 53.6123ZM86.1297 40.0288C84.024 43.094 81.5382 44.7222 80.1623 45.4866C81.5382 44.7222 84.0164 43.0864 86.1297 40.0288ZM86.1297 40.0288C88.0378 37.2616 88.7904 34.548 89.1097 32.9733C88.7904 34.5556 88.0302 37.2616 86.1297 40.0288ZM86.1373 46.0829C85.5444 44.5311 85.1567 43.0864 84.8982 41.8404C85.1491 43.094 85.5368 44.5311 86.1373 46.0829ZM86.1373 46.0829C86.5782 47.2371 87.0648 48.2538 87.5437 49.1481C87.0648 48.2614 86.5782 47.2371 86.1373 46.0829ZM89.1173 56.9145C88.9956 55.2022 89.7634 53.9562 90.0371 53.5435C89.7634 53.9486 88.9956 55.2022 89.1173 56.9145ZM89.1173 56.9145C88.091 56.6546 86.5858 56.3947 84.7614 56.5094C83.0434 56.6164 81.6446 57.0292 80.6868 57.3884M89.1173 56.9145C89.2845 59.3606 91.1318 60.7365 91.3978 60.9353C91.1242 60.7365 89.2845 59.3606 89.1173 56.9145ZM89.3985 74.6029C90.0827 76.0476 90.2271 77.3624 90.2499 78.1421C90.2271 77.37 90.0827 76.0552 89.3985 74.6029ZM89.3985 74.6029C88.8132 73.3722 88.0682 72.5237 87.5437 72.0192M72.5376 83.6305C74.5597 85.5644 74.0732 88.3851 74.0352 88.6144M72.5376 83.6305C74.5597 85.5644 74.0808 88.3851 74.0352 88.6144M72.5376 83.6305C71.2757 82.4227 69.7553 82.2546 69.2612 82.2163C69.7553 82.2469 71.2681 82.4151 72.5376 83.6305ZM74.0352 88.6144C75.2895 87.9876 76.9923 87.2844 79.0828 86.8257M79.0828 86.8257C81.3862 86.3212 83.4007 86.2753 84.883 86.3518M79.0828 86.8257C81.3938 86.3136 83.4007 86.2753 84.883 86.3518M84.883 86.3518C85.8409 88.3545 86.221 90.2044 86.3806 91.5268C86.221 90.2044 85.8409 88.3622 84.883 86.3518ZM84.883 86.3518C83.3931 83.233 81.2721 81.3067 80.0178 80.3359M72.1271 72.4319C75.8444 70.5668 77.342 67.3104 77.7221 66.4008M72.1271 72.4319C75.8368 70.5668 77.342 67.3104 77.7221 66.4008M72.1271 72.4319C69.1167 73.9455 66.3269 73.7085 65.2474 73.5556C66.3192 73.7009 69.1167 73.9378 72.1271 72.4319ZM77.7221 66.4008C78.6647 69.7871 81.5914 72.1797 84.921 72.3479M77.7221 66.4008C78.6723 69.7795 81.599 72.172 84.921 72.3479M84.921 72.3479C87.7565 72.4931 90.4932 71.0025 92.0364 68.4876" stroke="#F4A18E" stroke-width="4" stroke-miterlimit="10"/>
</g>
<path d="M60.4735 74.5568C68.4798 74.5568 74.9702 68.0303 74.9702 59.9796C74.9702 51.9288 68.4798 45.4023 60.4735 45.4023C52.4671 45.4023 45.9767 51.9288 45.9767 59.9796C45.9767 68.0303 52.4671 74.5568 60.4735 74.5568Z" fill="white" stroke="#172B48" stroke-width="4" stroke-miterlimit="10"/>
<path d="M63.5902 37.6667H57.8356C56.7734 37.6667 55.9124 38.5309 55.9124 39.5969C55.9124 40.6629 56.7734 41.527 57.8356 41.527H63.5902C64.6524 41.527 65.5135 40.6629 65.5135 39.5969C65.5135 38.5309 64.6524 37.6667 63.5902 37.6667Z" fill="#172B48"/>
<path d="M61.6669 38.7139H59.7513C58.6891 38.7139 57.828 39.5797 57.828 40.6478V43.866C57.828 44.9341 58.6891 45.7999 59.7513 45.7999H61.6669C62.7291 45.7999 63.5902 44.9341 63.5902 43.866V40.6478C63.5902 39.5797 62.7291 38.7139 61.6669 38.7139Z" fill="#172B48"/>
<path d="M62.6399 60.9277C62.3434 61.9367 61.454 62.6247 60.4734 62.6247C59.2495 62.6247 58.2384 61.5469 58.2384 60.3774C58.2384 59.139 59.3635 58.4358 59.4243 58.3975C61.6212 56.7923 63.8106 55.187 66.0075 53.5818C64.8824 56.0279 63.765 58.4816 62.6399 60.9277Z" fill="#172B48"/>
<path d="M60.7166 45.0737H60.709C60.1254 45.0737 59.6523 45.5494 59.6523 46.1363V51.0973C59.6523 51.6841 60.1254 52.1598 60.709 52.1598H60.7166C61.3002 52.1598 61.7733 51.6841 61.7733 51.0973V46.1363C61.7733 45.5494 61.3002 45.0737 60.7166 45.0737Z" fill="#172B48"/>
<path d="M60.7166 68.7473H60.709C60.1254 68.7473 59.6523 69.223 59.6523 69.8098V74.7708C59.6523 75.3576 60.1254 75.8334 60.709 75.8334H60.7166C61.3002 75.8334 61.7733 75.3576 61.7733 74.7708V69.8098C61.7733 69.223 61.3002 68.7473 60.7166 68.7473Z" fill="#172B48"/>
<path d="M76.5057 59.9874V59.9798C76.5057 59.393 76.0327 58.9172 75.4491 58.9172H70.5155C69.9319 58.9172 69.4588 59.393 69.4588 59.9798V59.9874C69.4588 60.5742 69.9319 61.0499 70.5155 61.0499H75.4491C76.0327 61.0499 76.5057 60.5742 76.5057 59.9874Z" fill="#172B48"/>
<path d="M51.7238 60.1939V60.1863C51.7238 59.5995 51.2507 59.1238 50.6671 59.1238H45.7335C45.1499 59.1238 44.6768 59.5995 44.6768 60.1863V60.1939C44.6768 60.7808 45.1499 61.2565 45.7335 61.2565H50.6671C51.2507 61.2565 51.7238 60.7808 51.7238 60.1939Z" fill="#172B48"/>
</svg>
