<svg width="121" height="121" viewBox="0 0 121 121" fill="none" xmlns="http://www.w3.org/2000/svg">
<mask id="mask0_42_1032" style="mask-type:luminance" maskUnits="userSpaceOnUse" x="35" y="10" width="26" height="80">
<path d="M60.3289 10.7942H35.1578V89.0477H60.3289V10.7942Z" fill="white"/>
</mask>
<g mask="url(#mask0_42_1032)">
<path d="M45.955 52.6758C44.1859 53.2719 41.2631 54.5602 39.0132 57.3773C36.7057 60.2521 36.2058 63.3576 35.8789 65.992C34.8213 74.5779 35.1001 83.0292 35.5424 88.9326C36.475 88.971 37.4076 89.0095 38.3402 89.0479C38.4941 85.2405 38.994 82.1158 39.4555 79.866C40.3689 75.4144 41.2438 71.3859 44.2724 67.4439C45.2531 66.1651 46.1954 65.2325 46.8492 64.646" fill="#587EBE"/>
<path d="M45.9934 43.0994C43.3206 58.5694 46.3588 71.0588 48.3009 77.2218C52.3102 77.2218 56.3195 77.2218 60.3385 77.2218V26.0334H51.1949C49.0509 30.8504 47.1279 36.5519 45.9934 43.0994Z" fill="#F0EDED"/>
<path d="M51.1854 26.0334H60.3289V10.7942C57.9541 13.8324 54.3293 18.9859 51.1854 26.0334Z" fill="#587EBE"/>
</g>
<mask id="mask1_42_1032" style="mask-type:luminance" maskUnits="userSpaceOnUse" x="60" y="10" width="26" height="80">
<path d="M85.5001 10.7942H60.329V89.0477H85.5001V10.7942Z" fill="white"/>
</mask>
<g mask="url(#mask1_42_1032)">
<path d="M74.7029 52.6758C76.472 53.2719 79.3948 54.5602 81.6446 57.3773C83.9522 60.2521 84.4521 63.3576 84.779 65.992C85.8366 74.5779 85.5578 83.0292 85.1155 88.9326C84.1829 88.971 83.2503 89.0095 82.3177 89.0479C82.1638 85.2405 81.6639 82.1158 81.2024 79.866C80.289 75.4144 79.414 71.3859 76.3854 67.4439C75.4047 66.1651 74.4625 65.2325 73.8087 64.646" fill="#587EBE"/>
<path d="M74.674 43.0994C77.3469 58.5694 74.3087 71.0588 72.3665 77.2218C68.3572 77.2218 64.3479 77.2218 60.329 77.2218V26.0334H69.4725C71.6166 30.8504 73.5395 36.5519 74.674 43.0994Z" fill="#D2CCCC"/>
<path d="M69.4725 26.0334H60.329V10.7942C62.7038 13.8324 66.3285 18.9859 69.4725 26.0334Z" fill="#587EBE"/>
</g>
<path d="M60.5 45.4077C64.366 45.4077 67.5 42.2737 67.5 38.4077C67.5 34.5417 64.366 31.4077 60.5 31.4077C56.634 31.4077 53.5 34.5417 53.5 38.4077C53.5 42.2737 56.634 45.4077 60.5 45.4077Z" fill="#172B48"/>
<path d="M75.5 86.4077H45.5L48.7177 77.4077H72.2823L75.5 86.4077Z" fill="#172B48"/>
<path d="M48.5022 86.6628C48.474 89.6676 48.7089 93.5605 49.7425 97.9825C50.87 102.839 52.5801 106.742 54.0741 109.548C55.6151 107.016 57.5883 103.179 58.7722 98.2282C60.238 92.1148 59.8716 86.9179 60.2568 86.9085C60.6326 86.9085 60.5575 92.0203 61.8635 97.9731C63.0475 103.368 64.9549 107.601 66.4395 110.408C67.9992 107.195 69.6905 103.019 70.8933 97.9731C71.9362 93.5888 72.3685 89.6487 72.5 86.4077C64.5039 86.4928 56.5077 86.5778 48.5022 86.6534V86.6628Z" fill="#EADC00"/>
<path d="M60.5 43.4077C63.2614 43.4077 65.5 41.1691 65.5 38.4077C65.5 35.6463 63.2614 33.4077 60.5 33.4077C57.7386 33.4077 55.5 35.6463 55.5 38.4077C55.5 41.1691 57.7386 43.4077 60.5 43.4077Z" fill="#BBD3F0"/>
<path d="M61.5 52.4077H58.5V88.4077H61.5V52.4077Z" fill="#587EBE"/>
</svg>
