<svg width="120" height="120" viewBox="0 0 120 120" fill="none" xmlns="http://www.w3.org/2000/svg">
<path d="M76.2642 30.7178H74.9584C74.7162 30.7178 74.5198 30.9125 74.5198 31.1528V48.1386C74.5198 48.3789 74.7162 48.5736 74.9584 48.5736H76.2642C76.5064 48.5736 76.7028 48.3789 76.7028 48.1386V31.1528C76.7028 30.9125 76.5064 30.7178 76.2642 30.7178Z" fill="#B4B5B5"/>
<path d="M26.289 14.9961C24.6262 14.9961 23.2694 16.4934 23.2694 18.3447C23.2694 18.6381 23.3102 18.9112 23.3714 19.1743C23.3306 19.1743 23.3 19.1641 23.2694 19.1641C21.6066 19.1641 20.2499 20.6614 20.2499 22.5128C20.2499 22.8365 20.3009 23.14 20.3825 23.4334C20.3417 23.4334 20.3009 23.4233 20.2499 23.4233C18.5871 23.4233 17.2303 24.9205 17.2303 26.7719C17.2303 28.6232 18.5769 30.1205 20.2499 30.1205C21.9229 30.1205 23.2694 28.6232 23.2694 26.7719C23.2694 26.4481 23.2184 26.1446 23.1368 25.8512C23.1776 25.8512 23.2184 25.8614 23.2694 25.8614C24.9322 25.8614 26.289 24.3641 26.289 22.5128C26.289 22.2194 26.2482 21.9462 26.1869 21.6832C26.2278 21.6832 26.2584 21.6933 26.289 21.6933C27.9517 21.6933 29.3085 20.196 29.3085 18.3447C29.3085 16.4934 27.9619 14.9961 26.289 14.9961Z" fill="#B4B5B5"/>
<path d="M27.4008 12.0826C27.5742 11.6577 27.6864 11.1822 27.6864 10.6865C27.6864 8.83515 26.3399 7.33789 24.6669 7.33789C22.9939 7.33789 21.6473 8.83515 21.6473 10.6865C21.6473 10.818 21.6677 10.9293 21.6779 11.0608C21.2699 10.8281 20.8108 10.6865 20.3212 10.6865C18.6584 10.6865 17.3016 12.1838 17.3016 14.0351C17.3016 14.2172 17.3221 14.3993 17.3527 14.5814C17.3323 14.5814 17.3221 14.5814 17.3016 14.5814C15.6389 14.5814 14.2821 16.0787 14.2821 17.93C14.2821 18.9316 14.6902 19.8218 15.3124 20.4288C15.2206 20.4288 15.1288 20.3985 15.037 20.3985C13.3742 20.3985 12.0175 21.8957 12.0175 23.7471C12.0175 25.386 13.0886 26.7517 14.4963 27.035C14.3637 27.4093 14.2821 27.8241 14.2821 28.249C14.2821 30.1003 15.6287 31.5976 17.3016 31.5976C18.9746 31.5976 20.3212 30.1003 20.3212 28.249C20.3212 27.6319 20.158 27.0552 19.8927 26.5595C21.1373 26.1447 22.0554 24.8801 22.0554 23.3626C22.0554 22.6949 21.8718 22.0677 21.5657 21.5518C21.5861 21.5518 21.6167 21.5518 21.6371 21.5518C23.2999 21.5518 24.6567 20.0545 24.6567 18.2032C24.6567 18.1222 24.6363 18.0514 24.6363 17.9806C24.9627 18.1222 25.3197 18.2032 25.6972 18.2032C27.36 18.2032 28.7167 16.7059 28.7167 14.8546C28.7167 13.7013 28.1965 12.6896 27.3906 12.0826H27.4008Z" fill="#D6CECE"/>
<path d="M22.2902 50.1714H14.4149V56.8585H22.2902V50.1714Z" fill="#E3051D"/>
<path d="M22.2902 43.4849H14.4149V50.172H22.2902V43.4849Z" fill="#E7E6E6"/>
<path d="M22.2902 36.7974H14.4149V43.4845H22.2902V36.7974Z" fill="#E3051D"/>
<path d="M22.2902 30.1099H14.4149V36.797H22.2902V30.1099Z" fill="#E7E6E6"/>
<path d="M70.1436 52.7618V40.1362L44.6509 52.519V40.1362L12.0378 55.989V108.16H37.5203H44.6509H63.4924H70.1436H96.1157V40.1362L70.1436 52.7618Z" fill="#3B5673"/>
<path d="M76.3864 46.0442L104.807 61.7553C106.153 62.504 105.623 64.5374 104.083 64.5374H47.2417C45.7014 64.5374 45.1709 62.504 46.5175 61.7553L74.9379 46.0442C75.3867 45.7913 75.9376 45.7913 76.3966 46.0442H76.3864Z" fill="#B4B5B5"/>
<path d="M101.869 62.5142H49.4658V101.918H101.869V62.5142Z" fill="#B4B5B5"/>
<path d="M76.3662 46.0542L104.542 61.6237C105.95 62.4027 105.388 64.5171 103.787 64.5171H47.4358C45.824 64.5171 45.2731 62.3926 46.6809 61.6237L74.8564 46.0542C75.3257 45.7912 75.9072 45.7912 76.3764 46.0542H76.3662Z" stroke="#E7E6E6" stroke-width="3" stroke-miterlimit="10"/>
<path d="M105.103 106.441V101.918H102.073V64.5273H93.4736V101.918H87.3019V64.5273H78.6922V101.918H72.5205V64.5273H63.9209V101.918H57.7492V64.5273H49.1394V101.918H46.1097V106.441H43.2228V112.662H108V106.441H105.103Z" fill="#E7E6E6"/>
<path d="M87.4751 40.0447C86.8324 39.7918 85.8633 39.4984 84.6698 39.5086C84.3637 39.5086 83.9455 39.5389 81.6911 40.0447C79.5182 40.5303 79.3448 40.6315 78.7123 40.6517C77.9982 40.6821 76.9577 40.6012 75.652 40.0447V31.3444C76.4885 31.6479 77.5188 31.8907 78.7021 31.8604C79.355 31.8401 80.1099 31.6783 81.5992 31.3444C83.7007 30.8791 83.9455 30.7374 84.7004 30.7273C85.7613 30.7172 86.6998 31.0005 87.4649 31.3444V40.0447H87.4751Z" fill="#E3051D"/>
<path d="M105.103 105.54H46.1096V106.451H105.103V105.54Z" fill="#B4B5B5"/>
<path d="M102.073 101.008H49.0067V101.919H102.073V101.008Z" fill="#B4B5B5"/>
</svg>
