<svg width="120" height="120" viewBox="0 0 120 120" fill="none" xmlns="http://www.w3.org/2000/svg">
<g clip-path="url(#clip0_1206_3164)">
<path d="M111.11 59.3703C111.11 86.644 88.5353 108.758 60.6855 108.758C32.8516 108.758 10.2771 86.644 10.2771 59.3703C10.2771 32.0889 32.8516 9.98291 60.6855 9.98291C88.5353 9.98291 111.11 32.0889 111.11 59.3703Z" fill="#B6C1C8"/>
<path d="M96.3296 73.9111C95.4979 73.2981 93.8028 72.5532 92.8602 72.4135C91.2523 72.173 90.381 72.7239 89.6285 71.0557C89.0027 69.6668 88.5354 68.7977 87.4186 67.6494C85.2641 65.4457 83.3156 64.4681 80.3928 63.3663H75.4185C73.3273 62.8076 71.2283 62.0782 69.3669 63.7077C69.1689 63.8784 69.0026 64.0956 68.8204 64.2896C68.6144 64.5069 67.6877 64.5845 67.3867 64.6621C66.9669 64.7629 66.5233 64.8871 66.0797 64.8948C65.3986 64.9104 64.4639 64.7319 63.9966 64.2043C63.7272 63.9017 63.5688 63.3042 63.5292 62.9085C63.4817 62.3809 63.7114 61.9231 63.7193 61.4187C63.7352 60.9687 63.7589 60.4488 63.6322 60.0221C63.3708 59.1297 62.3411 58.8737 61.5411 58.703C61.0658 58.6021 60.5985 58.5323 60.1153 58.3771C58.9034 57.9736 59.5292 56.3519 60.044 55.6303C60.5668 54.8932 61.3193 54.3811 60.0599 53.7061C59.046 53.1707 57.8024 53.256 56.9074 53.9078C56.0519 54.544 55.4895 55.7778 54.4519 56.0959C53.2638 56.4683 51.9727 55.6148 50.8479 55.4596C50.9588 53.9931 50.2063 51.2929 50.2459 50.6256C50.3568 48.8643 51.6796 46.9555 53.4143 46.49C55.1489 46.0244 57.0579 45.6675 58.8559 45.8537C61.6361 46.1408 61.5173 47.5995 62.9668 49.5006C63.4421 50.1213 64.353 50.8507 65.1768 50.4239C66.9273 49.5238 66.3887 47.2116 66.4441 45.652C66.5312 43.2233 68.1233 41.7569 69.6441 39.9645C70.2065 39.3049 70.7768 38.6532 71.3313 37.9859C71.8303 37.3807 72.4164 36.8142 73.2561 36.659C73.8422 36.5582 74.563 36.6668 75.1571 36.6668C76.1234 36.6668 77.969 36.9849 78.5314 36.015C79.0541 35.0994 78.2858 34.471 77.5096 34.1761C77.1927 34.052 76.6541 33.9899 76.5591 33.6019C76.2343 32.2441 77.7234 32.1975 78.6502 32.0501C79.4898 31.9182 80.5749 31.6466 81.2165 32.407C81.5017 32.7484 81.3591 33.1596 81.6839 33.5088C82.2779 34.1373 83.8067 33.7804 84.4482 33.4157C85.1928 32.9889 85.3988 31.794 85.3988 31.0181C85.3988 30.6146 85.3354 30.1956 85.0978 29.862C84.4641 28.9774 82.6027 28.5739 81.668 28.0541C80.3056 27.2937 79.0383 26.3936 77.7947 25.4703C76.3373 24.3917 74.7452 23.5227 73.1372 22.6925C71.7511 21.9864 70.0323 20.8147 68.4085 21.0941C67.7748 21.1949 67.4263 21.645 67.2916 22.2424C67.2045 22.6925 66.9906 23.1502 66.9906 23.6158C66.9986 24.1822 67.2679 24.7021 67.4342 25.2297C67.6402 25.8893 67.8065 26.5643 67.2758 27.1152C66.7689 27.6351 65.6441 27.6196 65.058 27.1928C64.3451 26.6652 64.052 25.8194 63.2678 25.4159C62.3965 24.9659 61.747 24.8418 60.7728 24.9581C59.8619 25.0668 58.7688 25.1754 57.8579 24.9504C56.9866 24.7409 56.1391 23.7089 56.1232 22.8321C56.1074 22.2036 56.2499 21.3268 56.8599 20.9777C57.5807 20.5742 58.7767 20.6751 59.5846 20.613C59.751 20.6052 59.9094 20.5897 60.0599 20.5742C60.0836 20.5664 60.1074 20.5664 60.1312 20.5664C60.1549 20.5587 60.1866 20.5587 60.2104 20.5587C60.4401 20.5276 60.6539 20.5044 60.8044 20.4656C60.7965 20.45 60.7728 20.4345 60.7648 20.419C60.8916 20.6518 61.6124 19.6276 61.6361 19.5112C61.7629 18.9991 61.3747 18.4016 61.5648 17.9205C61.7074 17.5636 62.2223 17.3386 62.5629 17.23C63.0936 17.067 63.6401 17.1601 64.1787 17.2144C64.6144 17.261 65.0817 17.261 65.5094 17.3464C66.4996 17.5481 66.5312 18.3085 67.1491 18.8982C68.0362 19.7129 68.5748 19.356 69.7313 19.5112C70.9748 19.6741 74.2382 21.7691 75.3472 20.1319C76.5828 18.3085 73.2561 16.9662 72.2263 16.6325C70.6026 16.1049 68.9867 15.0263 67.9253 13.7073C67.4025 13.0555 66.9906 12.2641 67.0065 11.4106C67.0303 10.72 67.0065 9.65697 67.6639 9.21469C67.8223 9.11382 67.9966 9.05175 68.1788 9.04399C68.5035 9.01295 68.86 8.99743 69.1293 9.15262C69.5253 9.39315 69.8501 9.85871 70.056 10.2544C70.4917 11.1079 70.3412 11.9227 70.9669 12.7762C71.5927 13.6064 72.4085 14.2815 73.1689 14.9798C75.1412 16.7799 77.3195 18.3783 79.8462 19.325C81.2086 19.8371 82.6423 20.2328 83.9334 20.9311C85.3988 21.7381 85.9374 22.7778 86.9116 24.0115C89.6443 27.4489 97.6603 26.3315 95.783 20.9078C94.3731 16.842 91.6166 13.3581 87.9414 11.1545C86.175 10.0992 84.5908 8.63275 82.8086 7.65509C80.5749 6.43689 77.8977 6.06445 75.4105 5.66097C72.4719 5.18766 69.5887 4.9704 66.6184 4.83849C64.456 4.74538 62.1668 4.40398 60.3688 5.83167C59.4104 6.58432 56.5905 9.19917 56.5351 10.2855C56.4797 11.3252 57.8737 11.8839 58.0955 12.8382C58.1826 13.2495 58.2143 13.6142 57.8896 13.9245C57.5331 14.2659 57.042 14.3746 56.9628 14.9177C56.8995 15.391 57.0816 15.7092 57.2717 16.1126C57.4222 16.423 57.747 17.0205 57.4698 17.3696C56.7331 18.2775 55.743 16.6403 55.6796 16.0195C55.5846 15.0108 55.9093 14.134 54.8638 13.4978C54.1588 13.071 52.242 12.8848 51.9489 13.8935C51.8063 14.3746 52.3608 14.8401 52.2974 15.3988C52.1628 16.5316 51.3945 16.2445 50.5152 16.392C48.9786 16.648 48.6618 17.7731 47.0142 17.0282C46.8558 16.2213 47.331 14.9177 46.531 14.3746C45.8894 13.9478 44.4479 14.2582 43.7271 13.9789C41.9211 13.265 40.329 13.04 38.4042 13.5987C36.3686 14.1961 34.3329 15.3755 32.3685 16.3299C29.8418 17.5559 25.8892 15.9807 23.8298 17.7886L23.7902 18.1378C22.0952 18.1223 21.3902 18.3861 20.2021 19.9302C19.3466 21.0397 18.911 22.1105 18.3961 23.3365C18.008 24.2676 17.2001 25.1211 17.0496 26.1608C16.9545 26.8902 17.01 27.8135 17.1208 28.5351C17.1763 28.9386 20.8437 27.8446 21.311 27.8989C23.014 28.1161 24.3288 29.7301 25.6912 30.5913C26.8556 31.3129 28.2655 32.0578 28.4715 33.4467C28.7249 35.1227 28.4081 36.9927 28.4556 38.692C28.5507 42.0672 32.1151 44.6355 34.2378 46.9711C35.1804 48.0108 35.2596 49.3066 36.1864 50.2842C36.7012 50.8351 38.2616 53.5741 39.4023 52.5577C40.3132 51.7507 37.929 49.2833 38.1191 48.1505C38.222 47.4599 39.8221 48.841 39.9171 48.9419C40.5825 49.7178 40.931 50.8351 41.2795 51.774C42.032 53.7992 42.6973 54.6992 44.432 55.4907C44.329 56.4606 45.3429 57.1124 46.2459 57.6167C47.236 58.1676 48.3132 58.1831 49.3667 58.6409C50.3647 59.0832 51.4578 59.0754 52.3846 59.5177C53.7628 60.1695 52.8361 60.8135 53.6123 61.7834C54.4757 62.8697 56.1153 62.2024 57.2797 62.3809C59.7747 62.7611 59.3549 65.0966 60.9074 66.501C61.7549 67.2847 63.2045 67.1993 64.2738 67.3157C64.6936 67.3623 65.2401 67.37 65.5728 67.6649C66.4045 68.3865 65.4302 69.3797 65.1134 70.0858C64.6778 71.0324 64.3768 72.0489 64.1867 73.0731C63.656 75.9285 63.7668 79.1175 65.8896 81.3289C68.2025 83.742 71.0303 84.836 71.9095 88.2811C72.662 91.1598 71.965 93.9764 71.4263 96.8163C71.0937 98.5233 68.7095 101.487 71.0778 102.744C73.1372 103.838 76.6383 100.828 77.9848 99.6794C81.1611 96.9637 85.3591 95.311 87.4503 91.5012C88.4404 89.6933 89.3196 87.7845 91.0543 86.5353C91.9652 85.8758 93.0186 85.4413 93.9929 84.8904C96.0602 83.7342 97.2959 81.2746 98.2226 79.2339C99.3157 76.7587 98.3098 75.362 96.3296 73.9111ZM59.0302 30.2422C59.5926 30.1103 60.353 30.1413 60.5906 30.1956C61.5015 30.4129 62.1748 31.1112 62.8718 31.6699C63.3787 32.0656 63.8065 32.4846 64.2579 32.9269C64.551 33.214 64.8282 33.47 64.7649 33.9433C64.7174 34.3546 64.4797 34.5563 64.0995 34.5951C63.4104 34.6649 63.1015 34.2227 62.4837 34.1218C61.0183 33.8812 60.4084 36.3021 58.943 35.6426C58.5708 35.4719 58.6817 35.1693 58.6817 34.7813C58.6737 34.4865 58.6817 34.2227 58.7925 33.9666C58.9351 33.6407 59.1648 33.3691 59.4421 33.1286C59.6163 32.9812 59.9015 32.8648 60.0361 32.6708C60.3609 32.1742 59.9015 31.6466 59.4421 31.4604C59.1569 31.344 58.7371 31.3362 58.5549 31.0879C58.2143 30.6146 58.547 30.3663 59.0302 30.2422Z" fill="#90A295"/>
<path d="M60.6562 72.3521L55.8386 69.9077L55.3128 70.8977L60.1304 73.3421L60.6562 72.3521Z" fill="#F5FAFF"/>
<path d="M60.4048 71.7236L61.406 69.8412C61.5805 69.513 61.4515 69.1065 61.1191 68.9381L58.4256 67.5733C58.0931 67.4048 57.6784 67.5358 57.5038 67.864L56.5027 69.7463L60.4048 71.7236Z" fill="#F5FAFF"/>
<path d="M55.0577 73.5594C55.0265 73.4878 54.8586 73.288 54.7808 73.2392L54.4231 73.0582L46.1153 88.6663L58.9747 95.177L60.7111 91.9146C60.7406 91.8418 60.7669 91.5839 60.7477 91.4957L55.0577 73.5594Z" fill="#F5FAFF"/>
<path d="M65.2996 85.8559L62.0289 75.5591C61.8619 75.0334 61.3182 74.397 60.8208 74.1451L54.5159 70.953C54.0185 70.7012 53.3973 70.8976 53.1355 71.3895L43.975 88.5995C43.7131 89.0914 43.9058 89.6999 44.4032 89.9518L58.882 97.2823C59.3793 97.5341 60.0005 97.3377 60.2624 96.8457L65.1271 87.7064C65.389 87.2144 65.4665 86.3816 65.2996 85.8559ZM58.9879 76.9969C59.5924 76.8056 60.2345 77.1307 60.4221 77.723L62.7338 85.0232C62.9213 85.6155 62.5834 86.2505 61.9788 86.4416C61.3743 86.6328 60.7322 86.3077 60.5447 85.7155L58.2328 78.4154C58.0453 77.8232 58.3832 77.1879 58.9879 76.9969ZM59.2784 95.5905C59.2185 95.703 59.0778 95.7475 58.9641 95.6899L45.6912 88.9699C45.5775 88.9124 45.5338 88.7745 45.5937 88.662L54.1193 72.6449C54.1792 72.5324 54.3199 72.4879 54.4336 72.5455L55.0046 72.8344C55.0084 72.8364 55.0122 72.8384 55.016 72.8406C55.1786 72.9347 55.4293 73.2259 55.4951 73.3967C55.4965 73.4009 55.498 73.405 55.4993 73.4094L61.1951 91.3634C61.1964 91.3675 61.1977 91.3717 61.1987 91.3759C61.2445 91.5556 61.2105 91.9367 61.1338 92.1042C61.1318 92.1083 61.1298 92.1124 61.1277 92.1164L59.2784 95.5906L59.2784 95.5905Z" fill="#F5FAFF"/>
<path d="M30.44 48.3859L28.7973 46.8733L28.6102 47.0683C28.2352 47.4591 28.6032 47.9524 28.9778 48.2974C29.2846 48.5799 29.8582 48.9923 30.2529 48.5809L30.44 48.3859Z" fill="#F5FAFF"/>
<path d="M22.3146 58.9217L23.8094 58.1629L30.1951 51.5084L25.6311 47.3058L19.2455 53.9603L18.5647 55.4687L22.3146 58.9217Z" fill="#F5FAFF"/>
<path d="M25.8078 47.1216L30.3718 51.3242L31.7054 49.9344C31.813 49.8222 31.8078 49.6455 31.6938 49.5404L30.6273 48.5584L30.4402 48.7534C30.2507 48.9509 29.7114 49.3199 28.8011 48.4816C27.8907 47.6434 28.2334 47.0933 28.4229 46.8958L28.61 46.7008L27.5436 45.7189C27.4295 45.6138 27.2491 45.6196 27.1414 45.7318L25.8078 47.1216Z" fill="#F5FAFF"/>
</g>
<path fill-rule="evenodd" clip-rule="evenodd" d="M31.8575 77.5045L39.0599 75.857C39.131 75.8407 39.1742 75.7744 39.1565 75.7087L36.2322 64.8518C36.2146 64.7861 36.1427 64.7461 36.0717 64.7623L28.8692 66.4099C28.7982 66.4261 28.755 66.4925 28.7727 66.5581L31.6969 77.4151C31.7146 77.4808 31.7865 77.5208 31.8575 77.5045ZM29.0618 66.6182L36.0072 65.0294L38.8674 75.6487L31.922 77.2375L29.0618 66.6182ZM37.0801 65.0789L36.9382 65.1114C36.8672 65.1276 36.8239 65.194 36.8416 65.2596C36.8593 65.3252 36.9312 65.3653 37.0022 65.349L37.1441 65.3166L40.114 76.343L31.1724 78.3884L28.2025 67.3619L28.3446 67.3295C28.4156 67.3132 28.4588 67.2469 28.4411 67.1812C28.4234 67.1156 28.3516 67.0755 28.2805 67.0918L28.1385 67.1243L27.8152 65.9238L36.7568 63.8784L37.0801 65.0789Z" fill="#F5FAFF"/>
<g clip-path="url(#clip1_1206_3164)">
<path d="M109.73 59.5003C109.73 86.6866 87.7562 108.73 60.6472 108.73C33.5536 108.73 11.5796 86.6866 11.5796 59.5003C11.5796 32.3062 33.5536 10.271 60.6472 10.271C87.7562 10.271 109.73 32.3062 109.73 59.5003Z" fill="#71AFD3"/>
<path d="M95.343 73.9942C94.5334 73.3832 92.8835 72.6407 91.966 72.5015C90.4008 72.2617 89.5527 72.8109 88.8202 71.148C88.2111 69.7635 87.7562 68.8973 86.6691 67.7526C84.5719 65.556 82.6752 64.5815 79.8301 63.4832H74.9881C72.9526 62.9264 70.9094 62.1993 69.0975 63.8235C68.9048 63.9937 68.7429 64.2103 68.5656 64.4036C68.3651 64.6202 67.463 64.6975 67.17 64.7749C66.7614 64.8754 66.3296 64.9992 65.8978 65.0069C65.2348 65.0224 64.3249 64.8445 63.87 64.3186C63.6079 64.0169 63.4537 63.4214 63.4151 63.0269C63.3689 62.501 63.5925 62.0446 63.6002 61.5419C63.6156 61.0933 63.6387 60.5751 63.5154 60.1497C63.2609 59.2603 62.2586 59.005 61.4799 58.8349C61.0173 58.7343 60.5624 58.6647 60.0921 58.51C58.9124 58.1078 59.5215 56.4914 60.0227 55.7721C60.5315 55.0373 61.264 54.5268 60.0381 53.8539C59.0512 53.3203 57.8407 53.4053 56.9694 54.055C56.1367 54.6893 55.5893 55.919 54.5793 56.2361C53.4228 56.6074 52.166 55.7566 51.0711 55.6019C51.1791 54.1401 50.4466 51.4485 50.4852 50.7834C50.5931 49.0277 51.8807 47.125 53.5692 46.661C55.2578 46.1969 57.1159 45.8411 58.8661 46.0268C61.5724 46.3129 61.4568 47.767 62.8677 49.6619C63.3303 50.2807 64.217 51.0077 65.0189 50.5823C66.7228 49.6851 66.1985 47.3803 66.2525 45.8257C66.3373 43.4048 67.8871 41.943 69.3674 40.1564C69.9148 39.4989 70.47 38.8493 71.0097 38.1841C71.4954 37.5808 72.066 37.0162 72.8833 36.8615C73.4538 36.761 74.1554 36.8693 74.7337 36.8693C75.6743 36.8693 77.4708 37.1864 78.0182 36.2196C78.5271 35.3069 77.7792 34.6804 77.0236 34.3865C76.7152 34.2628 76.1909 34.2009 76.0984 33.8142C75.7823 32.4607 77.2318 32.4143 78.1339 32.2673C78.9512 32.1358 80.0075 31.8651 80.632 32.6231C80.9096 32.9634 80.7708 33.3733 81.0869 33.7214C81.6651 34.3478 83.1532 33.9921 83.7777 33.6285C84.5025 33.2032 84.703 32.0121 84.703 31.2386C84.703 30.8364 84.6413 30.4188 84.41 30.0862C83.7932 29.2045 81.9813 28.8023 81.0715 28.2841C79.7453 27.5261 78.5117 26.6289 77.3012 25.7086C75.8825 24.6335 74.3328 23.7672 72.7676 22.9396C71.4183 22.2358 69.7452 21.0679 68.1646 21.3464C67.5478 21.4469 67.2086 21.8955 67.0775 22.4911C66.9927 22.9396 66.7845 23.396 66.7845 23.86C66.7922 24.4246 67.0544 24.9428 67.2163 25.4688C67.4167 26.1262 67.5786 26.7991 67.0621 27.3482C66.5686 27.8664 65.4738 27.851 64.9032 27.4256C64.2093 26.8996 63.924 26.0566 63.1607 25.6544C62.3126 25.2058 61.6804 25.0821 60.732 25.1981C59.8453 25.3064 58.7813 25.4146 57.8947 25.1903C57.0465 24.9815 56.2215 23.9528 56.2061 23.0789C56.1907 22.4524 56.3295 21.5784 56.9232 21.2303C57.6248 20.8282 58.789 20.9287 59.5755 20.8668C59.7374 20.8591 59.8916 20.8436 60.0381 20.8282C60.0612 20.8204 60.0844 20.8204 60.1075 20.8204C60.1306 20.8127 60.1614 20.8127 60.1846 20.8127C60.4082 20.7818 60.6164 20.7586 60.7628 20.7199C60.7551 20.7044 60.732 20.6889 60.7243 20.6735C60.8477 20.9055 61.5493 19.8846 61.5724 19.7686C61.6958 19.2581 61.318 18.6625 61.503 18.183C61.6418 17.8272 62.143 17.6029 62.4745 17.4946C62.9911 17.3322 63.5231 17.425 64.0474 17.4792C64.4714 17.5256 64.9263 17.5256 65.3427 17.6107C66.3065 17.8118 66.3373 18.5697 66.9387 19.1575C67.8022 19.9696 68.3265 19.6139 69.4522 19.7686C70.6627 19.931 73.8393 22.0193 74.9187 20.3873C76.1215 18.5697 72.8833 17.2317 71.8809 16.8991C70.3003 16.3732 68.7275 15.2981 67.6943 13.9832C67.1854 13.3336 66.7845 12.5446 66.7999 11.6939C66.823 11.0055 66.7999 9.9459 67.4399 9.50504C67.5941 9.40449 67.7637 9.34262 67.941 9.33488C68.2571 9.30394 68.6041 9.28847 68.8662 9.44316C69.2518 9.68293 69.5679 10.147 69.7683 10.5414C70.1924 11.3922 70.0459 12.2043 70.655 13.0551C71.2641 13.8827 72.0583 14.5556 72.7984 15.2517C74.7183 17.0461 76.8386 18.6393 79.2981 19.5829C80.6243 20.0934 82.0198 20.4878 83.2766 21.1839C84.703 21.9883 85.2272 23.0247 86.1756 24.2545C88.8356 27.6808 96.6383 26.5671 94.811 21.1607C93.4386 17.1079 90.7555 13.6352 87.1779 11.4386C85.4586 10.3868 83.9165 8.92496 82.1817 7.95043C80.0075 6.73613 77.4014 6.36488 74.9804 5.96269C72.1199 5.4909 69.3134 5.27433 66.4221 5.14285C64.3172 5.05004 62.089 4.70972 60.3388 6.13285C59.4059 6.88308 56.661 9.48957 56.6071 10.5724C56.5531 11.6088 57.9101 12.1657 58.126 13.117C58.2108 13.5269 58.2416 13.8904 57.9255 14.1998C57.5785 14.5401 57.1005 14.6484 57.0234 15.1898C56.9617 15.6616 57.1391 15.9787 57.3241 16.3809C57.4706 16.6903 57.7867 17.2858 57.5169 17.6339C56.7998 18.5388 55.836 16.9068 55.7744 16.2881C55.6818 15.2826 55.998 14.4086 54.9802 13.7744C54.294 13.349 52.4281 13.1634 52.1429 14.1689C52.0041 14.6484 52.5438 15.1125 52.4821 15.6693C52.351 16.7986 51.6031 16.5124 50.7473 16.6593C49.2515 16.9146 48.9431 18.0361 47.3394 17.2936C47.1852 16.4892 47.6478 15.1898 46.8691 14.6484C46.2446 14.223 44.8413 14.5324 44.1397 14.2539C42.3818 13.5424 40.832 13.3181 38.9585 13.875C36.9769 14.4705 34.9954 15.6461 33.0833 16.5975C30.6237 17.8195 26.7764 16.2494 24.7717 18.0515L24.7332 18.3996C23.0832 18.3841 22.397 18.6471 21.2405 20.1862C20.4078 21.2922 19.9837 22.3596 19.4825 23.5816C19.1047 24.5097 18.3183 25.3605 18.1718 26.3969C18.0793 27.1239 18.1333 28.0443 18.2412 28.7636C18.2952 29.1658 21.865 28.0753 22.3199 28.1294C23.9776 28.346 25.2575 29.9547 26.5836 30.8132C27.717 31.5325 29.0894 32.275 29.2899 33.6595C29.5366 35.3301 29.2282 37.1941 29.2745 38.8879C29.367 42.2524 32.8366 44.8125 34.9029 47.1405C35.8204 48.1769 35.8975 49.4685 36.7996 50.4431C37.3008 50.9922 38.8197 53.7225 39.9299 52.7093C40.8166 51.9049 38.4958 49.4453 38.6809 48.3161C38.7811 47.6278 40.3386 49.0045 40.4311 49.105C41.0788 49.8785 41.418 50.9922 41.7572 51.9281C42.4897 53.9468 43.1374 54.8439 44.8259 55.6328C44.7257 56.5996 45.7126 57.2493 46.5915 57.7521C47.5553 58.3012 48.6039 58.3167 49.6293 58.773C50.6008 59.2139 51.6648 59.2061 52.5669 59.647C53.9085 60.2967 53.0064 60.9386 53.762 61.9054C54.6024 62.9882 56.1984 62.3231 57.3318 62.501C59.7605 62.88 59.3519 65.208 60.8631 66.6079C61.6881 67.3891 63.099 67.304 64.1399 67.42C64.5485 67.4664 65.0805 67.4742 65.4044 67.7681C66.2139 68.4874 65.2656 69.4774 64.9572 70.1812C64.5331 71.1248 64.2401 72.138 64.0551 73.1589C63.5385 76.0052 63.6465 79.184 65.7128 81.3883C67.9642 83.7937 70.7167 84.8842 71.5725 88.3183C72.305 91.1878 71.6265 93.9953 71.1022 96.8261C70.7784 98.5277 68.4576 101.482 70.763 102.735C72.7676 103.826 76.1755 100.825 77.4862 99.6801C80.578 96.9731 84.6644 95.3257 86.6999 91.5281C87.6637 89.726 88.5195 87.8233 90.208 86.5781C91.0947 85.9207 92.1202 85.4875 93.0685 84.9384C95.0809 83.786 96.2837 81.3342 97.1857 79.3C98.2497 76.8328 97.2706 75.4406 95.343 73.9942ZM59.0358 30.4652C59.5832 30.3337 60.3234 30.3646 60.5547 30.4188C61.4413 30.6353 62.0967 31.3314 62.7752 31.8883C63.2687 32.2828 63.685 32.7004 64.1245 33.1413C64.4098 33.4275 64.6796 33.6827 64.6179 34.1545C64.5717 34.5644 64.3404 34.7655 63.9703 34.8042C63.2995 34.8738 62.9988 34.4329 62.3974 34.3324C60.971 34.0926 60.3773 36.5057 58.951 35.8483C58.5886 35.6782 58.6965 35.3765 58.6965 34.9898C58.6888 34.6959 58.6965 34.4329 58.8045 34.1777C58.9432 33.8528 59.1668 33.5821 59.4367 33.3424C59.6063 33.1954 59.8839 33.0794 60.015 32.886C60.3311 32.3911 59.8839 31.8651 59.4367 31.6795C59.1591 31.5635 58.7505 31.5557 58.5732 31.3082C58.2416 30.8364 58.5654 30.5889 59.0358 30.4652Z" fill="#45DCC0"/>
<path d="M116.184 57.2416C116.168 54.9213 116.276 51.7425 114.349 50.0641C112.568 48.5095 110.37 49.4531 108.898 50.9381C106.045 53.8231 104.888 59.2681 107.263 62.7717C108.142 64.0711 109.26 65.1539 110.725 65.4942C112.159 65.8268 114.896 66.0047 115.598 64.5352C115.999 63.6921 115.844 62.7021 115.844 61.7817C115.837 60.2116 116.199 58.7963 116.184 57.2416Z" fill="#45DCC0"/>
<path d="M71.5647 54.2948C70.8554 53.939 70.5855 53.3358 70.1152 52.8562C69.8839 52.6242 69.6063 52.4231 69.2054 52.2994C68.4498 52.0828 67.4938 52.1679 66.715 52.2143C65.5662 52.2839 62.6363 52.4772 62.4898 54.0937C62.2971 56.1588 65.1267 55.9268 66.53 55.9036C67.4938 55.8881 68.4267 55.5323 69.3905 55.7721C70.8014 56.1201 70.4853 57.3808 71.5801 57.8604C71.9734 58.0305 73.1916 58.2626 73.5694 58.2935C74.9726 58.4172 78.342 57.6051 77.4476 55.5942C76.638 53.7457 73.0065 55.0141 71.5647 54.2948Z" fill="#45DCC0"/>
<path d="M94.2605 36.0802C92.9376 35.2673 90.2714 33.9299 87.8989 34.6822C85.5265 35.4345 84.1084 38.0669 83.4902 39.4954C83.353 39.4127 83.2314 39.3325 83.1297 39.2682C82.849 39.0825 82.7322 38.7112 82.8559 38.3973C83.353 37.126 84.8127 34.0126 87.421 33.1855C90.0293 32.3584 93.0045 34.0656 94.1384 34.8197C94.4191 35.0053 94.5359 35.3767 94.4122 35.6906C94.3745 35.8065 94.3187 35.9355 94.2605 36.0802Z" fill="#D6A528"/>
<path d="M84.1275 41.5149C85.4504 42.3279 88.1166 43.6652 90.489 42.9129C92.8614 42.1606 94.2796 39.5282 94.8978 38.0997C95.0349 38.1824 95.1565 38.2627 95.2582 38.3269C95.539 38.5126 95.6557 38.8839 95.5321 39.1978C95.0349 40.4691 93.5753 43.5825 90.967 44.4096C88.3587 45.2367 85.3835 43.5296 84.2496 42.7755C83.9688 42.5898 83.8521 42.2185 83.9758 41.9045C84.0134 41.7886 84.0692 41.6596 84.1275 41.5149Z" fill="#D6A528"/>
<path d="M82.3699 40.4346C82.9835 39.0146 84.7735 35.5358 87.8607 34.5567C90.53 33.7102 93.2625 35.6582 95.0744 35.8337C95.5029 35.876 95.8361 35.5921 95.8361 35.5921L96.4666 37.5978C96.4666 37.5978 96.0315 37.5576 95.7049 37.8394C94.3218 39.0281 93.1985 42.1989 90.5292 43.0455C87.4419 44.0245 83.9855 42.2021 82.6734 41.4003C82.3483 41.1915 82.221 40.7863 82.3699 40.4346Z" fill="#F5C227"/>
<path d="M82.5155 41.2397L83.203 41.0217C83.3648 40.9704 83.4504 40.7948 83.4016 40.6395C83.3506 40.4774 83.1755 40.3919 83.0205 40.441L82.333 40.659C82.1712 40.7103 82.0856 40.886 82.1344 41.0413C82.1765 41.1987 82.3538 41.291 82.5155 41.2397Z" fill="#D6A528"/>
<path d="M96.4563 37.6045L98.1709 37.6329C98.4324 37.6391 98.6132 37.3886 98.5346 37.1386L97.7934 34.7807C97.717 34.5375 97.419 34.4388 97.2131 34.5859L95.8256 35.598L96.4563 37.6045Z" fill="#D6A528"/>
<path d="M91.9276 40.1617C91.7637 40.2136 91.5891 40.1227 91.5375 39.9585C91.4859 39.7944 91.5769 39.6192 91.7407 39.5672C91.9045 39.5153 92.0792 39.6062 92.1308 39.7704C92.1824 39.9345 92.0914 40.1097 91.9276 40.1617Z" fill="#F6D36A"/>
<path d="M91.9201 38.5138C91.6632 38.5953 91.3893 38.4527 91.3084 38.1953C91.2275 37.9378 91.3702 37.6631 91.6271 37.5816C91.884 37.5001 92.1579 37.6428 92.2388 37.9002C92.3197 38.1576 92.177 38.4323 91.9201 38.5138Z" fill="#F6D36A"/>
<path d="M93.8779 37.6482C93.6769 37.712 93.4625 37.6004 93.3992 37.3989C93.3359 37.1975 93.4476 36.9825 93.6486 36.9187C93.8497 36.8549 94.064 36.9665 94.1274 37.168C94.1907 37.3694 94.079 37.5844 93.8779 37.6482Z" fill="#F6D36A"/>
<path d="M91.2925 36.5198C91.0914 36.5836 90.8771 36.472 90.8138 36.2705C90.7504 36.0691 90.8621 35.854 91.0632 35.7903C91.2642 35.7265 91.4786 35.8381 91.5419 36.0396C91.6052 36.241 91.4936 36.456 91.2925 36.5198Z" fill="#F6D36A"/>
<path d="M93.2151 39.2856C93.0662 39.3328 92.9074 39.2502 92.8605 39.1009C92.8136 38.9517 92.8963 38.7924 93.0453 38.7452C93.1942 38.698 93.353 38.7806 93.3999 38.9299C93.4468 39.0791 93.3641 39.2384 93.2151 39.2856Z" fill="#F6D36A"/>
<path d="M89.8209 38.2714C89.59 38.3447 89.3439 38.2165 89.2712 37.9852C89.1985 37.7539 89.3267 37.5071 89.5576 37.4338C89.7884 37.3606 90.0345 37.4888 90.1072 37.7201C90.1799 37.9514 90.0517 38.1982 89.8209 38.2714Z" fill="#F6D36A"/>
<path d="M89.5802 42.0494C89.4014 42.1061 89.2109 42.0069 89.1546 41.8279C89.0983 41.6488 89.1976 41.4577 89.3763 41.401C89.5551 41.3443 89.7456 41.4435 89.8019 41.6226C89.8582 41.8016 89.7589 41.9928 89.5802 42.0494Z" fill="#F6D36A"/>
<path d="M90.1501 40.2114C89.9975 40.2598 89.8347 40.1751 89.7866 40.0221C89.7386 39.8692 89.8234 39.7059 89.976 39.6575C90.1287 39.6091 90.2914 39.6938 90.3395 39.8468C90.3876 39.9997 90.3028 40.163 90.1501 40.2114Z" fill="#F6D36A"/>
<path d="M88.5648 36.1871C88.4009 36.239 88.2263 36.1481 88.1747 35.9839C88.1231 35.8198 88.2141 35.6446 88.3779 35.5926C88.5417 35.5407 88.7164 35.6316 88.768 35.7957C88.8196 35.9599 88.7286 36.1351 88.5648 36.1871Z" fill="#F6D36A"/>
<path d="M88.8348 39.0446C88.9091 39.2809 88.5532 39.5869 88.1069 39.6764C87.1875 39.864 86.4796 39.8286 86.3926 39.5518C86.3055 39.2749 86.8648 38.8376 87.7248 38.461C88.1481 38.2747 88.6077 38.3221 88.682 38.5584L88.8348 39.0446Z" fill="#D6A528"/>
<path d="M87.4941 41.2841C87.4009 41.3136 87.3015 41.2618 87.2721 41.1684C87.2428 41.0749 87.2945 40.9752 87.3877 40.9456C87.4809 40.916 87.5802 40.9679 87.6096 41.0613C87.639 41.1548 87.5872 41.2545 87.4941 41.2841Z" fill="#F6D36A"/>
<path d="M91.5958 41.7682C91.4171 41.8249 91.2265 41.7257 91.1703 41.5466C91.114 41.3675 91.2132 41.1764 91.392 41.1197C91.5707 41.063 91.7612 41.1623 91.8175 41.3413C91.8738 41.5204 91.7745 41.7115 91.5958 41.7682Z" fill="#F6D36A"/>
<path d="M92.8884 36.5052C92.7655 36.5441 92.6345 36.4759 92.5958 36.3528C92.5571 36.2297 92.6253 36.0983 92.7482 36.0593C92.8711 36.0204 93.0021 36.0886 93.0408 36.2117C93.0795 36.3348 93.0112 36.4662 92.8884 36.5052Z" fill="#F6D36A"/>
<path d="M95.031 37.0983C94.9229 37.1325 94.8076 37.0724 94.7735 36.964C94.7395 36.8556 94.7995 36.7399 94.9075 36.7056C95.0156 36.6713 95.1309 36.7314 95.165 36.8399C95.1991 36.9483 95.1391 37.064 95.031 37.0983Z" fill="#F6D36A"/>
<path d="M87.4729 37.5439C87.324 37.5911 87.1652 37.5085 87.1183 37.3592C87.0714 37.21 87.1541 37.0507 87.3031 37.0035C87.452 36.9563 87.6108 37.0389 87.6577 37.1882C87.7046 37.3374 87.6219 37.4967 87.4729 37.5439Z" fill="#F6D36A"/>
<path d="M85.0939 40.4156C84.77 40.5183 84.4247 40.3385 84.3226 40.0139C84.2206 39.6894 84.4005 39.343 84.7245 39.2402C85.0484 39.1375 85.3937 39.3173 85.4958 39.6419C85.5978 39.9664 85.4179 40.3128 85.0939 40.4156Z" fill="white"/>
<path d="M84.9899 40.0844C84.8484 40.1292 84.6976 40.0507 84.653 39.9089C84.6084 39.7672 84.687 39.6159 84.8285 39.571C84.97 39.5261 85.1208 39.6047 85.1654 39.7464C85.21 39.8882 85.1314 40.0395 84.9899 40.0844Z" fill="black"/>
<path d="M58.0859 92.0299L57.7245 90.4938C57.6276 90.0778 57.8819 89.6672 58.2967 89.5701L60.3448 89.0844C60.7595 88.9873 61.1688 89.2424 61.2656 89.6584L61.556 90.8744C61.6464 91.2456 61.4494 91.624 61.0987 91.7658L59.128 92.5779C58.6879 92.7392 58.1957 92.4907 58.0859 92.0299Z" fill="#7E888C"/>
<path d="M58.6539 89.4158C58.9229 89.7801 59.4403 89.8492 59.7971 89.5793L61.6704 88.1655C62.0336 87.8955 62.1025 87.3766 61.8335 87.0187C61.5644 86.6543 61.0471 86.5852 60.6902 86.8551L58.8169 88.269C58.4601 88.5389 58.3848 89.0514 58.6539 89.4158Z" fill="#7E888C"/>
<path d="M64.8671 87.4976C65.4911 86.8684 67.9868 86.6313 67.9868 86.6313C67.9868 86.6313 66.6317 88.4537 66.2 89.3834C66.6429 90.3045 68.0011 92.1262 68.0011 92.1262C68.0011 92.1262 65.5042 91.9021 64.8769 91.2761C64.3648 90.7651 64.2671 89.9968 64.5911 89.3876C64.2639 88.78 64.3577 88.0113 64.8671 87.4976Z" fill="#7E888C"/>
<path d="M47.1556 86.8648C48.4506 86.458 49.9246 86.1659 51.4824 86.1619C55.5874 86.1512 60.7498 87.6298 63.1455 88.2704C63.5799 88.3846 64.7424 88.5672 65.215 88.6429C65.3363 88.6618 65.426 88.764 65.4263 88.8857L65.4287 89.8015C65.429 89.9295 65.3335 90.0387 65.2058 90.0454C64.7207 90.0851 63.5782 90.1905 63.1508 90.3069C60.7583 90.96 55.6041 92.6257 51.4991 92.6364C49.9413 92.6405 48.4658 92.3562 47.1687 91.9561C47.5946 91.2057 47.8413 90.3341 47.8389 89.4055C47.8301 88.4833 47.5853 87.613 47.1556 86.8648Z" fill="#A6AFB2"/>
<path d="M104.539 66.6199C104.401 67.2044 103.703 67.459 103.235 67.0783C102.448 66.4474 102.059 65.3954 102.307 64.3502C102.554 63.305 103.378 62.5501 104.357 62.3336C104.939 62.2038 105.454 62.7554 105.317 63.333L104.539 66.6199Z" fill="#E23F2C"/>
<path d="M101.5 65.6203L101.154 67.0845C101.12 67.2288 100.975 67.3178 100.831 67.2834L98.7664 66.7902C98.5126 66.7295 98.4861 66.3819 98.7277 66.2798L101.139 65.3089C101.347 65.2278 101.551 65.4072 101.5 65.6203Z" fill="#E23F2C"/>
<path d="M96.9551 67.3477L97.3242 65.7872C97.4234 65.3678 97.1617 64.9422 96.7433 64.8422L94.6577 64.344C94.2393 64.244 93.8149 64.5058 93.7157 64.9252L93.423 66.1625C93.3335 66.5406 93.5331 66.9224 93.8906 67.0659L95.898 67.8941C96.3483 68.0743 96.8445 67.8151 96.9551 67.3477Z" fill="#E23F2C"/>
<path d="M94.1551 58.9754C94.2185 58.7074 94.4142 58.4928 94.6783 58.4179C95.6798 58.1054 96.7944 57.9578 97.8781 58.2166C99.4145 58.5835 100.635 59.7027 101.5 60.7949C101.644 60.9818 101.697 61.2194 101.641 61.4531L101.586 61.6867C101.445 62.2845 100.708 62.4862 100.283 62.0505C99.5053 61.2623 98.5377 60.5739 97.3855 60.2987C96.5761 60.1054 95.7575 60.1349 94.973 60.296C94.417 60.4101 93.9356 59.903 94.0656 59.3533L94.1551 58.9754Z" fill="#E23F2C"/>
<path d="M90.9081 61.6385C90.9081 61.6385 92.9226 59.926 95.3417 59.4142C95.85 60.4219 96.0184 61.6098 95.7386 62.7924C95.4588 63.975 94.7764 64.9597 93.8712 65.6297C91.947 64.0805 90.9081 61.6385 90.9081 61.6385Z" fill="#F49967"/>
<path d="M93.8971 62.8532C94.3065 62.951 94.7169 62.6981 94.8138 62.2881C94.9106 61.8782 94.6574 61.4665 94.248 61.3686C93.8387 61.2708 93.4283 61.5237 93.3314 61.9337C93.2345 62.3436 93.4878 62.7553 93.8971 62.8532Z" fill="white"/>
<path d="M93.993 62.4478C94.1787 62.4922 94.3649 62.3774 94.4089 62.1914C94.4528 62.0054 94.3379 61.8187 94.1522 61.7743C93.9665 61.7298 93.7803 61.8446 93.7363 62.0306C93.6924 62.2166 93.8073 62.4034 93.993 62.4478Z" fill="black"/>
<path d="M95.3404 59.4051C96.142 59.2334 96.9846 59.195 97.8147 59.3933C101.149 60.1898 102.989 64.515 102.989 64.515C102.989 64.515 99.4155 67.5471 96.0745 66.749C95.2444 66.5507 94.5092 66.1354 93.8701 65.6196C94.7752 64.9497 95.4575 63.9651 95.7372 62.7827C96.0169 61.6003 95.8469 60.4194 95.3404 59.4051Z" fill="#ED7D33"/>
<path d="M97.225 63.727C97.4872 63.9058 97.9345 64.1289 98.2286 64.2645C98.3197 64.308 98.4268 64.2537 98.4496 64.1575L98.7391 62.9339C98.7618 62.8376 98.6905 62.7407 98.5896 62.7384C98.2663 62.7265 97.7669 62.7234 97.4527 62.7646C96.7869 62.8525 96.7763 63.1114 96.7763 63.1114C96.7763 63.1114 96.6698 63.3474 97.225 63.727Z" fill="#E23F2C"/>
<path d="M86.0101 52.1876V52.9302C86.0101 53.1289 86.1717 53.291 86.3698 53.291H87.3603C87.5584 53.291 87.72 53.1289 87.72 52.9302V52.3393C87.72 52.1615 87.5896 52.0098 87.4124 51.9784L86.4219 51.8215C86.2082 51.7954 86.0101 51.9627 86.0101 52.1876Z" fill="#7E888C"/>
<path d="M86.1666 53.725L86.0415 54.546C85.9946 54.8336 86.1979 55.1108 86.4846 55.1526C86.7713 55.1996 87.0476 54.9957 87.0893 54.7081L87.2144 53.8871C87.2614 53.5995 87.0581 53.3223 86.7713 53.2805C86.4846 53.2386 86.2135 53.4373 86.1666 53.725Z" fill="#7E888C"/>
<path d="M83.1741 53.8979C83.148 54.1803 83.3566 54.4313 83.6329 54.4574L84.4617 54.5359C84.7432 54.562 84.9935 54.3528 85.0195 54.0757C85.0456 53.7933 84.8371 53.5423 84.5608 53.5161L83.7319 53.4377C83.4504 53.4063 83.2002 53.6155 83.1741 53.8979Z" fill="#7E888C"/>
<path d="M81.6259 54.1013C81.3705 54.3576 80.3644 54.4465 80.3644 54.4465C80.3644 54.4465 80.9117 53.7091 81.089 53.3326C80.9117 52.9561 80.3644 52.2188 80.3644 52.2188C80.3644 52.2188 81.3757 52.3129 81.6259 52.5639C81.8344 52.7731 81.8709 53.0816 81.7406 53.3274C81.8709 53.5836 81.8344 53.8974 81.6259 54.1013Z" fill="#7E888C"/>
<path d="M89.2004 54.3424C87.9232 54.3424 81.089 53.9501 81.089 53.3435C81.089 52.7369 88.1161 52.3447 89.2004 52.3447C88.9606 52.6114 88.8147 52.9618 88.8147 53.3435C88.8147 53.7253 88.9606 54.0757 89.2004 54.3424Z" fill="#A6AFB2"/>
<path d="M91.0928 53.3382C91.0928 53.9448 89.8104 54.337 89.2057 54.337C88.9659 54.0703 88.8199 53.7199 88.8199 53.3382C88.8199 52.9564 88.9659 52.6008 89.2057 52.3394C89.8104 52.3394 91.0928 52.7316 91.0928 53.3382Z" fill="#C5D0D0"/>
<path d="M89.9564 53.8349C89.6829 53.8349 89.4612 53.6125 89.4612 53.3381C89.4612 53.0637 89.6829 52.8413 89.9564 52.8413C90.2299 52.8413 90.4517 53.0637 90.4517 53.3381C90.4517 53.6125 90.2299 53.8349 89.9564 53.8349Z" fill="white"/>
<path d="M89.9564 53.6153C89.8038 53.6153 89.6801 53.4913 89.6801 53.3382C89.6801 53.1851 89.8038 53.061 89.9564 53.061C90.109 53.061 90.2327 53.1851 90.2327 53.3382C90.2327 53.4913 90.109 53.6153 89.9564 53.6153Z" fill="black"/>
</g>
<defs>
<clipPath id="clip0_1206_3164">
<rect width="51" height="99" fill="white" transform="translate(10 10)"/>
</clipPath>
<clipPath id="clip1_1206_3164">
<rect width="50" height="99" fill="white" transform="translate(60 10)"/>
</clipPath>
</defs>
</svg>
