<svg width="121" height="120" viewBox="0 0 121 120" fill="none" xmlns="http://www.w3.org/2000/svg">
<path d="M65.5564 36.71H71.821V57.9593H65.5564V36.71Z" fill="#B7B75C"/>
<path d="M71.8209 36.71H93.5515V57.9593H71.8209V36.71Z" fill="#E8D980"/>
<path d="M71.8209 36.7098H93.5515V13.3565C93.5515 11.6734 92.1811 10.2007 90.6149 10.2007H71.6251V36.7098H71.8209Z" fill="#DCEEFF"/>
<path d="M65.5564 36.7098H71.821V10.2007H68.2972C66.9268 10.2007 65.5564 11.463 65.5564 13.1461V36.7098Z" fill="#B6D4FF"/>
<path d="M71.7721 57.9639H93.4515V71.0933C93.4515 72.7606 92.0844 74.2194 90.5219 74.2194H71.5768V57.9639H71.7721Z" fill="#E2D2BF"/>
<path d="M65.5563 57.9639H71.7776V74.2194H68.2781C66.9172 74.2194 65.5563 72.9527 65.5563 71.2638V57.9639Z" fill="#CEBDAB"/>
<path d="M88.033 74.2192L86.6282 80.4405L76.5939 80.4405L74.1186 74.2192L88.033 74.2192Z" fill="#F7EDDF"/>
<path d="M87.9327 74.2271L87.5314 76.3264L71.1755 76.3264L70.5536 74.227L87.9327 74.2271Z" fill="#A8A7A6" fill-opacity="0.25"/>
<path d="M74.1187 74.2192L70.4731 74.2192L72.5803 80.4404L76.5941 80.4404L74.1187 74.2192Z" fill="#CEBDAB"/>
<path d="M85.1231 64.8875C85.1231 66.2729 84 67.396 82.6145 67.396C81.2291 67.396 80.106 66.2729 80.106 64.8875C80.106 63.502 81.2291 62.3789 82.6145 62.3789C84 62.3789 85.1231 63.502 85.1231 64.8875Z" fill="#F28A7F"/>
<path d="M37.8614 36.71H44.1261V57.9593H37.8614V36.71Z" fill="#BCBEC0"/>
<path d="M44.1262 36.71H65.8568V57.9593H44.1262V36.71Z" fill="#F1F2F2"/>
<path d="M44.1262 36.7098H65.8568V13.3565C65.8568 11.6734 64.4864 10.2007 62.9202 10.2007H43.9304V36.7098H44.1262Z" fill="#DCEEFF"/>
<path d="M37.8614 36.7098H44.1261V10.2007H40.6022C39.2318 10.2007 37.8614 11.463 37.8614 13.1461V36.7098Z" fill="#B6D4FF"/>
<path d="M44.0774 57.9639H65.7568V71.0933C65.7568 72.7606 64.3897 74.2194 62.8272 74.2194H43.8821V57.9639H44.0774Z" fill="#E2D2BF"/>
<path d="M37.8616 57.9639H44.0829V74.2194H40.5834C39.2225 74.2194 37.8616 72.9527 37.8616 71.2638V57.9639Z" fill="#CEBDAB"/>
<path d="M60.3385 74.2192L58.9337 80.4405L48.8994 80.4405L46.4241 74.2192L60.3385 74.2192Z" fill="#F7EDDF"/>
<path d="M60.238 74.2271L59.8367 76.3264L43.4808 76.3264L42.8589 74.227L60.238 74.2271Z" fill="#A8A7A6" fill-opacity="0.25"/>
<path d="M46.424 74.2192L42.7784 74.2192L44.8856 80.4404L48.8994 80.4404L46.424 74.2192Z" fill="#CEBDAB"/>
<circle cx="54.8195" cy="64.4861" r="2.50857" fill="#F28A7F"/>
<path d="M9.96628 36.5093H16.231V57.7586H9.96628V36.5093Z" fill="#CB9A5F"/>
<path d="M16.2311 36.5093H37.9617V57.7586H16.2311V36.5093Z" fill="#E8C078"/>
<path d="M16.2311 36.5091H37.9617V13.1559C37.9617 11.4727 36.5913 10 35.0251 10H16.0353V36.5091H16.2311Z" fill="#DCEEFF"/>
<path d="M9.96628 36.5091H16.231V10H12.7071C11.3367 10 9.96628 11.2623 9.96628 12.9455V36.5091Z" fill="#B6D4FF"/>
<path d="M16.1822 57.7632H37.8616V70.8926C37.8616 72.5599 36.4944 74.0187 34.9319 74.0187H15.9868V57.7632H16.1822Z" fill="#E2D2BF"/>
<path d="M9.96637 57.7632H16.1876V74.0187H12.6882C11.3273 74.0187 9.96637 72.7521 9.96637 71.0632V57.7632Z" fill="#CEBDAB"/>
<path d="M32.4431 74.0186L31.0383 80.2398L21.004 80.2398L18.5287 74.0186L32.4431 74.0186Z" fill="#F7EDDF"/>
<path d="M32.3428 74.0269L31.9414 76.1262L15.5855 76.1262L14.9636 74.0268L32.3428 74.0269Z" fill="#A8A7A6" fill-opacity="0.25"/>
<path d="M18.5286 74.019L14.883 74.019L16.9902 80.2402L21.004 80.2402L18.5286 74.019Z" fill="#CEBDAB"/>
<circle cx="26.9242" cy="64.2854" r="2.50857" fill="#F28A7F"/>
<rect x="0.333374" y="97.0977" width="102.35" height="13.2452" rx="6.62262" fill="#BBBBBB"/>
<rect x="11.1704" y="98.5024" width="90.3085" height="10.4356" rx="5.21782" fill="#DEDEDE"/>
<circle cx="19.9003" cy="104.021" r="3.31131" fill="#BBBBBB"/>
<circle cx="94.5552" cy="104.021" r="3.31131" fill="#BBBBBB"/>
<circle cx="69.6702" cy="104.021" r="3.31131" fill="#BBBBBB"/>
<circle cx="44.7853" cy="104.021" r="3.31131" fill="#BBBBBB"/>
<path d="M57.561 97.0973H43.3802C42.2495 97.0973 41.545 96.0898 41.3072 95.0171L40.2698 87.2637H60.3383L59.6339 95.0171C59.3807 96.1794 58.6917 97.0973 57.561 97.0973Z" fill="#A7A9AC"/>
<path d="M59.8716 97.0973H45.5531C44.4114 97.0973 43.46 96.1517 43.46 95.0171L43.0795 87.2637H62.6463L61.9647 95.0171C61.9647 96.1517 61.0133 97.0973 59.8716 97.0973Z" fill="#D1D3D4"/>
<path d="M57.9073 93.4854H48.7217C47.9127 93.4854 47.2939 92.8766 47.2939 92.0806C47.2939 91.2845 47.9127 90.6758 48.7217 90.6758H57.9073C58.7164 90.6758 59.3351 91.2845 59.3351 92.0806C59.3351 92.8298 58.6688 93.4854 57.9073 93.4854Z" fill="#EDE5DD" stroke="#F28A7F" stroke-width="0.802742" stroke-miterlimit="10"/>
<path d="M86.8611 97.0973H72.6803C71.5496 97.0973 70.8452 96.0898 70.6074 95.0171L69.5699 87.2637H89.6385L88.9341 95.0171C88.6809 96.1794 87.9918 97.0973 86.8611 97.0973Z" fill="#A7A9AC"/>
<path d="M89.1718 97.0973H74.8533C73.7116 97.0973 72.7602 96.1517 72.7602 95.0171L72.3796 87.2637H91.9465L91.2649 95.0171C91.2649 96.1517 90.3135 97.0973 89.1718 97.0973Z" fill="#D1D3D4"/>
<path d="M87.2072 93.4854H78.0217C77.2126 93.4854 76.5939 92.8766 76.5939 92.0806C76.5939 91.2845 77.2126 90.6758 78.0217 90.6758H87.2072C88.0163 90.6758 88.635 91.2845 88.635 92.0806C88.635 92.8298 87.9687 93.4854 87.2072 93.4854Z" fill="#EDE5DD" stroke="#F28A7F" stroke-width="0.802742" stroke-miterlimit="10"/>
<path d="M114.355 97.0973H100.174C99.0435 97.0973 98.3391 96.0898 98.1013 95.0171L97.0638 87.2637H117.132L116.428 95.0171C116.175 96.1794 115.486 97.0973 114.355 97.0973Z" fill="#A7A9AC"/>
<path d="M116.666 97.0973H102.347C101.205 97.0973 100.254 96.1517 100.254 95.0171L99.8735 87.2637H119.44L118.759 95.0171C118.759 96.1517 117.807 97.0973 116.666 97.0973Z" fill="#D1D3D4"/>
<path d="M114.701 93.4854H105.516C104.706 93.4854 104.088 92.8766 104.088 92.0806C104.088 91.2845 104.706 90.6758 105.516 90.6758H114.701C115.51 90.6758 116.129 91.2845 116.129 92.0806C116.129 92.8298 115.463 93.4854 114.701 93.4854Z" fill="#EDE5DD" stroke="#F28A7F" stroke-width="0.802742" stroke-miterlimit="10"/>
<path d="M98.8426 83.8521H111.541C112.863 83.8521 113.921 84.9905 113.921 86.4135V86.461H96.4617V86.4135C96.4617 85.0379 97.5199 83.8521 98.8426 83.8521Z" fill="#A7A9AC"/>
<path d="M104.636 83.8521H117.587C118.895 83.8521 119.942 84.9702 119.942 86.3678V86.461H102.282V86.3678C102.282 84.9702 103.328 83.8521 104.636 83.8521Z" fill="#D1D3D4"/>
<path d="M96.7008 87.2637H113.889C114.149 87.2637 114.323 87.0128 114.323 86.762C114.323 86.4609 114.106 86.2603 113.889 86.2603H96.7008C96.4404 86.2603 96.2667 86.5111 96.2667 86.762C96.2233 87.0128 96.4404 87.2637 96.7008 87.2637Z" fill="#D1D3D4"/>
<path d="M102.477 87.2637H119.709C119.969 87.2637 120.143 87.0128 120.143 86.762C120.143 86.4609 119.926 86.2603 119.709 86.2603H102.521C102.26 86.2603 102.087 86.5111 102.087 86.762C102.043 87.0128 102.26 87.2637 102.477 87.2637Z" fill="#E6E7E8"/>
<path d="M29.2643 97.0973H15.0835C13.9528 97.0973 13.2484 96.0898 13.0106 95.0171L11.9731 87.2637H32.0417L31.3373 95.0171C31.0841 96.1794 30.395 97.0973 29.2643 97.0973Z" fill="#A7A9AC"/>
<path d="M31.5749 97.0973H17.2564C16.1147 97.0973 15.1633 96.1517 15.1633 95.0171L14.7827 87.2637H34.3496L33.668 95.0171C33.668 96.1517 32.7166 97.0973 31.5749 97.0973Z" fill="#D1D3D4"/>
<path d="M29.6105 93.4849H20.425C19.6159 93.4849 18.9972 92.8761 18.9972 92.0801C18.9972 91.284 19.6159 90.6753 20.425 90.6753H29.6105C30.4196 90.6753 31.0383 91.284 31.0383 92.0801C31.0383 92.8293 30.372 93.4849 29.6105 93.4849Z" fill="#EDE5DD" stroke="#F28A7F" stroke-width="0.802742" stroke-miterlimit="10"/>
</svg>
