<svg width="121" height="120" viewBox="0 0 121 120" fill="none" xmlns="http://www.w3.org/2000/svg">
<path d="M18.7711 35.4302H24.8804L30.6901 41.7392V59.7675L21.8212 61.465L12.9523 59.7675V41.7392L18.7711 35.4302Z" fill="#F28A7F"/>
<path d="M33.3408 42.61C30.7976 42.5685 28.2896 42.0095 25.9697 40.9669C25.5438 40.7202 25.224 40.3248 25.0717 39.8568C24.9195 39.3887 24.9454 38.8809 25.1446 38.4308C25.3437 37.9807 25.7021 37.62 26.1509 37.4179C26.5998 37.2158 27.1074 37.1866 27.5764 37.3358C32.1153 39.3329 35.7464 38.7429 37.5619 37.5265C39.7678 36.0831 40.8843 33.2146 40.8843 28.9753C40.8843 28.4481 41.0938 27.9424 41.4666 27.5696C41.8394 27.1967 42.3451 26.9873 42.8723 26.9873C43.3996 26.9873 43.9053 27.1967 44.2781 27.5696C44.6509 27.9424 44.8604 28.4481 44.8604 28.9753C44.8604 32.8697 43.9526 38.053 39.7224 40.858C37.8134 42.0561 35.5939 42.6654 33.3408 42.61V42.61Z" fill="#F28A7F"/>
<path d="M7.79607 60.4749C7.28053 60.4633 6.78949 60.2527 6.42571 59.8872C6.06192 59.5217 5.8536 59.0297 5.84436 58.5141C5.89425 54.0147 6.70135 49.5557 8.2318 45.3242C10.7463 38.5886 14.0143 37.1543 16.3109 37.1543C16.8382 37.1543 17.3439 37.3638 17.7167 37.7366C18.0895 38.1094 18.299 38.6151 18.299 39.1423C18.299 39.6696 18.0895 40.1752 17.7167 40.5481C17.3439 40.9209 16.8382 41.1303 16.3109 41.1303C14.913 41.1303 13.2427 43.2636 11.9627 46.6859C10.6046 50.4747 9.88375 54.4624 9.82947 58.4869C9.82229 59.0198 9.60431 59.5282 9.22322 59.9007C8.84214 60.2733 8.32899 60.4797 7.79607 60.4749Z" fill="#F28A7F"/>
<path d="M12.9522 59.7677L16.084 53.0684H27.1315L30.69 59.7314L31.2619 85.9205H24.1359L22.5655 70.6972H21.3491L19.7695 85.9205H12.6708L12.9522 59.7677Z" fill="#46617B"/>
<path d="M24.3265 33.7778H26.723V54.7836H24.3265V33.7778Z" fill="#517491"/>
<path d="M16.3926 35.0752H18.7891V54.7829H16.3926V35.0752Z" fill="#517491"/>
<path d="M31.2529 95.8775H24.136V85.9556H31.2438L31.2529 95.8775Z" fill="#6D6E70"/>
<path d="M23.6366 97.8844H31.8065V97.0946C31.8041 96.0152 31.3736 94.9808 30.6095 94.2184C29.8454 93.456 28.8101 93.0278 27.7306 93.0278V93.0278C26.6528 93.0302 25.6198 93.4595 24.8576 94.2216C24.0955 94.9838 23.6662 96.0168 23.6638 97.0946V97.8844H23.6366Z" fill="#434444"/>
<path d="M24.0631 99.2639H31.3253C31.4401 99.2616 31.5496 99.215 31.6308 99.1337C31.712 99.0525 31.7587 98.943 31.761 98.8282V97.9204H23.5911V98.8282C23.5909 98.8886 23.6032 98.9484 23.6273 99.0038C23.6515 99.0591 23.6869 99.1089 23.7312 99.1499C23.7756 99.1909 23.8281 99.2222 23.8852 99.2418C23.9423 99.2614 24.0029 99.269 24.0631 99.2639V99.2639Z" fill="#414042"/>
<path d="M19.7876 95.8775H12.6798V85.9556H19.7876V95.8775Z" fill="#6D6E70"/>
<path d="M12.1624 97.9017H20.3323V97.112C20.3359 96.5729 20.2325 96.0385 20.0282 95.5396C19.8238 95.0408 19.5225 94.5874 19.1418 94.2058C18.761 93.8242 18.3083 93.5219 17.8099 93.3164C17.3115 93.111 16.7773 93.0064 16.2382 93.0088V93.0088C15.1573 93.0088 14.1205 93.4382 13.3562 94.2026C12.5918 94.967 12.1624 96.0037 12.1624 97.0847V97.9017Z" fill="#434444"/>
<path d="M12.5895 99.2732H19.8516C19.9665 99.2709 20.076 99.2242 20.1572 99.143C20.2384 99.0618 20.285 98.9523 20.2874 98.8375V97.9297H12.1174V98.8375C12.1172 98.8979 12.1296 98.9577 12.1537 99.013C12.1778 99.0684 12.2132 99.1182 12.2576 99.1591C12.302 99.2001 12.3544 99.2314 12.4116 99.2511C12.4687 99.2707 12.5293 99.2783 12.5895 99.2732V99.2732Z" fill="#414042"/>
<path d="M21.558 39.2164C23.2433 39.2164 24.8596 38.5469 26.0512 37.3552C27.2429 36.1635 27.9124 34.5473 27.9124 32.862V25.0552H15.2036V32.862C15.2036 34.5473 15.8731 36.1635 17.0648 37.3552C18.2564 38.5469 19.8727 39.2164 21.558 39.2164V39.2164Z" fill="#FCC5A7"/>
<path d="M15.0583 24.8638V32.9066C15.0583 34.6352 15.745 36.293 16.9674 37.5154C18.1897 38.7377 19.8475 39.4244 21.5761 39.4244V39.4244C23.304 39.422 24.9605 38.7345 26.1823 37.5127C27.4041 36.2909 28.0915 34.6345 28.0939 32.9066V24.8638H15.0583ZM19.1978 34.8492C19.1951 34.5444 19.2941 34.2473 19.4792 34.005C20.1518 33.762 20.861 33.6361 21.5761 33.6329C22.2885 33.6344 22.995 33.7604 23.664 34.005C23.8482 34.2484 23.9499 34.5441 23.9545 34.8492C23.9526 35.0948 23.8869 35.3357 23.7639 35.5482C22.3296 35.9477 20.8135 35.9477 19.3793 35.5482C19.2681 35.3531 19.2 35.1364 19.1796 34.9128L19.1978 34.8492ZM16.4745 25.0998H26.6687V32.8885C26.633 33.3563 26.4338 33.7965 26.1059 34.1321C24.8341 33.0653 23.2271 32.4805 21.5671 32.4805C19.907 32.4805 18.3 33.0653 17.0282 34.1321C16.6996 33.7961 16.4975 33.3567 16.4563 32.8885L16.4745 25.0998Z" fill="#6D6E70"/>
<path d="M21.5578 32.9606C21.4092 32.9606 21.2621 32.9312 21.1249 32.8741C20.9878 32.8169 20.8633 32.7332 20.7586 32.6277C20.654 32.5222 20.5713 32.3971 20.5152 32.2594C20.4592 32.1218 20.431 31.9745 20.4322 31.8259V30.3735C20.431 30.2249 20.4592 30.0775 20.5152 29.9399C20.5713 29.8023 20.654 29.6771 20.7586 29.5716C20.8633 29.4662 20.9878 29.3824 21.1249 29.3253C21.2621 29.2682 21.4092 29.2388 21.5578 29.2388V29.2388C21.7064 29.2388 21.8535 29.2682 21.9907 29.3253C22.1278 29.3824 22.2523 29.4662 22.357 29.5716C22.4616 29.6771 22.5443 29.8023 22.6004 29.9399C22.6564 30.0775 22.6846 30.2249 22.6834 30.3735V31.7896C22.6896 31.9412 22.665 32.0925 22.6111 32.2343C22.5573 32.3762 22.4754 32.5057 22.3702 32.615C22.2651 32.7244 22.1389 32.8114 21.9993 32.8708C21.8597 32.9302 21.7095 32.9607 21.5578 32.9606V32.9606Z" fill="#F28A7F"/>
<path d="M21.7303 63.6792C20.5578 63.6792 19.4333 63.2134 18.6043 62.3843C17.7752 61.5553 17.3094 60.4308 17.3094 59.2583V56.6167H26.1511V59.2583C26.1511 60.4308 25.6854 61.5553 24.8563 62.3843C24.0272 63.2134 22.9028 63.6792 21.7303 63.6792Z" fill="#517491"/>
<path d="M5.44495 57.9518V60.2575C5.44495 60.4092 5.50519 60.5547 5.61245 60.6619C5.7197 60.7692 5.86516 60.8294 6.01684 60.8294H9.96563C10.1173 60.8294 10.2628 60.7692 10.37 60.6619C10.4773 60.5547 10.5375 60.4092 10.5375 60.2575V57.9518C10.5375 57.8001 10.4773 57.6546 10.37 57.5474C10.2628 57.4401 10.1173 57.3799 9.96563 57.3799H5.98053C5.836 57.3912 5.70092 57.4561 5.60182 57.5619C5.50272 57.6678 5.44677 57.8068 5.44495 57.9518V57.9518Z" fill="#FCC5A7"/>
<path d="M5.98064 62.3459C5.84654 62.3436 5.7186 62.2893 5.62376 62.1945C5.52893 62.0997 5.47462 61.9717 5.47229 61.8376V60.022C5.47229 59.8872 5.52585 59.7579 5.62118 59.6626C5.71651 59.5673 5.84582 59.5137 5.98064 59.5137V59.5137C6.11473 59.516 6.24268 59.5703 6.33751 59.6652C6.43235 59.76 6.48665 59.8879 6.48899 60.022V61.8376C6.48665 61.9717 6.43235 62.0997 6.33751 62.1945C6.24268 62.2893 6.11473 62.3436 5.98064 62.3459V62.3459Z" fill="#FCC5A7"/>
<path d="M8.70366 62.3459C8.56957 62.3436 8.44162 62.2893 8.34679 62.1945C8.25195 62.0997 8.19765 61.9717 8.19531 61.8376V60.022C8.19765 59.8879 8.25195 59.76 8.34679 59.6652C8.44162 59.5703 8.56957 59.516 8.70366 59.5137V59.5137C8.83933 59.5137 8.96959 59.567 9.06637 59.662C9.16315 59.7571 9.21871 59.8864 9.22109 60.022V61.8376C9.21871 61.9732 9.16315 62.1025 9.06637 62.1976C8.96959 62.2927 8.83933 62.3459 8.70366 62.3459Z" fill="#FCC5A7"/>
<path d="M7.30608 62.3459C7.17198 62.3436 7.04404 62.2893 6.9492 62.1945C6.85437 62.0997 6.80006 61.9717 6.79773 61.8376V60.022C6.79773 59.8872 6.85128 59.7579 6.94662 59.6626C7.04195 59.5673 7.17126 59.5137 7.30608 59.5137V59.5137C7.44175 59.5137 7.57201 59.567 7.66879 59.662C7.76557 59.7571 7.82113 59.8864 7.82351 60.022V61.8376C7.82352 61.9051 7.81007 61.972 7.78396 62.0343C7.75785 62.0965 7.71959 62.153 7.67142 62.2003C7.62325 62.2476 7.56613 62.2849 7.50341 62.3099C7.44068 62.3349 7.3736 62.3471 7.30608 62.3459V62.3459Z" fill="#FCC5A7"/>
<path d="M10.0202 62.3459C9.8861 62.3436 9.75815 62.2893 9.66331 62.1945C9.56848 62.0997 9.51417 61.9717 9.51184 61.8376V60.022C9.51417 59.8879 9.56848 59.76 9.66331 59.6652C9.75815 59.5703 9.8861 59.516 10.0202 59.5137V59.5137C10.1559 59.5137 10.2861 59.567 10.3829 59.662C10.4797 59.7571 10.5352 59.8864 10.5376 60.022V61.8376C10.5352 61.9732 10.4797 62.1025 10.3829 62.1976C10.2861 62.2927 10.1559 62.3459 10.0202 62.3459V62.3459Z" fill="#FCC5A7"/>
<path d="M12.0534 57.8882C12.0534 57.9562 12.04 58.0235 12.014 58.0863C11.988 58.149 11.9499 58.2061 11.9018 58.2541C11.8538 58.3022 11.7968 58.3403 11.734 58.3663C11.6712 58.3923 11.6039 58.4057 11.536 58.4057H9.72043C9.65248 58.4057 9.58519 58.3923 9.52242 58.3663C9.45964 58.3403 9.4026 58.3022 9.35455 58.2541C9.3065 58.2061 9.26839 58.149 9.24239 58.0863C9.21639 58.0235 9.203 57.9562 9.203 57.8882V57.8882C9.20538 57.7526 9.26094 57.6233 9.35772 57.5282C9.4545 57.4331 9.58476 57.3799 9.72043 57.3799H11.536C11.6709 57.3821 11.7999 57.4361 11.8962 57.5308C11.9925 57.6254 12.0488 57.7533 12.0534 57.8882V57.8882Z" fill="#FCC5A7"/>
<path d="M45.6229 29.5114V27.2057C45.6229 27.054 45.5626 26.9085 45.4554 26.8013C45.3481 26.694 45.2026 26.6338 45.051 26.6338H41.1022C40.9505 26.6338 40.805 26.694 40.6978 26.8013C40.5905 26.9085 40.5303 27.054 40.5303 27.2057V29.5114C40.5303 29.6639 40.5902 29.8103 40.6972 29.919C40.8042 30.0277 40.9497 30.09 41.1022 30.0924H45.0147C45.0932 30.0961 45.1717 30.0838 45.2454 30.0562C45.319 30.0287 45.3863 29.9865 45.4432 29.9322C45.5001 29.8778 45.5453 29.8126 45.5762 29.7402C45.6071 29.6679 45.6229 29.59 45.6229 29.5114Z" fill="#FCC5A7"/>
<path d="M45.1235 25.1275C45.2576 25.1299 45.3856 25.1842 45.4804 25.279C45.5752 25.3738 45.6295 25.5018 45.6318 25.6359V27.4515C45.6318 27.5863 45.5783 27.7155 45.483 27.8109C45.3876 27.9062 45.2583 27.9598 45.1235 27.9598V27.9598C45.056 27.961 44.9889 27.9488 44.9262 27.9237C44.8634 27.8987 44.8063 27.8615 44.7582 27.8142C44.71 27.7668 44.6717 27.7104 44.6456 27.6481C44.6195 27.5858 44.6061 27.519 44.6061 27.4515V25.6359C44.6061 25.5684 44.6195 25.5015 44.6456 25.4392C44.6717 25.377 44.71 25.3205 44.7582 25.2732C44.8063 25.2259 44.8634 25.1886 44.9262 25.1636C44.9889 25.1386 45.056 25.1263 45.1235 25.1275V25.1275Z" fill="#FCC5A7"/>
<path d="M42.4092 25.1274C42.5432 25.1298 42.6712 25.1841 42.766 25.2789C42.8609 25.3738 42.9152 25.5018 42.9175 25.6358V27.4514C42.9175 27.5862 42.8639 27.7155 42.7686 27.8108C42.6733 27.9061 42.544 27.9597 42.4092 27.9597V27.9597C42.3416 27.9609 42.2746 27.9487 42.2118 27.9237C42.1491 27.8987 42.092 27.8614 42.0438 27.8141C41.9956 27.7667 41.9574 27.7103 41.9313 27.648C41.9052 27.5857 41.8917 27.5189 41.8917 27.4514V25.6358C41.8941 25.5002 41.9497 25.3709 42.0465 25.2758C42.1432 25.1807 42.2735 25.1274 42.4092 25.1274Z" fill="#FCC5A7"/>
<path d="M43.7619 25.1274C43.896 25.1298 44.024 25.1841 44.1188 25.2789C44.2136 25.3738 44.2679 25.5018 44.2703 25.6358V27.4514C44.2703 27.5862 44.2167 27.7155 44.1214 27.8108C44.0261 27.9061 43.8968 27.9597 43.7619 27.9597V27.9597C43.6944 27.9609 43.6273 27.9487 43.5646 27.9237C43.5019 27.8987 43.4448 27.8614 43.3966 27.8141C43.3484 27.7667 43.3102 27.7103 43.2841 27.648C43.2579 27.5857 43.2445 27.5189 43.2445 27.4514V25.6358C43.2469 25.5002 43.3024 25.3709 43.3992 25.2758C43.496 25.1807 43.6263 25.1274 43.7619 25.1274Z" fill="#FCC5A7"/>
<path d="M41.0569 25.1275C41.191 25.1299 41.3189 25.1842 41.4137 25.279C41.5086 25.3738 41.5629 25.5018 41.5652 25.6359V27.4515C41.5652 27.5863 41.5117 27.7155 41.4163 27.8109C41.321 27.9062 41.1917 27.9598 41.0569 27.9598V27.9598C40.9893 27.961 40.9223 27.9488 40.8595 27.9237C40.7968 27.8987 40.7397 27.8615 40.6915 27.8142C40.6433 27.7668 40.6051 27.7104 40.579 27.6481C40.5529 27.5858 40.5394 27.519 40.5394 27.4515V25.6359C40.5394 25.5684 40.5529 25.5015 40.579 25.4392C40.6051 25.377 40.6433 25.3205 40.6915 25.2732C40.7397 25.2259 40.7968 25.1886 40.8595 25.1636C40.9223 25.1386 40.9893 25.1263 41.0569 25.1275V25.1275Z" fill="#FCC5A7"/>
<path d="M39.0232 29.5743C39.0255 29.4403 39.0798 29.3123 39.1747 29.2175C39.2695 29.1226 39.3974 29.0683 39.5315 29.066H41.3471C41.4146 29.0648 41.4817 29.0771 41.5444 29.1021C41.6071 29.1271 41.6643 29.1643 41.7124 29.2117C41.7606 29.259 41.7989 29.3154 41.825 29.3777C41.8511 29.44 41.8645 29.5068 41.8645 29.5743C41.8645 29.7116 41.81 29.8432 41.713 29.9402C41.6159 30.0373 41.4843 30.0918 41.3471 30.0918H39.5315C39.3959 30.0894 39.2666 30.0338 39.1715 29.937C39.0764 29.8403 39.0232 29.71 39.0232 29.5743V29.5743Z" fill="#FCC5A7"/>
<path d="M19.5972 87.2093H12.8616C12.6577 87.2069 12.4628 87.1249 12.3186 86.9807C12.1744 86.8365 12.0923 86.6416 12.09 86.4377V85.5299C12.0923 85.326 12.1744 85.1311 12.3186 84.9869C12.4628 84.8427 12.6577 84.7607 12.8616 84.7583H19.5972C19.8019 84.7583 19.9981 84.8396 20.1428 84.9843C20.2875 85.129 20.3688 85.3253 20.3688 85.5299V86.4377C20.3665 86.6416 20.2844 86.8365 20.1402 86.9807C19.996 87.1249 19.8011 87.2069 19.5972 87.2093V87.2093Z" fill="#414042"/>
<path d="M31.0802 87.2093H24.3354C24.1308 87.2093 23.9345 87.128 23.7898 86.9833C23.6451 86.8386 23.5638 86.6423 23.5638 86.4377V85.5299C23.5638 85.3253 23.6451 85.129 23.7898 84.9843C23.9345 84.8396 24.1308 84.7583 24.3354 84.7583H31.0802C31.2832 84.7607 31.4772 84.8431 31.6199 84.9875C31.7627 85.132 31.8427 85.3269 31.8427 85.5299V86.4377C31.8427 86.6408 31.7627 86.8357 31.6199 86.9801C31.4772 87.1246 31.2832 87.2069 31.0802 87.2093Z" fill="#414042"/>
<path d="M27.9032 23.1108H15.1945L8.93994 25.8341H34.1215L27.9032 23.1108Z" fill="#E8C078"/>
<path d="M26.1241 16.2217H16.9919L15.2218 23.1117H27.9306L26.1241 16.2217Z" fill="#CB9A5F"/>
<path d="M27.5221 21.6499H15.6031L15.2128 23.1114H27.9215L27.5221 21.6499Z" fill="#F28A7F"/>
<path d="M52.6853 81.272H58.9489V100.644H52.6853V81.272Z" fill="#CAE1E9"/>
<path d="M90.7751 81.272H97.0388V100.644H90.7751V81.272Z" fill="#CAE1E9"/>
<path d="M84.539 82.6426C84.5105 83.3059 84.6165 83.9681 84.8507 84.5893C85.0848 85.2106 85.4423 85.7779 85.9016 86.2574C86.3608 86.7368 86.9124 87.1183 87.523 87.3789C88.1336 87.6396 88.7906 87.7739 89.4545 87.7739C90.1184 87.7739 90.7755 87.6396 91.3861 87.3789C91.9967 87.1183 92.5482 86.7368 93.0075 86.2574C93.4668 85.7779 93.8242 85.2106 94.0584 84.5893C94.2926 83.9681 94.3986 83.3059 94.3701 82.6426H84.539Z" fill="#F28A7F"/>
<path d="M89.4953 89.1974C89.3668 89.195 89.2445 89.1423 89.1545 89.0506C89.0645 88.959 89.0141 88.8356 89.0142 88.7072V86.3742C89.0142 86.2466 89.0648 86.1242 89.1551 86.034C89.2453 85.9438 89.3677 85.8931 89.4953 85.8931V85.8931C89.6237 85.893 89.7471 85.9435 89.8387 86.0335C89.9304 86.1234 89.9831 86.2458 89.9855 86.3742V88.7072C89.9831 88.8365 89.9307 88.9598 89.8393 89.0512C89.7479 89.1426 89.6246 89.195 89.4953 89.1974V89.1974Z" fill="#F28A7F"/>
<path d="M86.6267 88.5531C86.7429 88.6043 86.8742 88.6093 86.9939 88.5671C87.1136 88.525 87.2128 88.4388 87.2712 88.3262L88.2698 86.2201C88.3233 86.1043 88.3295 85.9722 88.2871 85.8518C88.2447 85.7315 88.1571 85.6324 88.0428 85.5756V85.5756C87.9267 85.5244 87.7954 85.5194 87.6757 85.5615C87.556 85.6037 87.4568 85.6899 87.3983 85.8026L86.3998 87.9086C86.3694 87.9653 86.3512 88.0276 86.3463 88.0917C86.3414 88.1558 86.3499 88.2202 86.3713 88.2809C86.3926 88.3415 86.4263 88.397 86.4703 88.4439C86.5143 88.4907 86.5676 88.528 86.6267 88.5531V88.5531Z" fill="#F28A7F"/>
<path d="M84.4936 86.9275C84.4081 86.8366 84.3605 86.7165 84.3605 86.5916C84.3605 86.4668 84.4081 86.3467 84.4936 86.2558L86.3092 84.7307C86.4005 84.6425 86.5226 84.5933 86.6496 84.5933C86.7766 84.5933 86.8986 84.6425 86.99 84.7307V84.7307C87.0702 84.8288 87.1102 84.9537 87.1017 85.0801C87.0933 85.2065 87.0371 85.325 86.9446 85.4116L85.1745 86.9275C85.1304 86.9734 85.0775 87.0099 85.019 87.0348C84.9605 87.0597 84.8976 87.0726 84.834 87.0726C84.7705 87.0726 84.7075 87.0597 84.649 87.0348C84.5905 87.0099 84.5377 86.9734 84.4936 86.9275V86.9275Z" fill="#F28A7F"/>
<path d="M92.282 88.5524C92.1658 88.6036 92.0345 88.6086 91.9148 88.5664C91.7951 88.5243 91.6959 88.4381 91.6375 88.3254L90.6389 86.2194C90.5854 86.1036 90.5792 85.9714 90.6216 85.8511C90.664 85.7307 90.7516 85.6316 90.8658 85.5749C90.9804 85.5218 91.1112 85.5159 91.23 85.5583C91.3489 85.6008 91.4463 85.6882 91.5013 85.8018L92.5089 87.9079C92.5624 88.0237 92.5686 88.1558 92.5263 88.2762C92.4839 88.3965 92.3962 88.4956 92.282 88.5524V88.5524Z" fill="#F28A7F"/>
<path d="M94.4153 86.9275C94.5008 86.8366 94.5484 86.7165 94.5484 86.5916C94.5484 86.4668 94.5008 86.3467 94.4153 86.2558L92.5997 84.7307C92.5083 84.6425 92.3863 84.5933 92.2593 84.5933C92.1323 84.5933 92.0103 84.6425 91.9189 84.7307V84.7307C91.8387 84.8288 91.7987 84.9537 91.8071 85.0801C91.8156 85.2065 91.8717 85.325 91.9643 85.4116L93.7344 86.9275C93.7785 86.9734 93.8313 87.0099 93.8898 87.0348C93.9483 87.0597 94.0113 87.0726 94.0748 87.0726C94.1384 87.0726 94.2014 87.0597 94.2599 87.0348C94.3184 87.0099 94.3712 86.9734 94.4153 86.9275V86.9275Z" fill="#F28A7F"/>
<path d="M114.332 78.9118H112.571V72.3668C112.572 71.1449 112.332 69.9347 111.866 68.8054C111.399 67.676 110.715 66.6496 109.852 65.7847C108.989 64.9199 107.964 64.2335 106.835 63.7648C105.707 63.2961 104.497 63.0543 103.275 63.0531V61.292C106.209 61.2944 109.022 62.461 111.097 64.5357C113.172 66.6104 114.338 69.4236 114.341 72.3577V78.8937L114.332 78.9118Z" fill="#DEEAEE"/>
<path d="M101.514 84.4856H57.6144C55.8135 84.4856 54.0864 83.7702 52.813 82.4969C51.5396 81.2235 50.8242 79.4964 50.8242 77.6955V66.8023C50.823 65.9103 50.9979 65.0268 51.3387 64.2024C51.6795 63.3781 52.1796 62.6291 52.8103 61.9983C53.4411 61.3675 54.1901 60.8674 55.0145 60.5266C55.8388 60.1858 56.7223 60.011 57.6144 60.0122H101.514C102.406 60.011 103.29 60.1858 104.114 60.5266C104.938 60.8674 105.687 61.3675 106.318 61.9983C106.949 62.6291 107.449 63.3781 107.79 64.2024C108.131 65.0268 108.305 65.9103 108.304 66.8023V77.6955C108.305 78.5876 108.131 79.4711 107.79 80.2954C107.449 81.1198 106.949 81.8688 106.318 82.4996C105.687 83.1303 104.938 83.6304 104.114 83.9712C103.29 84.312 102.406 84.4868 101.514 84.4856Z" fill="#CAE1E9"/>
<path d="M60.2017 81.272H66.4744V100.644H60.2017V81.272Z" fill="#DEEAEE"/>
<path d="M98.2916 81.272H104.555V100.644H98.2916V81.272Z" fill="#DEEAEE"/>
<path d="M102.359 65.4588C102.359 65.844 102.512 66.2134 102.784 66.4858C103.056 66.7582 103.426 66.9112 103.811 66.9112H108.304V66.8023C108.304 65.0015 107.589 63.2743 106.316 62.0009C105.042 60.7276 103.315 60.0122 101.514 60.0122H95.1599V62.5358C95.1599 62.921 95.3129 63.2905 95.5853 63.5628C95.8577 63.8352 96.2271 63.9882 96.6123 63.9882H100.888C101.082 63.9858 101.274 64.0221 101.454 64.0952C101.633 64.1682 101.796 64.2764 101.933 64.4135C102.07 64.5505 102.179 64.7137 102.252 64.8932C102.325 65.0727 102.361 65.265 102.359 65.4588Z" fill="#6D6E70"/>
<path d="M73.6822 63.962C73.6845 63.6361 73.8157 63.3245 74.0469 63.0949C74.2782 62.8653 74.5909 62.7365 74.9167 62.7365H77.0591C77.3833 62.7341 77.6937 62.6043 77.923 62.3749C78.1523 62.1456 78.2822 61.8353 78.2845 61.511V60.0586H64.9857V63.962C64.9881 64.2863 65.118 64.5966 65.3473 64.8259C65.5766 65.0552 65.8869 65.1851 66.2112 65.1875H72.493C72.8102 65.1736 73.11 65.0389 73.3311 64.8111C73.5522 64.5832 73.6778 64.2795 73.6822 63.962V63.962Z" fill="#6D6E70"/>
<path d="M98.4372 80.6728H95.1783C94.9375 80.6728 94.7066 80.7684 94.5364 80.9387C94.3661 81.1089 94.2705 81.3398 94.2705 81.5805V84.5127H101.533C103.122 84.5125 104.66 83.9544 105.879 82.9357C107.099 81.917 107.922 80.5025 108.205 78.939H100.207C99.9666 78.939 99.7357 79.0346 99.5654 79.2049C99.3952 79.3751 99.2996 79.606 99.2996 79.8467C99.28 80.0654 99.1819 80.2696 99.0233 80.4215C98.8648 80.5734 98.6565 80.6627 98.4372 80.6728V80.6728Z" fill="#6D6E70"/>
<path d="M64.6768 77.8686C64.6768 78.1487 64.5662 78.4175 64.369 78.6164C64.1718 78.8153 63.9039 78.9283 63.6238 78.9307H56.8791C56.5974 78.9307 56.3273 78.8188 56.1281 78.6196C55.9289 78.4204 55.817 78.1503 55.817 77.8686V71.9681C55.817 71.6888 55.7061 71.421 55.5086 71.2235C55.3111 71.026 55.0433 70.915 54.764 70.915H50.8152V77.6961C50.814 78.5874 50.9885 79.4701 51.3288 80.2939C51.669 81.1176 52.1683 81.8663 52.7981 82.4969C53.4279 83.1276 54.1758 83.6278 54.9991 83.9692C55.8224 84.3105 56.705 84.4862 57.5962 84.4862H70.0871V77.8595C70.0883 77.7205 70.062 77.5826 70.0096 77.4538C69.9572 77.325 69.8798 77.2078 69.7819 77.109C69.684 77.0103 69.5676 76.9319 69.4392 76.8784C69.3109 76.8249 69.1732 76.7974 69.0341 76.7974H65.7117C65.4332 76.8046 65.1686 76.9208 64.975 77.1212C64.7814 77.3216 64.6744 77.59 64.6768 77.8686V77.8686Z" fill="#6D6E70"/>
<path d="M42.8811 57.6698C42.8811 57.6698 47.2384 55.8542 48.9632 54.1295C46.14 54.1295 40.3212 50.2805 37.7522 45.0518C37.144 48.6465 39.5678 55.1189 42.8811 57.6698Z" fill="#CEBDAB"/>
<path d="M58.7764 57.6698C58.7764 57.6698 54.4101 55.8542 52.6853 54.1295C55.5175 54.1295 61.3273 50.2805 63.9053 45.0518C64.5135 48.6465 62.108 55.1189 58.7764 57.6698Z" fill="#CEBDAB"/>
<path d="M64.3954 51.4333C62.8159 50.7343 60.9822 55.3912 58.041 55.3912L58.1953 60.0117C65.0944 60.0117 66.801 52.5136 64.3954 51.4333Z" fill="#CEDBE0"/>
<path d="M63.3244 53.657C62.226 53.3847 60.6011 56.7071 58.0775 56.7071L58.2228 58.8494C63.4152 58.9856 65.2761 54.1381 63.3244 53.657Z" fill="#F28A7F"/>
<path d="M37.2531 51.4333C38.8326 50.7343 40.6663 55.3912 43.6075 55.3912L43.4441 60.0117C36.5541 60.0117 34.8203 52.5136 37.2531 51.4333Z" fill="#CEDBE0"/>
<path d="M38.3152 53.657C39.4227 53.3847 41.0385 56.7071 43.5712 56.7071L43.4169 58.8494C38.2244 58.9856 36.3726 54.1381 38.3152 53.657Z" fill="#F28A7F"/>
<path d="M50.8246 73.5834C48.3376 73.5834 45.9525 72.5955 44.1939 70.8369C42.4353 69.0783 41.4474 66.6932 41.4474 64.2062V55.9001C41.4474 54.9659 41.8185 54.0701 42.479 53.4095C43.1395 52.749 44.0354 52.3779 44.9695 52.3779H56.6888C57.6214 52.3803 58.5149 52.7525 59.1735 53.4127C59.8321 54.073 60.2019 54.9675 60.2019 55.9001V64.2062C60.2019 65.4376 59.9594 66.657 59.4881 67.7947C59.0169 68.9324 58.3261 69.9661 57.4554 70.8369C56.5846 71.7076 55.5509 72.3984 54.4132 72.8696C53.2755 73.3409 52.0561 73.5834 50.8246 73.5834V73.5834Z" fill="#DEEAEE"/>
<path d="M49.9349 66.1672C49.9367 66.2649 49.9092 66.3609 49.8561 66.4429C49.8029 66.5249 49.7265 66.5891 49.6365 66.6274C49.5466 66.6656 49.4473 66.6761 49.3514 66.6574C49.2554 66.6388 49.1673 66.5919 49.0982 66.5228C49.0291 66.4537 48.9822 66.3656 48.9636 66.2697C48.945 66.1737 48.9554 66.0744 48.9936 65.9845C49.0319 65.8945 49.0961 65.8181 49.1781 65.7649C49.2601 65.7117 49.3561 65.6843 49.4538 65.6861C49.5814 65.6861 49.7038 65.7368 49.794 65.827C49.8842 65.9172 49.9349 66.0396 49.9349 66.1672V66.1672Z" fill="#B5A595"/>
<path d="M52.6854 66.1672C52.6872 66.2649 52.6597 66.3609 52.6066 66.4429C52.5534 66.5249 52.4769 66.5891 52.387 66.6274C52.2971 66.6656 52.1978 66.6761 52.1018 66.6574C52.0059 66.6388 51.9178 66.5919 51.8487 66.5228C51.7796 66.4537 51.7327 66.3656 51.7141 66.2697C51.6954 66.1737 51.7059 66.0744 51.7441 65.9845C51.7824 65.8945 51.8466 65.8181 51.9286 65.7649C52.0106 65.7117 52.1066 65.6843 52.2043 65.6861C52.3319 65.6861 52.4542 65.7368 52.5445 65.827C52.6347 65.9172 52.6854 66.0396 52.6854 66.1672V66.1672Z" fill="#B5A595"/>
<path d="M44.4427 68.4994C44.1417 68.4994 43.8531 68.3799 43.6403 68.1671C43.4275 67.9543 43.308 67.6657 43.308 67.3647V65.5492C43.3091 65.3998 43.34 65.2522 43.3988 65.1149C43.4576 64.9775 43.5432 64.8533 43.6505 64.7494C43.7578 64.6454 43.8847 64.5639 44.0238 64.5096C44.163 64.4552 44.3115 64.429 44.4609 64.4327C44.7016 64.4327 44.9325 64.337 45.1027 64.1668C45.273 63.9965 45.3686 63.7656 45.3686 63.5249V59.5035C45.3686 59.2627 45.273 59.0318 45.1027 58.8615C44.9325 58.6913 44.7016 58.5957 44.4609 58.5957H41.4652V64.1603C41.4657 65.8867 41.9432 67.5795 42.8451 69.0517C43.7469 70.5238 45.0381 71.7181 46.576 72.5027V70.5056C46.5736 69.9463 46.3496 69.4106 45.9533 69.0159C45.5569 68.6212 45.0202 68.3996 44.4609 68.3996L44.4427 68.4994Z" fill="#6D6E70"/>
<path d="M57.333 58.6407C57.1999 58.6395 57.0679 58.6646 56.9446 58.7147C56.8213 58.7648 56.7091 58.8389 56.6146 58.9325C56.5201 59.0262 56.445 59.1377 56.3938 59.2605C56.3426 59.3834 56.3163 59.5152 56.3163 59.6483V63.4155C56.3163 63.5491 56.3426 63.6813 56.3936 63.8046C56.4447 63.928 56.5196 64.04 56.6141 64.1344C56.7085 64.2288 56.8205 64.3037 56.9439 64.3548C57.0672 64.4059 57.1995 64.4322 57.333 64.4322V64.4322C57.4664 64.431 57.5987 64.4565 57.7221 64.5073C57.8455 64.558 57.9575 64.6331 58.0514 64.7278C58.1454 64.8226 58.2194 64.9352 58.269 65.0591C58.3187 65.183 58.343 65.3155 58.3406 65.4489V67.4551C58.3418 67.5877 58.3166 67.7193 58.2664 67.8421C58.2161 67.9649 58.142 68.0765 58.0482 68.1703C57.9544 68.2641 57.8428 68.3383 57.72 68.3885C57.5972 68.4387 57.4656 68.464 57.333 68.4627V68.4627C56.7407 68.4627 56.1727 68.698 55.7539 69.1168C55.3351 69.5356 55.0999 70.1036 55.0999 70.6958V72.5567C56.636 71.7709 57.9253 70.5761 58.8255 69.104C59.7258 67.6319 60.2019 65.9399 60.2015 64.2144V58.6498H57.333V58.6407Z" fill="#6D6E70"/>
<path d="M48.764 53.8484H53.0124C53.2837 53.846 53.5432 53.7372 53.7351 53.5453C53.9269 53.3535 54.0358 53.0939 54.0382 52.8226V52.396H44.9605C44.0287 52.396 43.1352 52.7661 42.4763 53.4249C41.8175 54.0838 41.4474 54.9773 41.4474 55.9091H46.7124C46.9838 55.9067 47.2433 55.7978 47.4352 55.606C47.627 55.4141 47.7359 55.1546 47.7382 54.8833V54.8833C47.7382 54.6104 47.846 54.3485 48.0381 54.1547C48.2302 53.9609 48.4911 53.8508 48.764 53.8484V53.8484Z" fill="#6D6E70"/>
<path d="M58.1498 103.258H53.4929C53.1237 103.256 52.7704 103.107 52.5102 102.845C52.25 102.583 52.104 102.229 52.104 101.86V101.86C52.104 101.511 52.1728 101.165 52.3065 100.842C52.4401 100.519 52.6361 100.226 52.883 99.9792C53.13 99.7322 53.4232 99.5363 53.7459 99.4026C54.0686 99.269 54.4145 99.2002 54.7638 99.2002H56.888C57.5934 99.2002 58.2699 99.4804 58.7687 99.9792C59.2675 100.478 59.5477 101.155 59.5477 101.86V101.86C59.5489 102.044 59.5136 102.226 59.4438 102.396C59.3739 102.566 59.271 102.721 59.1409 102.851C59.0109 102.981 58.8563 103.084 58.6862 103.154C58.516 103.224 58.3337 103.259 58.1498 103.258V103.258Z" fill="#6D6E70"/>
<path d="M65.6571 103.258H61.0003C60.6302 103.256 60.276 103.108 60.0144 102.846C59.7527 102.584 59.6047 102.23 59.6023 101.86V101.86C59.6047 101.154 59.8869 100.477 60.3872 99.9786C60.8874 99.4801 61.5649 99.2002 62.2711 99.2002H64.3953C65.1007 99.2002 65.7773 99.4804 66.2761 99.9792C66.7749 100.478 67.0551 101.155 67.0551 101.86V101.86C67.0563 102.044 67.0209 102.226 66.9511 102.396C66.8813 102.566 66.7784 102.721 66.6483 102.851C66.5183 102.981 66.3637 103.084 66.1935 103.154C66.0234 103.224 65.841 103.259 65.6571 103.258V103.258Z" fill="#6D6E70"/>
<path d="M96.2401 103.258H91.5833C91.2132 103.256 90.8591 103.108 90.5974 102.846C90.3357 102.584 90.1877 102.23 90.1853 101.86V101.86C90.1877 101.155 90.4687 100.48 90.967 99.9819C91.4653 99.4836 92.1404 99.2026 92.8451 99.2002H94.942C95.6467 99.2026 96.3218 99.4836 96.8201 99.9819C97.3184 100.48 97.5994 101.155 97.6018 101.86V101.86C97.6019 102.225 97.4596 102.575 97.2053 102.836C96.9509 103.097 96.6046 103.248 96.2401 103.258V103.258Z" fill="#6D6E70"/>
<path d="M103.747 103.258H99.0905C98.7204 103.256 98.3662 103.108 98.1046 102.846C97.8429 102.584 97.6949 102.23 97.6925 101.86V101.86C97.6949 101.155 97.9759 100.48 98.4742 99.9819C98.9725 99.4836 99.6476 99.2026 100.352 99.2002H102.486C103.19 99.2026 103.865 99.4836 104.364 99.9819C104.862 100.48 105.143 101.155 105.145 101.86V101.86C105.145 102.231 104.998 102.586 104.736 102.848C104.474 103.111 104.118 103.258 103.747 103.258Z" fill="#6D6E70"/>
<path d="M115.503 79.757C115.503 80.8917 113.461 85.2036 113.461 85.2036C113.461 85.2036 111.427 80.9371 111.427 79.757C111.462 79.24 111.692 78.7555 112.07 78.4015C112.448 78.0475 112.947 77.8506 113.465 77.8506C113.983 77.8506 114.482 78.0475 114.861 78.4015C115.239 78.7555 115.469 79.24 115.503 79.757V79.757Z" fill="#6D6E70"/>
<path d="M75.4067 77.2778H82.5781C82.7279 77.2778 82.8762 77.3075 83.0144 77.3651C83.1527 77.4227 83.2782 77.5071 83.3837 77.6134C83.4892 77.7198 83.5726 77.8459 83.6291 77.9846C83.6855 78.1233 83.714 78.2719 83.7128 78.4216V79.5654C83.714 79.7152 83.6855 79.8638 83.6291 80.0025C83.5726 80.1412 83.4892 80.2674 83.3837 80.3737C83.2782 80.48 83.1527 80.5644 83.0144 80.622C82.8762 80.6796 82.7279 80.7092 82.5781 80.7092H81.9336C81.6326 80.7092 81.344 80.8288 81.1312 81.0416C80.9184 81.2544 80.7989 81.543 80.7989 81.8439C80.8001 81.9945 80.7713 82.1438 80.7143 82.2831C80.6572 82.4224 80.573 82.549 80.4666 82.6554C80.3601 82.7619 80.2335 82.8461 80.0942 82.9031C79.9549 82.9602 79.8056 82.9889 79.6551 82.9877H75.4067C75.2569 82.9877 75.1087 82.9581 74.9704 82.9005C74.8321 82.8429 74.7066 82.7585 74.6011 82.6521C74.4956 82.5458 74.4123 82.4196 74.3558 82.2809C74.2993 82.1422 74.2708 81.9937 74.272 81.8439V78.4307C74.2708 78.2805 74.2992 78.1315 74.3556 77.9923C74.412 77.8531 74.4952 77.7263 74.6006 77.6192C74.706 77.5122 74.8314 77.4269 74.9697 77.3684C75.108 77.3098 75.2565 77.279 75.4067 77.2778V77.2778Z" fill="#6D6E70"/>
<path d="M95.1326 70.1162H87.9703C87.8197 70.1174 87.6704 70.0886 87.5311 70.0316C87.3918 69.9745 87.2652 69.8903 87.1588 69.7838C87.0523 69.6774 86.9681 69.5508 86.9111 69.4114C86.854 69.2721 86.8252 69.1229 86.8265 68.9724V67.8286C86.8252 67.678 86.854 67.5287 86.9111 67.3894C86.9681 67.2501 87.0523 67.1235 87.1588 67.0171C87.2652 66.9106 87.3918 66.8264 87.5311 66.7694C87.6704 66.7123 87.8197 66.6836 87.9703 66.6848H88.6057C88.7555 66.686 88.904 66.6575 89.0427 66.601C89.1814 66.5445 89.3076 66.4611 89.4139 66.3556C89.5203 66.2502 89.6046 66.1246 89.6622 65.9864C89.7198 65.8481 89.7495 65.6998 89.7495 65.55V65.55C89.7483 65.4003 89.7767 65.2517 89.8332 65.113C89.8897 64.9743 89.9731 64.8481 90.0786 64.7418C90.1841 64.6355 90.3096 64.5511 90.4478 64.4935C90.5861 64.4359 90.7344 64.4062 90.8842 64.4063H95.1507C95.3005 64.4062 95.4488 64.4359 95.587 64.4935C95.7253 64.5511 95.8508 64.6355 95.9563 64.7418C96.0618 64.8481 96.1452 64.9743 96.2017 65.113C96.2582 65.2517 96.2866 65.4003 96.2854 65.55V68.9633C96.2807 69.2676 96.1578 69.5581 95.9426 69.7733C95.7274 69.9885 95.4369 70.1115 95.1326 70.1162V70.1162Z" fill="#6D6E70"/>
<path d="M77.3129 71.2686H73.8271C73.5662 71.2709 73.3169 71.3762 73.1333 71.5615C72.9497 71.7468 72.8467 71.9972 72.8467 72.258V72.258C72.849 72.5173 72.9531 72.7653 73.1364 72.9487C73.3198 73.132 73.5678 73.236 73.8271 73.2384H77.3129C77.5729 73.2384 77.8223 73.1351 78.0061 72.9513C78.19 72.7674 78.2933 72.5181 78.2933 72.258V72.258C78.2945 72.1285 78.27 72.0001 78.2213 71.8801C78.1726 71.7601 78.1005 71.6509 78.0094 71.5589C77.9182 71.4669 77.8097 71.3939 77.6902 71.3441C77.5706 71.2942 77.4424 71.2685 77.3129 71.2686V71.2686Z" fill="#6D6E70"/>
<path d="M97.8739 72.8384H94.3881C94.1288 72.8407 93.8808 72.9447 93.6975 73.1281C93.5141 73.3114 93.4101 73.5594 93.4077 73.8187V73.8187C93.4077 74.0787 93.511 74.3281 93.6949 74.512C93.8787 74.6958 94.1281 74.7991 94.3881 74.7991H97.8739C98.134 74.7991 98.3833 74.6958 98.5672 74.512C98.751 74.3281 98.8543 74.0787 98.8543 73.8187V73.8187C98.852 73.5594 98.7479 73.3114 98.5646 73.1281C98.3812 72.9447 98.1332 72.8407 97.8739 72.8384V72.8384Z" fill="#6D6E70"/>
</svg>
