<svg width="542" height="251" viewBox="0 0 542 251" fill="none" xmlns="http://www.w3.org/2000/svg">
<g clip-path="url(#clip0_1317_11504)">
<rect width="541.5" height="251" transform="matrix(1 0 0 -1 0.5 251)" fill="#E7F0F9"/>
<path d="M7 98H234.563L260 132L234.563 166H7L32.4367 132L7 98Z" fill="#C2D7EA"/>
<path d="M246 98H373.522L399 132L373.522 166H246L271.478 132L246 98Z" fill="#C2D7EA"/>
<path d="M385 98H508.577L534 132L508.577 166H385L410.423 132L385 98Z" fill="#C2D7EA"/>
<path d="M91.083 142.465L89.0887 139.633C90.3558 139.512 91.0169 138.366 91.0169 137.275C91.0169 136.074 90.3448 134.873 88.681 134.873H85.7831V142.465H86.918V139.633H87.7775L89.7277 142.465H91.083ZM88.67 135.909C89.4082 135.909 89.882 136.482 89.882 137.275C89.882 138.079 89.4523 138.641 88.4055 138.641H86.918V135.909H88.67ZM97.1161 139.864C97.1161 138.245 96.0032 137.187 94.5378 137.187C93.0723 137.187 91.8823 138.245 91.8823 139.875C91.8823 141.506 93.0503 142.597 94.5378 142.597C95.5184 142.597 96.444 142.134 96.8957 141.275L96.0363 140.845C95.7498 141.319 95.1879 141.594 94.5818 141.594C93.7554 141.594 93.1384 141.165 92.9952 140.327H97.0941C97.1051 140.162 97.1161 140.008 97.1161 139.864ZM93.0062 139.457C93.1604 138.597 93.7554 138.19 94.5488 138.19C95.3421 138.19 95.9261 138.652 96.0363 139.457H93.0062ZM99.9649 142.597C101.023 142.597 101.992 142.002 101.992 141.021C101.992 140.47 101.75 139.787 100.648 139.512L99.8657 139.325C99.5462 139.247 99.2487 139.071 99.2487 138.752C99.2487 138.399 99.5572 138.102 100.009 138.102C100.395 138.102 100.78 138.355 100.78 138.73H101.816C101.816 137.65 100.868 137.187 99.9869 137.187C98.9181 137.187 98.1579 137.881 98.1579 138.719C98.1579 139.479 98.5986 139.975 99.5572 140.228L100.251 140.393C100.637 140.482 100.912 140.658 100.912 140.999C100.912 141.385 100.549 141.683 99.9539 141.683C99.3699 141.683 99.0063 141.33 99.0063 140.922H98.0036C98.0256 142.002 99.0063 142.597 99.9649 142.597ZM108.167 139.864C108.167 138.245 107.054 137.187 105.589 137.187C104.123 137.187 102.933 138.245 102.933 139.875C102.933 141.506 104.101 142.597 105.589 142.597C106.569 142.597 107.495 142.134 107.947 141.275L107.087 140.845C106.801 141.319 106.239 141.594 105.633 141.594C104.806 141.594 104.189 141.165 104.046 140.327H108.145C108.156 140.162 108.167 140.008 108.167 139.864ZM104.057 139.457C104.211 138.597 104.806 138.19 105.6 138.19C106.393 138.19 106.977 138.652 107.087 139.457H104.057ZM113.429 138.09C113.098 137.507 112.393 137.187 111.644 137.187C110.189 137.187 109.098 138.355 109.098 139.887C109.098 141.473 110.255 142.597 111.6 142.597C112.393 142.597 113.098 142.189 113.429 141.594V142.465H114.509V137.319H113.429V138.09ZM111.787 141.583C110.883 141.583 110.189 140.812 110.189 139.887C110.189 138.972 110.883 138.201 111.765 138.201C112.591 138.201 113.418 138.895 113.418 139.887C113.418 140.856 112.646 141.583 111.787 141.583ZM118.667 137.187C118.006 137.187 117.488 137.573 117.224 138.476V137.319H116.133V142.465H117.224V140.614C117.224 139.225 117.664 138.223 118.601 138.223C118.81 138.223 119.075 138.267 119.361 138.399L119.548 137.374C119.383 137.275 119.02 137.187 118.667 137.187ZM122.732 142.597C123.569 142.597 124.286 142.255 124.737 141.716L124.021 141.043C123.724 141.374 123.272 141.583 122.754 141.583C121.795 141.583 121.035 140.867 121.035 139.887C121.035 138.906 121.795 138.201 122.754 138.201C123.272 138.201 123.724 138.41 124.021 138.741L124.737 138.068C124.286 137.529 123.569 137.187 122.732 137.187C121.245 137.187 119.955 138.256 119.955 139.887C119.955 141.517 121.245 142.597 122.732 142.597ZM128.658 137.187C128.107 137.187 127.28 137.473 126.983 138.102V134.52H125.903V142.465H126.983V139.699C126.983 138.641 127.798 138.245 128.47 138.245C129.131 138.245 129.638 138.752 129.638 139.589V142.465H130.718V139.523C130.729 138.057 129.958 137.187 128.658 137.187ZM140.802 141.561C140.251 141.561 139.876 140.999 139.876 140.129V138.774H140.824V137.903H139.876V137.077H138.819V137.892H137.562C136.791 137.892 136.306 137.44 136.306 136.79C136.306 136.173 136.736 135.755 137.331 135.755C137.761 135.755 138.157 135.986 138.378 136.35L139.226 135.755C138.83 135.138 138.146 134.741 137.309 134.741C136.108 134.741 135.227 135.545 135.227 136.702C135.227 137.44 135.568 138.068 136.086 138.322C135.293 138.652 134.72 139.435 134.72 140.415C134.72 141.705 135.667 142.597 137.089 142.597C138.003 142.597 138.808 142.211 139.204 141.594C139.37 142.178 139.954 142.553 140.791 142.564H141.022V141.561H140.802ZM137.221 141.583C136.384 141.583 135.811 141.077 135.811 140.272C135.811 139.391 136.516 138.774 137.629 138.774H138.819V140.129C138.775 140.999 138.146 141.583 137.221 141.583ZM146.035 142.465V134.873H144.9V142.465H146.035ZM151.757 138.079C151.416 137.495 150.699 137.187 149.972 137.187C148.584 137.187 147.427 138.245 147.427 139.887C147.427 141.517 148.584 142.597 149.983 142.597C150.677 142.597 151.416 142.278 151.757 141.694V142.465H152.837V134.52H151.757V138.079ZM150.104 141.583C149.223 141.583 148.507 140.834 148.507 139.875C148.507 138.906 149.223 138.201 150.104 138.201C150.898 138.201 151.746 138.84 151.746 139.875C151.746 140.911 150.975 141.583 150.104 141.583ZM159.364 139.864C159.364 138.245 158.251 137.187 156.786 137.187C155.32 137.187 154.13 138.245 154.13 139.875C154.13 141.506 155.298 142.597 156.786 142.597C157.767 142.597 158.692 142.134 159.144 141.275L158.284 140.845C157.998 141.319 157.436 141.594 156.83 141.594C156.004 141.594 155.387 141.165 155.243 140.327H159.342C159.353 140.162 159.364 140.008 159.364 139.864ZM155.254 139.457C155.409 138.597 156.004 138.19 156.797 138.19C157.59 138.19 158.174 138.652 158.284 139.457H155.254ZM164.626 138.09C164.296 137.507 163.59 137.187 162.841 137.187C161.387 137.187 160.296 138.355 160.296 139.887C160.296 141.473 161.453 142.597 162.797 142.597C163.59 142.597 164.296 142.189 164.626 141.594V142.465H165.706V137.319H164.626V138.09ZM162.984 141.583C162.081 141.583 161.387 140.812 161.387 139.887C161.387 138.972 162.081 138.201 162.962 138.201C163.789 138.201 164.615 138.895 164.615 139.887C164.615 140.856 163.844 141.583 162.984 141.583ZM168.84 137.319V135.391H167.76V137.319H166.834V138.223H167.76V142.465H168.84V138.223H169.941V137.319H168.84ZM171.507 136.14C171.915 136.14 172.245 135.843 172.245 135.446C172.245 135.049 171.915 134.752 171.507 134.752C171.11 134.752 170.769 135.049 170.769 135.446C170.769 135.843 171.11 136.14 171.507 136.14ZM172.047 142.465V137.319H170.967V142.465H172.047ZM176.037 142.597C177.502 142.597 178.747 141.517 178.747 139.887C178.747 138.256 177.502 137.187 176.037 137.187C174.571 137.187 173.337 138.256 173.337 139.887C173.337 141.517 174.571 142.597 176.037 142.597ZM176.037 141.583C175.155 141.583 174.417 140.889 174.417 139.887C174.417 138.895 175.155 138.201 176.037 138.201C176.918 138.201 177.668 138.895 177.668 139.887C177.668 140.889 176.918 141.583 176.037 141.583ZM182.782 137.187C182.231 137.187 181.404 137.473 181.107 138.113V137.319H180.027V142.465H181.107V139.699C181.107 138.63 181.922 138.245 182.594 138.245C183.256 138.245 183.762 138.752 183.762 139.589V142.465H184.842V139.523C184.853 138.057 184.082 137.187 182.782 137.187Z" fill="#0D0B6D"/>
<path d="M101.683 116.889V119.212L104.536 118.116V127.296H107.029V114.754H106.821L101.683 116.889ZM125.103 118.249C124.177 118.249 122.799 118.702 122.156 119.986C121.627 118.872 120.626 118.249 119.323 118.249C118.379 118.249 117.189 118.796 116.83 119.892V118.475H114.355V127.296H116.83V122.65C116.83 121.063 117.736 120.572 118.624 120.572C119.455 120.572 120.173 121.176 120.173 122.574V127.296H122.647V122.952C122.647 121.309 123.327 120.553 124.385 120.572C125.254 120.572 125.972 121.157 125.972 122.536V127.296H128.465V122.461C128.465 119.816 127.313 118.249 125.103 118.249ZM135.021 127.523C137.533 127.523 139.762 125.672 139.762 122.895C139.762 120.1 137.533 118.249 135.021 118.249C132.509 118.249 130.28 120.1 130.28 122.895C130.28 125.672 132.509 127.523 135.021 127.523ZM135.021 125.219C133.793 125.219 132.792 124.255 132.792 122.895C132.792 121.516 133.793 120.553 135.021 120.553C136.249 120.553 137.25 121.516 137.25 122.895C137.25 124.255 136.249 125.219 135.021 125.219ZM146.83 118.249C145.98 118.249 144.601 118.759 144.185 119.911V118.475H141.711V127.296H144.185V122.669C144.185 121.063 145.281 120.591 146.169 120.591C147.019 120.591 147.85 121.214 147.85 122.593V127.296H150.324V122.461C150.343 119.816 149.134 118.249 146.83 118.249ZM155.919 118.475V115.264H153.444V118.475H151.839V120.402H153.444V127.296H155.919V120.402H157.789V118.475H155.919ZM164.52 118.249C163.67 118.249 162.253 118.74 161.875 119.873V113.677H159.401V127.296H161.875V122.669C161.875 121.082 162.971 120.591 163.859 120.591C164.709 120.591 165.54 121.233 165.54 122.612V127.296H168.014V122.461C168.033 119.816 166.824 118.249 164.52 118.249Z" fill="#0D0B6D"/>
<path d="M296.611 116.889V119.212L299.463 118.116V127.296H301.956V114.754H301.749L296.611 116.889ZM317.73 123.859L316.049 118.475H313.971L312.29 123.859L310.628 118.475H307.946L311.157 127.296H313.273L315.029 121.573L316.843 127.296H318.958L322.075 118.475H319.393L317.73 123.859ZM332.066 122.744C332.066 120.043 330.007 118.249 327.476 118.249C324.963 118.249 322.791 120.043 322.791 122.895C322.791 125.615 324.775 127.523 327.495 127.523C329.043 127.523 330.573 126.862 331.405 125.747L329.969 124.293C329.421 124.916 328.552 125.332 327.646 125.332C326.475 125.332 325.643 124.727 325.379 123.689H332.009C332.047 123.292 332.066 122.99 332.066 122.744ZM325.379 122.083C325.643 120.893 326.512 120.383 327.532 120.383C328.647 120.383 329.497 121.044 329.572 122.083H325.379ZM342.728 122.744C342.728 120.043 340.669 118.249 338.138 118.249C335.625 118.249 333.453 120.043 333.453 122.895C333.453 125.615 335.436 127.523 338.156 127.523C339.705 127.523 341.235 126.862 342.066 125.747L340.631 124.293C340.083 124.916 339.214 125.332 338.308 125.332C337.136 125.332 336.305 124.727 336.041 123.689H342.671C342.709 123.292 342.728 122.99 342.728 122.744ZM336.041 122.083C336.305 120.893 337.174 120.383 338.194 120.383C339.309 120.383 340.159 121.044 340.234 122.083H336.041ZM349.083 122.366L352.521 118.475H349.347L347.118 121.176V113.677H344.644V127.296H347.118V123.481L350.216 127.296H353.295L349.083 122.366Z" fill="#0D0B6D"/>
<path d="M436.265 116.889V119.212L439.117 118.116V127.296H441.611V114.754H441.403L436.265 116.889ZM457.385 123.859L455.704 118.475H453.626L451.945 123.859L450.282 118.475H447.6L450.811 127.296H452.927L454.684 121.573L456.497 127.296H458.612L461.729 118.475H459.047L457.385 123.859ZM471.72 122.744C471.72 120.043 469.661 118.249 467.13 118.249C464.618 118.249 462.446 120.043 462.446 122.895C462.446 125.615 464.429 127.523 467.149 127.523C468.698 127.523 470.228 126.862 471.059 125.747L469.623 124.293C469.076 124.916 468.207 125.332 467.3 125.332C466.129 125.332 465.298 124.727 465.033 123.689H471.663C471.701 123.292 471.72 122.99 471.72 122.744ZM465.033 122.083C465.298 120.893 466.167 120.383 467.187 120.383C468.301 120.383 469.151 121.044 469.227 122.083H465.033ZM482.382 122.744C482.382 120.043 480.323 118.249 477.792 118.249C475.28 118.249 473.107 120.043 473.107 122.895C473.107 125.615 475.091 127.523 477.811 127.523C479.36 127.523 480.89 126.862 481.721 125.747L480.285 124.293C479.737 124.916 478.869 125.332 477.962 125.332C476.791 125.332 475.96 124.727 475.695 123.689H482.325C482.363 123.292 482.382 122.99 482.382 122.744ZM475.695 122.083C475.96 120.893 476.829 120.383 477.849 120.383C478.963 120.383 479.813 121.044 479.889 122.083H475.695ZM488.737 122.366L492.175 118.475H489.002L486.773 121.176V113.677H484.298V127.296H486.773V123.481L489.871 127.296H492.949L488.737 122.366Z" fill="#0D0B6D"/>
<path d="M277.46 134.408V142H278.595V139.19H280.502C282.132 139.19 282.815 138.022 282.815 136.81C282.815 135.609 282.132 134.408 280.502 134.408H277.46ZM278.595 138.155V135.444H280.48C281.328 135.444 281.681 136.138 281.681 136.81C281.681 137.482 281.317 138.155 280.435 138.155H278.595ZM286.435 136.722C285.774 136.722 285.256 137.108 284.992 138.011V136.854H283.901V142H284.992V140.149C284.992 138.761 285.432 137.758 286.369 137.758C286.578 137.758 286.843 137.802 287.129 137.934L287.316 136.909C287.151 136.81 286.788 136.722 286.435 136.722ZM290.434 142.132C291.899 142.132 293.144 141.052 293.144 139.422C293.144 137.791 291.899 136.722 290.434 136.722C288.968 136.722 287.734 137.791 287.734 139.422C287.734 141.052 288.968 142.132 290.434 142.132ZM290.434 141.119C289.552 141.119 288.814 140.424 288.814 139.422C288.814 138.43 289.552 137.736 290.434 137.736C291.315 137.736 292.065 138.43 292.065 139.422C292.065 140.424 291.315 141.119 290.434 141.119ZM295.837 136.854V134.926H294.757V136.854H293.832V137.758H294.757V142H295.837V137.758H296.939V136.854H295.837ZM300.226 142.132C301.691 142.132 302.936 141.052 302.936 139.422C302.936 137.791 301.691 136.722 300.226 136.722C298.76 136.722 297.526 137.791 297.526 139.422C297.526 141.052 298.76 142.132 300.226 142.132ZM300.226 141.119C299.344 141.119 298.606 140.424 298.606 139.422C298.606 138.43 299.344 137.736 300.226 137.736C301.107 137.736 301.856 138.43 301.856 139.422C301.856 140.424 301.107 141.119 300.226 141.119ZM305.629 136.854V134.926H304.549V136.854H303.623V137.758H304.549V142H305.629V137.758H306.731V136.854H305.629ZM309.751 140.435L308.274 136.854H307.106L309.167 141.769L308.054 144.501H309.2L312.395 136.854H311.227L309.751 140.435ZM316.173 136.722C315.479 136.722 314.73 137.042 314.388 137.626V136.854H313.309V144.501H314.388V141.24C314.73 141.824 315.446 142.132 316.173 142.132C317.573 142.132 318.73 141.074 318.73 139.433C318.73 137.802 317.562 136.722 316.173 136.722ZM316.041 141.119C315.248 141.119 314.399 140.479 314.399 139.444C314.399 138.408 315.182 137.736 316.041 137.736C316.934 137.736 317.639 138.474 317.639 139.444C317.639 140.413 316.934 141.119 316.041 141.119ZM320.552 135.675C320.96 135.675 321.29 135.378 321.29 134.981C321.29 134.585 320.96 134.287 320.552 134.287C320.155 134.287 319.814 134.585 319.814 134.981C319.814 135.378 320.155 135.675 320.552 135.675ZM321.092 142V136.854H320.012V142H321.092ZM325.468 136.722C324.917 136.722 324.09 137.009 323.793 137.648V136.854H322.713V142H323.793V139.234C323.793 138.166 324.608 137.78 325.28 137.78C325.941 137.78 326.448 138.287 326.448 139.124V142H327.528V139.058C327.539 137.593 326.768 136.722 325.468 136.722ZM333.083 137.604C332.73 137.031 332.014 136.722 331.298 136.722C329.91 136.722 328.753 137.78 328.753 139.422C328.753 141.052 329.91 142.132 331.309 142.132C331.992 142.132 332.73 141.813 333.083 141.251V141.383C333.083 143.014 332.411 143.631 331.331 143.631C330.769 143.631 330.174 143.311 329.888 142.76L328.973 143.212C329.458 144.127 330.361 144.633 331.331 144.633C333.061 144.633 334.163 143.686 334.163 141.295V136.854H333.083V137.604ZM331.43 141.119C330.549 141.119 329.833 140.369 329.833 139.411C329.833 138.441 330.549 137.736 331.43 137.736C332.224 137.736 333.072 138.375 333.072 139.411C333.072 140.446 332.301 141.119 331.43 141.119ZM344.316 141.096C343.765 141.096 343.39 140.535 343.39 139.664V138.309H344.338V137.438H343.39V136.612H342.332V137.427H341.076C340.305 137.427 339.82 136.976 339.82 136.325C339.82 135.708 340.25 135.29 340.845 135.29C341.274 135.29 341.671 135.521 341.891 135.885L342.74 135.29C342.343 134.673 341.66 134.276 340.823 134.276C339.622 134.276 338.74 135.08 338.74 136.237C338.74 136.976 339.082 137.604 339.6 137.857C338.806 138.188 338.233 138.97 338.233 139.951C338.233 141.24 339.181 142.132 340.602 142.132C341.517 142.132 342.321 141.747 342.718 141.13C342.883 141.714 343.467 142.088 344.305 142.099H344.536V141.096H344.316ZM340.735 141.119C339.897 141.119 339.324 140.612 339.324 139.807C339.324 138.926 340.029 138.309 341.142 138.309H342.332V139.664C342.288 140.535 341.66 141.119 340.735 141.119ZM347.233 134.408V135.444H349.492V142H350.626V135.444H352.885V134.408H347.233ZM357.842 139.4C357.842 137.78 356.729 136.722 355.264 136.722C353.798 136.722 352.608 137.78 352.608 139.411C352.608 141.041 353.776 142.132 355.264 142.132C356.244 142.132 357.17 141.669 357.622 140.81L356.762 140.38C356.476 140.854 355.914 141.13 355.308 141.13C354.481 141.13 353.864 140.7 353.721 139.862H357.82C357.831 139.697 357.842 139.543 357.842 139.4ZM353.732 138.992C353.886 138.132 354.481 137.725 355.275 137.725C356.068 137.725 356.652 138.188 356.762 138.992H353.732ZM360.691 142.132C361.749 142.132 362.718 141.537 362.718 140.557C362.718 140.006 362.476 139.322 361.374 139.047L360.592 138.86C360.272 138.783 359.975 138.606 359.975 138.287C359.975 137.934 360.283 137.637 360.735 137.637C361.121 137.637 361.506 137.89 361.506 138.265H362.542C362.542 137.185 361.594 136.722 360.713 136.722C359.644 136.722 358.884 137.416 358.884 138.254C358.884 139.014 359.325 139.51 360.283 139.763L360.977 139.929C361.363 140.017 361.638 140.193 361.638 140.535C361.638 140.92 361.275 141.218 360.68 141.218C360.096 141.218 359.732 140.865 359.732 140.457H358.73C358.752 141.537 359.732 142.132 360.691 142.132ZM365.477 136.854V134.926H364.398V136.854H363.472V137.758H364.398V142H365.477V137.758H366.579V136.854H365.477ZM368.145 135.675C368.552 135.675 368.883 135.378 368.883 134.981C368.883 134.585 368.552 134.287 368.145 134.287C367.748 134.287 367.407 134.585 367.407 134.981C367.407 135.378 367.748 135.675 368.145 135.675ZM368.685 142V136.854H367.605V142H368.685ZM373.06 136.722C372.509 136.722 371.683 137.009 371.385 137.648V136.854H370.306V142H371.385V139.234C371.385 138.166 372.201 137.78 372.873 137.78C373.534 137.78 374.041 138.287 374.041 139.124V142H375.121V139.058C375.132 137.593 374.36 136.722 373.06 136.722ZM380.676 137.604C380.323 137.031 379.607 136.722 378.891 136.722C377.502 136.722 376.345 137.78 376.345 139.422C376.345 141.052 377.502 142.132 378.902 142.132C379.585 142.132 380.323 141.813 380.676 141.251V141.383C380.676 143.014 380.004 143.631 378.924 143.631C378.362 143.631 377.767 143.311 377.48 142.76L376.566 143.212C377.051 144.127 377.954 144.633 378.924 144.633C380.654 144.633 381.756 143.686 381.756 141.295V136.854H380.676V137.604ZM379.023 141.119C378.141 141.119 377.425 140.369 377.425 139.411C377.425 138.441 378.141 137.736 379.023 137.736C379.816 137.736 380.665 138.375 380.665 139.411C380.665 140.446 379.893 141.119 379.023 141.119Z" fill="#0D0B6D"/>
<path d="M424.644 134.408H420.159V142H421.294V138.783H423.95V137.747H421.294V135.444H424.644V134.408ZM426.365 135.675C426.773 135.675 427.103 135.378 427.103 134.981C427.103 134.585 426.773 134.287 426.365 134.287C425.968 134.287 425.627 134.585 425.627 134.981C425.627 135.378 425.968 135.675 426.365 135.675ZM426.905 142V136.854H425.825V142H426.905ZM431.28 136.722C430.729 136.722 429.903 137.009 429.606 137.648V136.854H428.526V142H429.606V139.234C429.606 138.166 430.421 137.78 431.093 137.78C431.754 137.78 432.261 138.287 432.261 139.124V142H433.341V139.058C433.352 137.593 432.581 136.722 431.28 136.722ZM438.885 137.626C438.554 137.042 437.849 136.722 437.1 136.722C435.645 136.722 434.555 137.89 434.555 139.422C434.555 141.008 435.711 142.132 437.056 142.132C437.849 142.132 438.554 141.725 438.885 141.13V142H439.965V136.854H438.885V137.626ZM437.243 141.119C436.34 141.119 435.645 140.347 435.645 139.422C435.645 138.507 436.34 137.736 437.221 137.736C438.047 137.736 438.874 138.43 438.874 139.422C438.874 140.391 438.102 141.119 437.243 141.119ZM442.669 142V134.056H441.589V142H442.669ZM447.254 134.408V142H448.389V139.19H450.295C451.926 139.19 452.609 138.022 452.609 136.81C452.609 135.609 451.926 134.408 450.295 134.408H447.254ZM448.389 138.155V135.444H450.273C451.121 135.444 451.474 136.138 451.474 136.81C451.474 137.482 451.11 138.155 450.229 138.155H448.389ZM456.228 136.722C455.567 136.722 455.049 137.108 454.785 138.011V136.854H453.694V142H454.785V140.149C454.785 138.761 455.226 137.758 456.162 137.758C456.372 137.758 456.636 137.802 456.922 137.934L457.11 136.909C456.944 136.81 456.581 136.722 456.228 136.722ZM462.773 139.4C462.773 137.78 461.66 136.722 460.194 136.722C458.729 136.722 457.539 137.78 457.539 139.411C457.539 141.041 458.707 142.132 460.194 142.132C461.175 142.132 462.1 141.669 462.552 140.81L461.693 140.38C461.406 140.854 460.844 141.13 460.238 141.13C459.412 141.13 458.795 140.7 458.652 139.862H462.75C462.761 139.697 462.773 139.543 462.773 139.4ZM458.663 138.992C458.817 138.132 459.412 137.725 460.205 137.725C460.999 137.725 461.583 138.188 461.693 138.992H458.663ZM465.621 142.132C466.679 142.132 467.649 141.537 467.649 140.557C467.649 140.006 467.406 139.322 466.304 139.047L465.522 138.86C465.203 138.783 464.905 138.606 464.905 138.287C464.905 137.934 465.214 137.637 465.665 137.637C466.051 137.637 466.437 137.89 466.437 138.265H467.472C467.472 137.185 466.525 136.722 465.643 136.722C464.575 136.722 463.814 137.416 463.814 138.254C463.814 139.014 464.255 139.51 465.214 139.763L465.908 139.929C466.293 140.017 466.569 140.193 466.569 140.535C466.569 140.92 466.205 141.218 465.61 141.218C465.026 141.218 464.663 140.865 464.663 140.457H463.66C463.682 141.537 464.663 142.132 465.621 142.132ZM473.823 139.4C473.823 137.78 472.71 136.722 471.245 136.722C469.78 136.722 468.59 137.78 468.59 139.411C468.59 141.041 469.757 142.132 471.245 142.132C472.226 142.132 473.151 141.669 473.603 140.81L472.743 140.38C472.457 140.854 471.895 141.13 471.289 141.13C470.463 141.13 469.846 140.7 469.702 139.862H473.801C473.812 139.697 473.823 139.543 473.823 139.4ZM469.713 138.992C469.868 138.132 470.463 137.725 471.256 137.725C472.049 137.725 472.633 138.188 472.743 138.992H469.713ZM477.84 136.722C477.289 136.722 476.463 137.009 476.165 137.648V136.854H475.085V142H476.165V139.234C476.165 138.166 476.981 137.78 477.653 137.78C478.314 137.78 478.821 138.287 478.821 139.124V142H479.901V139.058C479.912 137.593 479.14 136.722 477.84 136.722ZM482.89 136.854V134.926H481.81V136.854H480.884V137.758H481.81V142H482.89V137.758H483.992V136.854H482.89ZM488.909 137.626C488.579 137.042 487.874 136.722 487.124 136.722C485.67 136.722 484.579 137.89 484.579 139.422C484.579 141.008 485.736 142.132 487.08 142.132C487.874 142.132 488.579 141.725 488.909 141.13V142H489.989V136.854H488.909V137.626ZM487.268 141.119C486.364 141.119 485.67 140.347 485.67 139.422C485.67 138.507 486.364 137.736 487.245 137.736C488.072 137.736 488.898 138.43 488.898 139.422C488.898 140.391 488.127 141.119 487.268 141.119ZM493.123 136.854V134.926H492.043V136.854H491.117V137.758H492.043V142H493.123V137.758H494.225V136.854H493.123ZM495.79 135.675C496.198 135.675 496.528 135.378 496.528 134.981C496.528 134.585 496.198 134.287 495.79 134.287C495.393 134.287 495.052 134.585 495.052 134.981C495.052 135.378 495.393 135.675 495.79 135.675ZM496.33 142V136.854H495.25V142H496.33ZM500.32 142.132C501.785 142.132 503.031 141.052 503.031 139.422C503.031 137.791 501.785 136.722 500.32 136.722C498.855 136.722 497.62 137.791 497.62 139.422C497.62 141.052 498.855 142.132 500.32 142.132ZM500.32 141.119C499.439 141.119 498.7 140.424 498.7 139.422C498.7 138.43 499.439 137.736 500.32 137.736C501.201 137.736 501.951 138.43 501.951 139.422C501.951 140.424 501.201 141.119 500.32 141.119ZM507.065 136.722C506.514 136.722 505.688 137.009 505.39 137.648V136.854H504.31V142H505.39V139.234C505.39 138.166 506.206 137.78 506.878 137.78C507.539 137.78 508.046 138.287 508.046 139.124V142H509.125V139.058C509.136 137.593 508.365 136.722 507.065 136.722Z" fill="#0D0B6D"/>
</g>
<defs>
<clipPath id="clip0_1317_11504">
<rect width="541.5" height="251" fill="white" transform="translate(0.5)"/>
</clipPath>
</defs>
</svg>
