<svg width="542" height="251" viewBox="0 0 542 251" fill="none" xmlns="http://www.w3.org/2000/svg">
<rect width="541.5" height="251" transform="matrix(1 0 0 -1 0.5 251)" fill="#E7F0F9"/>
<path d="M89.1049 141.168C90.6309 141.168 91.9609 140.496 92.8149 139.432L91.7509 138.578C91.1349 139.334 90.1829 139.824 89.1189 139.824C87.1449 139.824 85.6469 138.172 85.6469 136.198C85.6469 134.21 87.1589 132.53 89.1189 132.53C90.1829 132.53 91.1349 133.02 91.7509 133.776L92.8149 132.922C91.9609 131.858 90.6309 131.186 89.1049 131.186C86.3749 131.186 84.2049 133.468 84.2049 136.198C84.2049 138.928 86.3749 141.168 89.1049 141.168ZM97.2039 141.168C99.0659 141.168 100.648 139.796 100.648 137.724C100.648 135.652 99.0659 134.294 97.2039 134.294C95.3419 134.294 93.7739 135.652 93.7739 137.724C93.7739 139.796 95.3419 141.168 97.2039 141.168ZM97.2039 139.88C96.0839 139.88 95.1459 138.998 95.1459 137.724C95.1459 136.464 96.0839 135.582 97.2039 135.582C98.3239 135.582 99.2759 136.464 99.2759 137.724C99.2759 138.998 98.3239 139.88 97.2039 139.88ZM105.774 134.294C105.074 134.294 104.024 134.658 103.646 135.47V134.462H102.274V141H103.646V137.486C103.646 136.128 104.682 135.638 105.536 135.638C106.376 135.638 107.02 136.282 107.02 137.346V141H108.392V137.262C108.406 135.4 107.426 134.294 105.774 134.294ZM112.37 141.168C113.714 141.168 114.946 140.412 114.946 139.166C114.946 138.466 114.638 137.598 113.238 137.248L112.244 137.01C111.838 136.912 111.46 136.688 111.46 136.282C111.46 135.834 111.852 135.456 112.426 135.456C112.916 135.456 113.406 135.778 113.406 136.254H114.722C114.722 134.882 113.518 134.294 112.398 134.294C111.04 134.294 110.074 135.176 110.074 136.24C110.074 137.206 110.634 137.836 111.852 138.158L112.734 138.368C113.224 138.48 113.574 138.704 113.574 139.138C113.574 139.628 113.112 140.006 112.356 140.006C111.614 140.006 111.152 139.558 111.152 139.04H109.878C109.906 140.412 111.152 141.168 112.37 141.168ZM118.452 134.462V132.012H117.08V134.462H115.904V135.61H117.08V141H118.452V135.61H119.852V134.462H118.452ZM124.375 134.294C123.535 134.294 122.877 134.784 122.541 135.932V134.462H121.155V141H122.541V138.648C122.541 136.884 123.101 135.61 124.291 135.61C124.557 135.61 124.893 135.666 125.257 135.834L125.495 134.532C125.285 134.406 124.823 134.294 124.375 134.294ZM131.313 138.018C131.313 139.376 130.277 139.88 129.423 139.88C128.583 139.88 127.939 139.236 127.939 138.158V134.462H126.567V138.2C126.553 140.062 127.547 141.168 129.199 141.168C129.885 141.168 130.935 140.804 131.313 140.006V141H132.685V134.462H131.313V138.018ZM137.825 141.168C138.889 141.168 139.799 140.734 140.373 140.048L139.463 139.194C139.085 139.614 138.511 139.88 137.853 139.88C136.635 139.88 135.669 138.97 135.669 137.724C135.669 136.478 136.635 135.582 137.853 135.582C138.511 135.582 139.085 135.848 139.463 136.268L140.373 135.414C139.799 134.728 138.889 134.294 137.825 134.294C135.935 134.294 134.297 135.652 134.297 137.724C134.297 139.796 135.935 141.168 137.825 141.168ZM143.772 134.462V132.012H142.4V134.462H141.224V135.61H142.4V141H143.772V135.61H145.172V134.462H143.772ZM79.5332 148.964C80.0512 148.964 80.4712 148.586 80.4712 148.082C80.4712 147.578 80.0512 147.2 79.5332 147.2C79.0292 147.2 78.5952 147.578 78.5952 148.082C78.5952 148.586 79.0292 148.964 79.5332 148.964ZM80.2192 157V150.462H78.8472V157H80.2192ZM85.2888 157.168C87.1508 157.168 88.7328 155.796 88.7328 153.724C88.7328 151.652 87.1508 150.294 85.2888 150.294C83.4268 150.294 81.8588 151.652 81.8588 153.724C81.8588 155.796 83.4268 157.168 85.2888 157.168ZM85.2888 155.88C84.1688 155.88 83.2308 154.998 83.2308 153.724C83.2308 152.464 84.1688 151.582 85.2888 151.582C86.4088 151.582 87.3608 152.464 87.3608 153.724C87.3608 154.998 86.4088 155.88 85.2888 155.88ZM93.8589 150.294C93.1589 150.294 92.1089 150.658 91.7309 151.47V150.462H90.3589V157H91.7309V153.486C91.7309 152.128 92.7669 151.638 93.6209 151.638C94.4609 151.638 95.1049 152.282 95.1049 153.346V157H96.4769V153.262C96.4909 151.4 95.5109 150.294 93.8589 150.294ZM108.492 154.928L106.924 150.462H105.636L104.082 154.928L102.514 150.462H101.03L103.508 157H104.642L106.28 152.31L107.974 157H109.136L111.53 150.462H110.046L108.492 154.928ZM115.64 157.168C117.502 157.168 119.084 155.796 119.084 153.724C119.084 151.652 117.502 150.294 115.64 150.294C113.778 150.294 112.21 151.652 112.21 153.724C112.21 155.796 113.778 157.168 115.64 157.168ZM115.64 155.88C114.52 155.88 113.582 154.998 113.582 153.724C113.582 152.464 114.52 151.582 115.64 151.582C116.76 151.582 117.712 152.464 117.712 153.724C117.712 154.998 116.76 155.88 115.64 155.88ZM123.93 150.294C123.09 150.294 122.432 150.784 122.096 151.932V150.462H120.71V157H122.096V154.648C122.096 152.884 122.656 151.61 123.846 151.61C124.112 151.61 124.448 151.666 124.812 151.834L125.05 150.532C124.84 150.406 124.378 150.294 123.93 150.294ZM128.825 153.29L131.583 150.462H129.721L127.579 152.688V146.906H126.207V157H127.579V153.892L130.435 157H132.227L128.825 153.29ZM138.986 153.696C138.986 151.638 137.572 150.294 135.71 150.294C133.848 150.294 132.336 151.638 132.336 153.71C132.336 155.782 133.82 157.168 135.71 157.168C136.956 157.168 138.132 156.58 138.706 155.488L137.614 154.942C137.25 155.544 136.536 155.894 135.766 155.894C134.716 155.894 133.932 155.348 133.75 154.284H138.958C138.972 154.074 138.986 153.878 138.986 153.696ZM133.764 153.178C133.96 152.086 134.716 151.568 135.724 151.568C136.732 151.568 137.474 152.156 137.614 153.178H133.764ZM143.809 150.294C142.969 150.294 142.311 150.784 141.975 151.932V150.462H140.589V157H141.975V154.648C141.975 152.884 142.535 151.61 143.725 151.61C143.991 151.61 144.327 151.666 144.691 151.834L144.929 150.532C144.719 150.406 144.257 150.294 143.809 150.294ZM148.019 157.168C149.363 157.168 150.595 156.412 150.595 155.166C150.595 154.466 150.287 153.598 148.887 153.248L147.893 153.01C147.487 152.912 147.109 152.688 147.109 152.282C147.109 151.834 147.501 151.456 148.075 151.456C148.565 151.456 149.055 151.778 149.055 152.254H150.371C150.371 150.882 149.167 150.294 148.047 150.294C146.689 150.294 145.723 151.176 145.723 152.24C145.723 153.206 146.283 153.836 147.501 154.158L148.383 154.368C148.873 154.48 149.223 154.704 149.223 155.138C149.223 155.628 148.761 156.006 148.005 156.006C147.263 156.006 146.801 155.558 146.801 155.04H145.527C145.555 156.412 146.801 157.168 148.019 157.168Z" fill="#0D0B6D"/>
<path d="M307.794 94.168C309.32 94.168 310.65 93.496 311.504 92.432L310.44 91.578C309.824 92.334 308.872 92.824 307.808 92.824C305.834 92.824 304.336 91.172 304.336 89.198C304.336 87.21 305.848 85.53 307.808 85.53C308.872 85.53 309.824 86.02 310.44 86.776L311.504 85.922C310.65 84.858 309.32 84.186 307.794 84.186C305.064 84.186 302.894 86.468 302.894 89.198C302.894 91.928 305.064 94.168 307.794 94.168ZM315.893 94.168C317.755 94.168 319.337 92.796 319.337 90.724C319.337 88.652 317.755 87.294 315.893 87.294C314.031 87.294 312.463 88.652 312.463 90.724C312.463 92.796 314.031 94.168 315.893 94.168ZM315.893 92.88C314.773 92.88 313.835 91.998 313.835 90.724C313.835 89.464 314.773 88.582 315.893 88.582C317.013 88.582 317.965 89.464 317.965 90.724C317.965 91.998 317.013 92.88 315.893 92.88ZM328.761 87.294C328.103 87.294 327.081 87.532 326.521 88.666C326.129 87.798 325.331 87.294 324.379 87.294C323.497 87.294 322.629 87.756 322.335 88.484V87.462H320.963V94H322.335V90.486C322.335 89.156 323.203 88.61 324.057 88.61C324.869 88.61 325.429 89.268 325.429 90.332V94H326.815V90.738C326.815 89.366 327.375 88.596 328.453 88.61C329.335 88.61 329.895 89.268 329.895 90.332V94H331.281V90.262C331.281 88.4 330.399 87.294 328.761 87.294ZM341.039 87.294C340.381 87.294 339.359 87.532 338.799 88.666C338.407 87.798 337.609 87.294 336.657 87.294C335.775 87.294 334.907 87.756 334.613 88.484V87.462H333.241V94H334.613V90.486C334.613 89.156 335.481 88.61 336.335 88.61C337.147 88.61 337.707 89.268 337.707 90.332V94H339.093V90.738C339.093 89.366 339.653 88.596 340.731 88.61C341.613 88.61 342.173 89.268 342.173 90.332V94H343.559V90.262C343.559 88.4 342.677 87.294 341.039 87.294ZM350.18 91.018C350.18 92.376 349.144 92.88 348.29 92.88C347.45 92.88 346.806 92.236 346.806 91.158V87.462H345.434V91.2C345.42 93.062 346.414 94.168 348.066 94.168C348.752 94.168 349.802 93.804 350.18 93.006V94H351.552V87.462H350.18V91.018ZM357.098 87.294C356.398 87.294 355.348 87.658 354.97 88.47V87.462H353.598V94H354.97V90.486C354.97 89.128 356.006 88.638 356.86 88.638C357.7 88.638 358.344 89.282 358.344 90.346V94H359.716V90.262C359.73 88.4 358.75 87.294 357.098 87.294ZM362.364 85.964C362.882 85.964 363.302 85.586 363.302 85.082C363.302 84.578 362.882 84.2 362.364 84.2C361.86 84.2 361.426 84.578 361.426 85.082C361.426 85.586 361.86 85.964 362.364 85.964ZM363.05 94V87.462H361.678V94H363.05ZM367.028 87.462V85.012H365.656V87.462H364.48V88.61H365.656V94H367.028V88.61H368.428V87.462H367.028ZM372.265 92.012L370.389 87.462H368.905L371.523 93.706L370.109 97.178H371.565L375.625 87.462H374.141L372.265 92.012Z" fill="#0D0B6D"/>
<path d="M305.17 227.438C307.9 227.438 309.734 225.814 309.734 222.384H305.38V223.616H308.152C308.152 225.03 306.78 226.108 305.156 226.108C303.196 226.108 301.698 224.442 301.698 222.468C301.698 220.48 303.196 218.786 305.142 218.786C306.038 218.786 306.864 219.15 307.466 219.71L308.474 218.786C307.634 217.974 306.458 217.456 305.142 217.456C302.398 217.456 300.256 219.724 300.256 222.468C300.256 225.198 302.384 227.438 305.17 227.438ZM314.225 227.438C316.087 227.438 317.669 226.066 317.669 223.994C317.669 221.922 316.087 220.564 314.225 220.564C312.363 220.564 310.795 221.922 310.795 223.994C310.795 226.066 312.363 227.438 314.225 227.438ZM314.225 226.15C313.105 226.15 312.167 225.268 312.167 223.994C312.167 222.734 313.105 221.852 314.225 221.852C315.345 221.852 316.297 222.734 316.297 223.994C316.297 225.268 315.345 226.15 314.225 226.15ZM321.651 225.492L319.747 220.732H318.277L321.007 227.27H322.309L325.039 220.732H323.555L321.651 225.492ZM332.307 223.966C332.307 221.908 330.893 220.564 329.031 220.564C327.169 220.564 325.657 221.908 325.657 223.98C325.657 226.052 327.141 227.438 329.031 227.438C330.277 227.438 331.453 226.85 332.027 225.758L330.935 225.212C330.571 225.814 329.857 226.164 329.087 226.164C328.037 226.164 327.253 225.618 327.071 224.554H332.279C332.293 224.344 332.307 224.148 332.307 223.966ZM327.085 223.448C327.281 222.356 328.037 221.838 329.045 221.838C330.053 221.838 330.795 222.426 330.935 223.448H327.085ZM337.131 220.564C336.291 220.564 335.633 221.054 335.297 222.202V220.732H333.911V227.27H335.297V224.918C335.297 223.154 335.857 221.88 337.047 221.88C337.313 221.88 337.649 221.936 338.013 222.104L338.251 220.802C338.041 220.676 337.579 220.564 337.131 220.564ZM342.907 220.564C342.207 220.564 341.157 220.928 340.779 221.74V220.732H339.407V227.27H340.779V223.756C340.779 222.398 341.815 221.908 342.669 221.908C343.509 221.908 344.153 222.552 344.153 223.616V227.27H345.525V223.532C345.539 221.67 344.559 220.564 342.907 220.564ZM355.285 220.564C354.627 220.564 353.605 220.802 353.045 221.936C352.653 221.068 351.855 220.564 350.903 220.564C350.021 220.564 349.153 221.026 348.859 221.754V220.732H347.487V227.27H348.859V223.756C348.859 222.426 349.727 221.88 350.581 221.88C351.393 221.88 351.953 222.538 351.953 223.602V227.27H353.339V224.008C353.339 222.636 353.899 221.866 354.977 221.88C355.859 221.88 356.419 222.538 356.419 223.602V227.27H357.805V223.532C357.805 221.67 356.923 220.564 355.285 220.564ZM366.008 223.966C366.008 221.908 364.594 220.564 362.732 220.564C360.87 220.564 359.358 221.908 359.358 223.98C359.358 226.052 360.842 227.438 362.732 227.438C363.978 227.438 365.154 226.85 365.728 225.758L364.636 225.212C364.272 225.814 363.558 226.164 362.788 226.164C361.738 226.164 360.954 225.618 360.772 224.554H365.98C365.994 224.344 366.008 224.148 366.008 223.966ZM360.786 223.448C360.982 222.356 361.738 221.838 362.746 221.838C363.754 221.838 364.496 222.426 364.636 223.448H360.786ZM371.112 220.564C370.412 220.564 369.362 220.928 368.984 221.74V220.732H367.612V227.27H368.984V223.756C368.984 222.398 370.02 221.908 370.874 221.908C371.714 221.908 372.358 222.552 372.358 223.616V227.27H373.73V223.532C373.744 221.67 372.764 220.564 371.112 220.564ZM377.528 220.732V218.282H376.156V220.732H374.98V221.88H376.156V227.27H377.528V221.88H378.928V220.732H377.528Z" fill="#0D0B6D"/>
<path d="M391.322 141.168C394.08 141.168 396.222 138.928 396.222 136.198C396.222 133.454 394.08 131.186 391.322 131.186C388.578 131.186 386.45 133.454 386.45 136.198C386.45 138.928 388.578 141.168 391.322 141.168ZM391.322 139.824C389.362 139.824 387.892 138.172 387.892 136.198C387.892 134.21 389.362 132.53 391.322 132.53C393.296 132.53 394.78 134.21 394.78 136.198C394.78 138.172 393.296 139.824 391.322 139.824ZM401.474 134.294C400.592 134.294 399.64 134.7 399.206 135.442V134.462H397.834V144.178H399.206V140.034C399.64 140.776 400.55 141.168 401.474 141.168C403.252 141.168 404.722 139.824 404.722 137.738C404.722 135.666 403.238 134.294 401.474 134.294ZM401.306 139.88C400.298 139.88 399.22 139.068 399.22 137.752C399.22 136.436 400.214 135.582 401.306 135.582C402.44 135.582 403.336 136.52 403.336 137.752C403.336 138.984 402.44 139.88 401.306 139.88ZM412.595 137.696C412.595 135.638 411.181 134.294 409.319 134.294C407.457 134.294 405.945 135.638 405.945 137.71C405.945 139.782 407.429 141.168 409.319 141.168C410.565 141.168 411.741 140.58 412.315 139.488L411.223 138.942C410.859 139.544 410.145 139.894 409.375 139.894C408.325 139.894 407.541 139.348 407.359 138.284H412.567C412.581 138.074 412.595 137.878 412.595 137.696ZM407.373 137.178C407.569 136.086 408.325 135.568 409.333 135.568C410.341 135.568 411.083 136.156 411.223 137.178H407.373ZM417.699 134.294C416.999 134.294 415.949 134.658 415.571 135.47V134.462H414.199V141H415.571V137.486C415.571 136.128 416.607 135.638 417.461 135.638C418.301 135.638 418.945 136.282 418.945 137.346V141H420.317V137.262C420.331 135.4 419.351 134.294 417.699 134.294ZM427.781 141.168C429.125 141.168 430.357 140.412 430.357 139.166C430.357 138.466 430.049 137.598 428.649 137.248L427.655 137.01C427.249 136.912 426.871 136.688 426.871 136.282C426.871 135.834 427.263 135.456 427.837 135.456C428.327 135.456 428.817 135.778 428.817 136.254H430.133C430.133 134.882 428.929 134.294 427.809 134.294C426.451 134.294 425.485 135.176 425.485 136.24C425.485 137.206 426.045 137.836 427.263 138.158L428.145 138.368C428.635 138.48 428.985 138.704 428.985 139.138C428.985 139.628 428.523 140.006 427.767 140.006C427.025 140.006 426.563 139.558 426.563 139.04H425.289C425.317 140.412 426.563 141.168 427.781 141.168ZM434.969 141.168C436.831 141.168 438.413 139.796 438.413 137.724C438.413 135.652 436.831 134.294 434.969 134.294C433.107 134.294 431.539 135.652 431.539 137.724C431.539 139.796 433.107 141.168 434.969 141.168ZM434.969 139.88C433.849 139.88 432.911 138.998 432.911 137.724C432.911 136.464 433.849 135.582 434.969 135.582C436.089 135.582 437.041 136.464 437.041 137.724C437.041 138.998 436.089 139.88 434.969 139.88ZM444.701 138.018C444.701 139.376 443.665 139.88 442.811 139.88C441.971 139.88 441.327 139.236 441.327 138.158V134.462H439.955V138.2C439.941 140.062 440.935 141.168 442.587 141.168C443.273 141.168 444.323 140.804 444.701 140.006V141H446.073V134.462H444.701V138.018ZM451.339 134.294C450.499 134.294 449.841 134.784 449.505 135.932V134.462H448.119V141H449.505V138.648C449.505 136.884 450.065 135.61 451.255 135.61C451.521 135.61 451.857 135.666 452.221 135.834L452.459 134.532C452.249 134.406 451.787 134.294 451.339 134.294ZM456.504 141.168C457.568 141.168 458.478 140.734 459.052 140.048L458.142 139.194C457.764 139.614 457.19 139.88 456.532 139.88C455.314 139.88 454.348 138.97 454.348 137.724C454.348 136.478 455.314 135.582 456.532 135.582C457.19 135.582 457.764 135.848 458.142 136.268L459.052 135.414C458.478 134.728 457.568 134.294 456.504 134.294C454.614 134.294 452.976 135.652 452.976 137.724C452.976 139.796 454.614 141.168 456.504 141.168ZM466.626 137.696C466.626 135.638 465.212 134.294 463.35 134.294C461.488 134.294 459.976 135.638 459.976 137.71C459.976 139.782 461.46 141.168 463.35 141.168C464.596 141.168 465.772 140.58 466.346 139.488L465.254 138.942C464.89 139.544 464.176 139.894 463.406 139.894C462.356 139.894 461.572 139.348 461.39 138.284H466.598C466.612 138.074 466.626 137.878 466.626 137.696ZM461.404 137.178C461.6 136.086 462.356 135.568 463.364 135.568C464.372 135.568 465.114 136.156 465.254 137.178H461.404ZM417.599 151.428C417.165 150.686 416.255 150.294 415.331 150.294C413.567 150.294 412.097 151.638 412.097 153.724C412.097 155.796 413.567 157.168 415.345 157.168C416.227 157.168 417.165 156.762 417.599 156.02V157H418.971V146.906H417.599V151.428ZM415.499 155.88C414.379 155.88 413.469 154.928 413.469 153.71C413.469 152.478 414.379 151.582 415.499 151.582C416.507 151.582 417.585 152.394 417.585 153.71C417.585 155.026 416.605 155.88 415.499 155.88ZM426.103 151.442C425.683 150.7 424.787 150.294 423.835 150.294C421.987 150.294 420.601 151.778 420.601 153.724C420.601 155.74 422.071 157.168 423.779 157.168C424.787 157.168 425.683 156.65 426.103 155.894V157H427.475V150.462H426.103V151.442ZM424.017 155.88C422.869 155.88 421.987 154.9 421.987 153.724C421.987 152.562 422.869 151.582 423.989 151.582C425.039 151.582 426.089 152.464 426.089 153.724C426.089 154.956 425.109 155.88 424.017 155.88ZM431.457 150.462V148.012H430.085V150.462H428.909V151.61H430.085V157H431.457V151.61H432.857V150.462H431.457ZM439.105 151.442C438.685 150.7 437.789 150.294 436.837 150.294C434.989 150.294 433.603 151.778 433.603 153.724C433.603 155.74 435.073 157.168 436.781 157.168C437.789 157.168 438.685 156.65 439.105 155.894V157H440.477V150.462H439.105V151.442ZM437.019 155.88C435.871 155.88 434.989 154.9 434.989 153.724C434.989 152.562 435.871 151.582 436.991 151.582C438.041 151.582 439.091 152.464 439.091 153.724C439.091 154.956 438.111 155.88 437.019 155.88Z" fill="#0D0B6D"/>
<path d="M219.809 141.168C221.335 141.168 222.665 140.496 223.519 139.432L222.455 138.578C221.839 139.334 220.887 139.824 219.823 139.824C217.849 139.824 216.351 138.172 216.351 136.198C216.351 134.21 217.863 132.53 219.823 132.53C220.887 132.53 221.839 133.02 222.455 133.776L223.519 132.922C222.665 131.858 221.335 131.186 219.809 131.186C217.079 131.186 214.909 133.468 214.909 136.198C214.909 138.928 217.079 141.168 219.809 141.168ZM227.908 141.168C229.77 141.168 231.352 139.796 231.352 137.724C231.352 135.652 229.77 134.294 227.908 134.294C226.046 134.294 224.478 135.652 224.478 137.724C224.478 139.796 226.046 141.168 227.908 141.168ZM227.908 139.88C226.788 139.88 225.85 138.998 225.85 137.724C225.85 136.464 226.788 135.582 227.908 135.582C229.028 135.582 229.98 136.464 229.98 137.724C229.98 138.998 229.028 139.88 227.908 139.88ZM236.478 134.294C235.778 134.294 234.728 134.658 234.35 135.47V134.462H232.978V141H234.35V137.486C234.35 136.128 235.386 135.638 236.24 135.638C237.08 135.638 237.724 136.282 237.724 137.346V141H239.096V137.262C239.11 135.4 238.13 134.294 236.478 134.294ZM243.074 141.168C244.418 141.168 245.65 140.412 245.65 139.166C245.65 138.466 245.342 137.598 243.942 137.248L242.948 137.01C242.542 136.912 242.164 136.688 242.164 136.282C242.164 135.834 242.556 135.456 243.13 135.456C243.62 135.456 244.11 135.778 244.11 136.254H245.426C245.426 134.882 244.222 134.294 243.102 134.294C241.744 134.294 240.778 135.176 240.778 136.24C240.778 137.206 241.338 137.836 242.556 138.158L243.438 138.368C243.928 138.48 244.278 138.704 244.278 139.138C244.278 139.628 243.816 140.006 243.06 140.006C242.318 140.006 241.856 139.558 241.856 139.04H240.582C240.61 140.412 241.856 141.168 243.074 141.168ZM249.156 134.462V132.012H247.784V134.462H246.608V135.61H247.784V141H249.156V135.61H250.556V134.462H249.156ZM255.079 134.294C254.239 134.294 253.581 134.784 253.245 135.932V134.462H251.859V141H253.245V138.648C253.245 136.884 253.805 135.61 254.995 135.61C255.261 135.61 255.597 135.666 255.961 135.834L256.199 134.532C255.989 134.406 255.527 134.294 255.079 134.294ZM262.017 138.018C262.017 139.376 260.981 139.88 260.127 139.88C259.287 139.88 258.643 139.236 258.643 138.158V134.462H257.271V138.2C257.257 140.062 258.251 141.168 259.903 141.168C260.589 141.168 261.639 140.804 262.017 140.006V141H263.389V134.462H262.017V138.018ZM268.529 141.168C269.593 141.168 270.503 140.734 271.077 140.048L270.167 139.194C269.789 139.614 269.215 139.88 268.557 139.88C267.339 139.88 266.373 138.97 266.373 137.724C266.373 136.478 267.339 135.582 268.557 135.582C269.215 135.582 269.789 135.848 270.167 136.268L271.077 135.414C270.503 134.728 269.593 134.294 268.529 134.294C266.639 134.294 265.001 135.652 265.001 137.724C265.001 139.796 266.639 141.168 268.529 141.168ZM274.476 134.462V132.012H273.104V134.462H271.928V135.61H273.104V141H274.476V135.61H275.876V134.462H274.476ZM277.865 132.964C278.383 132.964 278.803 132.586 278.803 132.082C278.803 131.578 278.383 131.2 277.865 131.2C277.361 131.2 276.927 131.578 276.927 132.082C276.927 132.586 277.361 132.964 277.865 132.964ZM278.551 141V134.462H277.179V141H278.551ZM283.621 141.168C285.483 141.168 287.065 139.796 287.065 137.724C287.065 135.652 285.483 134.294 283.621 134.294C281.759 134.294 280.191 135.652 280.191 137.724C280.191 139.796 281.759 141.168 283.621 141.168ZM283.621 139.88C282.501 139.88 281.563 138.998 281.563 137.724C281.563 136.464 282.501 135.582 283.621 135.582C284.741 135.582 285.693 136.464 285.693 137.724C285.693 138.998 284.741 139.88 283.621 139.88ZM292.191 134.294C291.491 134.294 290.441 134.658 290.063 135.47V134.462H288.691V141H290.063V137.486C290.063 136.128 291.099 135.638 291.953 135.638C292.793 135.638 293.437 136.282 293.437 137.346V141H294.809V137.262C294.823 135.4 293.843 134.294 292.191 134.294ZM224.157 157.168C225.221 157.168 226.131 156.734 226.705 156.048L225.795 155.194C225.417 155.614 224.843 155.88 224.185 155.88C222.967 155.88 222.001 154.97 222.001 153.724C222.001 152.478 222.967 151.582 224.185 151.582C224.843 151.582 225.417 151.848 225.795 152.268L226.705 151.414C226.131 150.728 225.221 150.294 224.157 150.294C222.267 150.294 220.629 151.652 220.629 153.724C220.629 155.796 222.267 157.168 224.157 157.168ZM231.046 157.168C232.908 157.168 234.49 155.796 234.49 153.724C234.49 151.652 232.908 150.294 231.046 150.294C229.184 150.294 227.616 151.652 227.616 153.724C227.616 155.796 229.184 157.168 231.046 157.168ZM231.046 155.88C229.926 155.88 228.988 154.998 228.988 153.724C228.988 152.464 229.926 151.582 231.046 151.582C232.166 151.582 233.118 152.464 233.118 153.724C233.118 154.998 232.166 155.88 231.046 155.88ZM243.914 150.294C243.256 150.294 242.234 150.532 241.674 151.666C241.282 150.798 240.484 150.294 239.532 150.294C238.65 150.294 237.782 150.756 237.488 151.484V150.462H236.116V157H237.488V153.486C237.488 152.156 238.356 151.61 239.21 151.61C240.022 151.61 240.582 152.268 240.582 153.332V157H241.968V153.738C241.968 152.366 242.528 151.596 243.606 151.61C244.488 151.61 245.048 152.268 245.048 153.332V157H246.434V153.262C246.434 151.4 245.552 150.294 243.914 150.294ZM252.033 150.294C251.151 150.294 250.199 150.7 249.765 151.442V150.462H248.393V160.178H249.765V156.034C250.199 156.776 251.109 157.168 252.033 157.168C253.811 157.168 255.281 155.824 255.281 153.738C255.281 151.666 253.797 150.294 252.033 150.294ZM251.865 155.88C250.857 155.88 249.779 155.068 249.779 153.752C249.779 152.436 250.773 151.582 251.865 151.582C252.999 151.582 253.895 152.52 253.895 153.752C253.895 154.984 252.999 155.88 251.865 155.88ZM261.993 151.442C261.573 150.7 260.677 150.294 259.725 150.294C257.877 150.294 256.491 151.778 256.491 153.724C256.491 155.74 257.961 157.168 259.669 157.168C260.677 157.168 261.573 156.65 261.993 155.894V157H263.365V150.462H261.993V151.442ZM259.907 155.88C258.759 155.88 257.877 154.9 257.877 153.724C257.877 152.562 258.759 151.582 259.879 151.582C260.929 151.582 261.979 152.464 261.979 153.724C261.979 154.956 260.999 155.88 259.907 155.88ZM268.928 150.294C268.228 150.294 267.178 150.658 266.8 151.47V150.462H265.428V157H266.8V153.486C266.8 152.128 267.836 151.638 268.69 151.638C269.53 151.638 270.174 152.282 270.174 153.346V157H271.546V153.262C271.56 151.4 270.58 150.294 268.928 150.294ZM274.194 148.964C274.712 148.964 275.132 148.586 275.132 148.082C275.132 147.578 274.712 147.2 274.194 147.2C273.69 147.2 273.256 147.578 273.256 148.082C273.256 148.586 273.69 148.964 274.194 148.964ZM274.88 157V150.462H273.508V157H274.88ZM283.184 153.696C283.184 151.638 281.77 150.294 279.908 150.294C278.046 150.294 276.534 151.638 276.534 153.71C276.534 155.782 278.018 157.168 279.908 157.168C281.154 157.168 282.33 156.58 282.904 155.488L281.812 154.942C281.448 155.544 280.734 155.894 279.964 155.894C278.914 155.894 278.13 155.348 277.948 154.284H283.156C283.17 154.074 283.184 153.878 283.184 153.696ZM277.962 153.178C278.158 152.086 278.914 151.568 279.922 151.568C280.93 151.568 281.672 152.156 281.812 153.178H277.962ZM286.804 157.168C288.148 157.168 289.38 156.412 289.38 155.166C289.38 154.466 289.072 153.598 287.672 153.248L286.678 153.01C286.272 152.912 285.894 152.688 285.894 152.282C285.894 151.834 286.286 151.456 286.86 151.456C287.35 151.456 287.84 151.778 287.84 152.254H289.156C289.156 150.882 287.952 150.294 286.832 150.294C285.474 150.294 284.508 151.176 284.508 152.24C284.508 153.206 285.068 153.836 286.286 154.158L287.168 154.368C287.658 154.48 288.008 154.704 288.008 155.138C288.008 155.628 287.546 156.006 286.79 156.006C286.048 156.006 285.586 155.558 285.586 155.04H284.312C284.34 156.412 285.586 157.168 286.804 157.168Z" fill="#0D0B6D"/>
<path d="M201.53 137.53C201.823 137.237 201.823 136.763 201.53 136.47L196.757 131.697C196.464 131.404 195.99 131.404 195.697 131.697C195.404 131.99 195.404 132.464 195.697 132.757L199.939 137L195.697 141.243C195.404 141.536 195.404 142.01 195.697 142.303C195.99 142.596 196.464 142.596 196.757 142.303L201.53 137.53ZM172 137.75H201V136.25H172V137.75Z" fill="#0B4A6D"/>
<path d="M126.036 105.911L119.336 103.776V100.856C120.873 99.4197 121.837 97.3706 121.837 95.0992V94.4836L122.424 94.4447C123.345 94.3838 124.04 93.6701 124.04 92.7846V91.6771C124.04 90.9552 123.579 90.3397 122.938 90.1111V88.9083C122.938 86.75 122.212 84.7324 120.894 83.2271C119.752 81.9225 118.26 81.123 116.743 80.9866C116.522 80.3311 115.904 79.8579 115.179 79.8579H112.866C112.14 79.8579 111.522 80.3311 111.301 80.9864C109.784 81.1228 108.292 81.9223 107.15 83.227C105.832 84.7322 105.106 86.7498 105.106 88.9081V90.1109C104.465 90.3395 104.004 90.955 104.004 91.6769V92.7845C104.004 93.6699 104.699 94.3836 105.62 94.4446L106.207 94.4834V95.099C106.207 97.3705 107.171 99.4196 108.709 100.856V103.775L102.008 105.911C98.9507 106.885 96.2065 108.06 96.2065 111.68V117.662H131.838V115.447H130.736V116.555H126.421V107.205C129.283 108.192 130.736 109.247 130.736 111.68V112.124H131.838V111.68C131.838 108.06 129.093 106.885 126.036 105.911ZM124.218 106.493L125.319 106.844V114.34H124.218V106.493ZM102.725 106.844L103.826 106.493V114.34H102.725V106.844ZM102.725 115.447H104.928V106.142L106.029 105.791V115.447H113.471V116.555H102.725V115.447ZM107.131 106.322L113.471 112.363V114.34H107.131V106.322ZM114.573 112.363L120.914 106.322V114.34H114.573V112.363ZM111.213 82.1113V85.6945H112.315V81.5192C112.315 81.2138 112.562 80.9655 112.866 80.9655H115.179C115.482 80.9655 115.729 81.2138 115.729 81.5192V85.6945H116.831V82.1113C119.342 82.4543 121.837 85.0984 121.837 88.9081V90.0157H117.932V89.4619C117.932 88.5459 117.191 87.8006 116.28 87.8006H111.764C110.853 87.8006 110.112 88.5458 110.112 89.4619V90.0157H106.207V88.9081C106.207 85.0984 108.702 82.4543 111.213 82.1113ZM116.831 90.0157H111.213V89.4619C111.213 89.1566 111.46 88.9081 111.764 88.9081H116.28C116.584 88.9081 116.831 89.1565 116.831 89.4619V90.0157ZM107.309 95.0991V94.5564L109.804 94.7216L109.877 93.6164L105.693 93.3395C105.408 93.3207 105.106 93.1198 105.106 92.7845V91.677C105.106 91.3717 105.353 91.1232 105.657 91.1232H122.388C122.691 91.1232 122.938 91.3716 122.938 91.677V92.7845C122.938 93.1198 122.636 93.3207 122.352 93.3395L114.022 93.8909L110.976 93.6893L110.903 94.7944L114.022 95.0009L120.735 94.5565V95.0992C120.735 98.8215 117.724 101.85 114.022 101.85C110.32 101.85 107.309 98.8214 107.309 95.0991ZM114.022 102.957C115.572 102.957 117.018 102.501 118.234 101.716V104.06C117.659 105.249 116.023 106.011 114.022 106.011C112.021 106.011 110.385 105.249 109.81 104.06V101.716C111.026 102.501 112.472 102.957 114.022 102.957ZM108.987 104.849C109.85 106.242 111.761 107.119 114.022 107.119C116.283 107.119 118.194 106.242 119.057 104.849L120.407 105.279L114.022 111.362L107.637 105.279L108.987 104.849ZM97.3079 111.68C97.3079 109.247 98.7609 108.192 101.623 107.205V116.555H97.3079V111.68ZM114.573 116.555V115.447H122.015V105.791L123.116 106.142V115.447H125.319V116.555H114.573Z" fill="#0D0B6D"/>
<path d="M130.736 113.232H131.838V114.339H130.736V113.232Z" fill="#0D0B6D"/>
<path d="M117.932 84.1904H119.034V85.298H117.932V84.1904Z" fill="#0D0B6D"/>
<path d="M119.033 86.4058H120.135V87.5133H119.033V86.4058Z" fill="#0D0B6D"/>
<path d="M276.4 108.841H258.907C258.742 108.841 258.583 108.907 258.466 109.025C258.349 109.144 258.283 109.304 258.283 109.471V117.032C258.283 117.199 258.349 117.359 258.466 117.477C258.583 117.595 258.742 117.662 258.907 117.662H276.4C276.566 117.662 276.725 117.595 276.842 117.477C276.959 117.359 277.025 117.199 277.025 117.032V109.471C277.025 109.304 276.959 109.144 276.842 109.025C276.725 108.907 276.566 108.841 276.4 108.841ZM275.775 116.402H259.532V110.101H275.775V116.402Z" fill="#0D0B6D"/>
<path d="M276.4 100.65H268.278V98.6441C268.644 98.5158 268.96 98.2761 269.184 97.9581C269.408 97.6402 269.528 97.2599 269.528 96.8698C269.528 96.4798 269.408 96.0995 269.184 95.7815C268.96 95.4636 268.644 95.2239 268.278 95.0956V92.4593H275.15C275.316 92.4593 275.475 92.393 275.592 92.2748C275.709 92.1566 275.775 91.9964 275.775 91.8293V86.7887C275.775 86.7786 275.763 86.698 275.757 86.6665C275.752 86.6359 275.744 86.6058 275.735 86.5764C275.731 86.5669 275.706 86.5134 275.697 86.4963C275.683 86.4678 275.667 86.4404 275.648 86.4144C275.629 86.3906 275.608 86.368 275.586 86.347C275.565 86.3244 275.543 86.3033 275.519 86.284C275.493 86.2657 275.466 86.2493 275.438 86.2349C275.42 86.2254 275.368 86.2002 275.359 86.1971C275.329 86.1871 275.299 86.1796 275.269 86.1744C275.24 86.1706 275.16 86.1586 275.15 86.1586H270.238L247.83 79.8812C247.778 79.8663 247.724 79.8584 247.67 79.8579H247.662C247.652 79.8579 247.642 79.8623 247.631 79.863C247.587 79.8647 247.544 79.8712 247.501 79.8825C247.481 79.8882 247.463 79.8951 247.444 79.902C247.41 79.915 247.376 79.9312 247.345 79.9505C247.327 79.9609 247.309 79.9723 247.292 79.9846C247.282 79.9915 247.272 79.9959 247.262 80.0041L239.765 86.3048C239.758 86.3111 239.692 86.393 239.666 86.4308C239.642 86.4602 239.621 86.4916 239.603 86.5247C239.576 86.602 239.557 86.6818 239.546 86.7629C239.546 86.7723 239.541 86.7805 239.541 86.79V91.8305C239.541 91.8406 239.545 91.8494 239.545 91.8595C239.547 91.8909 239.552 91.9221 239.559 91.9528C239.564 91.9833 239.572 92.0134 239.581 92.0429C239.581 92.0523 239.581 92.0624 239.588 92.0718C239.596 92.0907 239.609 92.1052 239.619 92.1229C239.633 92.1514 239.649 92.1788 239.668 92.2048C239.687 92.2287 239.708 92.2512 239.73 92.2722C239.751 92.2949 239.773 92.3159 239.797 92.3352C239.823 92.3535 239.85 92.3699 239.878 92.3844C239.896 92.3938 239.91 92.407 239.929 92.4152C239.936 92.4152 239.944 92.4152 239.952 92.4196C240.02 92.4455 240.093 92.459 240.166 92.4593H244.539V117.032C244.539 117.042 244.542 117.051 244.543 117.061C244.545 117.093 244.55 117.124 244.557 117.154C244.562 117.185 244.569 117.215 244.579 117.244C244.582 117.254 244.582 117.264 244.586 117.273C244.59 117.283 244.607 117.307 244.617 117.324C244.631 117.353 244.647 117.38 244.665 117.406C244.685 117.43 244.706 117.453 244.728 117.474C244.749 117.496 244.771 117.518 244.795 117.537C244.821 117.555 244.848 117.572 244.876 117.586C244.893 117.595 244.908 117.609 244.927 117.617C244.934 117.62 244.942 117.617 244.95 117.621C245.018 117.648 245.09 117.661 245.163 117.662H250.161C250.327 117.662 250.486 117.596 250.603 117.478C250.72 117.359 250.786 117.199 250.786 117.032V102.54H253.91C254.075 102.54 254.234 102.474 254.351 102.356C254.469 102.238 254.534 102.078 254.534 101.91V92.4593H267.029V95.0956C266.664 95.2239 266.347 95.4636 266.123 95.7815C265.899 96.0995 265.779 96.4798 265.779 96.8698C265.779 97.2599 265.899 97.6402 266.123 97.9581C266.347 98.2761 266.664 98.5158 267.029 98.6441V100.65H258.907C258.742 100.65 258.583 100.717 258.466 100.835C258.349 100.953 258.283 101.113 258.283 101.28V103.801C258.283 103.968 258.349 104.128 258.466 104.246C258.583 104.364 258.742 104.431 258.907 104.431H276.4C276.566 104.431 276.725 104.364 276.842 104.246C276.959 104.128 277.025 103.968 277.025 103.801V101.28C277.025 101.113 276.959 100.953 276.842 100.835C276.725 100.717 276.566 100.65 276.4 100.65ZM251.669 91.1992L254.534 88.3097V91.1992H251.669ZM246.671 91.1992L249.536 88.3097V91.1992H246.671ZM265.155 86.1586H250.584L248.71 81.4362L265.57 86.1586H265.155ZM245.788 87.4188H248.653L245.788 90.3083V87.4188ZM246.086 86.1586L247.662 82.1841L249.238 86.1586H246.086ZM250.786 87.4188H253.651L250.786 90.3083V87.4188ZM244.74 86.1586H241.891L246.163 82.5672L244.74 86.1586ZM240.79 87.4188H243.655L240.79 90.3083V87.4188ZM255.784 87.4188H258.649L255.784 90.3083V87.4188ZM260.782 87.4188H263.647L260.782 90.3083V87.4188ZM265.78 87.4188H268.645L265.78 90.3083V87.4188ZM274.526 91.1992H271.661L274.526 88.3097V91.1992ZM270.777 90.3083V87.4188H273.642L270.777 90.3083ZM244.539 88.3097V91.1992H241.674L244.539 88.3097ZM249.536 111.361H246.671L249.536 108.472V111.361ZM245.788 110.471V107.581H248.653L245.788 110.471ZM245.788 112.622H248.653L245.788 115.511V112.622ZM249.536 106.321H246.671L249.536 103.431V106.321ZM245.788 105.43V102.54H248.653L245.788 105.43ZM249.536 116.402H246.671L249.536 113.513V116.402ZM250.161 101.28H245.788V92.4593H247.038V99.3901C247.038 99.4727 247.054 99.5545 247.086 99.6308C247.149 99.7851 247.271 99.9077 247.424 99.9717C247.499 100.003 247.58 100.02 247.662 100.02H253.285V101.28H250.161ZM253.285 98.76H251.669L252.477 97.9454C252.591 97.8265 252.654 97.6674 252.652 97.5022C252.651 97.337 252.585 97.1789 252.469 97.0621C252.354 96.9453 252.197 96.879 252.033 96.8776C251.869 96.8762 251.712 96.9397 251.594 97.0544L249.903 98.76H249.17L251.228 96.6852C251.341 96.5664 251.404 96.4072 251.403 96.242C251.402 96.0768 251.336 95.9188 251.22 95.802C251.104 95.6852 250.947 95.6189 250.784 95.6175C250.62 95.616 250.462 95.6795 250.344 95.7943L248.287 97.8691V92.4593H253.285V98.76ZM259.532 88.3097V91.1992H256.667L259.532 88.3097ZM264.53 88.3097V91.1992H261.665L264.53 88.3097ZM269.528 88.3097V91.1992H266.663L269.528 88.3097ZM267.654 96.2398C267.777 96.2398 267.898 96.2767 268.001 96.3459C268.104 96.4152 268.184 96.5136 268.231 96.6287C268.278 96.7438 268.291 96.8705 268.266 96.9928C268.242 97.115 268.183 97.2272 268.095 97.3154C268.008 97.4035 267.897 97.4635 267.776 97.4878C267.654 97.5121 267.529 97.4996 267.415 97.4519C267.3 97.4043 267.203 97.3235 267.134 97.2199C267.066 97.1163 267.029 96.9945 267.029 96.8698C267.029 96.7027 267.095 96.5425 267.212 96.4243C267.329 96.3061 267.488 96.2398 267.654 96.2398ZM275.775 103.171H259.532V101.91H275.775V103.171Z" fill="#0D0B6D"/>
<path d="M261.406 115.142H263.905C264.071 115.142 264.23 115.075 264.347 114.957C264.464 114.839 264.53 114.679 264.53 114.512V111.991C264.53 111.824 264.464 111.664 264.347 111.546C264.23 111.428 264.071 111.361 263.905 111.361H261.406C261.241 111.361 261.082 111.428 260.964 111.546C260.847 111.664 260.781 111.824 260.781 111.991V114.512C260.781 114.679 260.847 114.839 260.964 114.957C261.082 115.075 261.241 115.142 261.406 115.142ZM262.031 112.621H263.28V113.882H262.031V112.621Z" fill="#0D0B6D"/>
<path d="M266.404 115.142H268.903C269.069 115.142 269.228 115.075 269.345 114.957C269.462 114.839 269.528 114.679 269.528 114.512V111.991C269.528 111.824 269.462 111.664 269.345 111.546C269.228 111.428 269.069 111.361 268.903 111.361H266.404C266.238 111.361 266.079 111.428 265.962 111.546C265.845 111.664 265.779 111.824 265.779 111.991V114.512C265.779 114.679 265.845 114.839 265.962 114.957C266.079 115.075 266.238 115.142 266.404 115.142ZM267.029 112.621H268.278V113.882H267.029V112.621Z" fill="#0D0B6D"/>
<path d="M271.402 115.142H273.901C274.067 115.142 274.226 115.075 274.343 114.957C274.46 114.839 274.526 114.679 274.526 114.512V111.991C274.526 111.824 274.46 111.664 274.343 111.546C274.226 111.428 274.067 111.361 273.901 111.361H271.402C271.236 111.361 271.077 111.428 270.96 111.546C270.843 111.664 270.777 111.824 270.777 111.991V114.512C270.777 114.679 270.843 114.839 270.96 114.957C271.077 115.075 271.236 115.142 271.402 115.142ZM272.027 112.621H273.276V113.882H272.027V112.621Z" fill="#0D0B6D"/>
<path d="M356.087 41.415C356.087 40.3949 355.398 39.5341 354.463 39.2779C354.563 39.0251 354.619 38.7499 354.619 38.4615C354.619 37.4415 353.929 36.5807 352.995 36.3245C353.095 36.0717 353.15 35.7964 353.15 35.5081C353.15 34.2867 352.162 33.293 350.947 33.293H343.032C341.387 33.293 339.726 33.6871 338.224 34.4342L337.557 34.7697H329.506C329.219 34.7697 328.946 34.8257 328.694 34.9263C328.439 33.9863 327.583 33.293 326.569 33.293C325.554 33.293 324.698 33.9863 324.444 34.9263C324.192 34.8257 323.918 34.7697 323.632 34.7697C322.617 34.7697 321.761 35.463 321.506 36.403C321.255 36.3024 320.981 36.2464 320.695 36.2464C319.48 36.2464 318.492 37.2401 318.492 38.4615V46.4211C318.492 49.5334 319.823 51.5673 319.96 51.9264V60.0218C319.96 60.31 320.016 60.5854 320.116 60.8382C319.181 61.0944 318.492 61.9552 318.492 62.9752C318.492 63.9953 319.181 64.8561 320.116 65.1123C320.016 65.3651 319.96 65.6404 319.96 65.9287C319.96 66.9487 320.65 67.8095 321.585 68.0657C321.485 68.3186 321.429 68.5939 321.429 68.8821C321.429 70.1036 322.417 71.0972 323.632 71.0972H325.401C325.807 71.0972 326.136 70.7667 326.136 70.3589C326.136 69.9511 325.807 69.6205 325.401 69.6205H323.632C323.227 69.6205 322.897 69.2893 322.897 68.8821C322.897 68.475 323.227 68.1438 323.632 68.1438H325.1C325.506 68.1438 325.835 67.8132 325.835 67.4054C325.835 66.9976 325.506 66.6671 325.1 66.6671C324.073 66.6671 323.19 66.6671 322.163 66.6671C321.758 66.6671 321.429 66.3358 321.429 65.9287C321.429 65.5216 321.758 65.1903 322.163 65.1903H325.1C325.506 65.1903 325.835 64.8598 325.835 64.452C325.835 64.0442 325.506 63.7136 325.1 63.7136C324.432 63.7136 321.853 63.7136 320.695 63.7136C320.29 63.7136 319.96 63.3824 319.96 62.9752C319.96 62.5681 320.29 62.2369 320.695 62.2369H325.1C325.506 62.2369 325.835 61.9063 325.835 61.4985C325.835 61.0907 325.506 60.7601 325.1 60.7601H322.163C321.758 60.7601 321.429 60.4289 321.429 60.0218C321.429 59.6146 321.758 59.2834 322.163 59.2834H329.506C329.912 59.2834 330.24 58.9528 330.24 58.545V57.8067H332.091C333.846 57.8067 335.418 58.7812 336.191 60.3498C336.315 60.6012 336.57 60.7601 336.849 60.7601H342.87V67.4054C342.87 67.6643 342.915 67.9127 342.997 68.1438H338.318C338.204 68.1438 338.091 68.1704 337.989 68.2218L337.17 68.6338C335.872 69.2793 334.436 69.6205 333.016 69.6205H331.995C331.59 69.6205 331.261 69.9511 331.261 70.3589C331.261 70.7667 331.59 71.0972 331.995 71.0972H333.016C334.66 71.0972 336.322 70.7031 337.824 69.956L338.491 69.6205H345.073C345.36 69.6205 345.634 69.5645 345.885 69.4639C346.14 70.4039 346.996 71.0972 348.01 71.0972C349.025 71.0972 349.881 70.4039 350.136 69.4639C350.387 69.5645 350.661 69.6205 350.947 69.6205C351.962 69.6205 352.818 68.9272 353.073 67.9872C353.324 68.0878 353.598 68.1438 353.885 68.1438C355.099 68.1438 356.087 67.1501 356.087 65.9287V57.0683C356.087 56.9561 356.062 56.8502 356.017 56.755C355.874 55.5077 355.514 54.2754 354.953 53.1349L354.619 52.4639V44.3684C354.619 44.0802 354.563 43.8048 354.463 43.552C355.398 43.2958 356.087 42.4351 356.087 41.415ZM328.772 57.8067H322.163C321.906 57.8067 321.659 57.8517 321.429 57.9337V51.7521C321.429 51.6375 321.402 51.5245 321.351 51.4219C321.184 50.9932 319.96 49.1832 319.96 46.4211V38.4615C319.96 38.0544 320.29 37.7232 320.695 37.7232C321.099 37.7232 321.429 38.0544 321.429 38.4615V39.9383C321.429 40.3461 321.758 40.6766 322.163 40.6766C322.569 40.6766 322.897 40.3461 322.897 39.9383V36.9848C322.897 36.5777 323.227 36.2464 323.632 36.2464C324.037 36.2464 324.366 36.5777 324.366 36.9848V39.9383C324.366 40.3461 324.695 40.6766 325.1 40.6766C325.506 40.6766 325.835 40.3461 325.835 39.9383C325.835 39.2663 325.835 36.6726 325.835 35.5081C325.835 35.1009 326.164 34.7697 326.569 34.7697C326.974 34.7697 327.303 35.1009 327.303 35.5081V39.9383C327.303 40.3461 327.632 40.6766 328.038 40.6766C328.443 40.6766 328.772 40.3461 328.772 39.9383V36.9848C328.772 36.5777 329.101 36.2464 329.506 36.2464C329.911 36.2464 330.24 36.5777 330.24 36.9848V44.3684C330.24 44.7762 330.569 45.1068 330.975 45.1068H331.709V46.9675C331.709 48.706 330.716 50.3244 329.18 51.0906C328.93 51.2153 328.772 51.4716 328.772 51.7521V57.8067ZM332.091 56.3299H330.24V52.1904C332.063 51.101 333.178 49.14 333.178 46.9675V45.1068H337.294C338.378 46.9399 340.328 48.0603 342.488 48.0603H344.339V52.1998C342.516 53.2892 341.402 55.2502 341.402 57.4227V59.2834H337.285C336.202 57.4504 334.251 56.3299 332.091 56.3299ZM354.619 65.9287C354.619 66.3358 354.29 66.6671 353.885 66.6671C353.48 66.6671 353.15 66.3358 353.15 65.9287V64.452C353.15 64.0442 352.822 63.7136 352.416 63.7136C352.011 63.7136 351.682 64.0442 351.682 64.452V67.4054C351.682 67.8126 351.352 68.1438 350.947 68.1438C350.543 68.1438 350.213 67.8126 350.213 67.4054V64.452C350.213 64.0442 349.884 63.7136 349.479 63.7136C349.073 63.7136 348.745 64.0442 348.745 64.452V68.8821C348.745 69.2893 348.415 69.6205 348.01 69.6205C347.605 69.6205 347.276 69.2893 347.276 68.8821V64.452C347.276 64.0442 346.947 63.7136 346.542 63.7136C346.136 63.7136 345.807 64.0442 345.807 64.452V67.4054C345.807 67.8126 345.478 68.1438 345.073 68.1438C344.668 68.1438 344.339 67.8126 344.339 67.4054V60.0218C344.339 59.614 344.01 59.2834 343.605 59.2834H342.87V57.4227C342.87 55.6574 343.839 54.0776 345.399 53.2996C345.649 53.175 345.807 52.9187 345.807 52.6381V46.5835H352.416C352.673 46.5835 352.92 46.5385 353.15 46.4565V52.6381C353.15 52.7527 353.177 52.8658 353.228 52.9683L353.638 53.7926C354.28 55.0972 354.619 56.5415 354.619 57.9691V65.9287ZM353.885 42.1533H349.479C349.073 42.1533 348.745 42.4839 348.745 42.8917C348.745 43.2995 349.073 43.6301 349.479 43.6301H352.416C352.821 43.6301 353.15 43.9613 353.15 44.3684C353.15 44.7756 352.821 45.1068 352.416 45.1068H345.073C344.668 45.1068 344.339 45.4374 344.339 45.8452V46.5835H342.488C340.759 46.5835 339.15 45.5853 338.388 44.0404C338.264 43.7891 338.009 43.6301 337.73 43.6301H331.709V36.9848C331.709 36.7259 331.664 36.4775 331.583 36.2464H337.73C337.844 36.2464 337.957 36.2198 338.059 36.1685C338.484 36.0009 340.285 34.7697 343.032 34.7697H350.947C351.352 34.7697 351.682 35.1009 351.682 35.5081C351.682 35.9152 351.352 36.2464 350.947 36.2464H349.479C349.073 36.2464 348.745 36.577 348.745 36.9848C348.745 37.3926 349.073 37.7232 349.479 37.7232H352.416C352.821 37.7232 353.15 38.0544 353.15 38.4615C353.15 38.8687 352.821 39.1999 352.416 39.1999H349.479C349.073 39.1999 348.745 39.5305 348.745 39.9383C348.745 40.3461 349.073 40.6766 349.479 40.6766H353.885C354.29 40.6766 354.619 41.0078 354.619 41.415C354.619 41.8221 354.29 42.1533 353.885 42.1533Z" fill="#0D0B6D"/>
<path d="M328.772 70.8757C329.177 70.8757 329.506 70.5451 329.506 70.1373C329.506 69.7295 329.177 69.3989 328.772 69.3989C328.366 69.3989 328.038 69.7295 328.038 70.1373C328.038 70.5451 328.366 70.8757 328.772 70.8757Z" fill="#0D0B6D"/>
<path d="M356.556 171.726C356.557 170.547 356.192 169.397 355.513 168.437C354.833 167.476 353.872 166.752 352.764 166.367C351.656 165.981 350.456 165.953 349.331 166.286C348.206 166.62 347.213 167.297 346.49 168.225C342.854 166.308 338.695 165.641 334.647 166.325C330.599 167.009 326.885 169.007 324.073 172.013C321.261 175.02 319.504 178.869 319.072 182.974C318.64 187.078 319.557 191.212 321.681 194.743C323.806 198.275 327.022 201.01 330.838 202.531C334.654 204.051 338.86 204.274 342.813 203.165C346.767 202.055 350.251 199.675 352.732 196.387C355.214 193.099 356.557 189.085 356.556 184.958C356.561 182.216 355.966 179.506 354.812 177.022C355.769 175.24 356.556 173.302 356.556 171.726ZM350.916 167.316C352.079 167.318 353.194 167.783 354.016 168.609C354.838 169.436 355.301 170.557 355.303 171.726C355.303 174.566 352.153 179.098 350.916 180.77C349.68 179.098 346.53 174.569 346.53 171.726C346.532 170.557 346.994 169.436 347.817 168.609C348.639 167.783 349.754 167.318 350.916 167.316ZM320.214 184.958C320.215 184.168 320.269 183.379 320.375 182.597L324.439 183.677C324.557 183.709 324.682 183.704 324.798 183.665L328.461 182.438H331.492V185.588C331.492 185.755 331.558 185.915 331.676 186.033C331.793 186.151 331.953 186.218 332.119 186.218H334.173L335.218 189.368L334.031 192.949C334 193.044 333.991 193.145 334.006 193.244C334.021 193.342 334.059 193.436 334.117 193.517C334.175 193.598 334.252 193.664 334.34 193.709C334.428 193.755 334.526 193.779 334.625 193.779H337.515L336.538 196.73C336.494 196.859 336.494 196.999 336.538 197.128L337.515 200.079H335.878C335.712 200.079 335.553 200.146 335.435 200.264C335.318 200.382 335.252 200.542 335.252 200.709V202.417C331.079 201.806 327.263 199.706 324.502 196.501C321.741 193.295 320.219 189.198 320.214 184.958ZM337.758 202.599C337.336 202.599 336.919 202.579 336.505 202.55V201.339H338.385C338.484 201.339 338.582 201.315 338.67 201.27C338.758 201.224 338.835 201.159 338.893 201.078C338.951 200.997 338.989 200.903 339.004 200.804C339.019 200.706 339.01 200.605 338.979 200.51L337.792 196.929L338.979 193.348C339.01 193.253 339.019 193.152 339.004 193.054C338.989 192.955 338.951 192.861 338.893 192.78C338.835 192.699 338.758 192.633 338.67 192.588C338.582 192.542 338.484 192.519 338.385 192.518H335.495L336.472 189.567C336.516 189.438 336.516 189.298 336.472 189.169L335.219 185.389C335.178 185.263 335.098 185.154 334.991 185.077C334.885 185 334.757 184.958 334.625 184.958H332.745V181.807C332.745 181.64 332.679 181.48 332.562 181.362C332.444 181.244 332.285 181.177 332.119 181.177H328.359C328.292 181.178 328.225 181.189 328.161 181.21L324.579 182.41L320.584 181.349C321.399 177.461 323.493 173.962 326.528 171.418C329.564 168.874 333.364 167.433 337.314 167.327L338.351 170.466L337.164 174.048C337.12 174.177 337.12 174.317 337.164 174.446L338.351 178.027L337.164 181.608C337.143 181.673 337.132 181.74 337.132 181.807V185.588C337.132 185.688 337.155 185.786 337.201 185.875C337.246 185.964 337.311 186.04 337.392 186.099C337.472 186.157 337.566 186.195 337.664 186.21C337.762 186.225 337.862 186.217 337.956 186.185L341.518 184.992L344.651 186.042V189.368C344.651 189.535 344.717 189.696 344.834 189.814C344.952 189.932 345.111 189.998 345.277 189.998H348.41V192.518C348.41 192.686 348.476 192.846 348.594 192.964C348.711 193.082 348.87 193.149 349.037 193.149H353.29C351.803 195.997 349.57 198.383 346.833 200.049C344.096 201.715 340.958 202.597 337.758 202.599ZM355.303 184.958C355.305 187.34 354.824 189.699 353.89 191.888H349.663V189.368C349.663 189.201 349.597 189.041 349.48 188.923C349.362 188.805 349.203 188.738 349.037 188.738H345.904V185.588C345.904 185.456 345.862 185.327 345.785 185.22C345.708 185.112 345.6 185.032 345.475 184.991L341.716 183.73C341.587 183.687 341.448 183.687 341.32 183.73L338.385 184.713V181.91L339.605 178.226C339.649 178.097 339.649 177.957 339.605 177.828L338.419 174.247L339.605 170.665C339.649 170.536 339.649 170.396 339.605 170.267L338.635 167.344C341.144 167.47 343.596 168.136 345.827 169.298C345.465 170.056 345.277 170.886 345.277 171.726C345.277 175.682 350.217 181.933 350.427 182.201C350.486 182.275 350.56 182.335 350.645 182.376C350.73 182.417 350.822 182.438 350.916 182.438C351.01 182.438 351.103 182.417 351.188 182.376C351.273 182.335 351.347 182.275 351.406 182.201C352.356 180.982 353.235 179.707 354.037 178.385C354.878 180.473 355.308 182.705 355.303 184.958Z" fill="#0D0B6D"/>
<path d="M350.917 174.876C351.536 174.876 352.142 174.692 352.657 174.345C353.172 173.999 353.574 173.507 353.811 172.932C354.048 172.356 354.11 171.722 353.989 171.111C353.868 170.5 353.57 169.939 353.132 169.498C352.694 169.058 352.136 168.758 351.528 168.636C350.92 168.515 350.29 168.577 349.718 168.815C349.145 169.054 348.656 169.458 348.312 169.976C347.967 170.494 347.784 171.103 347.784 171.726C347.785 172.561 348.115 173.362 348.702 173.952C349.29 174.543 350.086 174.875 350.917 174.876ZM350.917 169.836C351.288 169.836 351.652 169.947 351.961 170.154C352.27 170.362 352.511 170.657 352.653 171.003C352.796 171.348 352.833 171.728 352.76 172.095C352.688 172.461 352.509 172.798 352.246 173.063C351.983 173.327 351.648 173.507 351.283 173.58C350.919 173.653 350.541 173.615 350.197 173.472C349.854 173.329 349.56 173.087 349.354 172.776C349.147 172.465 349.037 172.1 349.037 171.726C349.037 171.225 349.235 170.744 349.587 170.389C349.94 170.035 350.418 169.836 350.917 169.836Z" fill="#0D0B6D"/>
<path d="M327.106 184.958C325.943 184.959 324.829 185.424 324.006 186.251C323.184 187.078 322.721 188.199 322.72 189.368C322.72 192.071 326.259 195.708 326.663 196.114C326.781 196.232 326.94 196.298 327.106 196.298C327.272 196.298 327.432 196.232 327.549 196.114C327.953 195.708 331.492 192.071 331.492 189.368C331.491 188.199 331.028 187.078 330.206 186.251C329.384 185.424 328.269 184.959 327.106 184.958ZM327.106 194.756C325.945 193.483 323.973 190.985 323.973 189.368C323.973 188.532 324.303 187.731 324.891 187.14C325.478 186.55 326.275 186.218 327.106 186.218C327.937 186.218 328.734 186.55 329.321 187.14C329.909 187.731 330.239 188.532 330.239 189.368C330.239 190.985 328.267 193.483 327.106 194.756Z" fill="#0D0B6D"/>
<path d="M327.106 187.478C326.734 187.478 326.371 187.589 326.061 187.797C325.752 188.004 325.511 188.299 325.369 188.645C325.227 188.99 325.19 189.37 325.262 189.737C325.335 190.104 325.514 190.44 325.777 190.705C326.04 190.969 326.374 191.149 326.739 191.222C327.104 191.295 327.482 191.258 327.825 191.115C328.169 190.971 328.462 190.729 328.669 190.418C328.875 190.107 328.986 189.742 328.986 189.368C328.986 188.867 328.788 188.386 328.435 188.032C328.083 187.677 327.604 187.478 327.106 187.478ZM327.106 189.998C326.982 189.998 326.861 189.961 326.758 189.892C326.655 189.823 326.574 189.724 326.527 189.609C326.48 189.494 326.467 189.368 326.491 189.245C326.515 189.123 326.575 189.011 326.663 188.923C326.75 188.835 326.862 188.775 326.984 188.75C327.105 188.726 327.231 188.738 327.346 188.786C327.46 188.834 327.558 188.915 327.627 189.018C327.696 189.122 327.732 189.244 327.732 189.368C327.732 189.535 327.666 189.696 327.549 189.814C327.431 189.932 327.272 189.998 327.106 189.998Z" fill="#0D0B6D"/>
<path d="M422.912 79.6353C422.246 79.6353 407.881 79.6769 405.432 82.9209C405.154 83.0647 404.962 83.3525 404.962 83.6883C404.962 83.8898 405.002 84.0818 405.076 84.2651V90.7428C405.076 94.9744 422.183 95.0229 422.912 95.0229C423.64 95.0229 440.748 94.9744 440.748 90.7428V83.9154C440.748 79.6842 423.64 79.6353 422.912 79.6353ZM422.912 81.3686C432.184 81.3686 437.771 82.7939 438.856 83.7438C438.118 84.6885 432.455 86.2351 422.799 86.2351C413.526 86.2351 407.939 84.8094 406.854 83.8599C407.593 82.9152 413.255 81.3686 422.912 81.3686ZM439.024 90.712C438.578 91.6454 432.868 93.2891 422.912 93.2891C412.956 93.2891 407.245 91.6454 406.8 90.712V85.784C411.237 87.9377 422.218 87.9685 422.799 87.9685C423.389 87.9685 434.748 87.9364 439.024 85.6683V90.712H439.024Z" fill="#0D0B6D"/>
<path d="M439.886 93.5181C439.42 93.5181 439.041 93.889 439.025 94.3531C438.584 95.2861 432.873 96.9315 422.912 96.9315C412.951 96.9315 407.241 95.2865 406.799 94.3531C406.783 93.889 406.403 93.5181 405.938 93.5181C405.462 93.5181 405.076 93.9063 405.076 94.3848V101.895C405.076 106.126 422.183 106.175 422.912 106.175C423.64 106.175 440.748 106.126 440.748 101.895V94.3848C440.748 93.9059 440.362 93.5181 439.886 93.5181ZM439.024 101.864C438.578 102.798 432.868 104.441 422.912 104.441C412.956 104.441 407.245 102.798 406.8 101.864V96.4241C411.161 98.6333 422.326 98.6649 422.912 98.6649C423.498 98.6649 434.663 98.6333 439.024 96.4241V101.864Z" fill="#0D0B6D"/>
<path d="M439.886 104.783C439.42 104.783 439.041 105.154 439.025 105.618C438.584 106.551 432.873 108.196 422.912 108.196C412.951 108.196 407.241 106.551 406.799 105.618C406.783 105.154 406.403 104.783 405.938 104.783C405.462 104.783 405.076 105.171 405.076 105.649V113.159C405.076 117.391 422.183 117.439 422.912 117.439C423.64 117.439 440.748 117.391 440.748 113.159V105.649C440.748 105.171 440.362 104.783 439.886 104.783ZM439.024 113.129C438.578 114.062 432.868 115.706 422.912 115.706C412.956 115.706 407.245 114.062 406.8 113.129V107.689C411.161 109.898 422.326 109.93 422.912 109.93C423.498 109.93 434.663 109.898 439.024 107.689V113.129Z" fill="#0D0B6D"/>
<path d="M252.302 49.1235L252.302 48.3735L251.552 48.3735L251.552 49.1235L252.302 49.1235ZM307.993 49.652C308.286 49.3591 308.286 48.8842 307.993 48.5913L303.22 43.8185C302.927 43.5256 302.452 43.5256 302.159 43.8185C301.866 44.1114 301.866 44.5863 302.159 44.8792L306.402 49.1217L302.159 53.3645C301.866 53.6574 301.867 54.1322 302.159 54.4251C302.452 54.718 302.927 54.718 303.22 54.4251L307.993 49.652ZM253.052 71.3503L253.052 49.1235L251.552 49.1235L251.552 71.3503L253.052 71.3503ZM252.302 49.8735L307.463 49.8716L307.463 48.3716L252.302 48.3735L252.302 49.8735Z" fill="#0B4A6D"/>
<path d="M419.956 49.3709L420.706 49.3709L420.706 48.6209L419.956 48.6209L419.956 49.3709ZM365.912 48.8457C365.619 49.1386 365.619 49.6135 365.912 49.9064L370.686 54.6789C370.979 54.9717 371.454 54.9717 371.746 54.6788C372.039 54.3859 372.039 53.911 371.746 53.6181L367.503 49.3759L371.746 45.1328C372.038 44.8399 372.038 44.365 371.745 44.0722C371.453 43.7793 370.978 43.7794 370.685 44.0723L365.912 48.8457ZM420.706 71.9874L420.706 49.3709L419.206 49.3709L419.206 71.9874L420.706 71.9874ZM419.956 48.6209L366.443 48.626L366.443 50.126L419.956 50.1209L419.956 48.6209Z" fill="#0B4A6D"/>
<path d="M252.883 196.138L252.883 196.888L252.133 196.888L252.133 196.138L252.883 196.138ZM309.844 195.61C310.137 195.902 310.137 196.377 309.844 196.67L305.071 201.443C304.778 201.736 304.303 201.736 304.01 201.443C303.718 201.15 303.718 200.675 304.011 200.382L308.253 196.14L304.011 191.897C303.718 191.604 303.718 191.129 304.011 190.836C304.304 190.544 304.779 190.544 305.072 190.836L309.844 195.61ZM253.633 173.399L253.633 196.138L252.133 196.138L252.133 173.399L253.633 173.399ZM252.883 195.388L309.314 195.39L309.314 196.89L252.883 196.888L252.883 195.388Z" fill="#0B4A6D"/>
<path d="M424.399 195.885L425.149 195.885L425.149 196.635L424.399 196.635L424.399 195.885ZM369.122 196.41C368.83 196.117 368.83 195.642 369.123 195.35L373.896 190.577C374.189 190.284 374.664 190.284 374.957 190.577C375.249 190.87 375.249 191.345 374.957 191.638L370.713 195.88L374.956 200.123C375.249 200.416 375.249 200.891 374.956 201.184C374.663 201.477 374.188 201.477 373.895 201.184L369.122 196.41ZM425.149 172.748L425.149 195.885L423.649 195.885L423.649 172.748L425.149 172.748ZM424.399 196.635L369.653 196.63L369.653 195.13L424.399 195.135L424.399 196.635Z" fill="#0B4A6D"/>
</svg>
