<svg width="545" height="256" viewBox="0 0 545 256" fill="none" xmlns="http://www.w3.org/2000/svg">
<rect width="544" height="256" transform="matrix(1 0 0 -1 0.5 256)" fill="#E7F0F9"/>
<path d="M339.434 52.144C341.738 52.144 343.358 50.752 343.358 47.74H339.398V48.964H341.762C341.762 50.032 340.634 50.824 339.41 50.824C337.826 50.824 336.65 49.456 336.65 47.884C336.65 46.288 337.838 44.944 339.386 44.944C340.13 44.944 340.802 45.256 341.294 45.748L342.35 44.824C341.63 44.068 340.574 43.588 339.386 43.588C337.022 43.588 335.174 45.532 335.174 47.884C335.174 50.212 336.998 52.144 339.434 52.144ZM347.196 52.144C348.792 52.144 350.184 50.968 350.184 49.192C350.184 47.416 348.792 46.252 347.196 46.252C345.6 46.252 344.22 47.416 344.22 49.192C344.22 50.968 345.6 52.144 347.196 52.144ZM347.196 50.848C346.332 50.848 345.624 50.176 345.624 49.192C345.624 48.232 346.332 47.548 347.196 47.548C348.06 47.548 348.78 48.232 348.78 49.192C348.78 50.176 348.06 50.848 347.196 50.848ZM353.609 50.236L352.121 46.396H350.621L352.961 52H354.233L356.597 46.396H355.085L353.609 50.236ZM362.825 49.144C362.825 47.392 361.565 46.252 359.969 46.252C358.361 46.252 357.029 47.404 357.029 49.192C357.029 50.944 358.301 52.144 359.969 52.144C360.989 52.144 361.985 51.688 362.501 50.872L361.565 50.164C361.241 50.62 360.653 50.884 360.053 50.884C359.213 50.884 358.613 50.464 358.457 49.684H362.801C362.813 49.48 362.825 49.3 362.825 49.144ZM358.457 48.712C358.625 47.86 359.237 47.488 359.981 47.488C360.761 47.488 361.361 47.944 361.445 48.712H358.457ZM367.103 46.252C366.407 46.252 365.795 46.66 365.495 47.596V46.396H364.103V52H365.507V50.044C365.507 48.472 366.011 47.56 366.923 47.56C367.127 47.56 367.415 47.596 367.739 47.764L368.015 46.444C367.799 46.324 367.439 46.252 367.103 46.252ZM372.075 46.252C371.499 46.252 370.623 46.576 370.335 47.284V46.396H368.943V52H370.335V49.024C370.335 47.944 371.127 47.572 371.763 47.572C372.387 47.572 372.927 48.052 372.927 48.952V52H374.319V48.856C374.319 47.224 373.515 46.252 372.075 46.252ZM382.66 46.252C382.096 46.252 381.22 46.504 380.776 47.38C380.44 46.672 379.78 46.252 378.964 46.252C378.28 46.252 377.536 46.612 377.296 47.26V46.396H375.904V52H377.296V49.012C377.296 47.944 377.944 47.56 378.592 47.56C379.192 47.56 379.66 48.04 379.66 48.928V52H381.052V49.228C381.052 48.112 381.508 47.56 382.312 47.56C382.96 47.56 383.428 48.028 383.428 48.928V52H384.808V48.856C384.808 47.224 384.064 46.252 382.66 46.252ZM391.864 49.144C391.864 47.392 390.604 46.252 389.008 46.252C387.4 46.252 386.068 47.404 386.068 49.192C386.068 50.944 387.34 52.144 389.008 52.144C390.028 52.144 391.024 51.688 391.54 50.872L390.604 50.164C390.28 50.62 389.692 50.884 389.092 50.884C388.252 50.884 387.652 50.464 387.496 49.684H391.84C391.852 49.48 391.864 49.3 391.864 49.144ZM387.496 48.712C387.664 47.86 388.276 47.488 389.02 47.488C389.8 47.488 390.4 47.944 390.484 48.712H387.496ZM396.274 46.252C395.698 46.252 394.822 46.576 394.534 47.284V46.396H393.142V52H394.534V49.024C394.534 47.944 395.326 47.572 395.962 47.572C396.586 47.572 397.126 48.052 397.126 48.952V52H398.518V48.856C398.518 47.224 397.714 46.252 396.274 46.252ZM401.929 46.396V44.332H400.537V46.396H399.529V47.5H400.537V52H401.929V47.5H403.117V46.396H401.929Z" fill="#1C75BC"/>
<path d="M347.062 85.144C348.418 85.144 349.606 84.508 350.35 83.536L349.246 82.696C348.742 83.356 347.998 83.776 347.098 83.776C345.502 83.776 344.338 82.456 344.338 80.872C344.338 79.288 345.526 77.956 347.098 77.956C347.998 77.956 348.742 78.376 349.246 79.036L350.35 78.196C349.606 77.224 348.418 76.588 347.062 76.588C344.734 76.588 342.862 78.532 342.862 80.872C342.862 83.212 344.734 85.144 347.062 85.144ZM354.075 85.144C355.671 85.144 357.063 83.968 357.063 82.192C357.063 80.416 355.671 79.252 354.075 79.252C352.479 79.252 351.099 80.416 351.099 82.192C351.099 83.968 352.479 85.144 354.075 85.144ZM354.075 83.848C353.211 83.848 352.503 83.176 352.503 82.192C352.503 81.232 353.211 80.548 354.075 80.548C354.939 80.548 355.659 81.232 355.659 82.192C355.659 83.176 354.939 83.848 354.075 83.848ZM365.129 79.252C364.565 79.252 363.689 79.504 363.245 80.38C362.909 79.672 362.249 79.252 361.433 79.252C360.749 79.252 360.005 79.612 359.765 80.26V79.396H358.373V85H359.765V82.012C359.765 80.944 360.413 80.56 361.061 80.56C361.661 80.56 362.129 81.04 362.129 81.928V85H363.521V82.228C363.521 81.112 363.977 80.56 364.781 80.56C365.429 80.56 365.897 81.028 365.897 81.928V85H367.277V81.856C367.277 80.224 366.533 79.252 365.129 79.252ZM372.125 79.252C371.453 79.252 370.649 79.54 370.265 80.14V79.396H368.873V87.736H370.265V84.256C370.649 84.856 371.429 85.144 372.137 85.144C373.613 85.144 374.885 83.992 374.885 82.204C374.885 80.404 373.601 79.252 372.125 79.252ZM371.909 83.848C371.105 83.848 370.289 83.2 370.289 82.204C370.289 81.22 371.057 80.548 371.909 80.548C372.773 80.548 373.493 81.28 373.493 82.204C373.493 83.14 372.773 83.848 371.909 83.848ZM380.493 80.176C380.121 79.588 379.377 79.252 378.609 79.252C377.025 79.252 375.873 80.5 375.873 82.192C375.873 83.932 377.073 85.144 378.573 85.144C379.377 85.144 380.121 84.736 380.493 84.124V85H381.885V79.396H380.493V80.176ZM378.861 83.848C377.949 83.848 377.265 83.092 377.265 82.192C377.265 81.292 377.949 80.548 378.849 80.548C379.677 80.548 380.469 81.232 380.469 82.192C380.469 83.128 379.725 83.848 378.861 83.848ZM386.677 79.252C386.101 79.252 385.225 79.576 384.937 80.284V79.396H383.545V85H384.937V82.024C384.937 80.944 385.729 80.572 386.365 80.572C386.989 80.572 387.529 81.052 387.529 81.952V85H388.921V81.856C388.921 80.224 388.117 79.252 386.677 79.252ZM392.656 82.948L391.204 79.396H389.68L391.912 84.604L390.652 87.736H392.116L395.596 79.396H394.096L392.656 82.948Z" fill="#1C75BC"/>
<path d="M344.168 133V124.732H342.704V133H344.168ZM349.089 127.252C348.513 127.252 347.637 127.576 347.349 128.284V127.396H345.957V133H347.349V130.024C347.349 128.944 348.141 128.572 348.777 128.572C349.401 128.572 349.941 129.052 349.941 129.952V133H351.333V129.856C351.333 128.224 350.529 127.252 349.089 127.252ZM357.202 128.128C356.818 127.54 356.038 127.252 355.33 127.252C353.854 127.252 352.582 128.392 352.582 130.192C352.582 131.98 353.866 133.144 355.342 133.144C356.026 133.144 356.818 132.844 357.202 132.256V133H358.594V124.348H357.202V128.128ZM355.558 131.848C354.694 131.848 353.986 131.116 353.986 130.18C353.986 129.244 354.694 128.548 355.558 128.548C356.362 128.548 357.178 129.196 357.178 130.18C357.178 131.164 356.41 131.848 355.558 131.848ZM360.95 126.268C361.454 126.268 361.85 125.896 361.85 125.416C361.85 124.924 361.454 124.564 360.95 124.564C360.458 124.564 360.038 124.924 360.038 125.416C360.038 125.896 360.458 126.268 360.95 126.268ZM361.646 133V127.396H360.254V133H361.646ZM365.557 131.236L364.069 127.396H362.569L364.909 133H366.181L368.545 127.396H367.033L365.557 131.236ZM370.149 126.268C370.653 126.268 371.049 125.896 371.049 125.416C371.049 124.924 370.653 124.564 370.149 124.564C369.657 124.564 369.237 124.924 369.237 125.416C369.237 125.896 369.657 126.268 370.149 126.268ZM370.845 133V127.396H369.453V133H370.845ZM376.784 128.128C376.4 127.54 375.62 127.252 374.912 127.252C373.436 127.252 372.164 128.392 372.164 130.192C372.164 131.98 373.448 133.144 374.924 133.144C375.608 133.144 376.4 132.844 376.784 132.256V133H378.176V124.348H376.784V128.128ZM375.14 131.848C374.276 131.848 373.568 131.116 373.568 130.18C373.568 129.244 374.276 128.548 375.14 128.548C375.944 128.548 376.76 129.196 376.76 130.18C376.76 131.164 375.992 131.848 375.14 131.848ZM383.748 130.396C383.748 131.488 382.956 131.848 382.32 131.848C381.696 131.848 381.156 131.38 381.156 130.48V127.396H379.764V130.54C379.764 132.172 380.568 133.144 382.008 133.144C382.572 133.144 383.46 132.832 383.748 132.124V133H385.14V127.396H383.748V130.396ZM391.081 128.176C390.709 127.588 389.965 127.252 389.197 127.252C387.613 127.252 386.461 128.5 386.461 130.192C386.461 131.932 387.661 133.144 389.161 133.144C389.965 133.144 390.709 132.736 391.081 132.124V133H392.473V127.396H391.081V128.176ZM389.449 131.848C388.537 131.848 387.853 131.092 387.853 130.192C387.853 129.292 388.537 128.548 389.437 128.548C390.265 128.548 391.057 129.232 391.057 130.192C391.057 131.128 390.313 131.848 389.449 131.848ZM395.525 133V124.348H394.133V133H395.525Z" fill="#97BCDE"/>
<path d="M152.078 200.019H72.3969C70.5208 200.019 69 198.474 69 196.568V90.1443C69 88.2383 70.5208 86.6932 72.3969 86.6932H152.081C153.958 86.6932 155.478 88.2383 155.478 90.1443V196.572C155.475 198.474 153.954 200.019 152.078 200.019Z" fill="#FFA412"/>
<path d="M155.173 185.318H79.4854C75.4045 185.318 72.0955 181.957 72.0955 177.811V92.5514C72.0955 90.6454 73.6162 89.1003 75.4924 89.1003H155.177C157.053 89.1003 158.574 90.6454 158.574 92.5514V181.867C158.566 183.773 157.049 185.318 155.173 185.318Z" fill="#B0D8FC"/>
<path d="M90.9709 168.735C89.5953 168.738 88.491 169.887 88.5139 171.285C88.5445 173.009 88.5789 174.732 88.6094 176.452C88.6171 176.627 88.6133 176.759 88.6133 176.821C88.5254 180.769 84.1503 185.252 80.3139 185.252C80.1572 185.252 80.0044 185.237 79.8516 185.229V185.283H160.728C165.294 185.283 168.997 181.522 168.997 176.883V170.99C168.997 169.604 167.889 168.482 166.525 168.486C141.344 168.571 116.159 168.653 90.9709 168.735Z" fill="white"/>
<path d="M113.863 113.773C116.716 113.773 119.029 111.423 119.029 108.525C119.029 105.626 116.716 103.276 113.863 103.276C111.01 103.276 108.697 105.626 108.697 108.525C108.697 111.423 111.01 113.773 113.863 113.773Z" fill="#00A79D"/>
<path d="M97.8147 114.278C98.4719 116.068 99.1253 117.861 99.7825 119.651C109.129 119.651 118.475 119.651 127.818 119.651C128.513 117.819 129.212 115.986 129.908 114.154C124.662 112.403 119.06 110.657 113.814 108.906C108.361 110.699 103.267 112.489 97.8147 114.278Z" fill="#1C75BC"/>
<path d="M129.911 133.393H98.3071V141.013H129.911V133.393Z" fill="#1C75BC"/>
<path d="M127.818 118.777H124.497V133.894H127.818V118.777Z" fill="#1C75BC"/>
<path d="M103.103 118.777H99.7827V133.894H103.103V118.777Z" fill="#1C75BC"/>
<path d="M109.282 118.777H105.961V133.894H109.282V118.777Z" fill="#1C75BC"/>
<path d="M115.46 118.777H112.14V133.894H115.46V118.777Z" fill="#1C75BC"/>
<path d="M121.639 118.777H118.318V133.894H121.639V118.777Z" fill="#1C75BC"/>
<path d="M113.863 105.773V98.4321" stroke="#00A79D" stroke-miterlimit="10"/>
<path d="M90.8757 149.29H146.679" stroke="#1C75BC" stroke-miterlimit="10"/>
<path d="M83.6921 149.29H86.8331" stroke="#1C75BC" stroke-miterlimit="10"/>
<path d="M91.0813 156.18H146.88" stroke="#1C75BC" stroke-miterlimit="10"/>
<path d="M83.894 156.18H87.035" stroke="#1C75BC" stroke-miterlimit="10"/>
<circle cx="369" cy="129" r="105" stroke="#1C75BC" stroke-width="4"/>
<circle cx="369" cy="129" r="65" stroke="#1C75BC" stroke-width="4"/>
<circle cx="369" cy="129" r="32" stroke="#97BCDE" stroke-width="4" stroke-dasharray="10 10"/>
<path d="M152.667 110C152.667 112.946 155.054 115.333 158 115.333C160.946 115.333 163.333 112.946 163.333 110C163.333 107.054 160.946 104.667 158 104.667C155.054 104.667 152.667 107.054 152.667 110ZM259.667 110C259.667 112.946 262.054 115.333 265 115.333C267.946 115.333 270.333 112.946 270.333 110C270.333 107.054 267.946 104.667 265 104.667C262.054 104.667 259.667 107.054 259.667 110ZM158 111H265V109H158V111Z" fill="#1C75BC"/>
<path d="M152.667 133C152.667 135.946 155.054 138.333 158 138.333C160.946 138.333 163.333 135.946 163.333 133C163.333 130.054 160.946 127.667 158 127.667C155.054 127.667 152.667 130.054 152.667 133ZM300.667 133C300.667 135.946 303.054 138.333 306 138.333C308.946 138.333 311.333 135.946 311.333 133C311.333 130.054 308.946 127.667 306 127.667C303.054 127.667 300.667 130.054 300.667 133ZM158 134L306 134L306 132L158 132L158 134Z" fill="#1C75BC"/>
<path d="M152.667 156C152.667 158.946 155.054 161.333 158 161.333C160.946 161.333 163.333 158.946 163.333 156C163.333 153.054 160.946 150.667 158 150.667C155.054 150.667 152.667 153.054 152.667 156ZM347.667 156C347.667 158.946 350.054 161.333 353 161.333C355.946 161.333 358.333 158.946 358.333 156C358.333 153.054 355.946 150.667 353 150.667C350.054 150.667 347.667 153.054 347.667 156ZM158 157H160.438V155H158V157ZM165.313 157H170.188V155H165.313V157ZM175.062 157H179.937V155H175.062V157ZM184.813 157H189.687V155H184.813V157ZM194.562 157H199.438V155H194.562V157ZM204.312 157H209.187V155H204.312V157ZM214.062 157H218.938V155H214.062V157ZM223.813 157H228.688V155H223.813V157ZM233.562 157H238.437V155H233.562V157ZM243.312 157H248.188V155H243.312V157ZM253.063 157H257.937V155H253.063V157ZM262.813 157H267.688V155H262.813V157ZM272.562 157H277.438V155H272.562V157ZM282.312 157H287.188V155H282.312V157ZM292.062 157H296.937V155H292.062V157ZM301.813 157H306.687V155H301.813V157ZM311.563 157H316.438V155H311.563V157ZM321.312 157H326.188V155H321.312V157ZM331.062 157H335.938V155H331.062V157ZM340.812 157H345.687V155H340.812V157ZM350.563 157H353V155H350.563V157Z" fill="#97BCDE"/>
</svg>
