<svg width="545" height="256" viewBox="0 0 545 256" fill="none" xmlns="http://www.w3.org/2000/svg">
<rect width="544" height="256" transform="matrix(1 0 0 -1 0.5 256)" fill="#E7F0F9"/>
<rect x="206" y="16" width="123" height="196" fill="#B0D8FC"/>
<path d="M39.528 154.732H38.256L35.58 160.42L32.892 154.732H31.62L30.612 163H32.076L32.748 157.456L34.992 162.064H36.18L38.412 157.444L39.072 163H40.536L39.528 154.732ZM47.3505 160.144C47.3505 158.392 46.0905 157.252 44.4945 157.252C42.8865 157.252 41.5545 158.404 41.5545 160.192C41.5545 161.944 42.8265 163.144 44.4945 163.144C45.5145 163.144 46.5105 162.688 47.0265 161.872L46.0905 161.164C45.7665 161.62 45.1785 161.884 44.5785 161.884C43.7385 161.884 43.1385 161.464 42.9825 160.684H47.3265C47.3385 160.48 47.3505 160.3 47.3505 160.144ZM42.9825 159.712C43.1505 158.86 43.7625 158.488 44.5065 158.488C45.2865 158.488 45.8865 158.944 45.9705 159.712H42.9825ZM52.9128 158.128C52.5288 157.54 51.7488 157.252 51.0408 157.252C49.5648 157.252 48.2928 158.392 48.2928 160.192C48.2928 161.98 49.5768 163.144 51.0528 163.144C51.7368 163.144 52.5288 162.844 52.9128 162.256V163H54.3048V154.348H52.9128V158.128ZM51.2688 161.848C50.4048 161.848 49.6968 161.116 49.6968 160.18C49.6968 159.244 50.4048 158.548 51.2688 158.548C52.0728 158.548 52.8888 159.196 52.8888 160.18C52.8888 161.164 52.1208 161.848 51.2688 161.848ZM56.6607 156.268C57.1647 156.268 57.5607 155.896 57.5607 155.416C57.5607 154.924 57.1647 154.564 56.6607 154.564C56.1687 154.564 55.7487 154.924 55.7487 155.416C55.7487 155.896 56.1687 156.268 56.6607 156.268ZM57.3567 163V157.396H55.9647V163H57.3567ZM61.6996 163.144C62.6716 163.144 63.4636 162.712 63.9796 162.064L62.9956 161.284C62.7076 161.632 62.2276 161.848 61.7236 161.848C60.7516 161.848 60.0556 161.128 60.0556 160.192C60.0556 159.244 60.7516 158.548 61.7236 158.548C62.2276 158.548 62.7076 158.764 62.9956 159.112L63.9796 158.332C63.4636 157.684 62.6716 157.252 61.6996 157.252C60.0796 157.252 58.6516 158.416 58.6516 160.192C58.6516 161.968 60.0796 163.144 61.6996 163.144ZM69.3425 158.176C68.9705 157.588 68.2265 157.252 67.4585 157.252C65.8745 157.252 64.7225 158.5 64.7225 160.192C64.7225 161.932 65.9225 163.144 67.4225 163.144C68.2265 163.144 68.9705 162.736 69.3425 162.124V163H70.7345V157.396H69.3425V158.176ZM67.7105 161.848C66.7985 161.848 66.1145 161.092 66.1145 160.192C66.1145 159.292 66.7985 158.548 67.6985 158.548C68.5265 158.548 69.3185 159.232 69.3185 160.192C69.3185 161.128 68.5745 161.848 67.7105 161.848ZM73.7864 163V154.348H72.3944V163H73.7864ZM83.831 160.144C83.831 158.392 82.571 157.252 80.975 157.252C79.367 157.252 78.035 158.404 78.035 160.192C78.035 161.944 79.307 163.144 80.975 163.144C81.995 163.144 82.991 162.688 83.507 161.872L82.571 161.164C82.247 161.62 81.659 161.884 81.059 161.884C80.219 161.884 79.619 161.464 79.463 160.684H83.807C83.819 160.48 83.831 160.3 83.831 160.144ZM79.463 159.712C79.631 158.86 80.243 158.488 80.987 158.488C81.767 158.488 82.367 158.944 82.451 159.712H79.463ZM87.9223 159.94L89.7583 157.396H88.1143L87.1303 158.824L86.1463 157.396H84.5023L86.3383 159.94L84.1303 163H85.7623L87.1303 161.068L88.4863 163H90.1303L87.9223 159.94ZM94.2675 157.252C93.5955 157.252 92.7915 157.54 92.4075 158.14V157.396H91.0155V165.736H92.4075V162.256C92.7915 162.856 93.5715 163.144 94.2795 163.144C95.7555 163.144 97.0275 161.992 97.0275 160.204C97.0275 158.404 95.7435 157.252 94.2675 157.252ZM94.0515 161.848C93.2475 161.848 92.4315 161.2 92.4315 160.204C92.4315 159.22 93.1995 158.548 94.0515 158.548C94.9155 158.548 95.6355 159.28 95.6355 160.204C95.6355 161.14 94.9155 161.848 94.0515 161.848ZM103.811 160.144C103.811 158.392 102.551 157.252 100.955 157.252C99.3474 157.252 98.0154 158.404 98.0154 160.192C98.0154 161.944 99.2874 163.144 100.955 163.144C101.975 163.144 102.971 162.688 103.487 161.872L102.551 161.164C102.227 161.62 101.639 161.884 101.039 161.884C100.199 161.884 99.5994 161.464 99.4434 160.684H103.787C103.799 160.48 103.811 160.3 103.811 160.144ZM99.4434 159.712C99.6114 158.86 100.223 158.488 100.967 158.488C101.747 158.488 102.347 158.944 102.431 159.712H99.4434ZM108.222 157.252C107.646 157.252 106.77 157.576 106.482 158.284V157.396H105.09V163H106.482V160.024C106.482 158.944 107.274 158.572 107.91 158.572C108.534 158.572 109.074 159.052 109.074 159.952V163H110.466V159.856C110.466 158.224 109.662 157.252 108.222 157.252ZM116.335 158.128C115.951 157.54 115.171 157.252 114.463 157.252C112.987 157.252 111.715 158.392 111.715 160.192C111.715 161.98 112.999 163.144 114.475 163.144C115.159 163.144 115.951 162.844 116.335 162.256V163H117.727V154.348H116.335V158.128ZM114.691 161.848C113.827 161.848 113.119 161.116 113.119 160.18C113.119 159.244 113.827 158.548 114.691 158.548C115.495 158.548 116.311 159.196 116.311 160.18C116.311 161.164 115.543 161.848 114.691 161.848ZM120.083 156.268C120.587 156.268 120.983 155.896 120.983 155.416C120.983 154.924 120.587 154.564 120.083 154.564C119.591 154.564 119.171 154.924 119.171 155.416C119.171 155.896 119.591 156.268 120.083 156.268ZM120.779 163V157.396H119.387V163H120.779ZM124.329 157.396V155.332H122.937V157.396H121.929V158.5H122.937V163H124.329V158.5H125.517V157.396H124.329ZM130.494 160.396C130.494 161.488 129.702 161.848 129.066 161.848C128.442 161.848 127.902 161.38 127.902 160.48V157.396H126.51V160.54C126.51 162.172 127.314 163.144 128.754 163.144C129.318 163.144 130.206 162.832 130.494 162.124V163H131.886V157.396H130.494V160.396ZM136.543 157.252C135.847 157.252 135.235 157.66 134.935 158.596V157.396H133.543V163H134.947V161.044C134.947 159.472 135.451 158.56 136.363 158.56C136.567 158.56 136.855 158.596 137.179 158.764L137.455 157.444C137.239 157.324 136.879 157.252 136.543 157.252ZM143.667 160.144C143.667 158.392 142.407 157.252 140.811 157.252C139.203 157.252 137.871 158.404 137.871 160.192C137.871 161.944 139.143 163.144 140.811 163.144C141.831 163.144 142.827 162.688 143.343 161.872L142.407 161.164C142.083 161.62 141.495 161.884 140.895 161.884C140.055 161.884 139.455 161.464 139.299 160.684H143.643C143.655 160.48 143.667 160.3 143.667 160.144ZM139.299 159.712C139.467 158.86 140.079 158.488 140.823 158.488C141.603 158.488 142.203 158.944 142.287 159.712H139.299Z" fill="#1C75BC"/>
<path d="M251.988 228.144C254.34 228.144 256.188 226.212 256.188 223.872C256.188 221.532 254.34 219.588 251.988 219.588C249.624 219.588 247.788 221.532 247.788 223.872C247.788 226.212 249.624 228.144 251.988 228.144ZM251.976 226.776C250.404 226.776 249.264 225.456 249.264 223.872C249.264 222.288 250.404 220.956 251.976 220.956C253.56 220.956 254.724 222.288 254.724 223.872C254.724 225.456 253.56 226.776 251.976 226.776ZM259.801 226.236L258.313 222.396H256.813L259.153 228H260.425L262.789 222.396H261.277L259.801 226.236ZM269.017 225.144C269.017 223.392 267.757 222.252 266.161 222.252C264.553 222.252 263.221 223.404 263.221 225.192C263.221 226.944 264.493 228.144 266.161 228.144C267.181 228.144 268.177 227.688 268.693 226.872L267.757 226.164C267.433 226.62 266.845 226.884 266.245 226.884C265.405 226.884 264.805 226.464 264.649 225.684H268.993C269.005 225.48 269.017 225.3 269.017 225.144ZM264.649 224.712C264.817 223.86 265.429 223.488 266.173 223.488C266.953 223.488 267.553 223.944 267.637 224.712H264.649ZM273.295 222.252C272.599 222.252 271.987 222.66 271.687 223.596V222.396H270.295V228H271.699V226.044C271.699 224.472 272.203 223.56 273.115 223.56C273.319 223.56 273.607 223.596 273.931 223.764L274.207 222.444C273.991 222.324 273.631 222.252 273.295 222.252ZM277.031 222.396V220.332H275.639V222.396H274.631V223.5H275.639V228H277.031V223.5H278.219V222.396H277.031ZM279.979 221.268C280.483 221.268 280.879 220.896 280.879 220.416C280.879 219.924 280.483 219.564 279.979 219.564C279.487 219.564 279.067 219.924 279.067 220.416C279.067 220.896 279.487 221.268 279.979 221.268ZM280.675 228V222.396H279.283V228H280.675ZM289.086 222.252C288.522 222.252 287.646 222.504 287.202 223.38C286.866 222.672 286.206 222.252 285.39 222.252C284.706 222.252 283.962 222.612 283.722 223.26V222.396H282.33V228H283.722V225.012C283.722 223.944 284.37 223.56 285.018 223.56C285.618 223.56 286.086 224.04 286.086 224.928V228H287.478V225.228C287.478 224.112 287.934 223.56 288.738 223.56C289.386 223.56 289.854 224.028 289.854 224.928V228H291.234V224.856C291.234 223.224 290.49 222.252 289.086 222.252ZM298.29 225.144C298.29 223.392 297.03 222.252 295.434 222.252C293.826 222.252 292.494 223.404 292.494 225.192C292.494 226.944 293.766 228.144 295.434 228.144C296.454 228.144 297.45 227.688 297.966 226.872L297.03 226.164C296.706 226.62 296.118 226.884 295.518 226.884C294.678 226.884 294.078 226.464 293.922 225.684H298.266C298.278 225.48 298.29 225.3 298.29 225.144ZM293.922 224.712C294.09 223.86 294.702 223.488 295.446 223.488C296.226 223.488 296.826 223.944 296.91 224.712H293.922Z" fill="#1C75BC"/>
<path d="M37.296 62.54L36 57.872H34.836L33.54 62.516L31.716 56.732H30.144L32.928 65H34.128L35.412 60.284L36.72 65H37.908L40.704 56.732H39.132L37.296 62.54ZM43.6748 65.144C45.2708 65.144 46.6628 63.968 46.6628 62.192C46.6628 60.416 45.2708 59.252 43.6748 59.252C42.0788 59.252 40.6988 60.416 40.6988 62.192C40.6988 63.968 42.0788 65.144 43.6748 65.144ZM43.6748 63.848C42.8108 63.848 42.1028 63.176 42.1028 62.192C42.1028 61.232 42.8108 60.548 43.6748 60.548C44.5388 60.548 45.2588 61.232 45.2588 62.192C45.2588 63.176 44.5388 63.848 43.6748 63.848ZM50.9725 59.252C50.2765 59.252 49.6645 59.66 49.3645 60.596V59.396H47.9725V65H49.3765V63.044C49.3765 61.472 49.8805 60.56 50.7925 60.56C50.9965 60.56 51.2845 60.596 51.6085 60.764L51.8845 59.444C51.6685 59.324 51.3085 59.252 50.9725 59.252ZM55.3444 61.844L57.6244 59.396H55.8124L54.2044 61.184V56.348H52.8124V65H54.2044V62.456L56.3884 65H58.1524L55.3444 61.844ZM63.9911 62.144C63.9911 60.392 62.7311 59.252 61.1351 59.252C59.5271 59.252 58.1951 60.404 58.1951 62.192C58.1951 63.944 59.4671 65.144 61.1351 65.144C62.1551 65.144 63.1511 64.688 63.6671 63.872L62.7311 63.164C62.4071 63.62 61.8191 63.884 61.2191 63.884C60.3791 63.884 59.7791 63.464 59.6231 62.684H63.9671C63.9791 62.48 63.9911 62.3 63.9911 62.144ZM59.6231 61.712C59.7911 60.86 60.4031 60.488 61.1471 60.488C61.9271 60.488 62.5271 60.944 62.6111 61.712H59.6231ZM68.2694 59.252C67.5734 59.252 66.9614 59.66 66.6614 60.596V59.396H65.2694V65H66.6734V63.044C66.6734 61.472 67.1774 60.56 68.0894 60.56C68.2934 60.56 68.5814 60.596 68.9054 60.764L69.1814 59.444C68.9654 59.324 68.6054 59.252 68.2694 59.252ZM70.3493 59.984C71.2733 59.252 72.0533 57.968 71.9693 56.492H70.6013C70.7093 57.884 70.3613 58.688 69.6653 59.66L70.3493 59.984ZM74.6063 65.144C75.7463 65.144 76.8863 64.52 76.8863 63.38C76.8863 62.864 76.6583 62.072 75.3983 61.748L74.4983 61.508C74.1743 61.436 73.8983 61.268 73.8983 60.98C73.8983 60.632 74.1983 60.38 74.6303 60.38C75.0263 60.38 75.3743 60.62 75.3743 61.004H76.7063C76.7183 59.756 75.5903 59.252 74.5943 59.252C73.3703 59.252 72.5063 60.044 72.5063 60.92C72.5063 61.628 72.8303 62.3 74.0903 62.636L74.8343 62.828C75.2543 62.924 75.4943 63.068 75.4943 63.38C75.4943 63.74 75.1343 64.016 74.5823 64.016C73.9943 64.016 73.6583 63.656 73.6583 63.272H72.3503C72.3743 64.472 73.4902 65.144 74.6063 65.144ZM84.2452 59.252C83.6812 59.252 82.7812 59.564 82.5052 60.248V56.348H81.1132V65H82.5052V62.036C82.5052 60.944 83.2972 60.572 83.9332 60.572C84.5572 60.572 85.0972 61.052 85.0972 61.952V65H86.4892V61.856C86.4892 60.224 85.6852 59.252 84.2452 59.252ZM93.5341 62.144C93.5341 60.392 92.2741 59.252 90.6781 59.252C89.0701 59.252 87.7381 60.404 87.7381 62.192C87.7381 63.944 89.0101 65.144 90.6781 65.144C91.6981 65.144 92.6941 64.688 93.2101 63.872L92.2741 63.164C91.9501 63.62 91.3621 63.884 90.7621 63.884C89.9221 63.884 89.3221 63.464 89.1661 62.684H93.5101C93.5221 62.48 93.5341 62.3 93.5341 62.144ZM89.1661 61.712C89.3341 60.86 89.9461 60.488 90.6901 60.488C91.4701 60.488 92.0701 60.944 92.1541 61.712H89.1661ZM99.0964 60.176C98.7244 59.588 97.9804 59.252 97.2124 59.252C95.6284 59.252 94.4764 60.5 94.4764 62.192C94.4764 63.932 95.6764 65.144 97.1764 65.144C97.9804 65.144 98.7244 64.736 99.0964 64.124V65H100.488V59.396H99.0964V60.176ZM97.4644 63.848C96.5524 63.848 95.8684 63.092 95.8684 62.192C95.8684 61.292 96.5524 60.548 97.4524 60.548C98.2804 60.548 99.0724 61.232 99.0724 62.192C99.0724 63.128 98.3284 63.848 97.4644 63.848ZM103.54 65V56.348H102.148V65H103.54ZM107.091 59.396V57.332H105.699V59.396H104.691V60.5H105.699V65H107.091V60.5H108.279V59.396H107.091ZM112.476 59.252C111.912 59.252 111.012 59.564 110.736 60.248V56.348H109.344V65H110.736V62.036C110.736 60.944 111.528 60.572 112.164 60.572C112.788 60.572 113.328 61.052 113.328 61.952V65H114.72V61.856C114.72 60.224 113.916 59.252 112.476 59.252Z" fill="#1C75BC"/>
<path d="M250.189 24.732V33H253.429C255.793 33 257.173 31.224 257.173 28.884C257.173 26.532 255.793 24.732 253.429 24.732H250.189ZM251.653 31.692V26.04H253.429C254.929 26.04 255.697 27.336 255.697 28.884C255.697 30.42 254.929 31.692 253.429 31.692H251.653ZM262.463 30.396C262.463 31.488 261.671 31.848 261.035 31.848C260.411 31.848 259.871 31.38 259.871 30.48V27.396H258.479V30.54C258.479 32.172 259.283 33.144 260.723 33.144C261.287 33.144 262.175 32.832 262.463 32.124V33H263.855V27.396H262.463V30.396ZM268.512 27.252C267.816 27.252 267.204 27.66 266.904 28.596V27.396H265.512V33H266.916V31.044C266.916 29.472 267.42 28.56 268.332 28.56C268.536 28.56 268.824 28.596 269.148 28.764L269.424 27.444C269.208 27.324 268.848 27.252 268.512 27.252ZM271.047 26.268C271.551 26.268 271.947 25.896 271.947 25.416C271.947 24.924 271.551 24.564 271.047 24.564C270.555 24.564 270.135 24.924 270.135 25.416C270.135 25.896 270.555 26.268 271.047 26.268ZM271.743 33V27.396H270.351V33H271.743ZM276.53 27.252C275.954 27.252 275.078 27.576 274.79 28.284V27.396H273.398V33H274.79V30.024C274.79 28.944 275.582 28.572 276.218 28.572C276.842 28.572 277.382 29.052 277.382 29.952V33H278.774V29.856C278.774 28.224 277.97 27.252 276.53 27.252ZM284.643 28.128C284.247 27.552 283.491 27.252 282.771 27.252C281.295 27.252 280.023 28.392 280.023 30.192C280.023 31.98 281.307 33.144 282.783 33.144C283.467 33.144 284.247 32.844 284.643 32.268V32.4C284.643 34.008 283.971 34.62 282.891 34.62C282.279 34.62 281.667 34.26 281.391 33.72L280.239 34.248C280.731 35.256 281.739 35.88 282.891 35.88C284.811 35.88 286.035 34.788 286.035 32.268V27.396H284.643V28.128ZM282.999 31.848C282.135 31.848 281.427 31.116 281.427 30.18C281.427 29.244 282.135 28.548 282.999 28.548C283.803 28.548 284.619 29.196 284.619 30.18C284.619 31.164 283.851 31.848 282.999 31.848ZM239.899 44.144C239.899 42.392 238.639 41.252 237.043 41.252C235.435 41.252 234.103 42.404 234.103 44.192C234.103 45.944 235.375 47.144 237.043 47.144C238.063 47.144 239.059 46.688 239.575 45.872L238.639 45.164C238.315 45.62 237.727 45.884 237.127 45.884C236.287 45.884 235.687 45.464 235.531 44.684H239.875C239.887 44.48 239.899 44.3 239.899 44.144ZM235.531 43.712C235.699 42.86 236.311 42.488 237.055 42.488C237.835 42.488 238.435 42.944 238.519 43.712H235.531ZM247.934 41.252C247.37 41.252 246.494 41.504 246.05 42.38C245.714 41.672 245.054 41.252 244.238 41.252C243.554 41.252 242.81 41.612 242.57 42.26V41.396H241.178V47H242.57V44.012C242.57 42.944 243.218 42.56 243.866 42.56C244.466 42.56 244.934 43.04 244.934 43.928V47H246.326V44.228C246.326 43.112 246.782 42.56 247.586 42.56C248.234 42.56 248.702 43.028 248.702 43.928V47H250.082V43.856C250.082 42.224 249.338 41.252 247.934 41.252ZM254.93 41.252C254.258 41.252 253.454 41.54 253.07 42.14V41.396H251.678V49.736H253.07V46.256C253.454 46.856 254.234 47.144 254.942 47.144C256.418 47.144 257.69 45.992 257.69 44.204C257.69 42.404 256.406 41.252 254.93 41.252ZM254.714 45.848C253.91 45.848 253.094 45.2 253.094 44.204C253.094 43.22 253.862 42.548 254.714 42.548C255.578 42.548 256.298 43.28 256.298 44.204C256.298 45.14 255.578 45.848 254.714 45.848ZM260.406 47V38.348H259.014V47H260.406ZM264.688 47.144C266.284 47.144 267.676 45.968 267.676 44.192C267.676 42.416 266.284 41.252 264.688 41.252C263.092 41.252 261.712 42.416 261.712 44.192C261.712 45.968 263.092 47.144 264.688 47.144ZM264.688 45.848C263.824 45.848 263.116 45.176 263.116 44.192C263.116 43.232 263.824 42.548 264.688 42.548C265.552 42.548 266.272 43.232 266.272 44.192C266.272 45.176 265.552 45.848 264.688 45.848ZM271.102 44.948L269.65 41.396H268.126L270.358 46.604L269.098 49.736H270.562L274.042 41.396H272.542L271.102 44.948ZM281.695 41.252C281.131 41.252 280.255 41.504 279.811 42.38C279.475 41.672 278.815 41.252 277.999 41.252C277.315 41.252 276.571 41.612 276.331 42.26V41.396H274.939V47H276.331V44.012C276.331 42.944 276.979 42.56 277.627 42.56C278.227 42.56 278.695 43.04 278.695 43.928V47H280.087V44.228C280.087 43.112 280.543 42.56 281.347 42.56C281.995 42.56 282.463 43.028 282.463 43.928V47H283.843V43.856C283.843 42.224 283.099 41.252 281.695 41.252ZM290.899 44.144C290.899 42.392 289.639 41.252 288.043 41.252C286.435 41.252 285.103 42.404 285.103 44.192C285.103 45.944 286.375 47.144 288.043 47.144C289.063 47.144 290.059 46.688 290.575 45.872L289.639 45.164C289.315 45.62 288.727 45.884 288.127 45.884C287.287 45.884 286.687 45.464 286.531 44.684H290.875C290.887 44.48 290.899 44.3 290.899 44.144ZM286.531 43.712C286.699 42.86 287.311 42.488 288.055 42.488C288.835 42.488 289.435 42.944 289.519 43.712H286.531ZM295.31 41.252C294.734 41.252 293.858 41.576 293.57 42.284V41.396H292.178V47H293.57V44.024C293.57 42.944 294.362 42.572 294.998 42.572C295.622 42.572 296.162 43.052 296.162 43.952V47H297.554V43.856C297.554 42.224 296.75 41.252 295.31 41.252ZM300.964 41.396V39.332H299.572V41.396H298.564V42.5H299.572V47H300.964V42.5H302.152V41.396H300.964Z" fill="#1C75BC"/>
<path d="M30 74H135.266C135.266 74 245.891 74 287 74C369.218 74 462 176 462 176" stroke="url(#paint0_linear_1319_5179)" stroke-width="2"/>
<path d="M30 176H145.017C145.017 176 251.618 176 291.5 176C371.264 176 462 74 462 74" stroke="url(#paint1_linear_1319_5179)" stroke-width="2"/>
<path d="M489.028 68.5651C486.178 70.4879 480.867 74.7261 478.415 81.8519C477.451 84.6539 476.029 88.7857 477.958 92.8867C479.571 96.3143 482.659 97.8808 484.577 98.8544C485.204 99.1723 493.981 103.447 502.38 98.9671C503.974 98.1168 507.59 96.1884 509.227 92.0987C510.983 87.7139 509.359 83.5732 508.2 80.6133C505.702 74.2358 501.051 70.4017 498.331 68.5343C495.23 68.5444 492.129 68.5544 489.028 68.5651Z" fill="#FFA412"/>
<path d="M488.98 66.8337C492.097 66.8193 495.214 66.8042 498.331 66.7897C499.574 64.5567 500.818 62.3243 502.062 60.0912C501.728 60.0453 501.216 60.0119 500.624 60.1353C499.306 60.411 499.037 61.1662 498.151 61.4217C496.647 61.856 496.057 60.0717 494.06 60.0025C491.884 59.927 491.267 61.9976 489.519 61.5552C488.496 61.2965 488.121 60.4387 486.461 60.1359C485.977 60.0472 485.566 60.0396 485.292 60.0472C486.522 62.3085 487.751 64.5711 488.98 66.8337Z" fill="#FFA412"/>
<path d="M498.331 66.8337H488.98V68.5343H498.331V66.8337Z" fill="#1C75BC"/>
<path d="M498.162 86.31C498.162 84.402 496.65 83.484 494.922 82.998L493.68 82.638C492.6 82.35 492.51 81.792 492.51 81.522C492.51 80.82 493.086 80.28 493.932 80.28C494.814 80.28 495.354 80.856 495.336 81.702H497.802C497.838 79.812 496.56 78.48 494.598 78.246V76.572H493.32V78.246C491.43 78.498 490.008 79.776 490.008 81.558C490.008 82.584 490.458 84.078 492.96 84.762L494.328 85.158C495.336 85.464 495.66 85.95 495.66 86.436C495.66 87.156 495.102 87.696 494.112 87.696C493.014 87.696 492.402 87.084 492.402 86.202H489.918C489.918 88.02 491.25 89.442 493.32 89.712V91.386H494.598V89.712C496.524 89.532 498.162 88.344 498.162 86.31Z" fill="white"/>
<path d="M493.915 164.459C494.196 164.277 494.482 164.102 494.758 163.912C495.345 163.508 495.657 162.938 495.657 162.21C495.66 159.175 495.658 156.141 495.653 153.106C495.652 152.497 495.435 151.972 495.014 151.542C494.665 151.185 494.241 150.95 493.795 150.748C493.374 150.556 493.216 150.173 493.376 149.757C493.525 149.372 493.914 149.206 494.33 149.37C495.123 149.682 495.846 150.102 496.346 150.84C496.433 150.968 496.478 150.95 496.557 150.835C497.061 150.101 497.781 149.679 498.575 149.368C498.991 149.206 499.375 149.373 499.526 149.763C499.683 150.17 499.535 150.556 499.13 150.739C498.767 150.901 498.422 151.09 498.109 151.338C497.545 151.784 497.249 152.38 497.248 153.109C497.241 156.133 497.241 159.157 497.247 162.181C497.249 162.956 497.58 163.555 498.225 163.966C498.465 164.119 498.7 164.28 498.937 164.436C499.05 164.351 499.001 164.225 499.001 164.119C499.005 163.235 498.996 162.352 499.005 161.468C499.018 160.25 499.793 159.328 500.954 159.132C501.532 159.034 502.045 159.241 502.552 159.488C505.151 160.752 507.254 162.649 509.049 164.926C511.883 168.523 513.843 172.594 515.169 177.002C515.612 178.476 515.947 179.971 515.88 181.532C515.808 183.216 514.57 184.663 513.008 184.867C511.345 185.086 509.69 185.04 508.044 184.686C503.392 183.684 498.919 179.386 498.999 173.213C499.028 170.885 498.999 168.557 498.997 166.228C498.669 166.025 498.349 165.809 498.013 165.624C497.2 165.177 496.345 165.105 495.466 165.373C494.89 165.55 494.403 165.908 493.901 166.233C493.899 168.623 493.897 171.014 493.896 173.404C493.896 173.997 493.864 174.59 493.765 175.173C493.04 179.422 490.644 182.316 486.87 184.029C484.753 184.989 482.504 185.133 480.221 184.915C478.505 184.751 477.359 183.522 477.09 182.087C476.923 181.196 477.014 180.304 477.161 179.421C477.457 177.654 478.004 175.96 478.643 174.297C480.067 170.591 481.922 167.145 484.499 164.146C486.243 162.115 488.249 160.437 490.679 159.339C491.095 159.152 491.522 159.058 491.975 159.139C493.122 159.344 493.881 160.264 493.895 161.467C493.906 162.464 493.909 163.462 493.915 164.459Z" fill="white"/>
<path d="M498.999 166.228C499.001 168.557 499.03 170.885 499 173.213C498.92 179.386 503.392 183.684 508.045 184.686C509.691 185.04 511.346 185.086 513.01 184.867C514.57 184.663 515.808 183.216 515.881 181.532C515.948 179.971 515.613 178.476 515.17 177.002C513.844 172.594 511.883 168.523 509.05 164.928C507.256 162.651 505.153 160.754 502.554 159.49C502.047 159.243 501.533 159.035 500.956 159.133C499.794 159.329 499.02 160.252 499.007 161.47C498.998 162.353 499.007 163.237 499.003 164.12C499.002 164.227 499.052 164.352 498.939 164.437C499.699 164.945 500.42 165.507 501.114 166.109C502.956 167.709 504.537 169.537 505.735 171.7C505.829 171.87 505.914 171.895 506.094 171.84C507.841 171.314 509.66 172.382 510.124 174.196C510.217 174.557 510.122 174.798 509.843 174.876C509.534 174.964 509.291 174.81 509.205 174.453C508.917 173.269 507.793 172.534 506.618 172.709C506.373 172.745 506.294 172.811 506.429 173.077C506.61 173.434 506.755 173.814 506.886 174.195C507.039 174.642 506.875 175.04 506.514 175.188C506.13 175.344 505.792 175.184 505.583 174.745C505.522 174.614 505.467 174.48 505.408 174.348C505.001 173.43 504.532 172.547 504.014 171.691C503.918 171.534 503.831 171.513 503.671 171.596C503.232 171.822 502.887 172.146 502.658 172.589C502.239 173.401 502.291 174.204 502.734 174.99C502.911 175.303 502.865 175.569 502.61 175.71C502.335 175.863 502.083 175.768 501.903 175.464C501.607 174.965 501.431 174.422 501.426 173.845C501.413 172.512 501.959 171.482 503.092 170.812C503.287 170.697 503.33 170.629 503.178 170.422C502.722 169.801 502.246 169.197 501.728 168.629C500.905 167.724 499.996 166.922 498.999 166.228Z" fill="#ED4848"/>
<path d="M493.916 164.459C493.91 163.462 493.907 162.464 493.896 161.467C493.884 160.264 493.124 159.345 491.976 159.14C491.525 159.058 491.096 159.152 490.681 159.34C488.251 160.437 486.244 162.116 484.501 164.146C481.924 167.146 480.069 170.592 478.644 174.298C478.005 175.96 477.459 177.654 477.163 179.422C477.015 180.304 476.924 181.197 477.091 182.088C477.361 183.523 478.507 184.751 480.223 184.915C482.506 185.133 484.754 184.989 486.871 184.029C490.645 182.317 493.041 179.423 493.766 175.174C493.866 174.59 493.897 173.998 493.898 173.404C493.899 171.014 493.901 168.623 493.902 166.233C492.275 167.367 490.904 168.771 489.745 170.403C489.617 170.584 489.566 170.668 489.818 170.81C491.459 171.734 491.993 174.009 490.952 175.549C490.873 175.665 490.796 175.76 490.646 175.771C490.443 175.787 490.258 175.756 490.136 175.573C489.987 175.348 490.081 175.142 490.199 174.937C490.875 173.772 490.462 172.267 489.311 171.639C489.085 171.515 488.979 171.536 488.84 171.77C488.276 172.719 487.779 173.703 487.33 174.715C487.12 175.188 486.762 175.347 486.356 175.174C486.009 175.027 485.865 174.619 486.024 174.166C486.152 173.806 486.305 173.454 486.453 173.102C486.597 172.762 486.587 172.74 486.219 172.707C484.978 172.596 484.078 173.23 483.686 174.489C483.575 174.846 483.361 174.977 483.053 174.879C482.8 174.798 482.692 174.546 482.77 174.221C483.204 172.422 485.058 171.314 486.783 171.836C486.99 171.899 487.08 171.858 487.185 171.668C487.889 170.403 488.726 169.236 489.689 168.168C490.958 166.761 492.363 165.52 493.916 164.459Z" fill="#ED4848"/>
<path d="M493.916 164.459C492.363 165.521 490.959 166.762 489.691 168.167C488.727 169.235 487.89 170.402 487.186 171.667C487.081 171.856 486.991 171.898 486.785 171.835C485.06 171.313 483.205 172.421 482.771 174.22C482.693 174.545 482.801 174.797 483.054 174.878C483.362 174.976 483.576 174.845 483.687 174.488C484.079 173.229 484.98 172.595 486.22 172.706C486.588 172.739 486.598 172.761 486.454 173.101C486.306 173.453 486.153 173.805 486.026 174.165C485.866 174.617 486.01 175.026 486.358 175.173C486.763 175.346 487.121 175.186 487.331 174.714C487.781 173.702 488.277 172.718 488.841 171.769C488.979 171.535 489.085 171.513 489.313 171.638C490.463 172.267 490.876 173.771 490.2 174.936C490.082 175.141 489.988 175.346 490.137 175.571C490.259 175.755 490.445 175.785 490.647 175.77C490.797 175.759 490.875 175.664 490.953 175.548C491.994 174.008 491.46 171.732 489.82 170.809C489.568 170.667 489.618 170.583 489.746 170.402C490.904 168.77 492.276 167.366 493.904 166.232C494.406 165.907 494.893 165.549 495.469 165.373C496.347 165.104 497.203 165.177 498.015 165.624C498.352 165.809 498.672 166.026 499 166.228C499.998 166.923 500.906 167.724 501.73 168.629C502.247 169.198 502.723 169.801 503.18 170.422C503.331 170.629 503.289 170.697 503.094 170.812C501.961 171.482 501.414 172.512 501.427 173.845C501.433 174.422 501.609 174.966 501.904 175.464C502.085 175.768 502.336 175.863 502.611 175.711C502.866 175.569 502.913 175.303 502.736 174.99C502.293 174.204 502.241 173.401 502.66 172.589C502.889 172.146 503.233 171.821 503.672 171.596C503.833 171.513 503.92 171.534 504.015 171.691C504.534 172.547 505.003 173.43 505.409 174.348C505.468 174.48 505.523 174.614 505.585 174.745C505.793 175.184 506.131 175.344 506.516 175.188C506.878 175.041 507.041 174.642 506.887 174.195C506.756 173.814 506.612 173.435 506.431 173.077C506.296 172.812 506.374 172.746 506.62 172.709C507.794 172.534 508.919 173.269 509.206 174.453C509.293 174.81 509.536 174.964 509.845 174.876C510.123 174.798 510.218 174.558 510.126 174.196C509.661 172.383 507.843 171.315 506.096 171.84C505.915 171.895 505.831 171.87 505.737 171.7C504.538 169.537 502.958 167.709 501.115 166.11C500.422 165.508 499.701 164.945 498.94 164.437C498.703 164.28 498.468 164.119 498.228 163.967C497.583 163.556 497.252 162.957 497.25 162.182C497.244 159.158 497.244 156.134 497.251 153.11C497.253 152.381 497.548 151.785 498.112 151.339C498.425 151.091 498.771 150.902 499.133 150.74C499.539 150.558 499.686 150.171 499.529 149.764C499.378 149.374 498.994 149.208 498.579 149.37C497.785 149.679 497.064 150.102 496.56 150.836C496.481 150.951 496.436 150.969 496.349 150.841C495.849 150.103 495.126 149.683 494.334 149.371C493.917 149.207 493.529 149.373 493.38 149.758C493.219 150.174 493.377 150.558 493.799 150.749C494.244 150.951 494.669 151.186 495.017 151.543C495.438 151.973 495.655 152.499 495.656 153.108C495.662 156.142 495.664 159.176 495.661 162.211C495.66 162.939 495.348 163.509 494.761 163.913C494.483 164.102 494.197 164.278 493.916 164.459Z" fill="#992624"/>
<path d="M516.707 212.707C517.098 212.317 517.098 211.683 516.707 211.293L510.343 204.929C509.953 204.538 509.319 204.538 508.929 204.929C508.538 205.319 508.538 205.953 508.929 206.343L514.586 212L508.929 217.657C508.538 218.047 508.538 218.681 508.929 219.071C509.319 219.462 509.953 219.462 510.343 219.071L516.707 212.707ZM30 213L516 213L516 211L30 211L30 213Z" fill="#1D76BD"/>
<defs>
<linearGradient id="paint0_linear_1319_5179" x1="246" y1="74" x2="339.04" y2="181.948" gradientUnits="userSpaceOnUse">
<stop stop-color="#1C75BC"/>
<stop offset="1" stop-color="#84A67F"/>
</linearGradient>
<linearGradient id="paint1_linear_1319_5179" x1="246" y1="176" x2="391.775" y2="103.038" gradientUnits="userSpaceOnUse">
<stop stop-color="#1C75BC"/>
<stop offset="1" stop-color="#F12BAE"/>
</linearGradient>
</defs>
</svg>
