<svg width="120" height="120" viewBox="0 0 120 120" fill="none" xmlns="http://www.w3.org/2000/svg">
<ellipse cx="60.12" cy="59.9999" rx="44.974" ry="44.9999" fill="#DEEAF4"/>
<mask id="mask0_1323_4108" style="mask-type:alpha" maskUnits="userSpaceOnUse" x="15" y="15" width="91" height="90">
<ellipse cx="60.068" cy="59.9999" rx="44.974" ry="44.9999" fill="#E0ECF6"/>
</mask>
<g mask="url(#mask0_1323_4108)">
<path fill-rule="evenodd" clip-rule="evenodd" d="M57.1449 50.3732L75.8937 50.6027C75.8937 50.6027 73.6915 39.8947 59.1366 41.8068C46.9452 43.4084 47.9682 53.5049 48.8388 57.4049C49.553 57.5682 52.141 58.3266 54.14 61.0662L57.1449 60.3164V50.3732Z" fill="#0D0B6D"/>
<path fill-rule="evenodd" clip-rule="evenodd" d="M64.636 80.1258L64.3995 71.9637C64.3995 71.9637 74.332 72.7534 76.4567 71.6512C76.4567 71.6512 78.5555 58.2145 75.8938 50.604L54.9328 48.1558L53.4014 60.349C52.6954 58.2693 47.2247 55.7287 45.7013 58.7066C42.4003 65.1593 54.2033 69.5042 54.2033 69.5042L53.0048 80.2238" fill="#4A75CB"/>
<path opacity="0.402158" fill-rule="evenodd" clip-rule="evenodd" d="M64.3992 71.9614L57.7017 70.5273L64.3668 75.0237L64.3992 71.9614Z" fill="black"/>
<path fill-rule="evenodd" clip-rule="evenodd" d="M69.9246 58.625L72.2391 64.2753L69.4648 64.3104L69.9246 58.625Z" fill="#72A065"/>
<path fill-rule="evenodd" clip-rule="evenodd" d="M67.2851 60.2292C67.4232 60.99 66.9169 61.7185 66.1551 61.8558C65.393 61.9937 64.6635 61.4882 64.5258 60.7276C64.388 59.9668 64.894 59.2383 65.6558 59.1007C66.4179 58.9631 67.1471 59.4683 67.2851 60.2292Z" fill="#0D0B6D"/>
<path fill-rule="evenodd" clip-rule="evenodd" d="M74.5647 60.2292C74.7027 60.99 74.1965 61.7185 73.4347 61.8558C72.6726 61.9937 71.9431 61.4882 71.8056 60.7276C71.6676 59.9668 72.1738 59.2383 72.9357 59.1007C73.6978 58.9631 74.4269 59.4683 74.5647 60.2292Z" fill="#0D0B6D"/>
<g clip-path="url(#clip0_1323_4108)">
<path d="M62.3701 34.157C59.2345 34.1619 56.7245 34.7951 54.7135 35.8097C54.5151 35.9094 54.3178 36.0142 54.1291 36.1237L54.1262 36.1254C46.5525 40.436 46.6776 50.3359 46.6776 50.3359C46.6776 50.3359 46.9071 52.886 47.239 53.9377C47.5709 54.9893 55.9581 55.9654 56.8135 54.3198C57.6718 52.6724 59.735 51.2524 59.735 51.2524C59.735 51.2524 68.4441 52.8006 69.0299 52.9029C70.9983 53.2451 76.999 52.7031 76.999 52.7031C77.0752 52.1423 78.2658 34.1334 62.3701 34.157Z" fill="#FFA412"/>
<path d="M82.529 52.1463C81.565 51.639 79.8836 50.9207 77.0237 50.0941C77.0237 50.0941 74.0993 51.4971 68.9 51.8258C67.3473 48.4047 62.6137 39.9155 54.7164 35.808C54.6928 35.7947 54.6709 35.7844 54.6473 35.7712C54.4115 35.952 54.2936 36.0033 54.132 36.122L54.1291 36.1237C54.0814 36.1583 54.0267 36.2009 53.9669 36.2545C60.5076 39.1548 65.0891 48.4598 66.6021 51.893C64.5693 51.887 62.2765 51.7084 59.7384 51.2484C59.7384 51.2484 74.6342 55.2636 82.3736 53.3674C82.9615 53.2255 83.0647 52.4293 82.529 52.1463Z" fill="#E27F2B"/>
</g>
<path fill-rule="evenodd" clip-rule="evenodd" d="M66.7581 66.0006C66.7581 66.0006 67.3803 64.1987 70.3279 64.3339C73.2753 64.4688 73.6409 66.7014 73.6409 66.7014L66.7581 66.0006Z" fill="#252535"/>
<path fill-rule="evenodd" clip-rule="evenodd" d="M85.6147 104.22L79.9489 107.247L78.5465 130.986H39.4454L38.7895 107.035L26.426 97.7315C26.426 97.7315 32.2567 85.9662 42.2324 81.2837C44.8316 80.066 48.1009 79.4189 51.3677 79.11C57.9182 78.4894 64.4483 79.21 65.5097 79.3395L65.6597 79.3571C65.8449 79.413 66.0304 79.4689 66.2095 79.5248C66.2124 79.5248 66.2156 79.5277 66.2183 79.5277C66.7475 79.6924 67.2474 79.8512 67.7237 80.0071C74.342 82.1866 76.4354 83.9514 80.1433 89.1752C83.6683 94.1402 85.6147 104.22 85.6147 104.22Z" fill="#ED4848"/>
<path opacity="0.200219" d="M38.8401 107.099L41.9659 109.25L49.4807 100.377" stroke="black" stroke-width="5"/>
<path fill-rule="evenodd" clip-rule="evenodd" d="M77.6716 137.316H83.9826L85.3983 128.61L88.3001 140.997C90.0912 143.05 92.1589 145.473 92.4715 146.07C93.038 147.151 94.0866 152.506 94.0365 153.564C93.9865 154.622 90.7205 159.377 90.7205 159.377C88.694 158.894 90.0175 156.439 90.0175 156.439C90.0175 156.439 88.2026 157.93 87.4477 157.905C80.3407 157.67 80.7216 154.173 80.8899 153.736C81.2673 152.752 83.1641 153.877 83.1641 153.877C83.1641 153.877 79.8696 147.382 80.2968 142.42C79.5587 141.027 78.651 139.279 77.6716 137.316ZM50.3792 116.035L52.2813 115.385C52.2813 115.385 53.5011 114.908 55.5605 114.528C56.8543 114.29 57.7909 114.384 59.1259 114.24L58.6721 117.151C58.5867 117.213 58.5098 117.287 58.4361 117.366C58.4921 117.413 58.5484 117.466 58.6132 117.525C59.158 118.023 60.1892 118.906 64.6266 120.013C65.5161 120.233 68.5036 120.275 68.5036 120.275C69.3816 120.401 71.226 120.572 71.353 121.605C71.3851 121.861 71.064 122.138 71.064 122.138C71.064 122.138 72.2219 122.218 72.2926 123.266C72.3223 123.678 69.7293 124.09 69.7293 124.09C69.7293 124.09 70.9667 124.405 70.9903 125.182C70.9903 125.403 63.4507 126.827 63.4507 126.827L65.0921 126.925L66.798 126.842C66.798 126.842 67.6849 127.007 67.7346 127.743C67.7523 128.034 66.1819 128.346 64.3555 128.585C61.515 128.959 59.4732 128.629 57.4756 128.084C57.3077 128.037 57.1457 127.996 56.9898 127.955C54.933 127.416 54.0167 127.316 51.3709 125.877C51.1261 125.743 50.8571 125.583 50.5781 125.406C43.7877 126.05 23.2065 127.634 21.1436 123.397C17.0644 115.019 27.8005 98.8047 27.8005 98.8047L39.6844 107.108L35.9078 113.518L50.3792 116.035ZM61.9599 84.8113C55.428 84.4257 52.3844 80.6312 51.4183 79.1093C57.9824 78.4881 64.5261 79.2093 65.5897 79.3389C65.8405 79.4036 66.0762 79.4655 66.291 79.5243C66.2939 79.5243 66.2971 79.5273 66.2998 79.5273C67.2102 79.7775 67.7906 79.9718 67.7906 79.9718C67.7906 79.9718 67.7968 79.9836 67.8086 80.0071C67.9913 80.4634 69.7617 85.2676 61.9599 84.8113Z" fill="#4A75CB"/>
<path d="M65.624 67.015C65.7976 67.8029 66.9939 68.829 68.7399 68.4439" stroke="#0D0B6D"/>
<rect width="6.68639" height="8.68725" rx="3.3432" transform="matrix(0.997049 -0.0767714 0.0766839 0.997055 71.126 42.9346)" fill="#808080"/>
<rect width="4.89005" height="6.69018" rx="2.44502" transform="matrix(0.997049 -0.0767714 0.0766839 0.997055 72.6917 43.9287)" fill="url(#paint0_linear_1323_4108)"/>
<rect x="0.776875" y="0.665851" width="1.44705" height="3.24606" rx="0.723527" transform="matrix(0.997049 -0.0767714 0.0766839 0.997055 73.7147 44.9088)" fill="#BEBEBE" stroke="#808080" stroke-width="1.44705"/>
<rect width="1.42566" height="4.3051" rx="0.712831" transform="matrix(0.996158 -0.0875793 0.0874796 0.996166 70.7786 45.4551)" fill="#131312"/>
</g>
<defs>
<linearGradient id="paint0_linear_1323_4108" x1="0.570664" y1="1.54092" x2="3.83236" y2="5.78585" gradientUnits="userSpaceOnUse">
<stop stop-color="#1B1814"/>
<stop offset="1" stop-color="#624D2D"/>
</linearGradient>
<clipPath id="clip0_1323_4108">
<rect width="36.218" height="23.754" fill="white" transform="matrix(-0.970215 -0.242244 -0.241982 0.970281 86.188 39.5337)"/>
</clipPath>
</defs>
</svg>
