<svg width="121" height="120" viewBox="0 0 121 120" fill="none" xmlns="http://www.w3.org/2000/svg">
<ellipse cx="60.6059" cy="60.0003" rx="44.9762" ry="44.9998" fill="#DEEAF4"/>
<mask id="mask0_1323_4274" style="mask-type:alpha" maskUnits="userSpaceOnUse" x="15" y="15" width="91" height="90">
<ellipse cx="60.6544" cy="59.9998" rx="44.9762" ry="44.9998" fill="#C4C4C4"/>
</mask>
<g mask="url(#mask0_1323_4274)">
<path fill-rule="evenodd" clip-rule="evenodd" d="M87.0151 141.055C84.5768 137.086 76.6339 123.931 76.1695 120.24C75.5879 115.617 76.1098 109.647 76.1098 109.647L83.5398 105.222L85.4194 116.226L93.0778 140.276C94.5814 142.045 96.4689 144.308 96.7389 144.839C97.1959 145.737 98.042 150.187 98.0017 151.066C97.9612 151.945 95.326 155.896 95.326 155.896C93.6906 155.495 94.7588 153.455 94.7588 153.455C94.7588 153.455 93.2939 154.694 92.6851 154.673C86.9505 154.478 87.2579 151.573 87.3933 151.209C87.6979 150.392 89.2287 151.326 89.2287 151.326C89.2287 151.326 86.2303 145.24 87.0151 141.055ZM35.0826 138.445L36.6061 144.799C36.6061 144.799 36.7234 146.245 36.6477 147.921C36.5723 149.598 36.4837 150.611 37.2464 153.259C37.7779 155.104 35.239 154.194 34.6511 153.12C34.0448 152.011 34.3162 147.884 32.9233 148.499C31.5308 149.114 30.4879 153.151 30.1445 157.061C30.0903 157.675 29.5605 158.103 29.2109 158.229C28.6442 158.434 28.2708 155.926 28.2708 155.926C28.2708 155.926 27.8611 156.726 27.0879 156.25C26.8145 156.081 26.2025 154.321 26.2025 154.321C26.2025 154.321 25.6545 153.416 25.4429 152.467C25.0698 150.79 25.0309 147.777 25.2919 146.932C25.8856 145.011 27.0238 141.837 28.1401 140.024C28.0955 134.98 28.0127 115.151 29.4235 111.493C31.0427 107.293 33.9732 101.663 33.9732 101.663L42.6649 107.478L38.003 115.031L35.0826 138.445ZM67.0333 77.7332C67.0333 77.7332 69.3152 79.3468 71.0197 82.232C73.3524 86.1792 72.1329 89.5846 68.5443 89.5902C64.7015 89.5968 60.2921 88.2882 58.4331 82.4656C57.4928 79.5203 56.6045 77.1943 56.6045 77.1943L67.0333 77.7332Z" fill="#ED4848"/>
<path fill-rule="evenodd" clip-rule="evenodd" d="M56.6172 77.2307C56.7317 77.5333 57.5596 79.7332 58.4322 82.4665C60.2911 88.2891 64.7006 89.5976 68.5434 89.5911C72.132 89.5854 73.3515 86.18 71.0188 82.2329C69.5175 79.6917 67.5682 78.1369 67.1248 77.8023C71.6566 78.1088 74.4783 78.6781 77.0917 81.1306C82.0672 85.7995 85.8307 99.2278 86.4852 107.256L77.4246 110.527L75.4135 119.528H51.5776C51.5776 119.528 51.8346 116.835 51.3219 113.521C50.6532 109.186 48.2407 105.952 48.2407 105.952L45.8471 109.592L30.9624 100.813C35.8357 91.922 42.6327 82.7549 47.1646 79.838C50.5056 77.6864 53.6414 77.2177 56.6172 77.2307ZM58.0242 77.2686L58.5124 77.2939C58.3501 77.2847 58.1874 77.2762 58.0242 77.2686Z" fill="#72A065"/>
<path opacity="0.204148" d="M75.5291 119.708C76.438 108.159 82.446 105.433 77.9127 92.48" stroke="black" stroke-width="4"/>
<path opacity="0.204148" d="M67.033 77.7332C67.033 77.7332 69.3149 79.3468 71.0195 82.232C73.3521 86.1792 72.1327 89.5846 68.544 89.5902C64.7012 89.5968 60.2918 88.2882 58.4329 82.4656C57.4925 79.5203 56.6042 77.1943 56.6042 77.1943" stroke="black" stroke-width="4"/>
<path opacity="0.204148" d="M54.3527 98.4331L48.8315 106.803" stroke="black" stroke-width="4"/>
<path fill-rule="evenodd" clip-rule="evenodd" d="M83.7158 54.5606C83.7158 64.8879 75.7288 73.2599 65.8757 73.2599C56.023 73.2599 48.0356 64.8879 48.0356 54.5606C48.0356 44.2333 55.158 36.4556 65.0107 36.4556C74.8635 36.4556 83.7158 44.2333 83.7158 54.5606Z" fill="#0D0B6D"/>
<path fill-rule="evenodd" clip-rule="evenodd" d="M52.123 44.9312C54.1207 44.8762 54.6814 42.1767 52.9007 41.269C51.2614 40.433 49.1905 39.781 46.6601 39.6934C41.5908 39.5179 33.5675 43.2394 32.0894 51.4879C30.4415 60.683 37.1352 64.978 31.0742 72.69L47.5883 78.5563C47.5883 78.5563 50.6757 73.325 47.1512 65.5226C43.9943 58.5343 39.2092 45.2856 52.123 44.9312Z" fill="#0D0B6D"/>
<path fill-rule="evenodd" clip-rule="evenodd" d="M67.6182 73.7538C67.6182 73.7538 63.9545 73.8621 62.3931 73.0088L67.4236 76.1687L67.6182 73.7538Z" fill="#CF3E83"/>
<path fill-rule="evenodd" clip-rule="evenodd" d="M75.7835 72.5246C73.9164 73.7662 70.5164 73.9193 67.618 73.752L66.955 81.9871L57.4975 78.0921C57.4975 78.0921 58.4069 69.0038 58.8011 65.5198C56.8999 63.7963 53.6612 62.9969 53.6555 60.0686C53.6555 59.0537 54.2477 57.299 56.435 57.2933C59.3703 57.2905 58.9509 60.8113 58.9509 60.8113C62.2718 62.1011 65.6687 50.9377 67.6265 48.4091C68.6975 47.0258 76.9197 50.1213 76.9197 50.1213L81.5861 55.343C81.6768 55.9865 81.3481 68.8224 75.7835 72.5246Z" fill="#ED4848"/>
<path fill-rule="evenodd" clip-rule="evenodd" d="M75.5823 60.8037L77.679 65.8893L75.2466 65.8405L75.5823 60.8037Z" fill="#405FD3"/>
<path fill-rule="evenodd" clip-rule="evenodd" d="M73.3507 61.0237C73.2985 62.0396 72.7013 62.8311 72.0167 62.7917C71.3325 62.7523 70.8197 61.8968 70.8721 60.8808C70.9245 59.8648 71.5215 59.0733 72.206 59.1127C72.8905 59.1521 73.4031 60.008 73.3507 61.0237Z" fill="#0D0B6D"/>
<path fill-rule="evenodd" clip-rule="evenodd" d="M79.7784 60.8623C79.726 61.8783 79.129 62.6698 78.4445 62.6304C77.76 62.591 77.2474 61.7354 77.2995 60.7194C77.352 59.7035 77.9489 58.9117 78.6335 58.9511C79.318 58.9905 79.8305 59.8463 79.7784 60.8623Z" fill="#0D0B6D"/>
<path d="M74.5595 68.4773C74.5595 68.4773 72.9216 68.7791 71.5759 66.8208" stroke="#1C295E"/>
<path opacity="0.402786" fill-rule="evenodd" clip-rule="evenodd" d="M67.6121 73.7536C67.6121 73.7536 63.9487 73.8619 62.387 73.0083L67.4175 76.1682L67.6121 73.7536Z" fill="black"/>
<path fill-rule="evenodd" clip-rule="evenodd" d="M58.9524 60.8101C58.9524 60.8101 71.5815 61.8698 78.1298 46.9255L63.6579 44.396" fill="#0D0B6D"/>
<path fill-rule="evenodd" clip-rule="evenodd" d="M75.9351 44.8604C75.9351 44.8604 75.9206 55.2691 81.8198 60.4445L82.4882 53.8154" fill="#0D0B6D"/>
</g>
</svg>
