<svg width="121" height="120" viewBox="0 0 121 120" fill="none" xmlns="http://www.w3.org/2000/svg">
<ellipse cx="60.5355" cy="59.9997" rx="44.9638" ry="44.9997" fill="#DEEAF4"/>
<mask id="mask0_1323_4228" style="mask-type:alpha" maskUnits="userSpaceOnUse" x="15" y="15" width="91" height="90">
<ellipse cx="60.4638" cy="60.0002" rx="44.9638" ry="44.9997" fill="#C4C4C4"/>
</mask>
<g mask="url(#mask0_1323_4228)">
<path fill-rule="evenodd" clip-rule="evenodd" d="M55.6523 48.114L74.2679 48.3418C74.2679 48.3418 72.0814 37.7076 57.6299 39.6065C45.5251 41.1971 46.5408 51.2241 47.4053 55.0973C48.1143 55.2594 50.684 56.0126 52.6688 58.7334L55.6523 57.9887V48.114Z" fill="#0D0B6D"/>
<path fill-rule="evenodd" clip-rule="evenodd" d="M63.0904 77.6602L62.8555 69.5543C62.8555 69.5543 72.7175 70.3385 74.8272 69.244C74.8272 69.244 76.911 55.8997 74.2682 48.3415L53.4561 45.9102L51.9356 58.0195C51.2346 55.9541 45.8027 53.431 44.2901 56.3884C41.0126 62.7967 52.7318 67.1117 52.7318 67.1117L51.5418 77.7575" fill="#E576C6"/>
<path opacity="0.402158" fill-rule="evenodd" clip-rule="evenodd" d="M62.8555 69.5545L56.2056 68.1304L62.8234 72.5958L62.8555 69.5545Z" fill="black"/>
<path fill-rule="evenodd" clip-rule="evenodd" d="M68.341 56.3071L70.6391 61.9185L67.8845 61.9534L68.341 56.3071Z" fill="#4A75CB"/>
<path fill-rule="evenodd" clip-rule="evenodd" d="M65.7207 57.9024C65.8577 58.658 65.3551 59.3815 64.5987 59.5179C63.842 59.6547 63.1177 59.1528 62.9809 58.3974C62.8442 57.6418 63.3465 56.9183 64.1029 56.7817C64.8596 56.6451 65.5836 57.1467 65.7207 57.9024Z" fill="#0D0B6D"/>
<path d="M65.6396 63.7864C65.8131 64.5742 66.6792 65.9631 68.7548 65.2153" stroke="#0D0B6D"/>
<path fill-rule="evenodd" clip-rule="evenodd" d="M72.9483 57.9024C73.0853 58.658 72.5827 59.3815 71.8263 59.5179C71.0696 59.6547 70.3453 59.1528 70.2088 58.3974C70.0717 57.6418 70.5744 56.9183 71.3308 56.7817C72.0875 56.6451 72.8115 57.1467 72.9483 57.9024Z" fill="#0D0B6D"/>
<path fill-rule="evenodd" clip-rule="evenodd" d="M51.0815 78.7556L51.41 73.4653L66.6671 74.4134L66.3691 79.2126C74.098 82.1916 75.4529 85.1078 77.1511 88.7638C77.3343 89.158 77.5214 89.5607 77.7211 89.973C79.9661 94.6139 82.2939 108.866 82.2939 108.866L92.0443 133.468L80.0911 140.125L77.1517 134.428L77.2253 126.825L40.6995 126.824L40.4441 117.461L37.3322 136.241L23.6706 136.887C23.6706 136.887 23.4001 117.329 26.0014 106.014C27.6573 98.8074 35.7488 85.4155 43.4107 80.8105C45.2816 79.6858 48.0902 79.0697 51.0815 78.7556Z" fill="#4A75CB"/>
<path opacity="0.203544" d="M40.4998 119.576L43.014 106.437L49.233 95.8931" stroke="black" stroke-width="5"/>
<path d="M50.1959 77.9487V121.862C50.1959 127.79 48.197 133.574 44.3968 138.121C42.673 140.183 40.3806 141.994 37.9436 142.901L38.1474 83.6301C38.1474 83.6301 41.267 77.9487 50.1959 77.9487Z" fill="#FFA412"/>
<path d="M67.8149 79.0713V123.794C67.8149 128.848 69.2698 133.819 72.1327 137.982C73.8953 140.543 76.2202 142.933 79.1422 144.022L77.2451 88.5539C77.2451 88.5539 75.9268 81.5735 67.8149 79.0713Z" fill="#FFA412"/>
<path d="M38.1167 92.7056L50.1958 92.0225V96.9616L38.0984 97.9221L38.1167 92.7056Z" fill="white"/>
<path d="M38.0776 101.351L50.1954 100.666V105.605L38.0674 106.628L38.0776 101.351Z" fill="white"/>
<path d="M67.8149 92.0225L77.4306 93.974L77.565 97.9221L67.8149 96.1336V92.0225Z" fill="white"/>
<path d="M67.8149 100.004L77.6954 101.726L77.8401 105.943L67.8149 104.564V100.004Z" fill="white"/>
<g clip-path="url(#clip0_1323_4228)">
<path d="M60.8404 32.0092C57.727 32.014 55.2349 32.6428 53.2382 33.6505C53.0411 33.7495 52.8452 33.8536 52.6579 33.9623L52.655 33.9641C45.1351 38.2449 45.2594 48.0767 45.2594 48.0767C45.2594 48.0767 45.4872 50.6093 45.8167 51.6537C46.1463 52.6981 54.474 53.6675 55.3233 52.0332C56.1755 50.3971 58.224 48.987 58.224 48.987C58.224 48.987 66.8713 50.5245 67.4528 50.626C69.4073 50.9659 75.3653 50.4276 75.3653 50.4276C75.441 49.8707 76.6232 31.9857 60.8404 32.0092Z" fill="#FFA412"/>
<path d="M80.856 49.8747C79.8989 49.3709 78.2293 48.6575 75.3898 47.8366C75.3898 47.8366 72.4861 49.23 67.3238 49.5565C65.7822 46.1588 61.0822 37.728 53.241 33.6488C53.2175 33.6357 53.1958 33.6254 53.1724 33.6123C52.9382 33.7919 52.8212 33.8428 52.6607 33.9607L52.6578 33.9624C52.6104 33.9967 52.5562 34.039 52.4968 34.0922C58.991 36.9726 63.54 46.2136 65.0422 49.6232C63.0239 49.6172 60.7474 49.4398 58.2273 48.983C58.2273 48.983 73.0173 52.9706 80.7017 51.0874C81.2854 50.9465 81.3879 50.1558 80.856 49.8747Z" fill="#E27F2B"/>
<rect width="6.6866" height="8.68538" rx="3.3433" transform="matrix(0.996955 -0.0768541 0.0766014 0.997149 69.3237 40.8091)" fill="#808080"/>
<rect width="4.89022" height="6.68877" rx="2.44511" transform="matrix(0.996955 -0.0768536 0.0766019 0.997149 70.8904 41.8032)" fill="url(#paint0_linear_1323_4228)"/>
<rect x="0.776791" y="0.665896" width="1.44713" height="3.24505" rx="0.723566" transform="matrix(0.996955 -0.0768517 0.0766037 0.997149 71.9133 42.7828)" fill="#BEBEBE" stroke="#808080" stroke-width="1.44713"/>
<rect width="1.42584" height="4.3044" rx="0.712918" transform="matrix(0.996064 -0.087648 0.087411 0.996259 68.9778 43.3301)" fill="#131312"/>
</g>
</g>
<defs>
<linearGradient id="paint0_linear_1323_4228" x1="0.570684" y1="1.54059" x2="3.83148" y2="5.78541" gradientUnits="userSpaceOnUse">
<stop stop-color="#1B1814"/>
<stop offset="1" stop-color="#624D2D"/>
</linearGradient>
<clipPath id="clip0_1323_4228">
<rect width="35.9612" height="23.5903" fill="white" transform="matrix(-0.970203 -0.242295 -0.241931 0.970294 84.4888 37.3491)"/>
</clipPath>
</defs>
</svg>
