<svg width="120" height="120" viewBox="0 0 120 120" fill="none" xmlns="http://www.w3.org/2000/svg">
<ellipse cx="60.0465" cy="59.9999" rx="44.964" ry="44.9999" fill="#DEEAF4"/>
<mask id="mask0_1323_4337" style="mask-type:alpha" maskUnits="userSpaceOnUse" x="15" y="15" width="91" height="90">
<ellipse cx="60.1193" cy="59.9999" rx="44.964" ry="44.9999" fill="#E0ECF6"/>
</mask>
<g mask="url(#mask0_1323_4337)">
<path fill-rule="evenodd" clip-rule="evenodd" d="M89.6034 57.8707C89.6034 59.9743 89.3852 62.0282 88.9678 64.0102C86.1425 77.5054 74.1827 82.1107 59.8558 82.1107C43.4293 82.1107 30.1106 74.3126 30.1106 57.8707C30.1106 41.4287 43.4293 28.1021 59.8558 28.1021C71.1497 28.1021 80.9747 34.3991 86.0127 43.6788C88.3022 47.8971 89.6034 52.7318 89.6034 57.8707Z" fill="#0D0B6D"/>
<path fill-rule="evenodd" clip-rule="evenodd" d="M64.9566 77.6759C64.9566 77.6759 61.385 77.7815 59.8628 76.9492L64.7669 80.0308L64.9566 77.6759Z" fill="#CF3E83"/>
<path fill-rule="evenodd" clip-rule="evenodd" d="M63.7627 55.0791C63.4677 55.6853 63.1553 56.3617 62.8286 57.0699C61.0092 61.0101 58.7404 65.9239 56.5081 65.0548C56.5081 65.0548 56.9161 61.6227 54.0535 61.6269C51.9209 61.6302 51.3433 63.3421 51.345 64.3309C51.348 66.3753 52.8608 67.4598 54.3794 68.5481C55.3406 69.2369 56.3037 69.9272 56.8876 70.8634C58.0096 72.6566 55.9143 82.414 55.9143 82.414L64.3091 85.7043L64.9568 77.676C67.781 77.8391 71.0963 77.6898 72.9168 76.4782C76.7707 73.9127 78.0482 66.8497 78.4329 62.7516C72.3895 60.8584 67.2413 58.0739 63.7627 55.0791Z" fill="#72A065"/>
<path fill-rule="evenodd" clip-rule="evenodd" d="M72.7209 65.0488L74.7648 70.008L72.3936 69.9604L72.7209 65.0488Z" fill="#2437A8"/>
<path fill-rule="evenodd" clip-rule="evenodd" d="M70.5441 65.265C70.493 66.2557 69.911 67.0275 69.2437 66.989C68.5764 66.9506 68.0768 66.1164 68.1276 65.1256C68.1787 64.1349 68.7609 63.3629 69.428 63.4013C70.0953 63.44 70.5952 64.2742 70.5441 65.265Z" fill="#1D1D23"/>
<path fill-rule="evenodd" clip-rule="evenodd" d="M76.811 65.1045C76.7599 66.0953 76.1779 66.867 75.5106 66.8286C74.8433 66.7902 74.3436 65.9559 74.3947 64.9652C74.4458 63.9745 75.0278 63.2024 75.6951 63.2411C76.3624 63.2796 76.8621 64.1138 76.811 65.1045Z" fill="#1D1D23"/>
<path d="M71.8115 72.3361C71.8115 72.3361 70.2664 72.835 68.7183 71.1123" stroke="#24242B"/>
<path opacity="0.399019" fill-rule="evenodd" clip-rule="evenodd" d="M64.951 77.6757C64.951 77.6757 61.3794 77.7813 59.8572 76.9492L64.7612 80.0306L64.951 77.6757Z" fill="black"/>
<path fill-rule="evenodd" clip-rule="evenodd" d="M90.2691 147.953L83.9685 148.743L73.8209 132.86L73.4505 127.58L57.9914 127.351L51.3928 127.254H51.379C50.7686 127.218 50.133 127.179 49.4759 127.132C41.1648 126.552 29.6497 124.934 28.8597 120.456C27.4262 112.346 38.2701 96.6061 39.5517 94.7817C39.6318 94.6684 39.673 94.6075 39.673 94.6075C41.4904 92.0091 43.3192 89.9884 45.0262 88.9131C48.3462 86.8206 51.4591 86.3614 54.4173 86.37L55.2097 80.623L67.2775 82.2896L66.6202 87.0666C70.1639 87.4066 72.5749 88.1001 74.8315 90.1734C82.0767 96.83 82.6098 121.761 82.6098 121.761L90.2691 147.953Z" fill="#4A75CB"/>
<path opacity="0.201149" d="M73.2292 127.515C74.1153 116.253 80.2485 113.872 75.8292 101.241" stroke="black" stroke-width="3"/>
<path fill-rule="evenodd" clip-rule="evenodd" d="M83.6627 141.448L60.6164 138.79C59.8616 138.702 59.3647 137.96 59.5715 137.228L68.6776 105.031C68.8422 104.449 69.404 104.072 70.0045 104.141L93.0507 106.8C93.8053 106.887 94.3025 107.63 94.0953 108.361L84.9896 140.559C84.8249 141.141 84.2629 141.517 83.6627 141.448Z" fill="#18181C"/>
<path fill-rule="evenodd" clip-rule="evenodd" d="M61.9887 138.949L85.035 141.607C85.6354 141.677 86.1972 141.3 86.3619 140.718L95.4676 108.52C95.6748 107.789 95.1776 107.046 94.423 106.959L71.3768 104.301C70.7766 104.232 70.2145 104.608 70.0499 105.19L65.3704 121.736C66.0705 122.086 67.187 122.504 69.0624 122.973C69.7756 123.15 72.17 123.183 72.17 123.183C72.222 123.191 72.2783 123.198 72.338 123.207C73.0848 123.309 74.3595 123.483 74.4537 124.251C74.4797 124.457 74.2223 124.679 74.2223 124.679C74.2223 124.679 75.15 124.743 75.2067 125.584C75.2304 125.915 73.1525 126.246 73.1525 126.246C73.1525 126.246 74.1444 126.499 74.1631 127.123C74.1631 127.3 68.1203 128.444 68.1203 128.444L69.4356 128.522L70.8028 128.456C70.8028 128.456 71.5135 128.588 71.5538 129.179C71.5679 129.413 70.3092 129.663 68.845 129.855C66.5688 130.155 64.9323 129.891 63.3311 129.453C63.2864 129.441 63.2419 129.429 63.198 129.417L60.9438 137.388C60.737 138.119 61.2341 138.862 61.9887 138.949Z" fill="#E576C6"/>
<path opacity="0.200498" d="M49.1773 103.475L43.3604 113.114L57.8233 118.842" stroke="black" stroke-width="3"/>
</g>
</svg>
