<svg width="121" height="120" viewBox="0 0 121 120" fill="none" xmlns="http://www.w3.org/2000/svg">
<circle cx="60.6296" cy="60" r="45" fill="#E0ECF6"/>
<mask id="mask0_1323_4531" style="mask-type:alpha" maskUnits="userSpaceOnUse" x="15" y="15" width="91" height="90">
<circle cx="60.6296" cy="60" r="45" fill="#C4C4C4"/>
</mask>
<g mask="url(#mask0_1323_4531)">
<path d="M16.1252 49.1509C16.6492 49.1604 17.0195 48.9819 17.3822 48.6154C19.7043 46.2686 22.0549 43.9484 24.3733 41.5958C24.9106 41.0509 25.5068 40.8041 26.2587 40.8211C27.2841 40.8439 28.3094 40.8135 29.3347 40.8306C29.7524 40.8382 30.0695 40.7072 30.3619 40.4034C31.1043 39.6325 31.8562 38.8711 32.6309 38.1325C33.022 37.7623 33.0809 37.4965 32.6499 37.0901C31.6549 36.1541 30.7075 35.1686 29.7429 34.2003C28.9777 33.4332 28.9682 32.6509 29.7277 31.88C30.4151 31.1813 31.0872 30.4654 31.8144 29.8104C32.2663 29.4022 32.2511 29.1249 31.8239 28.7167C30.7872 27.7256 29.7752 26.7079 28.7784 25.6787C28.4005 25.2895 27.9923 25.1376 27.4492 25.1395C24.191 25.1604 20.929 25.261 17.6784 25.1053C15.8575 25.0199 14.4524 25.4357 13.3796 26.9186C12.9106 27.5661 12.2309 27.7313 11.4524 27.7256C8.69545 27.7047 5.94038 27.718 3.18342 27.718C3.18342 27.718 3.18342 27.7199 3.18342 27.7218C0.314433 27.7218 -2.55645 27.7256 -5.42544 27.7161C-5.80898 27.7161 -6.12417 27.7863 -6.40898 28.073C-8.0286 29.706 -9.65392 31.3313 -11.2925 32.9433C-11.6191 33.2642 -11.583 33.4939 -11.2754 33.7901C-10.683 34.356 -10.102 34.9351 -9.5362 35.5294C-9.25139 35.8294 -9.03873 35.8237 -8.75012 35.5237C-7.99253 34.7376 -7.18177 34.0009 -6.44316 33.1958C-5.84506 32.5446 -5.1786 32.2161 -4.27671 32.3053C-3.62164 32.3699 -2.95708 32.3186 -2.29633 32.3186C-0.817212 32.3186 -0.439364 32.6794 -0.443161 34.1775C-0.44506 34.6863 -0.270376 35.0186 0.141649 35.3167C1.17266 36.0667 2.18089 36.8471 3.17962 37.6408C3.9638 38.2654 3.99228 39.0971 3.28975 39.8205C2.75241 40.3768 2.22836 40.9484 1.66823 41.48C1.30367 41.8275 1.20494 42.2205 1.21064 42.7047C1.22772 44.5939 1.23342 46.4851 1.20684 48.3762C1.19924 48.9003 1.36823 49.2686 1.73469 49.6313C4.64545 52.5192 7.5619 55.4015 10.4214 58.3389C11.103 59.0395 11.7923 59.4079 12.7511 59.2541C12.9657 59.2199 13.2581 59.3319 13.353 59.0623C13.4461 58.8041 13.1765 58.6654 13.0246 58.5135C12.0315 57.5091 11.0366 56.5066 10.0284 55.5173C9.6638 55.1604 9.47962 54.7522 9.48152 54.2414C9.48912 53.0813 9.47393 51.9192 9.48722 50.7572C9.50051 49.6351 9.99988 49.1509 11.1372 49.1452C12.7986 49.1357 14.4619 49.1243 16.1252 49.1509Z" fill="#4A75CB"/>
<path d="M36.8939 69.1765C35.6882 68.0278 34.5471 67.2474 32.8496 67.5227C32.1281 67.6386 31.6097 67.293 31.116 66.7879C29.3483 64.9803 27.5426 63.2107 25.7673 61.4126C25.4559 61.0974 25.1331 60.9417 24.6869 60.9474C23.2515 60.9664 21.8179 60.9607 20.3825 60.9493C20.0141 60.9455 19.7312 61.0613 19.4806 61.3329C18.6774 62.2025 17.8686 63.0683 17.0464 63.9189C16.7388 64.236 16.6173 64.5816 16.6211 65.0202C16.6363 66.9569 16.6401 68.8917 16.6192 70.8284C16.6154 71.3221 16.7692 71.6905 17.1186 72.036C18.6717 73.5721 20.2002 75.1329 21.7534 76.6708C22.2224 77.136 22.4141 77.6658 22.4084 78.3246C22.3876 80.7379 22.4009 83.1512 22.399 85.5645C22.399 88.0481 22.3971 90.5297 22.4009 93.0113C22.4009 93.3037 22.3534 93.6132 22.5907 93.8525C23.9255 95.1892 25.2566 96.5297 26.599 97.8607C26.8382 98.0999 27.0945 98.0829 27.0964 97.6955C27.1021 96.8183 27.2179 95.8974 26.3863 95.2537C26.0009 94.9556 25.811 94.536 25.8072 94.0632C25.7901 92.6525 25.7673 91.2398 25.811 89.831C25.8357 89.0259 26.3521 88.4905 27.1021 88.5227C27.8597 88.555 28.3249 88.1905 28.7996 87.6987C29.6654 86.7968 30.5388 85.8968 31.4616 85.0556C32.2382 84.3455 32.804 83.605 32.599 82.4696C32.5268 82.0727 32.6046 81.6512 32.5838 81.243C32.5496 80.5822 32.7888 80.0677 33.2635 79.6044C34.8736 78.0265 36.4496 76.4164 38.0616 74.8386C38.4471 74.4607 38.5591 74.0506 38.6293 73.5227C38.8724 71.7189 38.2173 70.4373 36.8939 69.1765Z" fill="#4A75CB"/>
<path d="M47.5081 26.525C47.6106 25.4371 47.2461 24.6434 46.4125 23.9845C46.0043 23.6617 45.6606 23.2592 45.2961 22.8833C44.9771 22.5567 44.6125 22.4067 44.1417 22.4086C41.2214 22.42 38.3011 22.4105 35.3828 22.4048C35.0752 22.4048 34.8018 22.4523 34.5815 22.6972C34.1714 23.1548 33.748 23.5991 33.3284 24.0472C33.2372 24.144 33.0891 24.2276 33.1385 24.3814C33.1992 24.5693 33.3891 24.5485 33.5448 24.5504C33.9758 24.5579 34.4106 24.5333 34.8416 24.5674C35.7492 24.6377 36.1954 25.1143 36.2144 26.0219C36.2277 26.7719 36.2163 27.5238 36.2182 28.2757C36.2182 28.9573 36.2144 29.6409 36.2201 30.3225C36.222 30.5921 36.1765 30.8693 36.3113 31.1276C36.9454 32.3409 37.6252 32.432 38.5879 31.5054C40.5853 29.5839 39.71 29.7548 42.4689 29.901C44.3429 29.9997 45.748 29.5155 46.8834 28.0231C47.2461 27.5466 47.453 27.1307 47.5081 26.525Z" fill="#4A75CB"/>
<path d="M108.86 59.0832C108.336 58.6104 107.838 58.1072 107.345 57.6021C106.642 56.8844 106.644 56.0794 107.35 55.373C109.249 53.4724 111.159 51.5832 113.058 49.6825C115.506 47.2351 117.942 44.7762 120.399 42.3382C120.748 41.9927 120.719 41.7762 120.389 41.4515C118.895 39.9819 117.416 38.499 115.94 37.0085C115.663 36.7294 115.361 36.604 114.97 36.6097C114.15 36.6249 113.328 36.6401 112.509 36.6021C111.467 36.5547 110.865 35.7952 111.087 34.8724C111.281 34.0768 112.739 32.8882 113.557 32.8806C114.626 32.8692 115.699 32.8901 116.768 32.8711C117.334 32.8597 117.775 33.0591 118.166 33.4597C118.91 34.2287 119.694 34.9616 120.429 35.7401C120.786 36.118 121.035 36.1673 121.424 35.7629C122.611 34.5344 123.822 33.3287 125.049 32.1401C125.449 31.7509 125.388 31.4832 125.024 31.1281C123.816 29.9528 122.62 28.7661 121.437 27.5661C121.075 27.1977 120.683 27.0515 120.165 27.0534C116.451 27.0724 112.737 27.0477 109.023 27.0762C108.239 27.0819 107.609 26.9034 107.088 26.2939C106.674 25.8097 106.177 25.3996 105.75 24.9287C105.431 24.5756 105.07 24.4635 104.603 24.4616C96.5618 24.4275 88.5207 24.3743 80.4777 24.3458C79.8131 24.342 79.1087 24.1313 78.4821 24.5547C77.7587 24.0002 77.3732 24.7123 76.9764 25.0408C76.2416 25.6464 75.5941 26.3604 74.9296 27.0477C74.5365 27.454 74.0789 27.6116 73.5207 27.6078C71.8574 27.5927 70.1941 27.6021 68.5308 27.6021C66.822 27.6021 65.1131 27.6097 63.4042 27.5964C62.9884 27.5927 62.677 27.7123 62.3808 28.0199C61.403 29.0376 60.3966 30.0287 59.3979 31.0237C56.9447 33.4673 54.4935 35.911 52.0365 38.349C51.784 38.5996 51.6568 38.818 51.8979 39.1711C52.7277 40.3977 53.5327 41.6395 54.3435 42.8775C54.6169 43.299 54.8979 43.3597 55.2682 42.9724C55.8682 42.3477 56.5042 41.7591 57.0985 41.1325C57.5011 40.7053 57.953 40.4945 58.5492 40.5135C59.4587 40.542 60.372 40.5477 61.2815 40.5116C61.9289 40.4851 62.415 40.7167 62.8555 41.1724C63.7232 42.0743 64.6821 42.8983 65.4872 43.8515C66.3549 44.8768 67.3365 45.3876 68.6884 45.1654C69.4631 45.0363 70.0973 45.3192 70.627 45.923C71.0808 46.4414 71.358 46.9673 71.0941 47.6547C70.8264 48.3458 70.2245 48.4806 69.5884 48.4977C68.7454 48.5205 67.8947 48.5737 67.0612 48.4882C65.8821 48.3667 64.965 48.7104 64.1618 49.5952C63.503 50.3205 62.7473 50.254 62.022 49.5534C61.4163 48.9667 60.8087 48.3838 60.2144 47.7857C59.9713 47.5427 59.7055 47.4382 59.3618 47.4401C57.5618 47.4477 55.7618 47.4477 53.9618 47.4382C53.6182 47.4363 53.3637 47.5464 53.1188 47.7933C51.3017 49.6161 49.4789 51.4332 47.6447 53.2408C47.3428 53.5389 47.2308 53.8654 47.2346 54.2775C47.2479 55.7813 47.2574 57.2851 47.2346 58.7889C47.227 59.2863 47.3941 59.6509 47.7435 59.9945C49.3004 61.5287 50.8498 63.0724 52.3802 64.6351C52.7903 65.0528 53.0694 65.011 53.4359 64.5933C53.9466 64.0142 54.4973 63.4673 55.0517 62.9281C55.5226 62.4705 56.077 62.2407 56.7321 62.5237C57.3606 62.7971 57.5675 63.3192 57.5428 63.9686C57.5372 64.1053 57.5618 64.2439 57.5391 64.3787C57.222 66.2737 57.8049 67.7889 59.4017 68.9091C59.9884 69.3211 60.1403 69.9496 60.1327 70.6578C60.1099 72.7768 60.1384 74.8958 60.1175 77.0148C60.1137 77.5104 60.2694 77.8711 60.6226 78.2167C62.1036 79.6654 63.5504 81.1483 65.0296 82.599C65.5346 83.0945 65.7929 83.6376 65.7587 84.3572C65.715 85.2439 65.7454 86.1344 65.7511 87.023C65.7511 87.2224 65.6884 87.4768 65.9068 87.5813C66.1726 87.7104 66.315 87.4464 66.465 87.2964C67.7599 86.0148 69.0416 84.718 70.3384 83.4382C70.6384 83.1439 70.758 82.8173 70.7485 82.4015C70.7315 81.5604 70.758 80.7154 70.7429 79.8743C70.7334 79.3123 70.9251 78.8661 71.3296 78.4749C72.0985 77.7306 72.8371 76.954 73.6042 76.2097C73.9232 75.9002 74.0618 75.5585 74.0542 75.1161C74.0353 74.1135 74.0561 73.111 74.0466 72.1085C74.0391 71.3186 74.284 70.6768 74.8764 70.1034C76.5492 68.4933 78.1726 66.8319 79.8131 65.1876C80.0011 64.9977 80.2631 64.8382 80.2669 64.5325C80.2821 63.1654 80.2992 61.7983 80.2802 60.4332C80.2745 59.9983 80.022 60.0002 79.7523 60.268C79.4941 60.5243 79.2511 60.7958 78.9966 61.0578C78.0928 61.992 77.3504 61.9939 76.4258 61.0692C74.9732 59.6205 73.5207 58.1737 72.0701 56.7249C71.2346 55.8876 70.3878 55.0578 69.577 54.1958C69.0017 53.5825 69.0169 52.7699 69.5485 52.2287C70.0612 51.7066 70.8947 51.7256 71.5175 52.28C71.6713 52.4167 71.8118 52.5667 71.958 52.711C73.5853 54.3382 75.222 55.9559 76.8321 57.6002C77.2061 57.9838 77.4188 57.9914 77.808 57.5927C79.4922 55.8648 81.2277 54.1863 82.9232 52.468C83.322 52.0635 83.753 51.8623 84.3112 51.868C85.291 51.8794 86.2707 51.8642 87.2504 51.8737C88.3403 51.887 88.8321 52.3806 88.8416 53.4724C88.8511 54.6116 88.8492 55.7509 88.8435 56.8901C88.8416 57.2186 88.8815 57.5129 89.1359 57.7635C90.222 58.8363 91.2948 59.9205 92.377 60.9971C92.5004 61.1186 92.6296 61.3085 92.8384 61.2135C93.0378 61.1243 93.0017 60.9059 93.0036 60.7275C93.0074 59.8161 93.0207 58.9047 93.0017 57.9933C92.9903 57.4332 93.165 56.9794 93.5713 56.5882C94.2758 55.9085 94.9536 55.2021 95.6523 54.5148C96.3929 53.7819 97.1049 53.761 97.8644 54.4787C98.5422 55.1205 99.1745 55.8116 99.8561 56.4496C100.306 56.873 100.485 57.3534 100.479 57.9667C100.458 59.9718 100.485 61.9768 100.462 63.9819C100.456 64.4964 100.587 64.9028 100.956 65.2635C102.224 66.5072 103.479 67.7642 104.743 69.0135C104.884 69.1521 105.021 69.3762 105.25 69.287C105.524 69.1825 105.437 68.8996 105.438 68.6851C105.446 67.318 105.48 65.949 105.429 64.5857C105.4 63.7806 105.691 63.1996 106.262 62.6661C107.161 61.8268 107.992 60.9173 108.888 60.0743C109.299 59.6889 109.245 59.4268 108.86 59.0832Z" fill="#4A75CB"/>
<path fill-rule="evenodd" clip-rule="evenodd" d="M12.9548 141.056C10.5152 137.088 2.56812 123.932 2.1035 120.242C1.52152 115.618 2.04369 109.648 2.04369 109.648L9.47763 105.223L11.3582 116.227L19.0207 140.277C20.5251 142.046 22.4136 144.31 22.6838 144.84C23.141 145.739 23.9875 150.189 23.9472 151.068C23.9067 151.947 21.2701 155.897 21.2701 155.897C19.6338 155.496 20.7025 153.456 20.7025 153.456C20.7025 153.456 19.237 154.696 18.6278 154.675C12.8902 154.479 13.1977 151.574 13.3332 151.21C13.638 150.393 15.1696 151.328 15.1696 151.328C15.1696 151.328 12.1695 145.241 12.9548 141.056ZM-39.0052 138.446L-37.4809 144.8C-37.4809 144.8 -37.3635 146.246 -37.4392 147.922C-37.5146 149.599 -37.6034 150.612 -36.8402 153.26C-36.3084 155.105 -38.8487 154.196 -39.4369 153.121C-40.0435 152.012 -39.772 147.885 -41.1655 148.5C-42.5588 149.115 -43.6023 153.153 -43.9459 157.062C-44.0001 157.677 -44.5302 158.105 -44.88 158.231C-45.4469 158.435 -45.8206 155.928 -45.8206 155.928C-45.8206 155.928 -46.2305 156.727 -47.0041 156.251C-47.2776 156.082 -47.8899 154.322 -47.8899 154.322C-47.8899 154.322 -48.4382 153.418 -48.6499 152.468C-49.0233 150.791 -49.0621 147.778 -48.801 146.934C-48.207 145.012 -47.0682 141.838 -45.9513 140.026C-45.996 134.981 -46.0788 115.153 -44.6672 111.494C-43.0472 107.295 -40.1151 101.664 -40.1151 101.664L-31.4189 107.479L-36.0832 115.032L-39.0052 138.446ZM-7.03756 77.7342C-7.03756 77.7342 -4.75442 79.3478 -3.04901 82.233C-0.71513 86.1802 -1.93522 89.5856 -5.52577 89.5913C-9.37059 89.5978 -13.7824 88.2893 -15.6423 82.4666C-16.5831 79.5213 -17.4718 77.1953 -17.4718 77.1953L-7.03756 77.7342Z" fill="#ED4848"/>
</g>
</svg>
