<svg width="121" height="120" viewBox="0 0 121 120" fill="none" xmlns="http://www.w3.org/2000/svg">
<mask id="mask0_64_1595" style="mask-type:luminance" maskUnits="userSpaceOnUse" x="35" y="10" width="26" height="79">
<path d="M60.3289 10.3865H35.1578V88.64H60.3289V10.3865Z" fill="white"/>
</mask>
<g mask="url(#mask0_64_1595)">
<path d="M45.955 52.2681C44.1859 52.8642 41.2631 54.1525 39.0132 56.9696C36.7057 59.8444 36.2058 62.9499 35.8789 65.5843C34.8212 74.1702 35.1001 82.6215 35.5423 88.5248C36.475 88.5633 37.4076 88.6018 38.3402 88.6402C38.494 84.8328 38.994 81.7081 39.4555 79.4582C40.3689 75.0067 41.2438 70.9781 44.2724 67.0361C45.2531 65.7574 46.1954 64.8248 46.8492 64.2383" fill="#587EBE"/>
<path d="M45.9935 42.6918C43.3206 58.1618 46.3589 70.6512 48.301 76.8142C52.3103 76.8142 56.3196 76.8142 60.3385 76.8142V25.6259H51.195C49.051 30.4428 47.128 36.1443 45.9935 42.6918Z" fill="#F0EDED"/>
<path d="M51.1854 25.6258H60.3289V10.3866C57.9541 13.4248 54.3293 18.5783 51.1854 25.6258Z" fill="#587EBE"/>
</g>
<mask id="mask1_64_1595" style="mask-type:luminance" maskUnits="userSpaceOnUse" x="60" y="10" width="26" height="79">
<path d="M85.5001 10.3865H60.329V88.64H85.5001V10.3865Z" fill="white"/>
</mask>
<g mask="url(#mask1_64_1595)">
<path d="M74.7029 52.2681C76.472 52.8642 79.3949 54.1525 81.6447 56.9696C83.9522 59.8444 84.4522 62.9499 84.7791 65.5843C85.8367 74.1702 85.5578 82.6215 85.1156 88.5248C84.1829 88.5633 83.2503 88.6018 82.3177 88.6402C82.1639 84.8328 81.6639 81.7081 81.2024 79.4582C80.289 75.0067 79.4141 70.9781 76.3855 67.0361C75.4048 65.7574 74.4626 64.8248 73.8088 64.2383" fill="#587EBE"/>
<path d="M74.674 42.6917C77.3469 58.1617 74.3087 70.6511 72.3665 76.814C68.3572 76.814 64.3479 76.814 60.329 76.814V25.6257H69.4725C71.6166 30.4427 73.5395 36.1441 74.674 42.6917Z" fill="#D2CCCC"/>
<path d="M69.4725 25.6257H60.329V10.3865C62.7038 13.4247 66.3285 18.5781 69.4725 25.6257Z" fill="#587EBE"/>
</g>
<path d="M60.5 45C64.366 45 67.5 41.866 67.5 38C67.5 34.134 64.366 31 60.5 31C56.634 31 53.5 34.134 53.5 38C53.5 41.866 56.634 45 60.5 45Z" fill="#172B48"/>
<path d="M75.5 86H45.5L48.7177 77H72.2823L75.5 86Z" fill="#172B48"/>
<path d="M48.5022 86.2551C48.474 89.2598 48.7089 93.1528 49.7425 97.5748C50.87 102.431 52.5801 106.334 54.0741 109.14C55.6151 106.608 57.5883 102.772 58.7722 97.8205C60.238 91.7071 59.8716 86.5102 60.2568 86.5008C60.6326 86.5008 60.5575 91.6126 61.8635 97.5654C63.0475 102.961 64.9549 107.194 66.4395 110C67.9992 106.787 69.6905 102.611 70.8933 97.5654C71.9362 93.1811 72.3685 89.2409 72.5 86C64.5039 86.085 56.5077 86.1701 48.5022 86.2457V86.2551Z" fill="#EADC00"/>
<path d="M60.5 43C63.2614 43 65.5 40.7614 65.5 38C65.5 35.2386 63.2614 33 60.5 33C57.7386 33 55.5 35.2386 55.5 38C55.5 40.7614 57.7386 43 60.5 43Z" fill="#BBD3F0"/>
<path d="M61.5 52H58.5V88H61.5V52Z" fill="#587EBE"/>
</svg>
