<svg width="76" height="32" viewBox="0 0 76 32" fill="none" xmlns="http://www.w3.org/2000/svg">
<path fill-rule="evenodd" clip-rule="evenodd" d="M26.0874 0.152396C25.1043 0.470206 25.0478 0.520343 20.0767 5.48214L15.2558 10.294L10.558 5.60383C6.5986 1.65086 5.80855 0.898796 5.53193 0.818871C5.31004 0.754784 4.5236 0.732711 3.10498 0.750682L1.00627 0.777186L0.67656 0.995543C0.0665417 1.39951 0.0340479 1.55025 0.0340479 3.97744C0.0340479 5.15087 0.0639988 6.22173 0.100515 6.35712C0.14737 6.53035 1.56435 8.00239 4.88006 11.3222L9.59314 16.0412L4.95186 20.6768C2.3992 23.2264 0.248547 25.4233 0.172643 25.5587C0.057434 25.7642 0.030109 26.1095 0.00680458 27.6498C-0.00854025 28.6647 0.00294882 29.6874 0.0324076 29.9228C0.0940331 30.4163 0.330031 30.8089 0.725139 31.0751C0.996259 31.2578 1.04796 31.2617 3.24112 31.2617C4.59737 31.2617 5.57132 31.2279 5.71122 31.1759C5.83907 31.1284 8.02206 29.012 10.5983 26.438L15.2544 21.7859L19.994 26.5156C24.1249 30.638 24.7993 31.2779 25.2458 31.5005C27.0016 32.3756 28.9186 32.0844 30.1487 30.7558C31.3414 29.4675 31.5774 27.7328 30.7733 26.1654C30.5068 25.6462 30.0067 25.1133 25.7262 20.7882L20.975 15.9873L25.773 11.1722C30.1373 6.79236 30.5938 6.30896 30.8237 5.82375C31.402 4.60281 31.4001 3.41428 30.8179 2.21394C30.5105 1.58004 29.7582 0.789742 29.1585 0.470701C28.2651 -0.00449643 26.9836 -0.13735 26.0874 0.152396ZM28.3643 1.16278C28.9745 1.38868 29.6312 2.01618 29.9627 2.6902C30.212 3.19699 30.2314 3.29571 30.2314 4.05827C30.2314 4.79655 30.208 4.92595 30.0014 5.3314C29.8161 5.69483 28.7775 6.77743 24.6685 10.8902L19.5656 15.9977L24.7012 21.1474C28.7633 25.2208 29.8777 26.3829 30.0326 26.7075C30.2001 27.0584 30.2287 27.2424 30.2299 27.9794C30.2312 28.7434 30.2066 28.8939 30.0123 29.3084C29.7452 29.8781 29.2042 30.435 28.6179 30.7438C28.2145 30.9562 28.1084 30.9745 27.2756 30.9745C25.7115 30.9745 26.0326 31.2234 20.5704 25.7769L15.9148 21.1348L17.3063 19.7288C18.5526 18.4695 18.73 18.2552 19.0057 17.6747C19.2816 17.0937 19.3168 16.9447 19.3451 16.2368C19.3788 15.3988 19.2628 14.8152 18.9314 14.1551C18.8402 13.9733 18.1237 13.1772 17.3395 12.3862L15.9135 10.9479L20.6928 6.18324C23.9258 2.96009 25.5782 1.36923 25.8002 1.26601C26.6155 0.887144 27.5213 0.85071 28.3643 1.16278ZM9.95986 6.3129L14.5513 10.9049L13.1181 12.3647C12.2238 13.2755 11.6013 13.981 11.4627 14.2408C11.0168 15.076 10.8827 16.0464 11.1005 16.8605C11.3367 17.7436 11.6068 18.1162 13.1094 19.6315L14.5552 21.0894L9.9409 25.7038L5.32662 30.318H3.26861C1.32613 30.318 1.20411 30.3091 1.09415 30.1588C1.0011 30.0314 0.977714 29.5954 0.977714 27.9858V25.9721L5.96216 20.9852L10.9466 15.9983L5.96216 11.0133L0.977714 6.0284V4.02471C0.977714 2.2754 0.994946 2.0019 1.11352 1.87094C1.23825 1.73316 1.41779 1.72085 3.30881 1.72085H5.36839L9.95986 6.3129ZM37.9038 2.29526V2.62349H38.6423H39.3808V4.757V6.8905H38.6423H37.9038V7.21873V7.54696H39.7911H41.6784V7.21873V6.8905H40.9399H40.2014V4.757V2.62349H40.9399H41.6784V2.29526V1.96703H39.7911H37.9038V2.29526ZM47.6413 2.02176C47.6112 2.05179 47.5866 3.30728 47.5866 4.81173V7.54696L48.5508 7.54647C49.6639 7.54598 49.9692 7.47869 50.5124 7.11395C51.7902 6.25595 51.8467 3.56707 50.6091 2.50779C50.1346 2.1016 49.6271 1.96703 48.5701 1.96703C48.0894 1.96703 47.6714 1.99164 47.6413 2.02176ZM52.9626 4.65073C52.5196 6.13081 52.1403 7.38802 52.1197 7.44439C52.0929 7.51767 52.1982 7.54696 52.4883 7.54696C52.9437 7.54696 52.8633 7.66857 53.2086 6.45699L53.3439 5.98245L54.2163 6.00567L55.0887 6.02889L55.2998 6.76741L55.5109 7.50594L55.9054 7.53129C56.3827 7.5619 56.4391 7.92123 55.4384 4.55185L54.683 2.00805L54.2253 1.98385L53.7678 1.95964L52.9626 4.65073ZM49.8759 2.93039C50.4103 3.26083 50.6554 3.77608 50.6925 4.64712C50.7549 6.11259 50.0992 6.88853 48.797 6.89001L48.4072 6.8905V4.7451V2.59977L48.9572 2.65114C49.3518 2.68798 49.6113 2.76684 49.8759 2.93039ZM54.5445 3.99796C54.693 4.52822 54.8357 5.04526 54.8616 5.14677C54.9077 5.32697 54.8929 5.3314 54.2429 5.3314C53.8765 5.3314 53.5759 5.30375 53.5746 5.26986C53.5698 5.13627 54.1841 3.03378 54.228 3.03378C54.2537 3.03378 54.3962 3.4677 54.5445 3.99796ZM42.7452 3.58053C42.7452 3.6104 43.0616 4.05614 43.4483 4.57105L44.1515 5.50717L43.4643 6.42449C43.0863 6.92898 42.7492 7.38802 42.7152 7.44439C42.669 7.52103 42.7573 7.54696 43.0643 7.54696H43.4753L44.0319 6.81878L44.5885 6.09052L45.1233 6.81575L45.6582 7.54097L46.0891 7.54393C46.326 7.54565 46.5199 7.52702 46.5199 7.50257C46.5199 7.4782 46.1855 7.01539 45.7768 6.47422L45.0337 5.49018L45.7358 4.56482C46.1219 4.05581 46.4378 3.61393 46.4378 3.58275C46.4378 3.55165 46.2565 3.52613 46.0349 3.52613H45.6319L45.119 4.21862L44.6061 4.91118L44.0838 4.21862L43.5614 3.52613H43.1533C42.9288 3.52613 42.7452 3.55058 42.7452 3.58053ZM39.0163 9.88496C38.3638 10.1174 37.9858 10.5922 37.9858 11.1794C37.9858 11.9215 38.3581 12.3176 39.65 12.9502C40.1285 13.1844 40.5961 13.4728 40.689 13.5909C41.0099 13.9988 40.8415 14.5163 40.3164 14.7357C39.5618 15.051 38.7125 14.6803 38.6285 13.9991C38.6135 13.8777 38.5736 13.7794 38.5397 13.7808C38.5058 13.7822 38.3489 13.7834 38.191 13.7834C37.9136 13.7834 37.9038 13.794 37.9038 14.0924C37.9038 14.8452 38.5696 15.418 39.5229 15.4856C40.9428 15.586 41.8565 14.7992 41.6427 13.6599C41.5513 13.1722 41.1278 12.7962 40.0868 12.2783C39.0732 11.774 38.8064 11.5326 38.8064 11.1197C38.8064 10.738 39.109 10.4873 39.6298 10.4373C40.2744 10.3753 40.6937 10.7052 40.6937 11.2744C40.6937 11.4629 40.7178 11.4775 40.9604 11.4355C41.3968 11.3602 41.4323 11.3362 41.4323 11.1164C41.4323 10.1235 40.1629 9.47647 39.0163 9.88496ZM55.218 10.8268V11.8091L54.9225 11.6085C54.5671 11.3673 54.1768 11.2837 53.7615 11.3596C52.8226 11.5313 52.312 12.2542 52.3147 13.4075C52.3172 14.4129 52.638 15.0531 53.2896 15.3522C53.8857 15.626 54.5881 15.5013 55.0744 15.0356L55.3001 14.8194V15.122C55.3001 15.4203 55.3047 15.4245 55.6283 15.4245H55.9565V12.6346V9.84459H55.5873H55.218V10.8268ZM43.6478 10.8293V11.4037H43.1098H42.5716L42.5969 11.7524L42.6221 12.1012L43.135 12.1256L43.6478 12.15V13.3186C43.6478 14.369 43.6665 14.5235 43.8325 14.8472C44.0702 15.3108 44.4348 15.5066 45.0604 15.5066C45.8992 15.5066 46.4205 15.1738 46.555 14.5526C46.6133 14.2831 46.4574 14.0295 46.2335 14.0295C46.1728 14.0295 46.0646 14.0071 45.9932 13.9797C45.8899 13.9401 45.8634 13.9892 45.8634 14.2199C45.8634 14.7937 45.1286 15.0571 44.6576 14.6522C44.4286 14.4553 44.4272 14.4481 44.399 13.2982L44.3706 12.1422H45.4042H46.4378V11.7729V11.4037H45.4121H44.3863V10.8293V10.2549H44.0171H43.6478V10.8293ZM67.6908 10.8293V11.4037H67.1527H66.6146L66.6399 11.7524L66.6651 12.1012L67.1779 12.1256L67.6908 12.15L67.6926 13.3155C67.6947 14.722 67.8044 15.0655 68.3378 15.3376C68.987 15.6688 70.1142 15.4815 70.4371 14.9888C70.5104 14.877 70.5914 14.6559 70.6171 14.4975C70.6674 14.187 70.5906 14.1079 70.132 13.9983C69.9191 13.9474 69.9064 13.9603 69.9064 14.2271C69.9064 14.7924 69.168 15.0541 68.7026 14.6538C68.4763 14.4592 68.474 14.4471 68.4425 13.2998L68.4107 12.1422H69.4458H70.4808V11.7729V11.4037H69.455H68.4293V10.8293V10.2549H68.0601H67.6908V10.8293ZM58.5413 11.3936C57.557 11.6524 57.0244 12.5144 57.1327 13.6737C57.2484 14.9125 58.0492 15.5785 59.3142 15.488C60.2235 15.423 60.7968 15.0133 60.7976 14.4281C60.7979 14.1916 60.6718 14.1116 60.2989 14.1116C60.1 14.1116 60.0594 14.1454 60.0594 14.3108C60.0594 14.7882 59.1751 15.0223 58.5291 14.7157C58.2363 14.5768 57.9259 14.0987 57.9259 13.7866C57.9259 13.6246 57.9713 13.6193 59.3604 13.6193H60.7948L60.848 13.4072C60.9387 13.046 60.8148 12.3809 60.595 12.0488C60.4809 11.8763 60.2403 11.66 60.0603 11.5683C59.6973 11.3831 58.9209 11.2937 58.5413 11.3936ZM63.7473 11.3994C63.4431 11.4917 63.1628 11.6464 62.952 11.8385L62.7673 12.0067V11.7005V11.3943L62.4186 11.4195L62.0698 11.4447L62.0478 13.4346L62.0258 15.4245H62.4376H62.8494V14.0381V12.6515L63.1352 12.4006C63.5321 12.0521 63.9929 11.922 64.3323 12.0625C64.7496 12.2354 64.8188 12.5206 64.8188 14.0679V15.4245H65.2291H65.6394V14.1566C65.6394 13.4593 65.5987 12.6995 65.5491 12.468C65.3632 11.6014 64.591 11.1434 63.7473 11.3994ZM47.683 13.0243C47.7132 14.8577 47.7694 15.0562 48.3424 15.3503C48.8926 15.6328 49.8615 15.4801 50.2125 15.0554C50.3284 14.9151 50.3379 14.9204 50.377 15.145C50.4142 15.359 50.4541 15.3861 50.7668 15.4087L51.1151 15.434V13.4188V11.4037H50.7458H50.3766V12.7513C50.3766 14.0855 50.3744 14.1016 50.1617 14.3544C49.7528 14.8404 49.104 15.001 48.7404 14.7065C48.4822 14.4973 48.4114 14.0588 48.4092 12.6551L48.4072 11.4037H48.0318H47.6564L47.683 13.0243ZM16.6243 12.9833C17.3485 13.7167 18.0156 14.4644 18.1068 14.645C18.3582 15.1429 18.4856 15.8321 18.4213 16.3465C18.3133 17.211 18.0208 17.642 16.5529 19.0996L15.207 20.436L13.8112 19.0175C12.1152 17.294 12.014 17.1239 12.0156 15.9989C12.0165 15.3411 12.0468 15.1618 12.2096 14.8501C12.378 14.5281 15.1197 11.6499 15.258 11.6499C15.2853 11.6499 15.9 12.2499 16.6243 12.9833ZM54.5357 12.0654C54.6627 12.1134 54.8682 12.2495 54.9923 12.3679C55.2072 12.5729 55.218 12.62 55.218 13.3553C55.218 13.9932 55.1898 14.1669 55.0555 14.3555C54.6979 14.8577 53.9312 14.9996 53.5065 14.6423C53.1789 14.3666 53.06 13.9711 53.0987 13.2862C53.1351 12.642 53.297 12.3512 53.7468 12.1219C54.0731 11.9554 54.2174 11.9451 54.5357 12.0654ZM59.6053 12.0947C59.8924 12.2147 60.1415 12.5779 60.1415 12.8766C60.1415 13.0379 60.0957 13.0448 59.0337 13.0448C58.4244 13.0448 57.9259 13.0252 57.9259 13.0012C57.9259 12.8561 58.1806 12.4026 58.3461 12.253C58.6627 11.9668 59.1521 11.9054 59.6053 12.0947ZM54.1512 17.459C53.8994 17.5375 53.741 17.7528 53.741 18.0162C53.741 18.4964 54.1866 18.7525 54.5509 18.4818C55.0423 18.1165 54.7165 17.2827 54.1512 17.459ZM37.9858 20.52V23.3178L39.1141 23.2873C40.0793 23.2612 40.2915 23.2309 40.5816 23.0775C41.3038 22.6958 41.7031 22.0704 41.8395 21.1074C41.9979 19.9906 41.6806 18.8573 41.0557 18.3072C40.5483 17.8607 40.0428 17.7221 38.9201 17.7221H37.9858V20.52ZM40.0965 18.5731C40.385 18.7237 40.7131 19.0755 40.91 19.4454C41.1272 19.853 41.1257 21.2462 40.9076 21.6609C40.5589 22.324 40.1935 22.5531 39.3747 22.6218L38.8064 22.6694V20.5121V18.3549L39.3375 18.4045C39.6295 18.4318 39.9711 18.5076 40.0965 18.5731ZM60.203 19C60.0789 19.0673 59.9774 19.1773 59.9774 19.2444C59.9774 19.3381 59.925 19.3518 59.7517 19.3033C59.6275 19.2686 59.286 19.2424 58.9927 19.2451C58.0761 19.2533 57.4563 19.7214 57.372 20.4689C57.326 20.8774 57.456 21.3354 57.6742 21.5328C57.8221 21.6667 57.8209 21.6764 57.6334 21.8639C57.3668 22.1305 57.2964 22.4621 57.4495 22.729C57.5648 22.93 57.5602 22.9599 57.3803 23.169C57.2508 23.3196 57.1874 23.496 57.1874 23.7059C57.1874 24.3852 57.8174 24.7373 59.0337 24.7378C59.9079 24.7382 60.4692 24.5938 60.8019 24.2831C61.0061 24.0923 61.0441 23.994 61.0441 23.6567C61.0441 22.8257 60.5834 22.568 59.0927 22.5654C58.0155 22.5634 57.8961 22.5156 58.0852 22.1624C58.1677 22.0081 58.2271 21.9985 58.8185 22.0441C59.3924 22.0884 59.5107 22.0715 59.9116 21.888C60.6976 21.5281 60.9839 20.6927 60.5647 19.9822C60.3511 19.6203 60.437 19.4134 60.7663 19.4961C60.9447 19.5409 60.9621 19.5197 60.9621 19.2579C60.9621 18.8573 60.6571 18.7536 60.203 19ZM44.004 19.3169C43.139 19.5875 42.7473 20.2041 42.746 21.2975C42.7453 21.8582 42.7798 22.028 42.9709 22.4052C43.3329 23.1198 43.9808 23.4379 44.9221 23.3631C45.8037 23.2932 46.4062 22.8207 46.3401 22.2513C46.3189 22.0681 46.2642 22.024 46.007 21.9825C45.7477 21.9407 45.6993 21.956 45.6993 22.0796C45.6993 22.1602 45.6125 22.327 45.5065 22.4503C45.3454 22.6376 45.2343 22.6795 44.8295 22.7055C44.1172 22.7514 43.6464 22.4129 43.516 21.7611L43.4639 21.5007L44.9304 21.4783L46.3968 21.4558L46.4234 21.0455C46.4789 20.1874 46.074 19.5387 45.3484 19.3232C44.8488 19.1748 44.4641 19.173 44.004 19.3169ZM48.7385 19.2955C48.0389 19.4962 47.6774 20.017 47.8339 20.5983C47.9459 21.0143 48.2624 21.2218 49.3392 21.585C50.231 21.8858 50.4636 22.0836 50.2953 22.3979C50.1742 22.6242 49.8879 22.7277 49.3824 22.7277C48.7458 22.7277 48.4072 22.4974 48.4072 22.0645C48.4072 21.9453 48.3491 21.9071 48.1677 21.9071C47.7834 21.9071 47.6687 21.9855 47.6687 22.2482C47.6687 22.6239 47.8859 22.955 48.2653 23.1574C48.7463 23.4141 50.0057 23.4262 50.4986 23.179C51.1291 22.8627 51.361 22.2179 51.0359 21.6847C50.8446 21.3708 50.5006 21.1874 49.5299 20.8815C49.0394 20.7269 48.7678 20.5947 48.6869 20.4713C48.4508 20.1109 48.7557 19.8545 49.4177 19.8569C49.8857 19.8585 50.1508 20.0102 50.2421 20.3286C50.3083 20.5594 50.3539 20.5942 50.5907 20.5942C50.9562 20.5942 51.0804 20.3726 50.9232 20.0011C50.8606 19.8534 50.733 19.6645 50.6395 19.5812C50.2556 19.2393 49.3885 19.109 48.7385 19.2955ZM63.7473 19.277C63.4431 19.3693 63.1628 19.524 62.952 19.7161L62.7673 19.8843V19.5781V19.2718L62.4186 19.2971L62.0698 19.3223L62.0478 21.3122L62.0258 23.3021H62.4376H62.8494V21.9156V20.5291L63.1352 20.2782C63.5321 19.9297 63.9929 19.7996 64.3323 19.9401C64.7496 20.113 64.8188 20.3981 64.8188 21.9455V23.3021H65.2291H65.6394V22.0342C65.6394 21.3369 65.5987 20.577 65.5491 20.3455C65.3632 19.4789 64.591 19.021 63.7473 19.277ZM52.2639 19.6505V20.0198H53.0845H53.9051V21.3327V22.6456H53.0435H52.1819V22.9739V23.3021H54.1923H56.2027V22.9739V22.6456H55.4231H54.6436V20.9634V19.2812H53.4538H52.2639V19.6505ZM45.148 19.966C45.4899 20.109 45.6142 20.2656 45.6729 20.6279L45.7208 20.9224H44.5967H43.4726L43.526 20.7378C43.6149 20.4299 43.8494 20.1507 44.146 19.9994C44.4833 19.8273 44.7917 19.8171 45.148 19.966ZM59.5687 19.9796C59.864 20.1323 59.9774 20.3334 59.9774 20.7045C59.9774 21.1417 59.6097 21.4148 59.0211 21.4148C58.6317 21.4148 58.5368 21.3818 58.3299 21.1749C58.0394 20.8844 58.0163 20.5458 58.2655 20.2292C58.5639 19.8497 59.1139 19.7445 59.5687 19.9796ZM60.269 23.3891C60.3867 23.519 60.3967 23.5862 60.3227 23.7488C60.2073 24.002 59.794 24.1217 59.0337 24.1221C58.1129 24.1226 57.6582 23.8032 57.9484 23.3596C58.0613 23.187 58.1119 23.1801 59.0954 23.2041C59.992 23.2259 60.1429 23.2497 60.269 23.3891ZM39.2446 25.6354C38.505 25.8667 38.0915 26.3738 37.8675 27.3241C37.542 28.7052 37.8594 30.2185 38.6031 30.8315C39.4549 31.5336 40.9736 31.355 41.4653 30.4947C41.683 30.1139 41.7955 29.614 41.7183 29.3708C41.6784 29.2449 41.5928 29.2103 41.3211 29.2103C40.9748 29.2103 40.9748 29.2103 40.9619 29.5338C40.9354 30.1978 40.5303 30.6052 39.8965 30.6052C39.4222 30.6052 39.0432 30.3602 38.8064 29.9003C38.6174 29.5331 38.6013 29.4149 38.6013 28.3919C38.6013 27.4019 38.621 27.245 38.7836 26.9409C39.1379 26.2783 39.7639 26.0247 40.339 26.3107C40.7561 26.5179 40.9384 26.7979 40.9586 27.2616L40.9756 27.6512H41.3213C41.72 27.6512 41.7694 27.5436 41.6591 26.9154C41.4734 25.8581 40.3822 25.2796 39.2446 25.6354ZM42.8273 28.3897V31.1796H43.1965H43.5658V29.8588C43.5658 28.3464 43.6126 28.2123 44.2487 27.9044C44.7309 27.6709 44.9891 27.6875 45.3082 27.9725L45.5762 28.2117L45.6019 29.6957L45.6276 31.1796H46.0327H46.4378V29.8406C46.4378 27.8849 46.235 27.3825 45.3505 27.1467C44.855 27.0145 44.3159 27.1417 43.8735 27.4952L43.5658 27.7409V26.6703V25.5997H43.1965H42.8273V28.3897ZM62.908 26.0609C62.8757 26.093 62.8494 26.3532 62.8494 26.6391V27.1588H62.357H61.8647V27.5281V27.8973H62.357H62.8494L62.8499 28.9436C62.8501 29.519 62.8906 30.1375 62.9397 30.318C63.1059 30.9275 63.5854 31.2617 64.2938 31.2617C65.1688 31.2617 65.7089 30.8956 65.7812 30.2535C65.8191 29.9174 65.8063 29.8852 65.6153 29.8373C65.5016 29.8087 65.3546 29.7647 65.2889 29.7395C65.2012 29.7058 65.1557 29.7792 65.1179 30.0157C65.0539 30.4157 64.9183 30.5321 64.4557 30.5842C64.145 30.6193 64.0623 30.5947 63.8813 30.4138C63.6743 30.2067 63.67 30.1789 63.67 29.0498V27.8973H64.6547H65.6394V27.5281V27.1588H64.6584H63.6774L63.6532 26.6049L63.6289 26.051L63.2977 26.0267C63.1156 26.0133 62.9401 26.0286 62.908 26.0609ZM67.6908 26.5844V27.1588H67.1527H66.6146L66.6399 27.5076L66.6651 27.8563L67.1779 27.8807L67.6908 27.9051L67.6926 29.0706C67.6947 30.4771 67.8044 30.8206 68.3378 31.0927C68.987 31.4239 70.1142 31.2366 70.4371 30.7439C70.5104 30.6321 70.5914 30.411 70.6171 30.2526C70.6674 29.9421 70.5906 29.863 70.132 29.7534C69.9191 29.7025 69.9064 29.7154 69.9064 29.9823C69.9064 30.5476 69.168 30.8092 68.7026 30.4089C68.4763 30.2143 68.474 30.2023 68.4425 29.0549L68.4107 27.8973H69.4458H70.4808V27.5281V27.1588H69.455H68.4293V26.5844V26.01H68.0601H67.6908V26.5844ZM48.5454 27.1956C47.979 27.3976 47.6389 27.8688 47.7269 28.3294C47.7826 28.6207 47.8613 28.6642 48.2129 28.5982C48.4777 28.5485 48.4962 28.5261 48.4493 28.3123C48.3783 27.9892 48.7068 27.7332 49.1925 27.7332C49.9295 27.7332 50.2125 28.05 50.2125 28.8754V29.2843L49.8637 29.126C49.3992 28.9151 48.6446 28.9158 48.178 29.1275C47.57 29.4035 47.3553 30.1739 47.7241 30.7557C48.0804 31.3174 49.4579 31.4281 50.0569 30.9431C50.2398 30.795 50.2457 30.7963 50.44 31.0272C50.7897 31.4428 51.4433 31.309 51.4433 30.8217C51.4433 30.5682 51.4282 30.5539 51.1972 30.5878L50.951 30.6239L50.9505 29.5272C50.9502 28.9242 50.9092 28.2834 50.8592 28.1035C50.6347 27.2949 49.5073 26.8526 48.5454 27.1956ZM54.9718 27.136C54.6702 27.2493 54.3661 27.5382 54.2221 27.8482L54.0659 28.1845L54.1192 27.6717L54.1724 27.1588H53.2182H52.2639V27.5281V27.8973H52.8383H53.4127V29.2103V30.5232H52.7973H52.1819V30.8514V31.1796H54.1923H56.2027V30.8514V30.5232H55.2091H54.2156L54.2486 29.6C54.2838 28.6154 54.4567 28.0852 54.8026 27.9C55.261 27.6548 55.7173 27.9806 55.5461 28.431C55.4446 28.6981 55.4462 28.7007 55.7853 28.7979C56.0256 28.8668 56.0594 28.8518 56.2064 28.6107C56.5202 28.0961 56.337 27.405 55.8306 27.1934C55.5478 27.0752 55.1961 27.0517 54.9718 27.136ZM58.5282 27.1505C57.572 27.3961 57.0044 28.3641 57.1521 29.4975C57.255 30.2868 57.5304 30.7216 58.1311 31.043C58.6096 31.2991 59.7117 31.2944 60.2013 31.0342C60.5676 30.8396 60.7979 30.5032 60.7979 30.1629C60.7979 29.9191 60.7614 29.8916 60.3876 29.8543C60.1295 29.8286 60.0979 29.8476 60.0753 30.0428C60.0313 30.4233 59.7825 30.5642 59.1548 30.5642C58.6716 30.5642 58.5658 30.5363 58.3761 30.3591C58.1134 30.1136 57.9259 29.7736 57.9259 29.5426C57.9259 29.3795 57.9691 29.3744 59.3531 29.3744C60.952 29.3744 60.88 29.4038 60.88 28.7496C60.88 28.355 60.7117 27.8733 60.4871 27.6249C60.1203 27.2193 59.163 26.9875 58.5282 27.1505ZM72.942 27.1485C71.9755 27.4656 71.5963 28.0332 71.5916 29.1692C71.589 29.7817 71.6201 29.9667 71.7731 30.2531C72.0303 30.7343 72.3412 30.9994 72.8138 31.1407C73.925 31.4729 75.0841 31.0426 75.2127 30.2503C75.2647 29.9294 75.2532 29.9187 74.7683 29.8349C74.5196 29.7919 74.5016 29.8044 74.5016 30.0202C74.5016 30.3425 74.2471 30.5402 73.7735 30.5857C73.0174 30.6583 72.5186 30.329 72.3671 29.6571L72.3042 29.3781L73.7516 29.3557L75.1991 29.3333L75.2763 29.0206C75.4335 28.3846 75.0735 27.6146 74.4766 27.3102C74.1094 27.1229 73.2849 27.036 72.942 27.1485ZM59.6137 27.8533C59.8091 27.935 59.9397 28.0655 60.0213 28.261C60.2495 28.8071 60.2628 28.8 59.0249 28.8C58.0405 28.8 57.9143 28.7846 57.9582 28.6702C57.9856 28.5988 58.008 28.5093 58.008 28.4713C58.008 28.3509 58.4389 27.8846 58.6167 27.8127C58.8833 27.7049 59.2989 27.7218 59.6137 27.8533ZM74.0559 27.8533C74.2513 27.935 74.3819 28.0655 74.4635 28.261C74.6916 28.8068 74.704 28.8 73.4759 28.8C72.2592 28.8 72.2572 28.799 72.518 28.3127C72.7954 27.7956 73.4498 27.6001 74.0559 27.8533ZM49.8637 29.7004C50.3172 29.9062 50.3443 30.1821 49.9359 30.4346C49.1129 30.9432 47.9643 30.5409 48.3235 29.8698C48.5134 29.515 49.2716 29.4316 49.8637 29.7004Z" fill="black"/>
</svg>
